0
SECTION
2
HEADER
9
$INSUNITS
70
4
9
$ACADVER
1
AC1014
9
$HANDSEED
5
FFFF
0
ENDSEC
0
SECTION
2
TABLES
0
TABLE
2
VPORT
5
8
100
AcDbSymbolTable
0
ENDTAB
0
TABLE
2
LTYPE
5
5
100
AcDbSymbolTable
0
LTYPE
5
14
100
AcDbSymbolTableRecord
100
AcDbLinetypeTableRecord
2
BYBLOCK
70
0
0
LTYPE
5
15
100
AcDbSymbolTableRecord
100
AcDbLinetypeTableRecord
2
BYLAYER
70
0
0
ENDTAB
0
TABLE
2
LAYER
5
2
100
AcDbSymbolTable
70
2
0
LAYER
5
50
100
AcDbSymbolTableRecord
100
AcDbLayerTableRecord
2
0
70
0
6
CONTINUOUS
0
ENDTAB
0
TABLE
2
STYLE
5
3
100
AcDbSymbolTable
70
1
0
STYLE
5
11
100
AcDbSymbolTableRecord
100
AcDbTextStyleTableRecord
2
STANDARD
70
0
0
ENDTAB
0
TABLE
2
VIEW
5
6
100
AcDbSymbolTable
70
0
0
ENDTAB
0
TABLE
2
UCS
5
7
100
AcDbSymbolTable
70
0
0
ENDTAB
0
TABLE
2
APPID
5
9
100
AcDbSymbolTable
70
2
0
APPID
5
12
100
AcDbSymbolTableRecord
100
AcDbRegAppTableRecord
2
ACAD
70
0
0
ENDTAB
0
TABLE
2
DIMSTYLE
5
A
100
AcDbSymbolTable
70
1
0
ENDTAB
0
TABLE
2
BLOCK_RECORD
5
1
100
AcDbSymbolTable
70
1
0
BLOCK_RECORD
5
1F
100
AcDbSymbolTableRecord
100
AcDbBlockTableRecord
2
*MODEL_SPACE
0
BLOCK_RECORD
5
1B
100
AcDbSymbolTableRecord
100
AcDbBlockTableRecord
2
*PAPER_SPACE
0
ENDTAB
0
ENDSEC
0
SECTION
2
BLOCKS
0
BLOCK
5
20
100
AcDbEntity
100
AcDbBlockBegin
2
*MODEL_SPACE
0
ENDBLK
5
21
100
AcDbEntity
100
AcDbBlockEnd
0
BLOCK
5
1C
100
AcDbEntity
100
AcDbBlockBegin
2
*PAPER_SPACE
0
ENDBLK
5
1D
100
AcDbEntity
100
AcDbBlockEnd
0
ENDSEC
0
SECTION
2
ENTITIES
0
LWPOLYLINE
5
100
100
AcDbEntity
8
0
100
AcDbPolyline
90
38
70
1
43
0.0
10
-312.00000000000006
20
7.0000000000000453
42
-0.41421209791142016
10
-316
20
11.000000000000014
10
-315.99999999999994
20
83.551172902127973
42
-0.40673804976555578
10
-314.00065482686068
20
85.499997921474773
10
-287.99999968726246
20
85.499997921474773
42
-0.41421356237309503
10
-285.99999968726246
20
83.499997921474787
10
-285.99999968726246
20
65.999997921474787
10
-227.99999897200672
20
65.999997921474787
10
-227.99999897200672
20
83.499998212047444
42
-0.41421356237308721
10
-225.99999897200672
20
85.49999821204743
10
-211.99999855477421
20
85.499998212047444
42
-0.41421356237308721
10
-209.99999855477421
20
83.499998212047444
10
-209.99999855477421
20
65.999997921474787
10
-170.99999812264053
20
65.999997921474787
10
-170.99999812264053
20
83.499998212047444
42
-0.41421356237309503
10
-168.99999812264053
20
85.49999821204743
10
-154.9999978544196
20
85.49999821204743
42
-0.41421356237309503
10
-152.99999785441963
20
83.499998212047444
10
-152.99999785441963
20
65.999997921474787
10
-94.999997139163881
20
65.999997921474787
10
-94.999997139163881
20
75.999998070486399
10
-94.999997021523114
20
83.499998101857244
42
-0.41421355777894003
10
-92.999997021523129
20
85.499998070486384
10
-78.999996721931367
20
85.499998070486384
42
-0.41421356237310025
10
-76.999996721931367
20
83.499998070486399
10
-76.999996721931367
20
65.999997921474787
10
-37.999996140786081
20
65.999997921474787
10
-37.999996140786081
20
83.499997921474787
42
-0.41421356237309503
10
-35.999996140786088
20
85.499997921474773
10
-28.99999600667563
20
85.499997921474773
10
-28.999992276728719
20
105.12749976363317
10
-28.999992276728754
20
124.0000000000005
42
-0.41421356237309764
10
-26.999992276728761
20
126.00000000000051
10
-3.9999960403796742
20
126.00000000000053
42
-0.41421359648327238
10
3.9596202938696479e-06
20
121.99999953416287
10
0
20
88
10
-5.1514348342607263e-13
20
11.000000000000014
42
-0.41421502684360745
10
-3.9999999999999858
20
7.000000000000508
0
LWPOLYLINE
5
101
100
AcDbEntity
8
0
100
AcDbPolyline
90
4
70
1
43
0.0
10
-31.300001306273586
20
61.399997562356802
10
-5.3000013062736073
20
61.399997562356802
10
-5.3000013062736073
20
82.899997562356802
10
-31.300001306273586
20
82.899997562356802
0
LWPOLYLINE
5
102
100
AcDbEntity
8
0
100
AcDbPolyline
90
8
70
1
43
0.0
10
-230.85000000000005
20
19.895000000000014
10
-229.33841717712392
20
19.895000000000014
10
-229.33841717712392
20
31.929637627843668
10
-230.85000000000005
20
31.929637627843668
10
-230.85000000000005
20
63.89500000000001
10
-308.55000000000007
20
63.89500000000001
10
-308.55000000000007
20
8.8950000000000173
10
-230.85000000000005
20
8.8950000000000173
0
CIRCLE
5
103
100
AcDbEntity
8
0
100
AcDbCircle
10
-4.0000000000000036
20
88
30
0
40
1.7500000000000071
210
0
220
0
230
1
0
CIRCLE
5
104
100
AcDbEntity
8
0
100
AcDbCircle
10
-4.0000000000000036
20
11.000000000000014
30
0
40
1.7500000000000071
210
0
220
0
230
1
0
CIRCLE
5
105
100
AcDbEntity
8
0
100
AcDbCircle
10
-159.00000000000003
20
11.000000000000014
30
0
40
1.7500000000000004
210
0
220
0
230
1
0
CIRCLE
5
106
100
AcDbEntity
8
0
100
AcDbCircle
10
-228.05000000000004
20
60.89500000000001
30
0
40
1.7499999999999982
210
0
220
0
230
1
0
CIRCLE
5
107
100
AcDbEntity
8
0
100
AcDbCircle
10
-228.05000000000004
20
11.854999999999993
30
0
40
1.7499999999999982
210
0
220
0
230
1
0
CIRCLE
5
108
100
AcDbEntity
8
0
100
AcDbCircle
10
-311.35000000000002
20
11.854999999999993
30
0
40
1.7500000000000071
210
0
220
0
230
1
0
CIRCLE
5
109
100
AcDbEntity
8
0
100
AcDbCircle
10
-311.35000000000002
20
60.89500000000001
30
0
40
1.7500000000000071
210
0
220
0
230
1
0
CIRCLE
5
110
100
AcDbEntity
8
0
100
AcDbCircle
10
-3.9999960403796564
20
122.00000000000057
30
0
40
1.7499999999999893
210
0
220
0
230
1
0
CIRCLE
5
111
100
AcDbEntity
8
0
100
AcDbCircle
10
-23.999995932169824
20
122.00000000000053
30
0
40
1.7499999999999893
210
0
220
0
230
1
0
CIRCLE
5
112
100
AcDbEntity
8
0
100
AcDbCircle
10
-3.9999960403796031
20
94.000000000000568
30
0
40
1.7500000000000071
210
0
220
0
230
1
0
CIRCLE
5
113
100
AcDbEntity
8
0
100
AcDbCircle
10
-142.54999567517135
20
23.37499588059778
30
0
40
3.7499999999999978
210
0
220
0
230
1
0
CIRCLE
5
114
100
AcDbEntity
8
0
100
AcDbCircle
10
-174.54999567517135
20
23.37499588059778
30
0
40
3.75
210
0
220
0
230
1
0
CIRCLE
5
115
100
AcDbEntity
8
0
100
AcDbCircle
10
-110.54999567517136
20
23.37499588059778
30
0
40
3.75
210
0
220
0
230
1
0
CIRCLE
5
116
100
AcDbEntity
8
0
100
AcDbCircle
10
-206.24999567517136
20
23.37499588059778
30
0
40
3.75
210
0
220
0
230
1
0
CIRCLE
5
117
100
AcDbEntity
8
0
100
AcDbCircle
10
-22.600000955351263
20
30.199998740293594
30
0
40
4.5000000000000107
210
0
220
0
230
1
0
CIRCLE
5
118
100
AcDbEntity
8
0
100
AcDbCircle
10
-22.600000955351263
20
40.699998505600306
30
0
40
4.4999999999999929
210
0
220
0
230
1
0
CIRCLE
5
119
100
AcDbEntity
8
0
100
AcDbCircle
10
-15.499991160538613
20
13.574995320127856
30
0
40
5.2500000000000036
210
0
220
0
230
1
0
CIRCLE
5
120
100
AcDbEntity
8
0
100
AcDbCircle
10
-101.99999526906815
20
50.124997151154602
30
0
40
6.7500000000000071
210
0
220
0
230
1
0
CIRCLE
5
121
100
AcDbEntity
8
0
100
AcDbCircle
10
-117.99999526906817
20
50.124997151154602
30
0
40
6.7500000000000027
210
0
220
0
230
1
0
CIRCLE
5
122
100
AcDbEntity
8
0
100
AcDbCircle
10
-133.99999526906817
20
50.124997151154602
30
0
40
6.7500000000000027
210
0
220
0
230
1
0
CIRCLE
5
123
100
AcDbEntity
8
0
100
AcDbCircle
10
-149.99999526906819
20
50.124997151154602
30
0
40
6.7500000000000036
210
0
220
0
230
1
0
CIRCLE
5
124
100
AcDbEntity
8
0
100
AcDbCircle
10
-165.99999526906822
20
50.124997151154602
30
0
40
6.7500000000000027
210
0
220
0
230
1
0
CIRCLE
5
125
100
AcDbEntity
8
0
100
AcDbCircle
10
-181.99999526906822
20
50.124997151154602
30
0
40
6.7500000000000027
210
0
220
0
230
1
0
CIRCLE
5
126
100
AcDbEntity
8
0
100
AcDbCircle
10
-197.99999526906822
20
50.124997151154602
30
0
40
6.7500000000000071
210
0
220
0
230
1
0
CIRCLE
5
127
100
AcDbEntity
8
0
100
AcDbCircle
10
-213.99999526906825
20
50.124997151154602
30
0
40
6.7500000000000071
210
0
220
0
230
1
0
CIRCLE
5
128
100
AcDbEntity
8
0
100
AcDbCircle
10
-305.49999463204352
20
76.999997694232079
30
0
40
6.7499999999999893
210
0
220
0
230
1
0
CIRCLE
5
129
100
AcDbEntity
8
0
100
AcDbCircle
10
-13.000001169927984
20
106.69999703038535
30
0
40
11.25
210
0
220
0
230
1
0
ENDSEC
0
SECTION
2
OBJECTS
0
DICTIONARY
5
C
100
AcDbDictionary
3
ACAD_GROUP
350
D
3
ACAD_MLINESTYLE
350
17
0
DICTIONARY
5
D
100
AcDbDictionary
0
DICTIONARY
5
1A
330
C
100
AcDbDictionary
0
DICTIONARY
5
17
100
AcDbDictionary
0
ENDSEC
0
EOF
