G04 #@! TF.GenerationSoftware,KiCad,Pcbnew,(6.0.1)*
G04 #@! TF.CreationDate,2022-03-21T15:47:42+08:00*
G04 #@! TF.ProjectId,Teensy_Grovebox,5465656e-7379-45f4-9772-6f7665626f78,rev?*
G04 #@! TF.SameCoordinates,Original*
G04 #@! TF.FileFunction,Soldermask,Top*
G04 #@! TF.FilePolarity,Negative*
%FSLAX46Y46*%
G04 Gerber Fmt 4.6, Leading zero omitted, Abs format (unit mm)*
G04 Created by KiCad (PCBNEW (6.0.1)) date 2022-03-21 15:47:42*
%MOMM*%
%LPD*%
G01*
G04 APERTURE LIST*
%ADD10R,1.600000X1.600000*%
%ADD11C,1.600000*%
%ADD12R,1.300000X1.300000*%
%ADD13C,1.300000*%
%ADD14R,2.000000X2.000000*%
%ADD15C,2.000000*%
%ADD16C,3.200000*%
%ADD17O,1.850000X3.048000*%
%ADD18O,3.048000X1.850000*%
%ADD19C,1.750000*%
%ADD20C,1.700000*%
%ADD21C,1.200000*%
%ADD22C,3.987800*%
%ADD23C,2.250000*%
%ADD24C,3.048000*%
%ADD25C,5.000000*%
%ADD26O,1.700000X2.000000*%
%ADD27R,2.032000X2.032000*%
%ADD28C,2.032000*%
%ADD29C,3.500000*%
%ADD30R,1.524000X1.524000*%
%ADD31C,1.524000*%
%ADD32O,2.000000X1.700000*%
%ADD33R,1.700000X1.700000*%
%ADD34O,1.700000X1.700000*%
%ADD35O,1.524000X1.524000*%
%ADD36O,1.600000X1.600000*%
%ADD37C,0.650000*%
%ADD38O,1.600000X1.000000*%
%ADD39O,2.100000X1.000000*%
%ADD40R,2.000000X1.905000*%
%ADD41O,2.000000X1.905000*%
%ADD42R,2.200000X2.200000*%
%ADD43O,2.200000X2.200000*%
%ADD44R,1.500000X1.050000*%
%ADD45O,1.500000X1.050000*%
G04 APERTURE END LIST*
D10*
G04 #@! TO.C,U3*
X292790000Y-165380000D03*
D11*
X295330000Y-165380000D03*
X297870000Y-165380000D03*
X300410000Y-165380000D03*
X302950000Y-165380000D03*
X305490000Y-165380000D03*
X308030000Y-165380000D03*
X310570000Y-165380000D03*
X313110000Y-165380000D03*
X315650000Y-165380000D03*
X318190000Y-165380000D03*
X320730000Y-165380000D03*
X323270000Y-165380000D03*
X325810000Y-165380000D03*
X328350000Y-165380000D03*
X330890000Y-165380000D03*
X333430000Y-165380000D03*
X335970000Y-165380000D03*
X338510000Y-165380000D03*
X341050000Y-165380000D03*
X343590000Y-165380000D03*
X346130000Y-165380000D03*
X348670000Y-165380000D03*
X351210000Y-165380000D03*
X351210000Y-180620000D03*
X348670000Y-180620000D03*
X346130000Y-180620000D03*
X343590000Y-180620000D03*
X341050000Y-180620000D03*
X338510000Y-180620000D03*
X335970000Y-180620000D03*
X333430000Y-180620000D03*
X330890000Y-180620000D03*
X328350000Y-180620000D03*
X325810000Y-180620000D03*
X323270000Y-180620000D03*
X320730000Y-180620000D03*
X318190000Y-180620000D03*
X315650000Y-180620000D03*
X313110000Y-180620000D03*
X310570000Y-180620000D03*
X308030000Y-180620000D03*
X305490000Y-180620000D03*
X302950000Y-180620000D03*
X300410000Y-180620000D03*
X297870000Y-180620000D03*
X295330000Y-180620000D03*
X292790000Y-180620000D03*
X295330000Y-178080000D03*
X338510000Y-167920000D03*
X338510000Y-170460000D03*
X338510000Y-173000000D03*
X338510000Y-175540000D03*
X338510000Y-178080000D03*
D10*
X299089200Y-168430800D03*
D11*
X301629200Y-168430800D03*
X304169200Y-168430800D03*
X306709200Y-168430800D03*
X309249200Y-168430800D03*
D12*
X305760000Y-178181600D03*
D13*
X305760000Y-176181600D03*
X305760000Y-174181600D03*
X307760000Y-174181600D03*
X307760000Y-176181600D03*
X307760000Y-178181600D03*
X293520000Y-174270000D03*
X293520000Y-171730000D03*
G04 #@! TD*
D10*
G04 #@! TO.C,C20*
X330497349Y-205300000D03*
D11*
X334297349Y-205300000D03*
G04 #@! TD*
D14*
G04 #@! TO.C,ENC2*
X175050000Y-145875000D03*
D15*
X175050000Y-150875000D03*
X175050000Y-148375000D03*
D16*
X182550000Y-142775000D03*
X182550000Y-153975000D03*
D15*
X189550000Y-150875000D03*
X189550000Y-145875000D03*
G04 #@! TD*
D14*
G04 #@! TO.C,ENC4*
X238750000Y-145875000D03*
D15*
X238750000Y-150875000D03*
X238750000Y-148375000D03*
D16*
X246250000Y-142775000D03*
X246250000Y-153975000D03*
D15*
X253250000Y-150875000D03*
X253250000Y-145875000D03*
G04 #@! TD*
D14*
G04 #@! TO.C,ENC1*
X143050000Y-145875000D03*
D15*
X143050000Y-150875000D03*
X143050000Y-148375000D03*
D16*
X150550000Y-142775000D03*
X150550000Y-153975000D03*
D15*
X157550000Y-150875000D03*
X157550000Y-145875000D03*
G04 #@! TD*
D14*
G04 #@! TO.C,ENC3*
X207050000Y-145875000D03*
D15*
X207050000Y-150875000D03*
X207050000Y-148375000D03*
D16*
X214550000Y-142775000D03*
X214550000Y-153975000D03*
D15*
X221550000Y-150875000D03*
X221550000Y-145875000D03*
G04 #@! TD*
D17*
G04 #@! TO.C,SW27*
X139500000Y-181375000D03*
X139500000Y-168875000D03*
X144500000Y-181375000D03*
X144500000Y-168875000D03*
G04 #@! TD*
G04 #@! TO.C,SW34*
X251500000Y-181375000D03*
X251500000Y-168875000D03*
X256500000Y-181375000D03*
X256500000Y-168875000D03*
G04 #@! TD*
G04 #@! TO.C,SW28*
X155500000Y-181375000D03*
X155500000Y-168875000D03*
X160500000Y-181375000D03*
X160500000Y-168875000D03*
G04 #@! TD*
G04 #@! TO.C,SW30*
X187500000Y-181375000D03*
X187500000Y-168875000D03*
X192500000Y-181375000D03*
X192500000Y-168875000D03*
G04 #@! TD*
G04 #@! TO.C,SW32*
X219500000Y-181375000D03*
X219500000Y-168875000D03*
X224500000Y-181375000D03*
X224500000Y-168875000D03*
G04 #@! TD*
G04 #@! TO.C,SW29*
X171500000Y-181375000D03*
X171500000Y-168875000D03*
X176500000Y-181375000D03*
X176500000Y-168875000D03*
G04 #@! TD*
G04 #@! TO.C,SW31*
X203500000Y-181375000D03*
X203500000Y-168875000D03*
X208500000Y-181375000D03*
X208500000Y-168875000D03*
G04 #@! TD*
G04 #@! TO.C,SW33*
X235500000Y-181375000D03*
X235500000Y-168875000D03*
X240500000Y-181375000D03*
X240500000Y-168875000D03*
G04 #@! TD*
D18*
G04 #@! TO.C,SW26*
X339260000Y-199500000D03*
X351760000Y-199500000D03*
X339260000Y-204500000D03*
X351760000Y-204500000D03*
G04 #@! TD*
D10*
G04 #@! TO.C,MIC*
X54250000Y-136575000D03*
D11*
X56750000Y-136575000D03*
G04 #@! TD*
D10*
G04 #@! TO.C,C1*
X64502651Y-165700000D03*
D11*
X60702651Y-165700000D03*
G04 #@! TD*
D10*
G04 #@! TO.C,C2*
X64502651Y-155200000D03*
D11*
X60702651Y-155200000D03*
G04 #@! TD*
D19*
G04 #@! TO.C,SW21*
X291920000Y-201000000D03*
D20*
X291500000Y-201000000D03*
D21*
X291780000Y-205200000D03*
D20*
X302500000Y-201000000D03*
D22*
X297000000Y-201000000D03*
D19*
X302080000Y-201000000D03*
G36*
G01*
X299423483Y-197622395D02*
X299423483Y-197622395D01*
G75*
G02*
X298377605Y-196423483I76517J1122395D01*
G01*
X298417147Y-195843451D01*
G75*
G02*
X299616059Y-194797573I1122395J-76517D01*
G01*
X299616059Y-194797573D01*
G75*
G02*
X300661937Y-195996485I-76517J-1122395D01*
G01*
X300622395Y-196576517D01*
G75*
G02*
X299423483Y-197622395I-1122395J76517D01*
G01*
G37*
D23*
X299540000Y-195920000D03*
D15*
X302000000Y-197200000D03*
X297000000Y-195100000D03*
D23*
X294500000Y-197000000D03*
G36*
G01*
X292438688Y-199297350D02*
X292438688Y-199297350D01*
G75*
G02*
X292352650Y-197708688I751312J837350D01*
G01*
X293662640Y-196248680D01*
G75*
G02*
X295251302Y-196162642I837350J-751312D01*
G01*
X295251302Y-196162642D01*
G75*
G02*
X295337340Y-197751304I-751312J-837350D01*
G01*
X294027350Y-199211312D01*
G75*
G02*
X292438688Y-199297350I-837350J751312D01*
G01*
G37*
G04 #@! TD*
G04 #@! TO.C,R11*
G36*
G01*
X346600000Y-147875000D02*
X346600000Y-149125000D01*
G75*
G02*
X346350000Y-149375000I-250000J0D01*
G01*
X345550000Y-149375000D01*
G75*
G02*
X345300000Y-149125000I0J250000D01*
G01*
X345300000Y-147875000D01*
G75*
G02*
X345550000Y-147625000I250000J0D01*
G01*
X346350000Y-147625000D01*
G75*
G02*
X346600000Y-147875000I0J-250000D01*
G01*
G37*
G36*
G01*
X343500000Y-147875000D02*
X343500000Y-149125000D01*
G75*
G02*
X343250000Y-149375000I-250000J0D01*
G01*
X342450000Y-149375000D01*
G75*
G02*
X342200000Y-149125000I0J250000D01*
G01*
X342200000Y-147875000D01*
G75*
G02*
X342450000Y-147625000I250000J0D01*
G01*
X343250000Y-147625000D01*
G75*
G02*
X343500000Y-147875000I0J-250000D01*
G01*
G37*
G04 #@! TD*
D20*
G04 #@! TO.C,SW17*
X250000000Y-235627000D03*
X250000000Y-224627000D03*
D24*
X256985000Y-218189000D03*
D22*
X241745000Y-242065000D03*
D19*
X250000000Y-225047000D03*
X250000000Y-235207000D03*
D21*
X245800000Y-224907000D03*
D22*
X241745000Y-218189000D03*
D24*
X256985000Y-242065000D03*
D22*
X250000000Y-230127000D03*
D23*
X254000000Y-227627000D03*
G36*
G01*
X251702650Y-225565688D02*
X251702650Y-225565688D01*
G75*
G02*
X253291312Y-225479650I837350J-751312D01*
G01*
X254751320Y-226789640D01*
G75*
G02*
X254837358Y-228378302I-751312J-837350D01*
G01*
X254837358Y-228378302D01*
G75*
G02*
X253248696Y-228464340I-837350J751312D01*
G01*
X251788688Y-227154350D01*
G75*
G02*
X251702650Y-225565688I751312J837350D01*
G01*
G37*
D15*
X255900000Y-230127000D03*
D23*
X255080000Y-232667000D03*
G36*
G01*
X253377605Y-232550483D02*
X253377605Y-232550483D01*
G75*
G02*
X254576517Y-231504605I1122395J-76517D01*
G01*
X255156549Y-231544147D01*
G75*
G02*
X256202427Y-232743059I-76517J-1122395D01*
G01*
X256202427Y-232743059D01*
G75*
G02*
X255003515Y-233788937I-1122395J76517D01*
G01*
X254423483Y-233749395D01*
G75*
G02*
X253377605Y-232550483I76517J1122395D01*
G01*
G37*
D15*
X253800000Y-235127000D03*
G04 #@! TD*
G04 #@! TO.C,R12*
G36*
G01*
X346600000Y-151475000D02*
X346600000Y-152725000D01*
G75*
G02*
X346350000Y-152975000I-250000J0D01*
G01*
X345550000Y-152975000D01*
G75*
G02*
X345300000Y-152725000I0J250000D01*
G01*
X345300000Y-151475000D01*
G75*
G02*
X345550000Y-151225000I250000J0D01*
G01*
X346350000Y-151225000D01*
G75*
G02*
X346600000Y-151475000I0J-250000D01*
G01*
G37*
G36*
G01*
X343500000Y-151475000D02*
X343500000Y-152725000D01*
G75*
G02*
X343250000Y-152975000I-250000J0D01*
G01*
X342450000Y-152975000D01*
G75*
G02*
X342200000Y-152725000I0J250000D01*
G01*
X342200000Y-151475000D01*
G75*
G02*
X342450000Y-151225000I250000J0D01*
G01*
X343250000Y-151225000D01*
G75*
G02*
X343500000Y-151475000I0J-250000D01*
G01*
G37*
G04 #@! TD*
D20*
G04 #@! TO.C,SW9*
X158500000Y-201000000D03*
D22*
X164000000Y-201000000D03*
D20*
X169500000Y-201000000D03*
D19*
X158920000Y-201000000D03*
D21*
X158780000Y-205200000D03*
D19*
X169080000Y-201000000D03*
G36*
G01*
X166423483Y-197622395D02*
X166423483Y-197622395D01*
G75*
G02*
X165377605Y-196423483I76517J1122395D01*
G01*
X165417147Y-195843451D01*
G75*
G02*
X166616059Y-194797573I1122395J-76517D01*
G01*
X166616059Y-194797573D01*
G75*
G02*
X167661937Y-195996485I-76517J-1122395D01*
G01*
X167622395Y-196576517D01*
G75*
G02*
X166423483Y-197622395I-1122395J76517D01*
G01*
G37*
D15*
X169000000Y-197200000D03*
D23*
X166540000Y-195920000D03*
D15*
X164000000Y-195100000D03*
G36*
G01*
X159438688Y-199297350D02*
X159438688Y-199297350D01*
G75*
G02*
X159352650Y-197708688I751312J837350D01*
G01*
X160662640Y-196248680D01*
G75*
G02*
X162251302Y-196162642I837350J-751312D01*
G01*
X162251302Y-196162642D01*
G75*
G02*
X162337340Y-197751304I-751312J-837350D01*
G01*
X161027350Y-199211312D01*
G75*
G02*
X159438688Y-199297350I-837350J751312D01*
G01*
G37*
D23*
X161500000Y-197000000D03*
G04 #@! TD*
D24*
G04 #@! TO.C,SW12*
X199985000Y-218189000D03*
D22*
X184745000Y-218189000D03*
D19*
X193000000Y-225047000D03*
D20*
X193000000Y-235627000D03*
D21*
X188800000Y-224907000D03*
D24*
X199985000Y-242065000D03*
D22*
X193000000Y-230127000D03*
D19*
X193000000Y-235207000D03*
D20*
X193000000Y-224627000D03*
D22*
X184745000Y-242065000D03*
D23*
X197000000Y-227627000D03*
D15*
X198900000Y-230127000D03*
G36*
G01*
X194702650Y-225565688D02*
X194702650Y-225565688D01*
G75*
G02*
X196291312Y-225479650I837350J-751312D01*
G01*
X197751320Y-226789640D01*
G75*
G02*
X197837358Y-228378302I-751312J-837350D01*
G01*
X197837358Y-228378302D01*
G75*
G02*
X196248696Y-228464340I-837350J751312D01*
G01*
X194788688Y-227154350D01*
G75*
G02*
X194702650Y-225565688I751312J837350D01*
G01*
G37*
G36*
G01*
X196377605Y-232550483D02*
X196377605Y-232550483D01*
G75*
G02*
X197576517Y-231504605I1122395J-76517D01*
G01*
X198156549Y-231544147D01*
G75*
G02*
X199202427Y-232743059I-76517J-1122395D01*
G01*
X199202427Y-232743059D01*
G75*
G02*
X198003515Y-233788937I-1122395J76517D01*
G01*
X197423483Y-233749395D01*
G75*
G02*
X196377605Y-232550483I76517J1122395D01*
G01*
G37*
D23*
X198080000Y-232667000D03*
D15*
X196800000Y-235127000D03*
G04 #@! TD*
D24*
G04 #@! TO.C,SW22*
X313985000Y-218189000D03*
D19*
X307000000Y-235207000D03*
D24*
X313985000Y-242065000D03*
D22*
X307000000Y-230127000D03*
D20*
X307000000Y-235627000D03*
D21*
X302800000Y-224907000D03*
D22*
X298745000Y-218189000D03*
D19*
X307000000Y-225047000D03*
D20*
X307000000Y-224627000D03*
D22*
X298745000Y-242065000D03*
G36*
G01*
X308702650Y-225565688D02*
X308702650Y-225565688D01*
G75*
G02*
X310291312Y-225479650I837350J-751312D01*
G01*
X311751320Y-226789640D01*
G75*
G02*
X311837358Y-228378302I-751312J-837350D01*
G01*
X311837358Y-228378302D01*
G75*
G02*
X310248696Y-228464340I-837350J751312D01*
G01*
X308788688Y-227154350D01*
G75*
G02*
X308702650Y-225565688I751312J837350D01*
G01*
G37*
D23*
X311000000Y-227627000D03*
D15*
X312900000Y-230127000D03*
D23*
X312080000Y-232667000D03*
G36*
G01*
X310377605Y-232550483D02*
X310377605Y-232550483D01*
G75*
G02*
X311576517Y-231504605I1122395J-76517D01*
G01*
X312156549Y-231544147D01*
G75*
G02*
X313202427Y-232743059I-76517J-1122395D01*
G01*
X313202427Y-232743059D01*
G75*
G02*
X312003515Y-233788937I-1122395J76517D01*
G01*
X311423483Y-233749395D01*
G75*
G02*
X310377605Y-232550483I76517J1122395D01*
G01*
G37*
D15*
X310800000Y-235127000D03*
G04 #@! TD*
D19*
G04 #@! TO.C,SW4*
X101920000Y-201000000D03*
D20*
X101500000Y-201000000D03*
D22*
X107000000Y-201000000D03*
D20*
X112500000Y-201000000D03*
D21*
X101780000Y-205200000D03*
D19*
X112080000Y-201000000D03*
G36*
G01*
X109423483Y-197622395D02*
X109423483Y-197622395D01*
G75*
G02*
X108377605Y-196423483I76517J1122395D01*
G01*
X108417147Y-195843451D01*
G75*
G02*
X109616059Y-194797573I1122395J-76517D01*
G01*
X109616059Y-194797573D01*
G75*
G02*
X110661937Y-195996485I-76517J-1122395D01*
G01*
X110622395Y-196576517D01*
G75*
G02*
X109423483Y-197622395I-1122395J76517D01*
G01*
G37*
D15*
X112000000Y-197200000D03*
D23*
X109540000Y-195920000D03*
X104500000Y-197000000D03*
G36*
G01*
X102438688Y-199297350D02*
X102438688Y-199297350D01*
G75*
G02*
X102352650Y-197708688I751312J837350D01*
G01*
X103662640Y-196248680D01*
G75*
G02*
X105251302Y-196162642I837350J-751312D01*
G01*
X105251302Y-196162642D01*
G75*
G02*
X105337340Y-197751304I-751312J-837350D01*
G01*
X104027350Y-199211312D01*
G75*
G02*
X102438688Y-199297350I-837350J751312D01*
G01*
G37*
D15*
X107000000Y-195100000D03*
G04 #@! TD*
D20*
G04 #@! TO.C,SW3*
X98000000Y-224627000D03*
D19*
X98000000Y-235207000D03*
D22*
X89745000Y-218189000D03*
X89745000Y-242065000D03*
D19*
X98000000Y-225047000D03*
D20*
X98000000Y-235627000D03*
D24*
X104985000Y-218189000D03*
X104985000Y-242065000D03*
D22*
X98000000Y-230127000D03*
D21*
X93800000Y-224907000D03*
G36*
G01*
X99702650Y-225565688D02*
X99702650Y-225565688D01*
G75*
G02*
X101291312Y-225479650I837350J-751312D01*
G01*
X102751320Y-226789640D01*
G75*
G02*
X102837358Y-228378302I-751312J-837350D01*
G01*
X102837358Y-228378302D01*
G75*
G02*
X101248696Y-228464340I-837350J751312D01*
G01*
X99788688Y-227154350D01*
G75*
G02*
X99702650Y-225565688I751312J837350D01*
G01*
G37*
D23*
X102000000Y-227627000D03*
D15*
X103900000Y-230127000D03*
G36*
G01*
X101377605Y-232550483D02*
X101377605Y-232550483D01*
G75*
G02*
X102576517Y-231504605I1122395J-76517D01*
G01*
X103156549Y-231544147D01*
G75*
G02*
X104202427Y-232743059I-76517J-1122395D01*
G01*
X104202427Y-232743059D01*
G75*
G02*
X103003515Y-233788937I-1122395J76517D01*
G01*
X102423483Y-233749395D01*
G75*
G02*
X101377605Y-232550483I76517J1122395D01*
G01*
G37*
D23*
X103080000Y-232667000D03*
D15*
X101800000Y-235127000D03*
G04 #@! TD*
D21*
G04 #@! TO.C,SW19*
X272780000Y-205200000D03*
D22*
X278000000Y-201000000D03*
D20*
X283500000Y-201000000D03*
D19*
X283080000Y-201000000D03*
X272920000Y-201000000D03*
D20*
X272500000Y-201000000D03*
D15*
X283000000Y-197200000D03*
G36*
G01*
X280423483Y-197622395D02*
X280423483Y-197622395D01*
G75*
G02*
X279377605Y-196423483I76517J1122395D01*
G01*
X279417147Y-195843451D01*
G75*
G02*
X280616059Y-194797573I1122395J-76517D01*
G01*
X280616059Y-194797573D01*
G75*
G02*
X281661937Y-195996485I-76517J-1122395D01*
G01*
X281622395Y-196576517D01*
G75*
G02*
X280423483Y-197622395I-1122395J76517D01*
G01*
G37*
D23*
X280540000Y-195920000D03*
G36*
G01*
X273438688Y-199297350D02*
X273438688Y-199297350D01*
G75*
G02*
X273352650Y-197708688I751312J837350D01*
G01*
X274662640Y-196248680D01*
G75*
G02*
X276251302Y-196162642I837350J-751312D01*
G01*
X276251302Y-196162642D01*
G75*
G02*
X276337340Y-197751304I-751312J-837350D01*
G01*
X275027350Y-199211312D01*
G75*
G02*
X273438688Y-199297350I-837350J751312D01*
G01*
G37*
D15*
X278000000Y-195100000D03*
D23*
X275500000Y-197000000D03*
G04 #@! TD*
D25*
G04 #@! TO.C,*
X44000000Y-136000000D03*
G04 #@! TD*
D13*
G04 #@! TO.C,J8*
X42250000Y-149982500D03*
X49250000Y-149982500D03*
D26*
X42750000Y-152382500D03*
X45750000Y-152382500D03*
X48550000Y-152382500D03*
X50750000Y-152382500D03*
X41850000Y-147582500D03*
X43750000Y-147582500D03*
X46750000Y-147582500D03*
X48750000Y-147582500D03*
G04 #@! TD*
G04 #@! TO.C,R14*
G36*
G01*
X346900000Y-141975000D02*
X346900000Y-143225000D01*
G75*
G02*
X346650000Y-143475000I-250000J0D01*
G01*
X345850000Y-143475000D01*
G75*
G02*
X345600000Y-143225000I0J250000D01*
G01*
X345600000Y-141975000D01*
G75*
G02*
X345850000Y-141725000I250000J0D01*
G01*
X346650000Y-141725000D01*
G75*
G02*
X346900000Y-141975000I0J-250000D01*
G01*
G37*
G36*
G01*
X343800000Y-141975000D02*
X343800000Y-143225000D01*
G75*
G02*
X343550000Y-143475000I-250000J0D01*
G01*
X342750000Y-143475000D01*
G75*
G02*
X342500000Y-143225000I0J250000D01*
G01*
X342500000Y-141975000D01*
G75*
G02*
X342750000Y-141725000I250000J0D01*
G01*
X343550000Y-141725000D01*
G75*
G02*
X343800000Y-141975000I0J-250000D01*
G01*
G37*
G04 #@! TD*
D27*
G04 #@! TO.C,BAR2*
X69750000Y-188000000D03*
D28*
X67210000Y-188000000D03*
X64670000Y-188000000D03*
X62130000Y-188000000D03*
X59590000Y-188000000D03*
X57050000Y-188000000D03*
X54510000Y-188000000D03*
X51970000Y-188000000D03*
X49430000Y-188000000D03*
X46890000Y-188000000D03*
X46890000Y-195620000D03*
X49430000Y-195620000D03*
X51970000Y-195620000D03*
X54510000Y-195620000D03*
X57050000Y-195620000D03*
X59590000Y-195620000D03*
X62130000Y-195620000D03*
X64670000Y-195620000D03*
X67210000Y-195620000D03*
X69750000Y-195620000D03*
G04 #@! TD*
D20*
G04 #@! TO.C,SW10*
X174000000Y-235627000D03*
D19*
X174000000Y-225047000D03*
D20*
X174000000Y-224627000D03*
D22*
X165745000Y-218189000D03*
D19*
X174000000Y-235207000D03*
D22*
X165745000Y-242065000D03*
X174000000Y-230127000D03*
D21*
X169800000Y-224907000D03*
D24*
X180985000Y-242065000D03*
X180985000Y-218189000D03*
D15*
X179900000Y-230127000D03*
G36*
G01*
X175702650Y-225565688D02*
X175702650Y-225565688D01*
G75*
G02*
X177291312Y-225479650I837350J-751312D01*
G01*
X178751320Y-226789640D01*
G75*
G02*
X178837358Y-228378302I-751312J-837350D01*
G01*
X178837358Y-228378302D01*
G75*
G02*
X177248696Y-228464340I-837350J751312D01*
G01*
X175788688Y-227154350D01*
G75*
G02*
X175702650Y-225565688I751312J837350D01*
G01*
G37*
D23*
X178000000Y-227627000D03*
X179080000Y-232667000D03*
G36*
G01*
X177377605Y-232550483D02*
X177377605Y-232550483D01*
G75*
G02*
X178576517Y-231504605I1122395J-76517D01*
G01*
X179156549Y-231544147D01*
G75*
G02*
X180202427Y-232743059I-76517J-1122395D01*
G01*
X180202427Y-232743059D01*
G75*
G02*
X179003515Y-233788937I-1122395J76517D01*
G01*
X178423483Y-233749395D01*
G75*
G02*
X177377605Y-232550483I76517J1122395D01*
G01*
G37*
D15*
X177800000Y-235127000D03*
G04 #@! TD*
D25*
G04 #@! TO.C,*
X212000000Y-213250000D03*
G04 #@! TD*
D19*
G04 #@! TO.C,SW7*
X150080000Y-201000000D03*
X139920000Y-201000000D03*
D20*
X150500000Y-201000000D03*
X139500000Y-201000000D03*
D21*
X139780000Y-205200000D03*
D22*
X145000000Y-201000000D03*
D23*
X147540000Y-195920000D03*
G36*
G01*
X147423483Y-197622395D02*
X147423483Y-197622395D01*
G75*
G02*
X146377605Y-196423483I76517J1122395D01*
G01*
X146417147Y-195843451D01*
G75*
G02*
X147616059Y-194797573I1122395J-76517D01*
G01*
X147616059Y-194797573D01*
G75*
G02*
X148661937Y-195996485I-76517J-1122395D01*
G01*
X148622395Y-196576517D01*
G75*
G02*
X147423483Y-197622395I-1122395J76517D01*
G01*
G37*
D15*
X150000000Y-197200000D03*
X145000000Y-195100000D03*
G36*
G01*
X140438688Y-199297350D02*
X140438688Y-199297350D01*
G75*
G02*
X140352650Y-197708688I751312J837350D01*
G01*
X141662640Y-196248680D01*
G75*
G02*
X143251302Y-196162642I837350J-751312D01*
G01*
X143251302Y-196162642D01*
G75*
G02*
X143337340Y-197751304I-751312J-837350D01*
G01*
X142027350Y-199211312D01*
G75*
G02*
X140438688Y-199297350I-837350J751312D01*
G01*
G37*
D23*
X142500000Y-197000000D03*
G04 #@! TD*
D21*
G04 #@! TO.C,SW11*
X177780000Y-205200000D03*
D19*
X177920000Y-201000000D03*
X188080000Y-201000000D03*
D20*
X177500000Y-201000000D03*
D22*
X183000000Y-201000000D03*
D20*
X188500000Y-201000000D03*
D23*
X185540000Y-195920000D03*
D15*
X188000000Y-197200000D03*
G36*
G01*
X185423483Y-197622395D02*
X185423483Y-197622395D01*
G75*
G02*
X184377605Y-196423483I76517J1122395D01*
G01*
X184417147Y-195843451D01*
G75*
G02*
X185616059Y-194797573I1122395J-76517D01*
G01*
X185616059Y-194797573D01*
G75*
G02*
X186661937Y-195996485I-76517J-1122395D01*
G01*
X186622395Y-196576517D01*
G75*
G02*
X185423483Y-197622395I-1122395J76517D01*
G01*
G37*
D23*
X180500000Y-197000000D03*
D15*
X183000000Y-195100000D03*
G36*
G01*
X178438688Y-199297350D02*
X178438688Y-199297350D01*
G75*
G02*
X178352650Y-197708688I751312J837350D01*
G01*
X179662640Y-196248680D01*
G75*
G02*
X181251302Y-196162642I837350J-751312D01*
G01*
X181251302Y-196162642D01*
G75*
G02*
X181337340Y-197751304I-751312J-837350D01*
G01*
X180027350Y-199211312D01*
G75*
G02*
X178438688Y-199297350I-837350J751312D01*
G01*
G37*
G04 #@! TD*
D19*
G04 #@! TO.C,SW2*
X93080000Y-201000000D03*
D20*
X82500000Y-201000000D03*
D19*
X82920000Y-201000000D03*
D22*
X88000000Y-201000000D03*
D20*
X93500000Y-201000000D03*
D21*
X82780000Y-205200000D03*
D15*
X93000000Y-197200000D03*
D23*
X90540000Y-195920000D03*
G36*
G01*
X90423483Y-197622395D02*
X90423483Y-197622395D01*
G75*
G02*
X89377605Y-196423483I76517J1122395D01*
G01*
X89417147Y-195843451D01*
G75*
G02*
X90616059Y-194797573I1122395J-76517D01*
G01*
X90616059Y-194797573D01*
G75*
G02*
X91661937Y-195996485I-76517J-1122395D01*
G01*
X91622395Y-196576517D01*
G75*
G02*
X90423483Y-197622395I-1122395J76517D01*
G01*
G37*
G36*
G01*
X83438688Y-199297350D02*
X83438688Y-199297350D01*
G75*
G02*
X83352650Y-197708688I751312J837350D01*
G01*
X84662640Y-196248680D01*
G75*
G02*
X86251302Y-196162642I837350J-751312D01*
G01*
X86251302Y-196162642D01*
G75*
G02*
X86337340Y-197751304I-751312J-837350D01*
G01*
X85027350Y-199211312D01*
G75*
G02*
X83438688Y-199297350I-837350J751312D01*
G01*
G37*
D15*
X88000000Y-195100000D03*
D23*
X85500000Y-197000000D03*
G04 #@! TD*
D13*
G04 #@! TO.C,J10*
X42250000Y-175982500D03*
X49250000Y-175982500D03*
D26*
X42750000Y-178382500D03*
X45750000Y-178382500D03*
X48550000Y-178382500D03*
X50750000Y-178382500D03*
X41850000Y-173582500D03*
X43750000Y-173582500D03*
X46750000Y-173582500D03*
X48750000Y-173582500D03*
G04 #@! TD*
D25*
G04 #@! TO.C,*
X44000000Y-213000000D03*
G04 #@! TD*
D29*
G04 #@! TO.C,U1*
X268050000Y-136855000D03*
X268050000Y-185895000D03*
X351350000Y-185895000D03*
X351350000Y-136855000D03*
D30*
X267050000Y-144955000D03*
D31*
X267050000Y-147495000D03*
X267050000Y-150035000D03*
X267050000Y-152575000D03*
X267050000Y-155115000D03*
X267050000Y-157655000D03*
X267050000Y-160195000D03*
X267050000Y-162735000D03*
X267050000Y-165275000D03*
X267050000Y-167815000D03*
X267050000Y-170355000D03*
X267050000Y-172895000D03*
X267050000Y-175435000D03*
X267050000Y-177975000D03*
G04 #@! TD*
D24*
G04 #@! TO.C,SW5*
X123985000Y-242065000D03*
X123985000Y-218189000D03*
D21*
X112800000Y-224907000D03*
D22*
X117000000Y-230127000D03*
D20*
X117000000Y-235627000D03*
D22*
X108745000Y-218189000D03*
D20*
X117000000Y-224627000D03*
D19*
X117000000Y-235207000D03*
X117000000Y-225047000D03*
D22*
X108745000Y-242065000D03*
G36*
G01*
X118702650Y-225565688D02*
X118702650Y-225565688D01*
G75*
G02*
X120291312Y-225479650I837350J-751312D01*
G01*
X121751320Y-226789640D01*
G75*
G02*
X121837358Y-228378302I-751312J-837350D01*
G01*
X121837358Y-228378302D01*
G75*
G02*
X120248696Y-228464340I-837350J751312D01*
G01*
X118788688Y-227154350D01*
G75*
G02*
X118702650Y-225565688I751312J837350D01*
G01*
G37*
D15*
X122900000Y-230127000D03*
D23*
X121000000Y-227627000D03*
G36*
G01*
X120377605Y-232550483D02*
X120377605Y-232550483D01*
G75*
G02*
X121576517Y-231504605I1122395J-76517D01*
G01*
X122156549Y-231544147D01*
G75*
G02*
X123202427Y-232743059I-76517J-1122395D01*
G01*
X123202427Y-232743059D01*
G75*
G02*
X122003515Y-233788937I-1122395J76517D01*
G01*
X121423483Y-233749395D01*
G75*
G02*
X120377605Y-232550483I76517J1122395D01*
G01*
G37*
X122080000Y-232667000D03*
D15*
X120800000Y-235127000D03*
G04 #@! TD*
G04 #@! TO.C,R13*
G36*
G01*
X346900000Y-138175000D02*
X346900000Y-139425000D01*
G75*
G02*
X346650000Y-139675000I-250000J0D01*
G01*
X345850000Y-139675000D01*
G75*
G02*
X345600000Y-139425000I0J250000D01*
G01*
X345600000Y-138175000D01*
G75*
G02*
X345850000Y-137925000I250000J0D01*
G01*
X346650000Y-137925000D01*
G75*
G02*
X346900000Y-138175000I0J-250000D01*
G01*
G37*
G36*
G01*
X343800000Y-138175000D02*
X343800000Y-139425000D01*
G75*
G02*
X343550000Y-139675000I-250000J0D01*
G01*
X342750000Y-139675000D01*
G75*
G02*
X342500000Y-139425000I0J250000D01*
G01*
X342500000Y-138175000D01*
G75*
G02*
X342750000Y-137925000I250000J0D01*
G01*
X343550000Y-137925000D01*
G75*
G02*
X343800000Y-138175000I0J-250000D01*
G01*
G37*
G04 #@! TD*
D20*
G04 #@! TO.C,SW25*
X345000000Y-235627000D03*
X345000000Y-224627000D03*
D22*
X336745000Y-242065000D03*
D24*
X351985000Y-218189000D03*
D19*
X345000000Y-235207000D03*
D22*
X336745000Y-218189000D03*
X345000000Y-230127000D03*
D19*
X345000000Y-225047000D03*
D24*
X351985000Y-242065000D03*
D21*
X340800000Y-224907000D03*
G36*
G01*
X346702650Y-225565688D02*
X346702650Y-225565688D01*
G75*
G02*
X348291312Y-225479650I837350J-751312D01*
G01*
X349751320Y-226789640D01*
G75*
G02*
X349837358Y-228378302I-751312J-837350D01*
G01*
X349837358Y-228378302D01*
G75*
G02*
X348248696Y-228464340I-837350J751312D01*
G01*
X346788688Y-227154350D01*
G75*
G02*
X346702650Y-225565688I751312J837350D01*
G01*
G37*
D23*
X349000000Y-227627000D03*
D15*
X350900000Y-230127000D03*
X348800000Y-235127000D03*
D23*
X350080000Y-232667000D03*
G36*
G01*
X348377605Y-232550483D02*
X348377605Y-232550483D01*
G75*
G02*
X349576517Y-231504605I1122395J-76517D01*
G01*
X350156549Y-231544147D01*
G75*
G02*
X351202427Y-232743059I-76517J-1122395D01*
G01*
X351202427Y-232743059D01*
G75*
G02*
X350003515Y-233788937I-1122395J76517D01*
G01*
X349423483Y-233749395D01*
G75*
G02*
X348377605Y-232550483I76517J1122395D01*
G01*
G37*
G04 #@! TD*
D24*
G04 #@! TO.C,SW20*
X294985000Y-218189000D03*
D19*
X288000000Y-235207000D03*
X288000000Y-225047000D03*
D22*
X288000000Y-230127000D03*
X279745000Y-218189000D03*
D20*
X288000000Y-224627000D03*
D22*
X279745000Y-242065000D03*
D24*
X294985000Y-242065000D03*
D21*
X283800000Y-224907000D03*
D20*
X288000000Y-235627000D03*
D15*
X293900000Y-230127000D03*
D23*
X292000000Y-227627000D03*
G36*
G01*
X289702650Y-225565688D02*
X289702650Y-225565688D01*
G75*
G02*
X291291312Y-225479650I837350J-751312D01*
G01*
X292751320Y-226789640D01*
G75*
G02*
X292837358Y-228378302I-751312J-837350D01*
G01*
X292837358Y-228378302D01*
G75*
G02*
X291248696Y-228464340I-837350J751312D01*
G01*
X289788688Y-227154350D01*
G75*
G02*
X289702650Y-225565688I751312J837350D01*
G01*
G37*
D15*
X291800000Y-235127000D03*
D23*
X293080000Y-232667000D03*
G36*
G01*
X291377605Y-232550483D02*
X291377605Y-232550483D01*
G75*
G02*
X292576517Y-231504605I1122395J-76517D01*
G01*
X293156549Y-231544147D01*
G75*
G02*
X294202427Y-232743059I-76517J-1122395D01*
G01*
X294202427Y-232743059D01*
G75*
G02*
X293003515Y-233788937I-1122395J76517D01*
G01*
X292423483Y-233749395D01*
G75*
G02*
X291377605Y-232550483I76517J1122395D01*
G01*
G37*
G04 #@! TD*
D25*
G04 #@! TO.C,*
X199000000Y-136000000D03*
G04 #@! TD*
G04 #@! TO.C,R16*
G36*
G01*
X326550000Y-171125000D02*
X326550000Y-169875000D01*
G75*
G02*
X326800000Y-169625000I250000J0D01*
G01*
X327600000Y-169625000D01*
G75*
G02*
X327850000Y-169875000I0J-250000D01*
G01*
X327850000Y-171125000D01*
G75*
G02*
X327600000Y-171375000I-250000J0D01*
G01*
X326800000Y-171375000D01*
G75*
G02*
X326550000Y-171125000I0J250000D01*
G01*
G37*
G36*
G01*
X329650000Y-171125000D02*
X329650000Y-169875000D01*
G75*
G02*
X329900000Y-169625000I250000J0D01*
G01*
X330700000Y-169625000D01*
G75*
G02*
X330950000Y-169875000I0J-250000D01*
G01*
X330950000Y-171125000D01*
G75*
G02*
X330700000Y-171375000I-250000J0D01*
G01*
X329900000Y-171375000D01*
G75*
G02*
X329650000Y-171125000I0J250000D01*
G01*
G37*
G04 #@! TD*
D22*
G04 #@! TO.C,SW6*
X127745000Y-242065000D03*
X127745000Y-218189000D03*
D19*
X136000000Y-225047000D03*
D24*
X142985000Y-242065000D03*
X142985000Y-218189000D03*
D20*
X136000000Y-235627000D03*
D19*
X136000000Y-235207000D03*
D20*
X136000000Y-224627000D03*
D21*
X131800000Y-224907000D03*
D22*
X136000000Y-230127000D03*
D23*
X140000000Y-227627000D03*
D15*
X141900000Y-230127000D03*
G36*
G01*
X137702650Y-225565688D02*
X137702650Y-225565688D01*
G75*
G02*
X139291312Y-225479650I837350J-751312D01*
G01*
X140751320Y-226789640D01*
G75*
G02*
X140837358Y-228378302I-751312J-837350D01*
G01*
X140837358Y-228378302D01*
G75*
G02*
X139248696Y-228464340I-837350J751312D01*
G01*
X137788688Y-227154350D01*
G75*
G02*
X137702650Y-225565688I751312J837350D01*
G01*
G37*
G36*
G01*
X139377605Y-232550483D02*
X139377605Y-232550483D01*
G75*
G02*
X140576517Y-231504605I1122395J-76517D01*
G01*
X141156549Y-231544147D01*
G75*
G02*
X142202427Y-232743059I-76517J-1122395D01*
G01*
X142202427Y-232743059D01*
G75*
G02*
X141003515Y-233788937I-1122395J76517D01*
G01*
X140423483Y-233749395D01*
G75*
G02*
X139377605Y-232550483I76517J1122395D01*
G01*
G37*
D23*
X141080000Y-232667000D03*
D15*
X139800000Y-235127000D03*
G04 #@! TD*
D19*
G04 #@! TO.C,SW15*
X231000000Y-225047000D03*
D21*
X226800000Y-224907000D03*
D20*
X231000000Y-235627000D03*
D22*
X222745000Y-218189000D03*
D19*
X231000000Y-235207000D03*
D20*
X231000000Y-224627000D03*
D22*
X231000000Y-230127000D03*
X222745000Y-242065000D03*
D24*
X237985000Y-218189000D03*
X237985000Y-242065000D03*
G36*
G01*
X232702650Y-225565688D02*
X232702650Y-225565688D01*
G75*
G02*
X234291312Y-225479650I837350J-751312D01*
G01*
X235751320Y-226789640D01*
G75*
G02*
X235837358Y-228378302I-751312J-837350D01*
G01*
X235837358Y-228378302D01*
G75*
G02*
X234248696Y-228464340I-837350J751312D01*
G01*
X232788688Y-227154350D01*
G75*
G02*
X232702650Y-225565688I751312J837350D01*
G01*
G37*
D15*
X236900000Y-230127000D03*
D23*
X235000000Y-227627000D03*
G36*
G01*
X234377605Y-232550483D02*
X234377605Y-232550483D01*
G75*
G02*
X235576517Y-231504605I1122395J-76517D01*
G01*
X236156549Y-231544147D01*
G75*
G02*
X237202427Y-232743059I-76517J-1122395D01*
G01*
X237202427Y-232743059D01*
G75*
G02*
X236003515Y-233788937I-1122395J76517D01*
G01*
X235423483Y-233749395D01*
G75*
G02*
X234377605Y-232550483I76517J1122395D01*
G01*
G37*
D15*
X234800000Y-235127000D03*
D23*
X236080000Y-232667000D03*
G04 #@! TD*
D19*
G04 #@! TO.C,SW16*
X245080000Y-201000000D03*
D20*
X245500000Y-201000000D03*
D21*
X234780000Y-205200000D03*
D20*
X234500000Y-201000000D03*
D19*
X234920000Y-201000000D03*
D22*
X240000000Y-201000000D03*
D15*
X245000000Y-197200000D03*
G36*
G01*
X242423483Y-197622395D02*
X242423483Y-197622395D01*
G75*
G02*
X241377605Y-196423483I76517J1122395D01*
G01*
X241417147Y-195843451D01*
G75*
G02*
X242616059Y-194797573I1122395J-76517D01*
G01*
X242616059Y-194797573D01*
G75*
G02*
X243661937Y-195996485I-76517J-1122395D01*
G01*
X243622395Y-196576517D01*
G75*
G02*
X242423483Y-197622395I-1122395J76517D01*
G01*
G37*
D23*
X242540000Y-195920000D03*
D15*
X240000000Y-195100000D03*
D23*
X237500000Y-197000000D03*
G36*
G01*
X235438688Y-199297350D02*
X235438688Y-199297350D01*
G75*
G02*
X235352650Y-197708688I751312J837350D01*
G01*
X236662640Y-196248680D01*
G75*
G02*
X238251302Y-196162642I837350J-751312D01*
G01*
X238251302Y-196162642D01*
G75*
G02*
X238337340Y-197751304I-751312J-837350D01*
G01*
X237027350Y-199211312D01*
G75*
G02*
X235438688Y-199297350I-837350J751312D01*
G01*
G37*
G04 #@! TD*
G04 #@! TO.C,R37*
G36*
G01*
X259450000Y-205625000D02*
X259450000Y-206875000D01*
G75*
G02*
X259200000Y-207125000I-250000J0D01*
G01*
X258400000Y-207125000D01*
G75*
G02*
X258150000Y-206875000I0J250000D01*
G01*
X258150000Y-205625000D01*
G75*
G02*
X258400000Y-205375000I250000J0D01*
G01*
X259200000Y-205375000D01*
G75*
G02*
X259450000Y-205625000I0J-250000D01*
G01*
G37*
G36*
G01*
X256350000Y-205625000D02*
X256350000Y-206875000D01*
G75*
G02*
X256100000Y-207125000I-250000J0D01*
G01*
X255300000Y-207125000D01*
G75*
G02*
X255050000Y-206875000I0J250000D01*
G01*
X255050000Y-205625000D01*
G75*
G02*
X255300000Y-205375000I250000J0D01*
G01*
X256100000Y-205375000D01*
G75*
G02*
X256350000Y-205625000I0J-250000D01*
G01*
G37*
G04 #@! TD*
G04 #@! TO.C,R17*
G36*
G01*
X330950000Y-174875000D02*
X330950000Y-176125000D01*
G75*
G02*
X330700000Y-176375000I-250000J0D01*
G01*
X329900000Y-176375000D01*
G75*
G02*
X329650000Y-176125000I0J250000D01*
G01*
X329650000Y-174875000D01*
G75*
G02*
X329900000Y-174625000I250000J0D01*
G01*
X330700000Y-174625000D01*
G75*
G02*
X330950000Y-174875000I0J-250000D01*
G01*
G37*
G36*
G01*
X327850000Y-174875000D02*
X327850000Y-176125000D01*
G75*
G02*
X327600000Y-176375000I-250000J0D01*
G01*
X326800000Y-176375000D01*
G75*
G02*
X326550000Y-176125000I0J250000D01*
G01*
X326550000Y-174875000D01*
G75*
G02*
X326800000Y-174625000I250000J0D01*
G01*
X327600000Y-174625000D01*
G75*
G02*
X327850000Y-174875000I0J-250000D01*
G01*
G37*
G04 #@! TD*
G04 #@! TO.C,R36*
G36*
G01*
X259450000Y-200125000D02*
X259450000Y-201375000D01*
G75*
G02*
X259200000Y-201625000I-250000J0D01*
G01*
X258400000Y-201625000D01*
G75*
G02*
X258150000Y-201375000I0J250000D01*
G01*
X258150000Y-200125000D01*
G75*
G02*
X258400000Y-199875000I250000J0D01*
G01*
X259200000Y-199875000D01*
G75*
G02*
X259450000Y-200125000I0J-250000D01*
G01*
G37*
G36*
G01*
X256350000Y-200125000D02*
X256350000Y-201375000D01*
G75*
G02*
X256100000Y-201625000I-250000J0D01*
G01*
X255300000Y-201625000D01*
G75*
G02*
X255050000Y-201375000I0J250000D01*
G01*
X255050000Y-200125000D01*
G75*
G02*
X255300000Y-199875000I250000J0D01*
G01*
X256100000Y-199875000D01*
G75*
G02*
X256350000Y-200125000I0J-250000D01*
G01*
G37*
G04 #@! TD*
D27*
G04 #@! TO.C,BAR1*
X69750000Y-198702500D03*
D28*
X67210000Y-198702500D03*
X64670000Y-198702500D03*
X62130000Y-198702500D03*
X59590000Y-198702500D03*
X57050000Y-198702500D03*
X54510000Y-198702500D03*
X51970000Y-198702500D03*
X49430000Y-198702500D03*
X46890000Y-198702500D03*
X46890000Y-206322500D03*
X49430000Y-206322500D03*
X51970000Y-206322500D03*
X54510000Y-206322500D03*
X57050000Y-206322500D03*
X59590000Y-206322500D03*
X62130000Y-206322500D03*
X64670000Y-206322500D03*
X67210000Y-206322500D03*
X69750000Y-206322500D03*
G04 #@! TD*
D20*
G04 #@! TO.C,SW1*
X79000000Y-235627000D03*
D19*
X79000000Y-235207000D03*
D21*
X74800000Y-224907000D03*
D19*
X79000000Y-225047000D03*
D22*
X79000000Y-230127000D03*
X70745000Y-218189000D03*
X70745000Y-242065000D03*
D24*
X85985000Y-218189000D03*
D20*
X79000000Y-224627000D03*
D24*
X85985000Y-242065000D03*
G36*
G01*
X80702650Y-225565688D02*
X80702650Y-225565688D01*
G75*
G02*
X82291312Y-225479650I837350J-751312D01*
G01*
X83751320Y-226789640D01*
G75*
G02*
X83837358Y-228378302I-751312J-837350D01*
G01*
X83837358Y-228378302D01*
G75*
G02*
X82248696Y-228464340I-837350J751312D01*
G01*
X80788688Y-227154350D01*
G75*
G02*
X80702650Y-225565688I751312J837350D01*
G01*
G37*
D23*
X83000000Y-227627000D03*
D15*
X84900000Y-230127000D03*
D23*
X84080000Y-232667000D03*
G36*
G01*
X82377605Y-232550483D02*
X82377605Y-232550483D01*
G75*
G02*
X83576517Y-231504605I1122395J-76517D01*
G01*
X84156549Y-231544147D01*
G75*
G02*
X85202427Y-232743059I-76517J-1122395D01*
G01*
X85202427Y-232743059D01*
G75*
G02*
X84003515Y-233788937I-1122395J76517D01*
G01*
X83423483Y-233749395D01*
G75*
G02*
X82377605Y-232550483I76517J1122395D01*
G01*
G37*
D15*
X82800000Y-235127000D03*
G04 #@! TD*
D20*
G04 #@! TO.C,SW24*
X326000000Y-224627000D03*
D24*
X332985000Y-242065000D03*
X332985000Y-218189000D03*
D19*
X326000000Y-235207000D03*
D22*
X317745000Y-242065000D03*
D20*
X326000000Y-235627000D03*
D21*
X321800000Y-224907000D03*
D22*
X326000000Y-230127000D03*
D19*
X326000000Y-225047000D03*
D22*
X317745000Y-218189000D03*
G36*
G01*
X327702650Y-225565688D02*
X327702650Y-225565688D01*
G75*
G02*
X329291312Y-225479650I837350J-751312D01*
G01*
X330751320Y-226789640D01*
G75*
G02*
X330837358Y-228378302I-751312J-837350D01*
G01*
X330837358Y-228378302D01*
G75*
G02*
X329248696Y-228464340I-837350J751312D01*
G01*
X327788688Y-227154350D01*
G75*
G02*
X327702650Y-225565688I751312J837350D01*
G01*
G37*
D15*
X331900000Y-230127000D03*
D23*
X330000000Y-227627000D03*
X331080000Y-232667000D03*
D15*
X329800000Y-235127000D03*
G36*
G01*
X329377605Y-232550483D02*
X329377605Y-232550483D01*
G75*
G02*
X330576517Y-231504605I1122395J-76517D01*
G01*
X331156549Y-231544147D01*
G75*
G02*
X332202427Y-232743059I-76517J-1122395D01*
G01*
X332202427Y-232743059D01*
G75*
G02*
X331003515Y-233788937I-1122395J76517D01*
G01*
X330423483Y-233749395D01*
G75*
G02*
X329377605Y-232550483I76517J1122395D01*
G01*
G37*
G04 #@! TD*
G04 #@! TO.C,D3*
G36*
G01*
X331675001Y-193000000D02*
X332924999Y-193000000D01*
G75*
G02*
X333175000Y-193250001I0J-250001D01*
G01*
X333175000Y-194174999D01*
G75*
G02*
X332924999Y-194425000I-250001J0D01*
G01*
X331675001Y-194425000D01*
G75*
G02*
X331425000Y-194174999I0J250001D01*
G01*
X331425000Y-193250001D01*
G75*
G02*
X331675001Y-193000000I250001J0D01*
G01*
G37*
G36*
G01*
X331675001Y-195975000D02*
X332924999Y-195975000D01*
G75*
G02*
X333175000Y-196225001I0J-250001D01*
G01*
X333175000Y-197149999D01*
G75*
G02*
X332924999Y-197400000I-250001J0D01*
G01*
X331675001Y-197400000D01*
G75*
G02*
X331425000Y-197149999I0J250001D01*
G01*
X331425000Y-196225001D01*
G75*
G02*
X331675001Y-195975000I250001J0D01*
G01*
G37*
G04 #@! TD*
D13*
G04 #@! TO.C,J4*
X95517500Y-134250000D03*
X95517500Y-141250000D03*
D32*
X93117500Y-134750000D03*
X93117500Y-137750000D03*
X93117500Y-140550000D03*
X93117500Y-142750000D03*
X97917500Y-133850000D03*
X97917500Y-135750000D03*
X97917500Y-138750000D03*
X97917500Y-140750000D03*
G04 #@! TD*
D20*
G04 #@! TO.C,SW14*
X226500000Y-201000000D03*
D22*
X221000000Y-201000000D03*
D19*
X215920000Y-201000000D03*
X226080000Y-201000000D03*
D21*
X215780000Y-205200000D03*
D20*
X215500000Y-201000000D03*
G36*
G01*
X223423483Y-197622395D02*
X223423483Y-197622395D01*
G75*
G02*
X222377605Y-196423483I76517J1122395D01*
G01*
X222417147Y-195843451D01*
G75*
G02*
X223616059Y-194797573I1122395J-76517D01*
G01*
X223616059Y-194797573D01*
G75*
G02*
X224661937Y-195996485I-76517J-1122395D01*
G01*
X224622395Y-196576517D01*
G75*
G02*
X223423483Y-197622395I-1122395J76517D01*
G01*
G37*
D15*
X226000000Y-197200000D03*
D23*
X223540000Y-195920000D03*
G36*
G01*
X216438688Y-199297350D02*
X216438688Y-199297350D01*
G75*
G02*
X216352650Y-197708688I751312J837350D01*
G01*
X217662640Y-196248680D01*
G75*
G02*
X219251302Y-196162642I837350J-751312D01*
G01*
X219251302Y-196162642D01*
G75*
G02*
X219337340Y-197751304I-751312J-837350D01*
G01*
X218027350Y-199211312D01*
G75*
G02*
X216438688Y-199297350I-837350J751312D01*
G01*
G37*
D15*
X221000000Y-195100000D03*
D23*
X218500000Y-197000000D03*
G04 #@! TD*
D24*
G04 #@! TO.C,SW13*
X218985000Y-218189000D03*
D22*
X203745000Y-218189000D03*
X203745000Y-242065000D03*
D19*
X212000000Y-225047000D03*
D24*
X218985000Y-242065000D03*
D20*
X212000000Y-224627000D03*
X212000000Y-235627000D03*
D21*
X207800000Y-224907000D03*
D22*
X212000000Y-230127000D03*
D19*
X212000000Y-235207000D03*
G36*
G01*
X213702650Y-225565688D02*
X213702650Y-225565688D01*
G75*
G02*
X215291312Y-225479650I837350J-751312D01*
G01*
X216751320Y-226789640D01*
G75*
G02*
X216837358Y-228378302I-751312J-837350D01*
G01*
X216837358Y-228378302D01*
G75*
G02*
X215248696Y-228464340I-837350J751312D01*
G01*
X213788688Y-227154350D01*
G75*
G02*
X213702650Y-225565688I751312J837350D01*
G01*
G37*
D23*
X216000000Y-227627000D03*
D15*
X217900000Y-230127000D03*
D23*
X217080000Y-232667000D03*
G36*
G01*
X215377605Y-232550483D02*
X215377605Y-232550483D01*
G75*
G02*
X216576517Y-231504605I1122395J-76517D01*
G01*
X217156549Y-231544147D01*
G75*
G02*
X218202427Y-232743059I-76517J-1122395D01*
G01*
X218202427Y-232743059D01*
G75*
G02*
X217003515Y-233788937I-1122395J76517D01*
G01*
X216423483Y-233749395D01*
G75*
G02*
X215377605Y-232550483I76517J1122395D01*
G01*
G37*
D15*
X215800000Y-235127000D03*
G04 #@! TD*
D22*
G04 #@! TO.C,SW18*
X269000000Y-230127000D03*
D21*
X264800000Y-224907000D03*
D19*
X269000000Y-225047000D03*
D22*
X260745000Y-218189000D03*
D24*
X275985000Y-218189000D03*
D19*
X269000000Y-235207000D03*
D20*
X269000000Y-235627000D03*
X269000000Y-224627000D03*
D24*
X275985000Y-242065000D03*
D22*
X260745000Y-242065000D03*
D15*
X274900000Y-230127000D03*
G36*
G01*
X270702650Y-225565688D02*
X270702650Y-225565688D01*
G75*
G02*
X272291312Y-225479650I837350J-751312D01*
G01*
X273751320Y-226789640D01*
G75*
G02*
X273837358Y-228378302I-751312J-837350D01*
G01*
X273837358Y-228378302D01*
G75*
G02*
X272248696Y-228464340I-837350J751312D01*
G01*
X270788688Y-227154350D01*
G75*
G02*
X270702650Y-225565688I751312J837350D01*
G01*
G37*
D23*
X273000000Y-227627000D03*
X274080000Y-232667000D03*
G36*
G01*
X272377605Y-232550483D02*
X272377605Y-232550483D01*
G75*
G02*
X273576517Y-231504605I1122395J-76517D01*
G01*
X274156549Y-231544147D01*
G75*
G02*
X275202427Y-232743059I-76517J-1122395D01*
G01*
X275202427Y-232743059D01*
G75*
G02*
X274003515Y-233788937I-1122395J76517D01*
G01*
X273423483Y-233749395D01*
G75*
G02*
X272377605Y-232550483I76517J1122395D01*
G01*
G37*
D15*
X272800000Y-235127000D03*
G04 #@! TD*
D25*
G04 #@! TO.C,*
X74750000Y-247000000D03*
G04 #@! TD*
D19*
G04 #@! TO.C,SW23*
X321080000Y-201000000D03*
D20*
X310500000Y-201000000D03*
D21*
X310780000Y-205200000D03*
D20*
X321500000Y-201000000D03*
D22*
X316000000Y-201000000D03*
D19*
X310920000Y-201000000D03*
D15*
X321000000Y-197200000D03*
G36*
G01*
X318423483Y-197622395D02*
X318423483Y-197622395D01*
G75*
G02*
X317377605Y-196423483I76517J1122395D01*
G01*
X317417147Y-195843451D01*
G75*
G02*
X318616059Y-194797573I1122395J-76517D01*
G01*
X318616059Y-194797573D01*
G75*
G02*
X319661937Y-195996485I-76517J-1122395D01*
G01*
X319622395Y-196576517D01*
G75*
G02*
X318423483Y-197622395I-1122395J76517D01*
G01*
G37*
D23*
X318540000Y-195920000D03*
X313500000Y-197000000D03*
D15*
X316000000Y-195100000D03*
G36*
G01*
X311438688Y-199297350D02*
X311438688Y-199297350D01*
G75*
G02*
X311352650Y-197708688I751312J837350D01*
G01*
X312662640Y-196248680D01*
G75*
G02*
X314251302Y-196162642I837350J-751312D01*
G01*
X314251302Y-196162642D01*
G75*
G02*
X314337340Y-197751304I-751312J-837350D01*
G01*
X313027350Y-199211312D01*
G75*
G02*
X311438688Y-199297350I-837350J751312D01*
G01*
G37*
G04 #@! TD*
D33*
G04 #@! TO.C,J6*
X66300000Y-144625000D03*
D34*
X66300000Y-142085000D03*
X63760000Y-144625000D03*
X63760000Y-142085000D03*
G04 #@! TD*
D13*
G04 #@! TO.C,J9*
X49250000Y-162982500D03*
X42250000Y-162982500D03*
D26*
X42750000Y-165382500D03*
X45750000Y-165382500D03*
X48550000Y-165382500D03*
X50750000Y-165382500D03*
X41850000Y-160582500D03*
X43750000Y-160582500D03*
X46750000Y-160582500D03*
X48750000Y-160582500D03*
G04 #@! TD*
D24*
G04 #@! TO.C,SW8*
X161985000Y-242065000D03*
D19*
X155000000Y-235207000D03*
D22*
X146745000Y-218189000D03*
X146745000Y-242065000D03*
X155000000Y-230127000D03*
D19*
X155000000Y-225047000D03*
D20*
X155000000Y-235627000D03*
D21*
X150800000Y-224907000D03*
D24*
X161985000Y-218189000D03*
D20*
X155000000Y-224627000D03*
D15*
X160900000Y-230127000D03*
G36*
G01*
X156702650Y-225565688D02*
X156702650Y-225565688D01*
G75*
G02*
X158291312Y-225479650I837350J-751312D01*
G01*
X159751320Y-226789640D01*
G75*
G02*
X159837358Y-228378302I-751312J-837350D01*
G01*
X159837358Y-228378302D01*
G75*
G02*
X158248696Y-228464340I-837350J751312D01*
G01*
X156788688Y-227154350D01*
G75*
G02*
X156702650Y-225565688I751312J837350D01*
G01*
G37*
D23*
X159000000Y-227627000D03*
G36*
G01*
X158377605Y-232550483D02*
X158377605Y-232550483D01*
G75*
G02*
X159576517Y-231504605I1122395J-76517D01*
G01*
X160156549Y-231544147D01*
G75*
G02*
X161202427Y-232743059I-76517J-1122395D01*
G01*
X161202427Y-232743059D01*
G75*
G02*
X160003515Y-233788937I-1122395J76517D01*
G01*
X159423483Y-233749395D01*
G75*
G02*
X158377605Y-232550483I76517J1122395D01*
G01*
G37*
X160080000Y-232667000D03*
D15*
X158800000Y-235127000D03*
G04 #@! TD*
D33*
G04 #@! TO.C,J5*
X85250000Y-142100000D03*
D34*
X82710000Y-142100000D03*
X80170000Y-142100000D03*
X77630000Y-142100000D03*
X75090000Y-142100000D03*
G04 #@! TD*
D25*
G04 #@! TO.C,*
X348000000Y-247000000D03*
G04 #@! TD*
D35*
G04 #@! TO.C,U2*
X96246869Y-159909832D03*
X98786869Y-159909832D03*
X101326869Y-159909832D03*
X103866869Y-159909832D03*
X106406869Y-159909832D03*
X108946869Y-159909832D03*
X111486869Y-159909832D03*
X114026869Y-159909832D03*
X116566869Y-159909832D03*
X119106869Y-159909832D03*
X121646869Y-159909832D03*
X124186869Y-159909832D03*
X126726869Y-159909832D03*
X129266869Y-159909832D03*
X96246869Y-170069832D03*
X96246869Y-167529832D03*
X129266869Y-175149832D03*
X126726869Y-175149832D03*
X124186869Y-175149832D03*
X121646869Y-175149832D03*
X119106869Y-175149832D03*
X116566869Y-175149832D03*
X114026869Y-175149832D03*
X111486869Y-175149832D03*
X108946869Y-175149832D03*
X106406869Y-175149832D03*
X103866869Y-175149832D03*
X101326869Y-175149832D03*
X98786869Y-175149832D03*
X96246869Y-175149832D03*
D31*
X117836869Y-178959832D03*
X115296869Y-178959832D03*
X112756869Y-178959832D03*
X110216869Y-178959832D03*
X107676869Y-178959832D03*
X110216869Y-181499832D03*
X107676869Y-181499832D03*
X121037269Y-154217692D03*
X121037269Y-151637052D03*
X121037269Y-149099592D03*
D35*
X103866869Y-148225832D03*
X101326869Y-148225832D03*
X98786869Y-148225832D03*
D31*
X112756869Y-181499832D03*
X117836869Y-181499832D03*
G04 #@! TD*
D10*
G04 #@! TO.C,D5*
X336110000Y-197300000D03*
D36*
X328490000Y-197300000D03*
G04 #@! TD*
D33*
G04 #@! TO.C,LS1*
X85475000Y-184250000D03*
D34*
X85475000Y-186790000D03*
G04 #@! TD*
D33*
G04 #@! TO.C,S1*
X92825000Y-246750000D03*
D34*
X90285000Y-246750000D03*
X87745000Y-246750000D03*
X85205000Y-246750000D03*
X82665000Y-246750000D03*
G04 #@! TD*
D37*
G04 #@! TO.C,J1*
X349800000Y-143810000D03*
X349800000Y-149590000D03*
D38*
X353450000Y-151020000D03*
X353450000Y-142380000D03*
D39*
X349270000Y-151020000D03*
X349270000Y-142380000D03*
G04 #@! TD*
D31*
G04 #@! TO.C,U10*
X285045000Y-179080000D03*
X282505000Y-179080000D03*
D30*
X279965000Y-179080000D03*
D31*
X277425000Y-179080000D03*
G04 #@! TD*
D10*
G04 #@! TO.C,D4*
X336110000Y-193300000D03*
D36*
X328490000Y-193300000D03*
G04 #@! TD*
D40*
G04 #@! TO.C,Q2*
X325230000Y-151460000D03*
D41*
X325230000Y-154000000D03*
X325230000Y-156540000D03*
G04 #@! TD*
G04 #@! TO.C,J3*
G36*
G01*
X298100000Y-149500000D02*
X296600000Y-149500000D01*
G75*
G02*
X296350000Y-149250000I0J250000D01*
G01*
X296350000Y-148050000D01*
G75*
G02*
X296600000Y-147800000I250000J0D01*
G01*
X298100000Y-147800000D01*
G75*
G02*
X298350000Y-148050000I0J-250000D01*
G01*
X298350000Y-149250000D01*
G75*
G02*
X298100000Y-149500000I-250000J0D01*
G01*
G37*
D32*
X297350000Y-146150000D03*
G04 #@! TD*
D40*
G04 #@! TO.C,Q1*
X340230000Y-136660000D03*
D41*
X340230000Y-139200000D03*
X340230000Y-141740000D03*
G04 #@! TD*
D33*
G04 #@! TO.C,LS2*
X91225000Y-184250000D03*
D34*
X91225000Y-186790000D03*
G04 #@! TD*
D42*
G04 #@! TO.C,D1*
X327720000Y-147000000D03*
D43*
X337880000Y-147000000D03*
G04 #@! TD*
D10*
G04 #@! TO.C,U8*
X49500000Y-184750000D03*
D36*
X52040000Y-184750000D03*
X54580000Y-184750000D03*
X57120000Y-184750000D03*
X59660000Y-184750000D03*
X62200000Y-184750000D03*
X64740000Y-184750000D03*
X67280000Y-184750000D03*
X69820000Y-184750000D03*
X69820000Y-192370000D03*
X67280000Y-192370000D03*
X64740000Y-192370000D03*
X62200000Y-192370000D03*
X59660000Y-192370000D03*
X57120000Y-192370000D03*
X54580000Y-192370000D03*
X52040000Y-192370000D03*
X49500000Y-192370000D03*
G04 #@! TD*
D33*
G04 #@! TO.C,J7*
X350025000Y-154200000D03*
D34*
X352565000Y-154200000D03*
G04 #@! TD*
G04 #@! TO.C,J2*
G36*
G01*
X294850000Y-140750000D02*
X293350000Y-140750000D01*
G75*
G02*
X293100000Y-140500000I0J250000D01*
G01*
X293100000Y-139300000D01*
G75*
G02*
X293350000Y-139050000I250000J0D01*
G01*
X294850000Y-139050000D01*
G75*
G02*
X295100000Y-139300000I0J-250000D01*
G01*
X295100000Y-140500000D01*
G75*
G02*
X294850000Y-140750000I-250000J0D01*
G01*
G37*
D32*
X294100000Y-137400000D03*
G04 #@! TD*
D44*
G04 #@! TO.C,Q3*
X347040000Y-213770000D03*
D45*
X347040000Y-212500000D03*
X347040000Y-211230000D03*
G04 #@! TD*
D10*
G04 #@! TO.C,U7*
X49350000Y-203450000D03*
D36*
X51890000Y-203450000D03*
X54430000Y-203450000D03*
X56970000Y-203450000D03*
X59510000Y-203450000D03*
X62050000Y-203450000D03*
X64590000Y-203450000D03*
X67130000Y-203450000D03*
X69670000Y-203450000D03*
X69670000Y-211070000D03*
X67130000Y-211070000D03*
X64590000Y-211070000D03*
X62050000Y-211070000D03*
X59510000Y-211070000D03*
X56970000Y-211070000D03*
X54430000Y-211070000D03*
X51890000Y-211070000D03*
X49350000Y-211070000D03*
G04 #@! TD*
M02*
