M48
; DRILL file {KiCad (6.0.1)} date Mon Mar 21 15:47:51 2022
; FORMAT={-:-/ absolute / metric / decimal}
; #@! TF.CreationDate,2022-03-21T15:47:51+08:00
; #@! TF.GenerationSoftware,Kicad,Pcbnew,(6.0.1)
; #@! TF.FileFunction,Plated,1,2,PTH
FMAT,2
METRIC
; #@! TA.AperFunction,Plated,PTH,ViaDrill
T1C0.300
; #@! TA.AperFunction,Plated,PTH,ComponentDrill
T2C0.600
; #@! TA.AperFunction,Plated,PTH,ComponentDrill
T3C0.750
; #@! TA.AperFunction,Plated,PTH,ComponentDrill
T4C0.800
; #@! TA.AperFunction,Plated,PTH,ComponentDrill
T5C0.914
; #@! TA.AperFunction,Plated,PTH,ComponentDrill
T6C1.000
; #@! TA.AperFunction,Plated,PTH,ComponentDrill
T7C1.016
; #@! TA.AperFunction,Plated,PTH,ComponentDrill
T8C1.100
; #@! TA.AperFunction,Plated,PTH,ComponentDrill
T9C1.200
; #@! TA.AperFunction,Plated,PTH,ComponentDrill
T10C1.300
; #@! TA.AperFunction,Plated,PTH,ComponentDrill
T11C1.470
; #@! TA.AperFunction,Plated,PTH,ComponentDrill
T12C1.500
; #@! TA.AperFunction,Plated,PTH,ComponentDrill
T13C2.600
; #@! TA.AperFunction,Plated,PTH,ComponentDrill
T14C3.500
%
G90
G05
T1
X46.75Y-201.75
X46.75Y-203.5
X47.0Y-191.0
X47.0Y-192.5
X50.75Y-190.25
X50.75Y-201.0
X52.5Y-173.75
X53.5Y-173.75
X54.5Y-173.75
X55.5Y-160.0
X55.5Y-161.0
X55.5Y-162.0
X55.75Y-190.25
X55.75Y-201.25
X56.5Y-160.0
X56.5Y-161.0
X56.5Y-162.0
X57.4Y-166.8
X58.25Y-201.25
X58.4Y-166.8
X60.75Y-190.25
X63.75Y-162.75
X64.75Y-162.75
X65.25Y-173.25
X65.75Y-162.75
X66.0Y-190.25
X66.25Y-173.25
X67.25Y-173.25
X69.9Y-156.7
X69.9Y-157.7
X69.9Y-158.7
X70.0Y-145.342
X70.25Y-201.2
X70.9Y-156.7
X70.9Y-157.7
X70.9Y-158.7
X72.6Y-195.8
X72.65Y-190.9
X73.0Y-186.25
X73.85Y-202.45
X73.9Y-201.2
X75.0Y-220.0
X75.5Y-201.2
X75.55Y-202.4
X76.0Y-149.5
X76.5Y-169.5
X77.4Y-189.9
X77.5Y-217.5
X80.0Y-185.5
X80.0Y-186.75
X80.0Y-188.0
X80.0Y-190.0
X80.0Y-192.75
X80.35Y-174.65
X80.75Y-162.5
X81.5Y-154.0
X81.5Y-185.5
X81.5Y-186.75
X81.5Y-188.0
X81.75Y-160.75
X82.0Y-162.25
X82.25Y-153.25
X82.25Y-159.5
X82.75Y-155.0
X83.5Y-154.25
X84.5Y-161.25
X85.75Y-172.75
X86.2Y-153.8
X86.5Y-172.0
X86.5Y-173.5
X87.25Y-172.75
X87.25Y-174.25
X87.5Y-153.8
X87.75Y-146.25
X87.75Y-147.5
X88.0Y-173.5
X89.0Y-146.25
X89.0Y-147.5
X89.0Y-149.75
X89.0Y-153.75
X89.0Y-161.5
X89.0Y-163.0
X89.0Y-164.5
X89.0Y-165.75
X91.0Y-169.5
X91.25Y-149.75
X92.0Y-163.0
X92.0Y-164.5
X92.0Y-165.75
X92.0Y-168.25
X92.5Y-150.75
X93.2Y-171.8
X93.2Y-173.5
X94.25Y-237.5
X94.25Y-240.5
X95.5Y-211.5
X96.25Y-164.75
X98.25Y-208.5
X99.5Y-182.25
X99.5Y-183.5
X100.75Y-182.25
X100.75Y-183.5
X102.0Y-182.25
X102.0Y-183.5
X103.25Y-143.5
X103.25Y-144.8
X104.4Y-143.5
X104.4Y-144.8
X105.75Y-140.75
X107.25Y-166.5
X107.25Y-168.5
X108.75Y-166.5
X108.75Y-168.5
X109.0Y-187.0
X110.25Y-166.5
X110.25Y-168.5
X112.75Y-161.75
X115.3Y-161.75
X117.5Y-166.75
X117.5Y-168.5
X119.0Y-166.75
X119.0Y-168.5
X119.4Y-194.0
X120.5Y-166.75
X120.5Y-168.5
X121.75Y-208.2
X124.25Y-181.0
X125.25Y-180.25
X125.25Y-182.25
X126.25Y-181.25
X126.25Y-183.25
X127.25Y-182.25
X130.25Y-166.5
X130.25Y-168.5
X131.25Y-137.25
X131.25Y-138.75
X131.25Y-140.25
X131.25Y-141.75
X131.25Y-143.25
X131.25Y-145.0
X131.25Y-146.75
X131.25Y-166.5
X131.25Y-168.5
X133.6Y-160.75
X135.75Y-166.5
X135.75Y-168.5
X136.0Y-137.25
X136.0Y-138.75
X136.0Y-140.25
X136.0Y-141.75
X136.0Y-143.25
X136.0Y-145.0
X136.0Y-146.75
X137.0Y-166.5
X137.0Y-168.5
X149.75Y-166.5
X149.75Y-168.75
X153.25Y-190.75
X154.5Y-144.1
X156.0Y-187.75
X156.0Y-189.25
X160.25Y-189.5
X161.25Y-189.5
X162.25Y-189.5
X186.4Y-144.6
X189.6Y-208.2
X192.75Y-190.5
X193.75Y-190.5
X194.75Y-190.5
X196.1Y-194.7
X196.1Y-195.9
X196.1Y-197.2
X196.1Y-198.5
X197.5Y-204.5
X199.5Y-189.0
X199.5Y-190.5
X200.4Y-196.1
X200.401Y-198.4
X201.2Y-199.5
X201.8Y-194.8
X202.0Y-198.4
X203.0Y-200.5
X203.8Y-199.5
X204.5Y-192.0
X207.1Y-154.0
X207.8Y-199.6
X208.2Y-188.3
X208.8Y-198.7
X209.25Y-184.25
X209.6Y-187.8
X211.9Y-203.5
X213.7Y-183.3
X215.0Y-203.5
X218.2Y-204.7
X227.5Y-139.5
X243.75Y-186.5
X243.75Y-187.75
X245.0Y-186.5
X245.0Y-187.75
X246.25Y-186.5
X246.25Y-187.75
X248.9Y-201.8
X249.0Y-171.25
X249.0Y-173.25
X249.5Y-195.5
X249.5Y-196.8
X249.5Y-198.1
X249.5Y-199.3
X250.7Y-201.5
X251.0Y-189.5
X251.75Y-158.75
X251.75Y-161.5
X251.75Y-164.0
X251.75Y-172.25
X251.75Y-174.25
X251.75Y-175.5
X251.75Y-177.0
X252.2Y-196.6
X253.25Y-142.0
X253.5Y-195.6
X253.5Y-203.8
X254.0Y-209.3
X255.4Y-209.3
X255.75Y-184.75
X256.0Y-174.25
X256.0Y-175.5
X256.0Y-177.0
X256.0Y-178.2
X256.5Y-191.25
X257.2Y-148.8
X258.0Y-195.3
X258.3Y-212.1
X258.5Y-191.9
X258.7Y-202.6
X259.0Y-134.0
X259.8Y-214.0
X260.25Y-133.0
X261.4Y-195.0
X262.5Y-175.8
X262.5Y-177.25
X262.5Y-179.0
X262.6Y-208.8
X263.1Y-211.25
X264.5Y-215.5
X264.75Y-212.75
X264.75Y-214.0
X265.9Y-202.7
X266.0Y-211.75
X266.5Y-196.9
X266.5Y-198.2
X266.5Y-199.5
X267.0Y-203.9
X269.25Y-149.75
X270.0Y-150.5
X270.75Y-151.25
X271.5Y-152.0
X272.0Y-147.0
X272.75Y-147.75
X273.5Y-148.5
X273.5Y-156.75
X273.5Y-157.75
X273.75Y-135.5
X273.75Y-136.8
X274.25Y-149.25
X274.25Y-152.0
X274.5Y-156.75
X274.5Y-157.75
X274.6Y-161.7
X275.5Y-156.75
X275.5Y-157.75
X275.5Y-169.25
X275.5Y-170.5
X275.5Y-171.75
X275.5Y-173.0
X275.5Y-174.25
X275.5Y-175.5
X276.1Y-187.6
X277.4Y-162.6
X278.75Y-185.75
X279.2Y-162.65
X279.2Y-163.9
X279.25Y-156.5
X279.25Y-157.5
X280.0Y-169.25
X280.0Y-170.5
X280.0Y-171.75
X280.0Y-173.0
X280.0Y-174.25
X280.0Y-175.5
X280.2Y-186.7
X280.4Y-162.65
X280.4Y-163.9
X280.5Y-156.5
X280.5Y-157.5
X281.7Y-156.5
X281.7Y-157.5
X282.5Y-162.5
X284.75Y-169.25
X284.75Y-170.5
X284.75Y-171.75
X284.75Y-173.0
X284.75Y-174.25
X284.75Y-175.5
X285.5Y-162.2
X285.6Y-163.6
X286.5Y-165.7
X287.3Y-156.5
X287.3Y-157.5
X288.4Y-156.5
X288.4Y-157.5
X289.4Y-156.5
X289.4Y-157.5
X290.5Y-152.6
X291.9Y-152.6
X293.3Y-152.6
X294.7Y-153.75
X294.7Y-155.1
X297.75Y-159.0
X303.5Y-145.25
X303.5Y-146.5
X303.5Y-162.25
X307.5Y-151.1
X307.6Y-139.9
X307.6Y-140.9
X308.6Y-139.9
X308.6Y-140.9
X309.6Y-139.9
X309.6Y-140.9
X310.6Y-139.9
X310.6Y-140.9
X311.6Y-139.9
X311.6Y-140.9
X315.05Y-146.3
X315.05Y-147.3
X316.3Y-146.3
X316.3Y-147.3
X316.5Y-143.5
X317.55Y-146.3
X317.55Y-147.3
X317.75Y-141.5
X318.75Y-141.5
X318.8Y-146.3
X318.8Y-147.3
X319.75Y-141.5
X330.5Y-156.0
X332.2Y-170.5
X334.9Y-199.3
X335.3Y-149.9
X335.3Y-150.9
X343.5Y-170.75
X343.5Y-173.0
X343.5Y-175.0
X344.7Y-146.8
X344.75Y-144.25
X345.5Y-170.75
X345.5Y-173.0
X345.5Y-175.0
X346.0Y-145.4
X346.0Y-147.9
X346.2Y-154.1
X347.5Y-170.75
X347.5Y-173.0
X347.5Y-175.0
X349.2Y-190.7
X350.7Y-190.7
X352.1Y-190.7
X352.8Y-146.2
X352.8Y-147.2
X353.8Y-146.2
X353.8Y-147.2
X354.5Y-156.0
X354.5Y-162.9
T3
X347.04Y-211.23
X347.04Y-212.5
X347.04Y-213.77
T4
X49.35Y-203.45
X49.35Y-211.07
X49.5Y-184.75
X49.5Y-192.37
X51.89Y-203.45
X51.89Y-211.07
X52.04Y-184.75
X52.04Y-192.37
X54.25Y-136.575
X54.43Y-203.45
X54.43Y-211.07
X54.58Y-184.75
X54.58Y-192.37
X56.75Y-136.575
X56.97Y-203.45
X56.97Y-211.07
X57.12Y-184.75
X57.12Y-192.37
X59.51Y-203.45
X59.51Y-211.07
X59.66Y-184.75
X59.66Y-192.37
X60.703Y-155.2
X60.703Y-165.7
X62.05Y-203.45
X62.05Y-211.07
X62.2Y-184.75
X62.2Y-192.37
X64.503Y-155.2
X64.503Y-165.7
X64.59Y-203.45
X64.59Y-211.07
X64.74Y-184.75
X64.74Y-192.37
X67.13Y-203.45
X67.13Y-211.07
X67.28Y-184.75
X67.28Y-192.37
X69.67Y-203.45
X69.67Y-211.07
X69.82Y-184.75
X69.82Y-192.37
X293.52Y-171.73
X293.52Y-174.27
X305.76Y-174.182
X305.76Y-176.182
X305.76Y-178.182
X307.76Y-174.182
X307.76Y-176.182
X307.76Y-178.182
X328.49Y-193.3
X328.49Y-197.3
X330.497Y-205.3
X334.297Y-205.3
X336.11Y-193.3
X336.11Y-197.3
T5
X46.89Y-188.0
X46.89Y-195.62
X46.89Y-198.702
X46.89Y-206.322
X49.43Y-188.0
X49.43Y-195.62
X49.43Y-198.702
X49.43Y-206.322
X51.97Y-188.0
X51.97Y-195.62
X51.97Y-198.702
X51.97Y-206.322
X54.51Y-188.0
X54.51Y-195.62
X54.51Y-198.702
X54.51Y-206.322
X57.05Y-188.0
X57.05Y-195.62
X57.05Y-198.702
X57.05Y-206.322
X59.59Y-188.0
X59.59Y-195.62
X59.59Y-198.702
X59.59Y-206.322
X62.13Y-188.0
X62.13Y-195.62
X62.13Y-198.702
X62.13Y-206.322
X64.67Y-188.0
X64.67Y-195.62
X64.67Y-198.702
X64.67Y-206.322
X67.21Y-188.0
X67.21Y-195.62
X67.21Y-198.702
X67.21Y-206.322
X69.75Y-188.0
X69.75Y-195.62
X69.75Y-198.702
X69.75Y-206.322
T6
X63.76Y-142.085
X63.76Y-144.625
X66.3Y-142.085
X66.3Y-144.625
X75.09Y-142.1
X77.63Y-142.1
X80.17Y-142.1
X82.665Y-246.75
X82.71Y-142.1
X85.205Y-246.75
X85.25Y-142.1
X85.475Y-184.25
X85.475Y-186.79
X87.745Y-246.75
X90.285Y-246.75
X91.225Y-184.25
X91.225Y-186.79
X92.825Y-246.75
X143.05Y-145.875
X143.05Y-148.375
X143.05Y-150.875
X157.55Y-145.875
X157.55Y-150.875
X175.05Y-145.875
X175.05Y-148.375
X175.05Y-150.875
X189.55Y-145.875
X189.55Y-150.875
X207.05Y-145.875
X207.05Y-148.375
X207.05Y-150.875
X221.55Y-145.875
X221.55Y-150.875
X238.75Y-145.875
X238.75Y-148.375
X238.75Y-150.875
X253.25Y-145.875
X253.25Y-150.875
X267.05Y-144.955
X267.05Y-147.495
X267.05Y-150.035
X267.05Y-152.575
X267.05Y-155.115
X267.05Y-157.655
X267.05Y-160.195
X267.05Y-162.735
X267.05Y-165.275
X267.05Y-167.815
X267.05Y-170.355
X267.05Y-172.895
X267.05Y-175.435
X267.05Y-177.975
X277.425Y-179.08
X279.965Y-179.08
X282.505Y-179.08
X285.045Y-179.08
X294.1Y-137.4
X294.1Y-139.9
X297.35Y-146.15
X297.35Y-148.65
X350.025Y-154.2
X352.565Y-154.2
T7
X96.247Y-159.91
X96.247Y-167.53
X96.247Y-170.07
X96.247Y-175.15
X98.787Y-148.226
X98.787Y-159.91
X98.787Y-175.15
X101.327Y-148.226
X101.327Y-159.91
X101.327Y-175.15
X103.867Y-148.226
X103.867Y-159.91
X103.867Y-175.15
X106.407Y-159.91
X106.407Y-175.15
X107.677Y-178.96
X107.677Y-181.5
X108.947Y-159.91
X108.947Y-175.15
X110.217Y-178.96
X110.217Y-181.5
X111.487Y-159.91
X111.487Y-175.15
X112.757Y-178.96
X112.757Y-181.5
X114.027Y-159.91
X114.027Y-175.15
X115.297Y-178.96
X116.567Y-159.91
X116.567Y-175.15
X117.837Y-178.96
X117.837Y-181.5
X119.107Y-159.91
X119.107Y-175.15
X121.037Y-149.1
X121.037Y-151.637
X121.037Y-154.218
X121.647Y-159.91
X121.647Y-175.15
X124.187Y-159.91
X124.187Y-175.15
X126.727Y-159.91
X126.727Y-175.15
X129.267Y-159.91
X129.267Y-175.15
T8
X292.79Y-165.38
X292.79Y-180.62
X295.33Y-165.38
X295.33Y-178.08
X295.33Y-180.62
X297.87Y-165.38
X297.87Y-180.62
X299.089Y-168.431
X300.41Y-165.38
X300.41Y-180.62
X301.629Y-168.431
X302.95Y-165.38
X302.95Y-180.62
X304.169Y-168.431
X305.49Y-165.38
X305.49Y-180.62
X306.709Y-168.431
X308.03Y-165.38
X308.03Y-180.62
X309.249Y-168.431
X310.57Y-165.38
X310.57Y-180.62
X313.11Y-165.38
X313.11Y-180.62
X315.65Y-165.38
X315.65Y-180.62
X318.19Y-165.38
X318.19Y-180.62
X320.73Y-165.38
X320.73Y-180.62
X323.27Y-165.38
X323.27Y-180.62
X325.23Y-151.46
X325.23Y-154.0
X325.23Y-156.54
X325.81Y-165.38
X325.81Y-180.62
X327.72Y-147.0
X328.35Y-165.38
X328.35Y-180.62
X330.89Y-165.38
X330.89Y-180.62
X333.43Y-165.38
X333.43Y-180.62
X335.97Y-165.38
X335.97Y-180.62
X337.88Y-147.0
X338.51Y-165.38
X338.51Y-167.92
X338.51Y-170.46
X338.51Y-173.0
X338.51Y-175.54
X338.51Y-178.08
X338.51Y-180.62
X340.23Y-136.66
X340.23Y-139.2
X340.23Y-141.74
X341.05Y-165.38
X341.05Y-180.62
X343.59Y-165.38
X343.59Y-180.62
X346.13Y-165.38
X346.13Y-180.62
X348.67Y-165.38
X348.67Y-180.62
X351.21Y-165.38
X351.21Y-180.62
T9
X82.8Y-235.127
X84.9Y-230.127
X88.0Y-195.1
X93.0Y-197.2
X101.8Y-235.127
X103.9Y-230.127
X107.0Y-195.1
X112.0Y-197.2
X120.8Y-235.127
X122.9Y-230.127
X139.8Y-235.127
X141.9Y-230.127
X145.0Y-195.1
X150.0Y-197.2
X158.8Y-235.127
X160.9Y-230.127
X164.0Y-195.1
X169.0Y-197.2
X177.8Y-235.127
X179.9Y-230.127
X183.0Y-195.1
X188.0Y-197.2
X196.8Y-235.127
X198.9Y-230.127
X215.8Y-235.127
X217.9Y-230.127
X221.0Y-195.1
X226.0Y-197.2
X234.8Y-235.127
X236.9Y-230.127
X240.0Y-195.1
X245.0Y-197.2
X253.8Y-235.127
X255.9Y-230.127
X272.8Y-235.127
X274.9Y-230.127
X278.0Y-195.1
X283.0Y-197.2
X291.8Y-235.127
X293.9Y-230.127
X297.0Y-195.1
X302.0Y-197.2
X310.8Y-235.127
X312.9Y-230.127
X316.0Y-195.1
X321.0Y-197.2
X329.8Y-235.127
X331.9Y-230.127
X348.8Y-235.127
X350.9Y-230.127
T10
X139.5Y-168.875
X139.5Y-181.375
X144.5Y-168.875
X144.5Y-181.375
X155.5Y-168.875
X155.5Y-181.375
X160.5Y-168.875
X160.5Y-181.375
X171.5Y-168.875
X171.5Y-181.375
X176.5Y-168.875
X176.5Y-181.375
X187.5Y-168.875
X187.5Y-181.375
X192.5Y-168.875
X192.5Y-181.375
X203.5Y-168.875
X203.5Y-181.375
X208.5Y-168.875
X208.5Y-181.375
X219.5Y-168.875
X219.5Y-181.375
X224.5Y-168.875
X224.5Y-181.375
X235.5Y-168.875
X235.5Y-181.375
X240.5Y-168.875
X240.5Y-181.375
X251.5Y-168.875
X251.5Y-181.375
X256.5Y-168.875
X256.5Y-181.375
X339.26Y-199.5
X339.26Y-204.5
X351.76Y-199.5
X351.76Y-204.5
T11
X81.54Y-226.317
X83.0Y-227.627
X83.5Y-232.627
X84.08Y-232.667
X84.19Y-198.46
X85.5Y-197.0
X90.5Y-196.5
X90.54Y-195.92
X100.54Y-226.317
X102.0Y-227.627
X102.5Y-232.627
X103.08Y-232.667
X103.19Y-198.46
X104.5Y-197.0
X109.5Y-196.5
X109.54Y-195.92
X119.54Y-226.317
X121.0Y-227.627
X121.5Y-232.627
X122.08Y-232.667
X138.54Y-226.317
X140.0Y-227.627
X140.5Y-232.627
X141.08Y-232.667
X141.19Y-198.46
X142.5Y-197.0
X147.5Y-196.5
X147.54Y-195.92
X157.54Y-226.317
X159.0Y-227.627
X159.5Y-232.627
X160.08Y-232.667
X160.19Y-198.46
X161.5Y-197.0
X166.5Y-196.5
X166.54Y-195.92
X176.54Y-226.317
X178.0Y-227.627
X178.5Y-232.627
X179.08Y-232.667
X179.19Y-198.46
X180.5Y-197.0
X185.5Y-196.5
X185.54Y-195.92
X195.54Y-226.317
X197.0Y-227.627
X197.5Y-232.627
X198.08Y-232.667
X214.54Y-226.317
X216.0Y-227.627
X216.5Y-232.627
X217.08Y-232.667
X217.19Y-198.46
X218.5Y-197.0
X223.5Y-196.5
X223.54Y-195.92
X233.54Y-226.317
X235.0Y-227.627
X235.5Y-232.627
X236.08Y-232.667
X236.19Y-198.46
X237.5Y-197.0
X242.5Y-196.5
X242.54Y-195.92
X252.54Y-226.317
X254.0Y-227.627
X254.5Y-232.627
X255.08Y-232.667
X271.54Y-226.317
X273.0Y-227.627
X273.5Y-232.627
X274.08Y-232.667
X274.19Y-198.46
X275.5Y-197.0
X280.5Y-196.5
X280.54Y-195.92
X290.54Y-226.317
X292.0Y-227.627
X292.5Y-232.627
X293.08Y-232.667
X293.19Y-198.46
X294.5Y-197.0
X299.5Y-196.5
X299.54Y-195.92
X309.54Y-226.317
X311.0Y-227.627
X311.5Y-232.627
X312.08Y-232.667
X312.19Y-198.46
X313.5Y-197.0
X318.5Y-196.5
X318.54Y-195.92
X328.54Y-226.317
X330.0Y-227.627
X330.5Y-232.627
X331.08Y-232.667
X347.54Y-226.317
X349.0Y-227.627
X349.5Y-232.627
X350.08Y-232.667
T12
X340.2Y-152.8
T13
X150.55Y-142.775
X150.55Y-153.975
X182.55Y-142.775
X182.55Y-153.975
X214.55Y-142.775
X214.55Y-153.975
X246.25Y-142.775
X246.25Y-153.975
T14
X44.0Y-136.0
X44.0Y-213.0
X74.75Y-247.0
X199.0Y-136.0
X212.0Y-213.25
X348.0Y-247.0
T2
X349.82Y-142.38G85X348.72Y-142.38
G05
X349.82Y-151.02G85X348.72Y-151.02
G05
X353.75Y-142.38G85X353.15Y-142.38
G05
X353.75Y-151.02G85X353.15Y-151.02
G05
T6
X41.65Y-147.582G85X42.05Y-147.582
G05
X41.65Y-160.582G85X42.05Y-160.582
G05
X41.65Y-173.582G85X42.05Y-173.582
G05
X42.55Y-152.382G85X42.95Y-152.382
G05
X42.55Y-165.382G85X42.95Y-165.382
G05
X42.55Y-178.382G85X42.95Y-178.382
G05
X43.55Y-147.582G85X43.95Y-147.582
G05
X43.55Y-160.582G85X43.95Y-160.582
G05
X43.55Y-173.582G85X43.95Y-173.582
G05
X45.55Y-152.382G85X45.95Y-152.382
G05
X45.55Y-165.382G85X45.95Y-165.382
G05
X45.55Y-178.382G85X45.95Y-178.382
G05
X46.55Y-147.582G85X46.95Y-147.582
G05
X46.55Y-160.582G85X46.95Y-160.582
G05
X46.55Y-173.582G85X46.95Y-173.582
G05
X48.35Y-152.382G85X48.75Y-152.382
G05
X48.35Y-165.382G85X48.75Y-165.382
G05
X48.35Y-178.382G85X48.75Y-178.382
G05
X48.55Y-147.582G85X48.95Y-147.582
G05
X48.55Y-160.582G85X48.95Y-160.582
G05
X48.55Y-173.582G85X48.95Y-173.582
G05
X50.55Y-152.382G85X50.95Y-152.382
G05
X50.55Y-165.382G85X50.95Y-165.382
G05
X50.55Y-178.382G85X50.95Y-178.382
G05
X93.117Y-134.55G85X93.117Y-134.95
G05
X93.117Y-137.55G85X93.117Y-137.95
G05
X93.117Y-140.35G85X93.117Y-140.75
G05
X93.117Y-142.55G85X93.117Y-142.95
G05
X97.917Y-133.65G85X97.917Y-134.05
G05
X97.917Y-135.55G85X97.917Y-135.95
G05
X97.917Y-138.55G85X97.917Y-138.95
G05
X97.917Y-140.55G85X97.917Y-140.95
G05
T0
M30
