%FSLAX45Y45*%
G04 Gerber Fmt 4.5, Leading zero omitted, Abs format (unit mm)*
G04 Created by KiCad (PCBNEW (6.0.1)) date 2022-03-21 15:47:53*
%MOMM*%
%LPD*%
G01*
G04 APERTURE LIST*
%TA.AperFunction,Profile*%
%ADD10C,0.100000*%
%TD*%
%ADD11C,0.200000*%
%ADD12C,0.065000*%
%ADD13C,0.120000*%
%ADD14C,0.130000*%
%ADD15C,0.170000*%
%ADD16C,0.175000*%
%ADD17C,0.304800*%
%ADD18C,0.350000*%
%ADD19C,0.398780*%
G04 APERTURE END LIST*
D10*
X6650000Y-21700000D02*
X6650000Y-24700000D01*
X4000000Y-21300000D02*
X4000000Y-13600000D01*
X35600000Y-13600000D02*
X35600000Y-24700000D01*
X6650000Y-24700000D02*
G75*
G03*
X7050000Y-25100000I400000J0D01*
G01*
X4400000Y-13200000D02*
G75*
G03*
X4000000Y-13600000I0J-400000D01*
G01*
X4400000Y-13200000D02*
X35200000Y-13200000D01*
X4000000Y-21300000D02*
G75*
G03*
X4400000Y-21700000I400000J0D01*
G01*
X35200000Y-25100000D02*
X7050000Y-25100000D01*
X35600000Y-13600000D02*
G75*
G03*
X35200000Y-13200000I-400000J0D01*
G01*
X4400000Y-21700000D02*
X6650000Y-21700000D01*
X35200000Y-25100000D02*
G75*
G03*
X35600000Y-24700000I0J400000D01*
G01*
D11*
D12*
X34947500Y-14348500D02*
X35012500Y-14413500D01*
X35012500Y-14348500D02*
X34947500Y-14413500D01*
X34947500Y-14926500D02*
X35012500Y-14991500D01*
X35012500Y-14926500D02*
X34947500Y-14991500D01*
D13*
X7540000Y-22490700D02*
G75*
G03*
X7540000Y-22490700I-60000J0D01*
G01*
X8338000Y-20520000D02*
G75*
G03*
X8338000Y-20520000I-60000J0D01*
G01*
X9440000Y-22490700D02*
G75*
G03*
X9440000Y-22490700I-60000J0D01*
G01*
X10238000Y-20520000D02*
G75*
G03*
X10238000Y-20520000I-60000J0D01*
G01*
X11340000Y-22490700D02*
G75*
G03*
X11340000Y-22490700I-60000J0D01*
G01*
X13240000Y-22490700D02*
G75*
G03*
X13240000Y-22490700I-60000J0D01*
G01*
X14038000Y-20520000D02*
G75*
G03*
X14038000Y-20520000I-60000J0D01*
G01*
X15140000Y-22490700D02*
G75*
G03*
X15140000Y-22490700I-60000J0D01*
G01*
X15938000Y-20520000D02*
G75*
G03*
X15938000Y-20520000I-60000J0D01*
G01*
X17040000Y-22490700D02*
G75*
G03*
X17040000Y-22490700I-60000J0D01*
G01*
X17838000Y-20520000D02*
G75*
G03*
X17838000Y-20520000I-60000J0D01*
G01*
X18940000Y-22490700D02*
G75*
G03*
X18940000Y-22490700I-60000J0D01*
G01*
X20840000Y-22490700D02*
G75*
G03*
X20840000Y-22490700I-60000J0D01*
G01*
X21638000Y-20520000D02*
G75*
G03*
X21638000Y-20520000I-60000J0D01*
G01*
X22740000Y-22490700D02*
G75*
G03*
X22740000Y-22490700I-60000J0D01*
G01*
X23538000Y-20520000D02*
G75*
G03*
X23538000Y-20520000I-60000J0D01*
G01*
X24640000Y-22490700D02*
G75*
G03*
X24640000Y-22490700I-60000J0D01*
G01*
X26540000Y-22490700D02*
G75*
G03*
X26540000Y-22490700I-60000J0D01*
G01*
X27338000Y-20520000D02*
G75*
G03*
X27338000Y-20520000I-60000J0D01*
G01*
X28440000Y-22490700D02*
G75*
G03*
X28440000Y-22490700I-60000J0D01*
G01*
X29238000Y-20520000D02*
G75*
G03*
X29238000Y-20520000I-60000J0D01*
G01*
X30340000Y-22490700D02*
G75*
G03*
X30340000Y-22490700I-60000J0D01*
G01*
X31138000Y-20520000D02*
G75*
G03*
X31138000Y-20520000I-60000J0D01*
G01*
X32240000Y-22490700D02*
G75*
G03*
X32240000Y-22490700I-60000J0D01*
G01*
X34140000Y-22490700D02*
G75*
G03*
X34140000Y-22490700I-60000J0D01*
G01*
D14*
X4225000Y-14933250D02*
X4225000Y-15063250D01*
X4160000Y-14998250D02*
X4290000Y-14998250D01*
X4225000Y-16233250D02*
X4225000Y-16363250D01*
X4160000Y-16298250D02*
X4290000Y-16298250D01*
X4225000Y-17533250D02*
X4225000Y-17663250D01*
X4160000Y-17598250D02*
X4290000Y-17598250D01*
X4925000Y-14933250D02*
X4925000Y-15063250D01*
X4860000Y-14998250D02*
X4990000Y-14998250D01*
X4925000Y-16233250D02*
X4925000Y-16363250D01*
X4860000Y-16298250D02*
X4990000Y-16298250D01*
X4925000Y-17533250D02*
X4925000Y-17663250D01*
X4860000Y-17598250D02*
X4990000Y-17598250D01*
X9551750Y-13360000D02*
X9551750Y-13490000D01*
X9486750Y-13425000D02*
X9616750Y-13425000D01*
X9551750Y-14060000D02*
X9551750Y-14190000D01*
X9486750Y-14125000D02*
X9616750Y-14125000D01*
D15*
X7960105Y-22522805D02*
X7960105Y-22402595D01*
X7839895Y-22402595D01*
X7839895Y-22522805D01*
X7960105Y-22522805D01*
X7960105Y-23622805D02*
X7960105Y-23502595D01*
X7839895Y-23502595D01*
X7839895Y-23622805D01*
X7960105Y-23622805D01*
X8310105Y-20160105D02*
X8310105Y-20039895D01*
X8189895Y-20039895D01*
X8189895Y-20160105D01*
X8310105Y-20160105D01*
X9410105Y-20160105D02*
X9410105Y-20039895D01*
X9289895Y-20039895D01*
X9289895Y-20160105D01*
X9410105Y-20160105D01*
X9860105Y-22522805D02*
X9860105Y-22402595D01*
X9739895Y-22402595D01*
X9739895Y-22522805D01*
X9860105Y-22522805D01*
X9860105Y-23622805D02*
X9860105Y-23502595D01*
X9739895Y-23502595D01*
X9739895Y-23622805D01*
X9860105Y-23622805D01*
X10210105Y-20160105D02*
X10210105Y-20039895D01*
X10089895Y-20039895D01*
X10089895Y-20160105D01*
X10210105Y-20160105D01*
X11310105Y-20160105D02*
X11310105Y-20039895D01*
X11189895Y-20039895D01*
X11189895Y-20160105D01*
X11310105Y-20160105D01*
X11760105Y-22522805D02*
X11760105Y-22402595D01*
X11639895Y-22402595D01*
X11639895Y-22522805D01*
X11760105Y-22522805D01*
X11760105Y-23622805D02*
X11760105Y-23502595D01*
X11639895Y-23502595D01*
X11639895Y-23622805D01*
X11760105Y-23622805D01*
X13660105Y-22522805D02*
X13660105Y-22402595D01*
X13539895Y-22402595D01*
X13539895Y-22522805D01*
X13660105Y-22522805D01*
X13660105Y-23622805D02*
X13660105Y-23502595D01*
X13539895Y-23502595D01*
X13539895Y-23622805D01*
X13660105Y-23622805D01*
X14010105Y-20160105D02*
X14010105Y-20039895D01*
X13889895Y-20039895D01*
X13889895Y-20160105D01*
X14010105Y-20160105D01*
X15110105Y-20160105D02*
X15110105Y-20039895D01*
X14989895Y-20039895D01*
X14989895Y-20160105D01*
X15110105Y-20160105D01*
X15560105Y-22522805D02*
X15560105Y-22402595D01*
X15439895Y-22402595D01*
X15439895Y-22522805D01*
X15560105Y-22522805D01*
X15560105Y-23622805D02*
X15560105Y-23502595D01*
X15439895Y-23502595D01*
X15439895Y-23622805D01*
X15560105Y-23622805D01*
X15910105Y-20160105D02*
X15910105Y-20039895D01*
X15789895Y-20039895D01*
X15789895Y-20160105D01*
X15910105Y-20160105D01*
X17010105Y-20160105D02*
X17010105Y-20039895D01*
X16889895Y-20039895D01*
X16889895Y-20160105D01*
X17010105Y-20160105D01*
X17460105Y-22522805D02*
X17460105Y-22402595D01*
X17339895Y-22402595D01*
X17339895Y-22522805D01*
X17460105Y-22522805D01*
X17460105Y-23622805D02*
X17460105Y-23502595D01*
X17339895Y-23502595D01*
X17339895Y-23622805D01*
X17460105Y-23622805D01*
X17810105Y-20160105D02*
X17810105Y-20039895D01*
X17689895Y-20039895D01*
X17689895Y-20160105D01*
X17810105Y-20160105D01*
X18910105Y-20160105D02*
X18910105Y-20039895D01*
X18789895Y-20039895D01*
X18789895Y-20160105D01*
X18910105Y-20160105D01*
X19360105Y-22522805D02*
X19360105Y-22402595D01*
X19239895Y-22402595D01*
X19239895Y-22522805D01*
X19360105Y-22522805D01*
X19360105Y-23622805D02*
X19360105Y-23502595D01*
X19239895Y-23502595D01*
X19239895Y-23622805D01*
X19360105Y-23622805D01*
X21260105Y-22522805D02*
X21260105Y-22402595D01*
X21139895Y-22402595D01*
X21139895Y-22522805D01*
X21260105Y-22522805D01*
X21260105Y-23622805D02*
X21260105Y-23502595D01*
X21139895Y-23502595D01*
X21139895Y-23622805D01*
X21260105Y-23622805D01*
X21610105Y-20160105D02*
X21610105Y-20039895D01*
X21489895Y-20039895D01*
X21489895Y-20160105D01*
X21610105Y-20160105D01*
X22710105Y-20160105D02*
X22710105Y-20039895D01*
X22589895Y-20039895D01*
X22589895Y-20160105D01*
X22710105Y-20160105D01*
X23160105Y-22522805D02*
X23160105Y-22402595D01*
X23039895Y-22402595D01*
X23039895Y-22522805D01*
X23160105Y-22522805D01*
X23160105Y-23622805D02*
X23160105Y-23502595D01*
X23039895Y-23502595D01*
X23039895Y-23622805D01*
X23160105Y-23622805D01*
X23510105Y-20160105D02*
X23510105Y-20039895D01*
X23389895Y-20039895D01*
X23389895Y-20160105D01*
X23510105Y-20160105D01*
X24610105Y-20160105D02*
X24610105Y-20039895D01*
X24489895Y-20039895D01*
X24489895Y-20160105D01*
X24610105Y-20160105D01*
X25060105Y-22522805D02*
X25060105Y-22402595D01*
X24939895Y-22402595D01*
X24939895Y-22522805D01*
X25060105Y-22522805D01*
X25060105Y-23622805D02*
X25060105Y-23502595D01*
X24939895Y-23502595D01*
X24939895Y-23622805D01*
X25060105Y-23622805D01*
X26960105Y-22522805D02*
X26960105Y-22402595D01*
X26839895Y-22402595D01*
X26839895Y-22522805D01*
X26960105Y-22522805D01*
X26960105Y-23622805D02*
X26960105Y-23502595D01*
X26839895Y-23502595D01*
X26839895Y-23622805D01*
X26960105Y-23622805D01*
X27310105Y-20160105D02*
X27310105Y-20039895D01*
X27189895Y-20039895D01*
X27189895Y-20160105D01*
X27310105Y-20160105D01*
X28410105Y-20160105D02*
X28410105Y-20039895D01*
X28289895Y-20039895D01*
X28289895Y-20160105D01*
X28410105Y-20160105D01*
X28860105Y-22522805D02*
X28860105Y-22402595D01*
X28739895Y-22402595D01*
X28739895Y-22522805D01*
X28860105Y-22522805D01*
X28860105Y-23622805D02*
X28860105Y-23502595D01*
X28739895Y-23502595D01*
X28739895Y-23622805D01*
X28860105Y-23622805D01*
X29210105Y-20160105D02*
X29210105Y-20039895D01*
X29089895Y-20039895D01*
X29089895Y-20160105D01*
X29210105Y-20160105D01*
X30310105Y-20160105D02*
X30310105Y-20039895D01*
X30189895Y-20039895D01*
X30189895Y-20160105D01*
X30310105Y-20160105D01*
X30760105Y-22522805D02*
X30760105Y-22402595D01*
X30639895Y-22402595D01*
X30639895Y-22522805D01*
X30760105Y-22522805D01*
X30760105Y-23622805D02*
X30760105Y-23502595D01*
X30639895Y-23502595D01*
X30639895Y-23622805D01*
X30760105Y-23622805D01*
X31110105Y-20160105D02*
X31110105Y-20039895D01*
X30989895Y-20039895D01*
X30989895Y-20160105D01*
X31110105Y-20160105D01*
X32210105Y-20160105D02*
X32210105Y-20039895D01*
X32089895Y-20039895D01*
X32089895Y-20160105D01*
X32210105Y-20160105D01*
X32660105Y-22522805D02*
X32660105Y-22402595D01*
X32539895Y-22402595D01*
X32539895Y-22522805D01*
X32660105Y-22522805D01*
X32660105Y-23622805D02*
X32660105Y-23502595D01*
X32539895Y-23502595D01*
X32539895Y-23622805D01*
X32660105Y-23622805D01*
X34560105Y-22522805D02*
X34560105Y-22402595D01*
X34439895Y-22402595D01*
X34439895Y-22522805D01*
X34560105Y-22522805D01*
X34560105Y-23622805D02*
X34560105Y-23502595D01*
X34439895Y-23502595D01*
X34439895Y-23622805D01*
X34560105Y-23622805D01*
D16*
X7900000Y-22592200D02*
X7987500Y-22504700D01*
X7900000Y-22417200D01*
X7812500Y-22504700D01*
X7900000Y-22592200D01*
X7900000Y-23608200D02*
X7987500Y-23520700D01*
X7900000Y-23433200D01*
X7812500Y-23520700D01*
X7900000Y-23608200D01*
X8292000Y-20187500D02*
X8379500Y-20100000D01*
X8292000Y-20012500D01*
X8204500Y-20100000D01*
X8292000Y-20187500D01*
X9308000Y-20187500D02*
X9395500Y-20100000D01*
X9308000Y-20012500D01*
X9220500Y-20100000D01*
X9308000Y-20187500D01*
X9800000Y-22592200D02*
X9887500Y-22504700D01*
X9800000Y-22417200D01*
X9712500Y-22504700D01*
X9800000Y-22592200D01*
X9800000Y-23608200D02*
X9887500Y-23520700D01*
X9800000Y-23433200D01*
X9712500Y-23520700D01*
X9800000Y-23608200D01*
X10192000Y-20187500D02*
X10279500Y-20100000D01*
X10192000Y-20012500D01*
X10104500Y-20100000D01*
X10192000Y-20187500D01*
X11208000Y-20187500D02*
X11295500Y-20100000D01*
X11208000Y-20012500D01*
X11120500Y-20100000D01*
X11208000Y-20187500D01*
X11700000Y-22592200D02*
X11787500Y-22504700D01*
X11700000Y-22417200D01*
X11612500Y-22504700D01*
X11700000Y-22592200D01*
X11700000Y-23608200D02*
X11787500Y-23520700D01*
X11700000Y-23433200D01*
X11612500Y-23520700D01*
X11700000Y-23608200D01*
X13600000Y-22592200D02*
X13687500Y-22504700D01*
X13600000Y-22417200D01*
X13512500Y-22504700D01*
X13600000Y-22592200D01*
X13600000Y-23608200D02*
X13687500Y-23520700D01*
X13600000Y-23433200D01*
X13512500Y-23520700D01*
X13600000Y-23608200D01*
X13992000Y-20187500D02*
X14079500Y-20100000D01*
X13992000Y-20012500D01*
X13904500Y-20100000D01*
X13992000Y-20187500D01*
X15008000Y-20187500D02*
X15095500Y-20100000D01*
X15008000Y-20012500D01*
X14920500Y-20100000D01*
X15008000Y-20187500D01*
X15500000Y-22592200D02*
X15587500Y-22504700D01*
X15500000Y-22417200D01*
X15412500Y-22504700D01*
X15500000Y-22592200D01*
X15500000Y-23608200D02*
X15587500Y-23520700D01*
X15500000Y-23433200D01*
X15412500Y-23520700D01*
X15500000Y-23608200D01*
X15892000Y-20187500D02*
X15979500Y-20100000D01*
X15892000Y-20012500D01*
X15804500Y-20100000D01*
X15892000Y-20187500D01*
X16908000Y-20187500D02*
X16995500Y-20100000D01*
X16908000Y-20012500D01*
X16820500Y-20100000D01*
X16908000Y-20187500D01*
X17400000Y-22592200D02*
X17487500Y-22504700D01*
X17400000Y-22417200D01*
X17312500Y-22504700D01*
X17400000Y-22592200D01*
X17400000Y-23608200D02*
X17487500Y-23520700D01*
X17400000Y-23433200D01*
X17312500Y-23520700D01*
X17400000Y-23608200D01*
X17792000Y-20187500D02*
X17879500Y-20100000D01*
X17792000Y-20012500D01*
X17704500Y-20100000D01*
X17792000Y-20187500D01*
X18808000Y-20187500D02*
X18895500Y-20100000D01*
X18808000Y-20012500D01*
X18720500Y-20100000D01*
X18808000Y-20187500D01*
X19300000Y-22592200D02*
X19387500Y-22504700D01*
X19300000Y-22417200D01*
X19212500Y-22504700D01*
X19300000Y-22592200D01*
X19300000Y-23608200D02*
X19387500Y-23520700D01*
X19300000Y-23433200D01*
X19212500Y-23520700D01*
X19300000Y-23608200D01*
X21200000Y-22592200D02*
X21287500Y-22504700D01*
X21200000Y-22417200D01*
X21112500Y-22504700D01*
X21200000Y-22592200D01*
X21200000Y-23608200D02*
X21287500Y-23520700D01*
X21200000Y-23433200D01*
X21112500Y-23520700D01*
X21200000Y-23608200D01*
X21592000Y-20187500D02*
X21679500Y-20100000D01*
X21592000Y-20012500D01*
X21504500Y-20100000D01*
X21592000Y-20187500D01*
X22608000Y-20187500D02*
X22695500Y-20100000D01*
X22608000Y-20012500D01*
X22520500Y-20100000D01*
X22608000Y-20187500D01*
X23100000Y-22592200D02*
X23187500Y-22504700D01*
X23100000Y-22417200D01*
X23012500Y-22504700D01*
X23100000Y-22592200D01*
X23100000Y-23608200D02*
X23187500Y-23520700D01*
X23100000Y-23433200D01*
X23012500Y-23520700D01*
X23100000Y-23608200D01*
X23492000Y-20187500D02*
X23579500Y-20100000D01*
X23492000Y-20012500D01*
X23404500Y-20100000D01*
X23492000Y-20187500D01*
X24508000Y-20187500D02*
X24595500Y-20100000D01*
X24508000Y-20012500D01*
X24420500Y-20100000D01*
X24508000Y-20187500D01*
X25000000Y-22592200D02*
X25087500Y-22504700D01*
X25000000Y-22417200D01*
X24912500Y-22504700D01*
X25000000Y-22592200D01*
X25000000Y-23608200D02*
X25087500Y-23520700D01*
X25000000Y-23433200D01*
X24912500Y-23520700D01*
X25000000Y-23608200D01*
X26900000Y-22592200D02*
X26987500Y-22504700D01*
X26900000Y-22417200D01*
X26812500Y-22504700D01*
X26900000Y-22592200D01*
X26900000Y-23608200D02*
X26987500Y-23520700D01*
X26900000Y-23433200D01*
X26812500Y-23520700D01*
X26900000Y-23608200D01*
X27292000Y-20187500D02*
X27379500Y-20100000D01*
X27292000Y-20012500D01*
X27204500Y-20100000D01*
X27292000Y-20187500D01*
X28308000Y-20187500D02*
X28395500Y-20100000D01*
X28308000Y-20012500D01*
X28220500Y-20100000D01*
X28308000Y-20187500D01*
X28800000Y-22592200D02*
X28887500Y-22504700D01*
X28800000Y-22417200D01*
X28712500Y-22504700D01*
X28800000Y-22592200D01*
X28800000Y-23608200D02*
X28887500Y-23520700D01*
X28800000Y-23433200D01*
X28712500Y-23520700D01*
X28800000Y-23608200D01*
X29192000Y-20187500D02*
X29279500Y-20100000D01*
X29192000Y-20012500D01*
X29104500Y-20100000D01*
X29192000Y-20187500D01*
X30208000Y-20187500D02*
X30295500Y-20100000D01*
X30208000Y-20012500D01*
X30120500Y-20100000D01*
X30208000Y-20187500D01*
X30700000Y-22592200D02*
X30787500Y-22504700D01*
X30700000Y-22417200D01*
X30612500Y-22504700D01*
X30700000Y-22592200D01*
X30700000Y-23608200D02*
X30787500Y-23520700D01*
X30700000Y-23433200D01*
X30612500Y-23520700D01*
X30700000Y-23608200D01*
X31092000Y-20187500D02*
X31179500Y-20100000D01*
X31092000Y-20012500D01*
X31004500Y-20100000D01*
X31092000Y-20187500D01*
X32108000Y-20187500D02*
X32195500Y-20100000D01*
X32108000Y-20012500D01*
X32020500Y-20100000D01*
X32108000Y-20187500D01*
X32600000Y-22592200D02*
X32687500Y-22504700D01*
X32600000Y-22417200D01*
X32512500Y-22504700D01*
X32600000Y-22592200D01*
X32600000Y-23608200D02*
X32687500Y-23520700D01*
X32600000Y-23433200D01*
X32512500Y-23520700D01*
X32600000Y-23608200D01*
X34500000Y-22592200D02*
X34587500Y-22504700D01*
X34500000Y-22417200D01*
X34412500Y-22504700D01*
X34500000Y-22592200D01*
X34500000Y-23608200D02*
X34587500Y-23520700D01*
X34500000Y-23433200D01*
X34412500Y-23520700D01*
X34500000Y-23608200D01*
D17*
X8446100Y-21666500D02*
X8750900Y-21971300D01*
X8750900Y-21666500D02*
X8446100Y-21971300D01*
X8750900Y-21818900D02*
G75*
G03*
X8750900Y-21818900I-152400J0D01*
G01*
X8446100Y-24054100D02*
X8750900Y-24358900D01*
X8750900Y-24054100D02*
X8446100Y-24358900D01*
X8750900Y-24206500D02*
G75*
G03*
X8750900Y-24206500I-152400J0D01*
G01*
X10346100Y-21666500D02*
X10650900Y-21971300D01*
X10650900Y-21666500D02*
X10346100Y-21971300D01*
X10650900Y-21818900D02*
G75*
G03*
X10650900Y-21818900I-152400J0D01*
G01*
X10346100Y-24054100D02*
X10650900Y-24358900D01*
X10650900Y-24054100D02*
X10346100Y-24358900D01*
X10650900Y-24206500D02*
G75*
G03*
X10650900Y-24206500I-152400J0D01*
G01*
X12246100Y-21666500D02*
X12550900Y-21971300D01*
X12550900Y-21666500D02*
X12246100Y-21971300D01*
X12550900Y-21818900D02*
G75*
G03*
X12550900Y-21818900I-152400J0D01*
G01*
X12246100Y-24054100D02*
X12550900Y-24358900D01*
X12550900Y-24054100D02*
X12246100Y-24358900D01*
X12550900Y-24206500D02*
G75*
G03*
X12550900Y-24206500I-152400J0D01*
G01*
X14146100Y-21666500D02*
X14450900Y-21971300D01*
X14450900Y-21666500D02*
X14146100Y-21971300D01*
X14450900Y-21818900D02*
G75*
G03*
X14450900Y-21818900I-152400J0D01*
G01*
X14146100Y-24054100D02*
X14450900Y-24358900D01*
X14450900Y-24054100D02*
X14146100Y-24358900D01*
X14450900Y-24206500D02*
G75*
G03*
X14450900Y-24206500I-152400J0D01*
G01*
X16046100Y-21666500D02*
X16350900Y-21971300D01*
X16350900Y-21666500D02*
X16046100Y-21971300D01*
X16350900Y-21818900D02*
G75*
G03*
X16350900Y-21818900I-152400J0D01*
G01*
X16046100Y-24054100D02*
X16350900Y-24358900D01*
X16350900Y-24054100D02*
X16046100Y-24358900D01*
X16350900Y-24206500D02*
G75*
G03*
X16350900Y-24206500I-152400J0D01*
G01*
X17946100Y-21666500D02*
X18250900Y-21971300D01*
X18250900Y-21666500D02*
X17946100Y-21971300D01*
X18250900Y-21818900D02*
G75*
G03*
X18250900Y-21818900I-152400J0D01*
G01*
X17946100Y-24054100D02*
X18250900Y-24358900D01*
X18250900Y-24054100D02*
X17946100Y-24358900D01*
X18250900Y-24206500D02*
G75*
G03*
X18250900Y-24206500I-152400J0D01*
G01*
X19846100Y-21666500D02*
X20150900Y-21971300D01*
X20150900Y-21666500D02*
X19846100Y-21971300D01*
X20150900Y-21818900D02*
G75*
G03*
X20150900Y-21818900I-152400J0D01*
G01*
X19846100Y-24054100D02*
X20150900Y-24358900D01*
X20150900Y-24054100D02*
X19846100Y-24358900D01*
X20150900Y-24206500D02*
G75*
G03*
X20150900Y-24206500I-152400J0D01*
G01*
X21746100Y-21666500D02*
X22050900Y-21971300D01*
X22050900Y-21666500D02*
X21746100Y-21971300D01*
X22050900Y-21818900D02*
G75*
G03*
X22050900Y-21818900I-152400J0D01*
G01*
X21746100Y-24054100D02*
X22050900Y-24358900D01*
X22050900Y-24054100D02*
X21746100Y-24358900D01*
X22050900Y-24206500D02*
G75*
G03*
X22050900Y-24206500I-152400J0D01*
G01*
X23646100Y-21666500D02*
X23950900Y-21971300D01*
X23950900Y-21666500D02*
X23646100Y-21971300D01*
X23950900Y-21818900D02*
G75*
G03*
X23950900Y-21818900I-152400J0D01*
G01*
X23646100Y-24054100D02*
X23950900Y-24358900D01*
X23950900Y-24054100D02*
X23646100Y-24358900D01*
X23950900Y-24206500D02*
G75*
G03*
X23950900Y-24206500I-152400J0D01*
G01*
X25546100Y-21666500D02*
X25850900Y-21971300D01*
X25850900Y-21666500D02*
X25546100Y-21971300D01*
X25850900Y-21818900D02*
G75*
G03*
X25850900Y-21818900I-152400J0D01*
G01*
X25546100Y-24054100D02*
X25850900Y-24358900D01*
X25850900Y-24054100D02*
X25546100Y-24358900D01*
X25850900Y-24206500D02*
G75*
G03*
X25850900Y-24206500I-152400J0D01*
G01*
X27446100Y-21666500D02*
X27750900Y-21971300D01*
X27750900Y-21666500D02*
X27446100Y-21971300D01*
X27750900Y-21818900D02*
G75*
G03*
X27750900Y-21818900I-152400J0D01*
G01*
X27446100Y-24054100D02*
X27750900Y-24358900D01*
X27750900Y-24054100D02*
X27446100Y-24358900D01*
X27750900Y-24206500D02*
G75*
G03*
X27750900Y-24206500I-152400J0D01*
G01*
X29346100Y-21666500D02*
X29650900Y-21971300D01*
X29650900Y-21666500D02*
X29346100Y-21971300D01*
X29650900Y-21818900D02*
G75*
G03*
X29650900Y-21818900I-152400J0D01*
G01*
X29346100Y-24054100D02*
X29650900Y-24358900D01*
X29650900Y-24054100D02*
X29346100Y-24358900D01*
X29650900Y-24206500D02*
G75*
G03*
X29650900Y-24206500I-152400J0D01*
G01*
X31246100Y-21666500D02*
X31550900Y-21971300D01*
X31550900Y-21666500D02*
X31246100Y-21971300D01*
X31550900Y-21818900D02*
G75*
G03*
X31550900Y-21818900I-152400J0D01*
G01*
X31246100Y-24054100D02*
X31550900Y-24358900D01*
X31550900Y-24054100D02*
X31246100Y-24358900D01*
X31550900Y-24206500D02*
G75*
G03*
X31550900Y-24206500I-152400J0D01*
G01*
X33146100Y-21666500D02*
X33450900Y-21971300D01*
X33450900Y-21666500D02*
X33146100Y-21971300D01*
X33450900Y-21818900D02*
G75*
G03*
X33450900Y-21818900I-152400J0D01*
G01*
X33146100Y-24054100D02*
X33450900Y-24358900D01*
X33450900Y-24054100D02*
X33146100Y-24358900D01*
X33450900Y-24206500D02*
G75*
G03*
X33450900Y-24206500I-152400J0D01*
G01*
X35046100Y-21666500D02*
X35350900Y-21971300D01*
X35350900Y-21666500D02*
X35046100Y-21971300D01*
X35350900Y-21818900D02*
G75*
G03*
X35350900Y-21818900I-152400J0D01*
G01*
X35046100Y-24054100D02*
X35350900Y-24358900D01*
X35350900Y-24054100D02*
X35046100Y-24358900D01*
X35350900Y-24206500D02*
G75*
G03*
X35350900Y-24206500I-152400J0D01*
G01*
D18*
X26630000Y-13510500D02*
X26980000Y-13860500D01*
X26980000Y-13510500D02*
X26630000Y-13860500D01*
X26805000Y-13510500D02*
X26805000Y-13860500D01*
X26630000Y-13685500D02*
X26980000Y-13685500D01*
X26630000Y-18414500D02*
X26980000Y-18764500D01*
X26980000Y-18414500D02*
X26630000Y-18764500D01*
X26805000Y-18414500D02*
X26805000Y-18764500D01*
X26630000Y-18589500D02*
X26980000Y-18589500D01*
X34960000Y-13510500D02*
X35310000Y-13860500D01*
X35310000Y-13510500D02*
X34960000Y-13860500D01*
X35135000Y-13510500D02*
X35135000Y-13860500D01*
X34960000Y-13685500D02*
X35310000Y-13685500D01*
X34960000Y-18414500D02*
X35310000Y-18764500D01*
X35310000Y-18414500D02*
X34960000Y-18764500D01*
X35135000Y-18414500D02*
X35135000Y-18764500D01*
X34960000Y-18589500D02*
X35310000Y-18589500D01*
D19*
X6875110Y-21619510D02*
X7273890Y-22018290D01*
X7273890Y-21619510D02*
X6875110Y-22018290D01*
X7215491Y-21959891D02*
X7215491Y-21677909D01*
X6933509Y-21677909D01*
X6933509Y-21959891D01*
X7215491Y-21959891D01*
X6875110Y-24007110D02*
X7273890Y-24405890D01*
X7273890Y-24007110D02*
X6875110Y-24405890D01*
X7215491Y-24347491D02*
X7215491Y-24065509D01*
X6933509Y-24065509D01*
X6933509Y-24347491D01*
X7215491Y-24347491D01*
X7700610Y-22813310D02*
X8099390Y-23212090D01*
X8099390Y-22813310D02*
X7700610Y-23212090D01*
X8040991Y-23153691D02*
X8040991Y-22871709D01*
X7759009Y-22871709D01*
X7759009Y-23153691D01*
X8040991Y-23153691D01*
X8600610Y-19900610D02*
X8999390Y-20299390D01*
X8999390Y-19900610D02*
X8600610Y-20299390D01*
X8940991Y-20240991D02*
X8940991Y-19959009D01*
X8659009Y-19959009D01*
X8659009Y-20240991D01*
X8940991Y-20240991D01*
X8775110Y-21619510D02*
X9173890Y-22018290D01*
X9173890Y-21619510D02*
X8775110Y-22018290D01*
X9115491Y-21959891D02*
X9115491Y-21677909D01*
X8833509Y-21677909D01*
X8833509Y-21959891D01*
X9115491Y-21959891D01*
X8775110Y-24007110D02*
X9173890Y-24405890D01*
X9173890Y-24007110D02*
X8775110Y-24405890D01*
X9115491Y-24347491D02*
X9115491Y-24065509D01*
X8833509Y-24065509D01*
X8833509Y-24347491D01*
X9115491Y-24347491D01*
X9600610Y-22813310D02*
X9999390Y-23212090D01*
X9999390Y-22813310D02*
X9600610Y-23212090D01*
X9940991Y-23153691D02*
X9940991Y-22871709D01*
X9659009Y-22871709D01*
X9659009Y-23153691D01*
X9940991Y-23153691D01*
X10500610Y-19900610D02*
X10899390Y-20299390D01*
X10899390Y-19900610D02*
X10500610Y-20299390D01*
X10840991Y-20240991D02*
X10840991Y-19959009D01*
X10559009Y-19959009D01*
X10559009Y-20240991D01*
X10840991Y-20240991D01*
X10675110Y-21619510D02*
X11073890Y-22018290D01*
X11073890Y-21619510D02*
X10675110Y-22018290D01*
X11015491Y-21959891D02*
X11015491Y-21677909D01*
X10733509Y-21677909D01*
X10733509Y-21959891D01*
X11015491Y-21959891D01*
X10675110Y-24007110D02*
X11073890Y-24405890D01*
X11073890Y-24007110D02*
X10675110Y-24405890D01*
X11015491Y-24347491D02*
X11015491Y-24065509D01*
X10733509Y-24065509D01*
X10733509Y-24347491D01*
X11015491Y-24347491D01*
X11500610Y-22813310D02*
X11899390Y-23212090D01*
X11899390Y-22813310D02*
X11500610Y-23212090D01*
X11840991Y-23153691D02*
X11840991Y-22871709D01*
X11559009Y-22871709D01*
X11559009Y-23153691D01*
X11840991Y-23153691D01*
X12575110Y-21619510D02*
X12973890Y-22018290D01*
X12973890Y-21619510D02*
X12575110Y-22018290D01*
X12915491Y-21959891D02*
X12915491Y-21677909D01*
X12633509Y-21677909D01*
X12633509Y-21959891D01*
X12915491Y-21959891D01*
X12575110Y-24007110D02*
X12973890Y-24405890D01*
X12973890Y-24007110D02*
X12575110Y-24405890D01*
X12915491Y-24347491D02*
X12915491Y-24065509D01*
X12633509Y-24065509D01*
X12633509Y-24347491D01*
X12915491Y-24347491D01*
X13400610Y-22813310D02*
X13799390Y-23212090D01*
X13799390Y-22813310D02*
X13400610Y-23212090D01*
X13740991Y-23153691D02*
X13740991Y-22871709D01*
X13459009Y-22871709D01*
X13459009Y-23153691D01*
X13740991Y-23153691D01*
X14300610Y-19900610D02*
X14699390Y-20299390D01*
X14699390Y-19900610D02*
X14300610Y-20299390D01*
X14640991Y-20240991D02*
X14640991Y-19959009D01*
X14359009Y-19959009D01*
X14359009Y-20240991D01*
X14640991Y-20240991D01*
X14475110Y-21619510D02*
X14873890Y-22018290D01*
X14873890Y-21619510D02*
X14475110Y-22018290D01*
X14815491Y-21959891D02*
X14815491Y-21677909D01*
X14533509Y-21677909D01*
X14533509Y-21959891D01*
X14815491Y-21959891D01*
X14475110Y-24007110D02*
X14873890Y-24405890D01*
X14873890Y-24007110D02*
X14475110Y-24405890D01*
X14815491Y-24347491D02*
X14815491Y-24065509D01*
X14533509Y-24065509D01*
X14533509Y-24347491D01*
X14815491Y-24347491D01*
X15300610Y-22813310D02*
X15699390Y-23212090D01*
X15699390Y-22813310D02*
X15300610Y-23212090D01*
X15640991Y-23153691D02*
X15640991Y-22871709D01*
X15359009Y-22871709D01*
X15359009Y-23153691D01*
X15640991Y-23153691D01*
X16200610Y-19900610D02*
X16599390Y-20299390D01*
X16599390Y-19900610D02*
X16200610Y-20299390D01*
X16540991Y-20240991D02*
X16540991Y-19959009D01*
X16259009Y-19959009D01*
X16259009Y-20240991D01*
X16540991Y-20240991D01*
X16375110Y-21619510D02*
X16773890Y-22018290D01*
X16773890Y-21619510D02*
X16375110Y-22018290D01*
X16715491Y-21959891D02*
X16715491Y-21677909D01*
X16433509Y-21677909D01*
X16433509Y-21959891D01*
X16715491Y-21959891D01*
X16375110Y-24007110D02*
X16773890Y-24405890D01*
X16773890Y-24007110D02*
X16375110Y-24405890D01*
X16715491Y-24347491D02*
X16715491Y-24065509D01*
X16433509Y-24065509D01*
X16433509Y-24347491D01*
X16715491Y-24347491D01*
X17200610Y-22813310D02*
X17599390Y-23212090D01*
X17599390Y-22813310D02*
X17200610Y-23212090D01*
X17540991Y-23153691D02*
X17540991Y-22871709D01*
X17259009Y-22871709D01*
X17259009Y-23153691D01*
X17540991Y-23153691D01*
X18100610Y-19900610D02*
X18499390Y-20299390D01*
X18499390Y-19900610D02*
X18100610Y-20299390D01*
X18440991Y-20240991D02*
X18440991Y-19959009D01*
X18159009Y-19959009D01*
X18159009Y-20240991D01*
X18440991Y-20240991D01*
X18275110Y-21619510D02*
X18673890Y-22018290D01*
X18673890Y-21619510D02*
X18275110Y-22018290D01*
X18615491Y-21959891D02*
X18615491Y-21677909D01*
X18333509Y-21677909D01*
X18333509Y-21959891D01*
X18615491Y-21959891D01*
X18275110Y-24007110D02*
X18673890Y-24405890D01*
X18673890Y-24007110D02*
X18275110Y-24405890D01*
X18615491Y-24347491D02*
X18615491Y-24065509D01*
X18333509Y-24065509D01*
X18333509Y-24347491D01*
X18615491Y-24347491D01*
X19100610Y-22813310D02*
X19499390Y-23212090D01*
X19499390Y-22813310D02*
X19100610Y-23212090D01*
X19440991Y-23153691D02*
X19440991Y-22871709D01*
X19159009Y-22871709D01*
X19159009Y-23153691D01*
X19440991Y-23153691D01*
X20175110Y-21619510D02*
X20573890Y-22018290D01*
X20573890Y-21619510D02*
X20175110Y-22018290D01*
X20515491Y-21959891D02*
X20515491Y-21677909D01*
X20233509Y-21677909D01*
X20233509Y-21959891D01*
X20515491Y-21959891D01*
X20175110Y-24007110D02*
X20573890Y-24405890D01*
X20573890Y-24007110D02*
X20175110Y-24405890D01*
X20515491Y-24347491D02*
X20515491Y-24065509D01*
X20233509Y-24065509D01*
X20233509Y-24347491D01*
X20515491Y-24347491D01*
X21000610Y-22813310D02*
X21399390Y-23212090D01*
X21399390Y-22813310D02*
X21000610Y-23212090D01*
X21340991Y-23153691D02*
X21340991Y-22871709D01*
X21059009Y-22871709D01*
X21059009Y-23153691D01*
X21340991Y-23153691D01*
X21900610Y-19900610D02*
X22299390Y-20299390D01*
X22299390Y-19900610D02*
X21900610Y-20299390D01*
X22240991Y-20240991D02*
X22240991Y-19959009D01*
X21959009Y-19959009D01*
X21959009Y-20240991D01*
X22240991Y-20240991D01*
X22075110Y-21619510D02*
X22473890Y-22018290D01*
X22473890Y-21619510D02*
X22075110Y-22018290D01*
X22415491Y-21959891D02*
X22415491Y-21677909D01*
X22133509Y-21677909D01*
X22133509Y-21959891D01*
X22415491Y-21959891D01*
X22075110Y-24007110D02*
X22473890Y-24405890D01*
X22473890Y-24007110D02*
X22075110Y-24405890D01*
X22415491Y-24347491D02*
X22415491Y-24065509D01*
X22133509Y-24065509D01*
X22133509Y-24347491D01*
X22415491Y-24347491D01*
X22900610Y-22813310D02*
X23299390Y-23212090D01*
X23299390Y-22813310D02*
X22900610Y-23212090D01*
X23240991Y-23153691D02*
X23240991Y-22871709D01*
X22959009Y-22871709D01*
X22959009Y-23153691D01*
X23240991Y-23153691D01*
X23800610Y-19900610D02*
X24199390Y-20299390D01*
X24199390Y-19900610D02*
X23800610Y-20299390D01*
X24140991Y-20240991D02*
X24140991Y-19959009D01*
X23859009Y-19959009D01*
X23859009Y-20240991D01*
X24140991Y-20240991D01*
X23975110Y-21619510D02*
X24373890Y-22018290D01*
X24373890Y-21619510D02*
X23975110Y-22018290D01*
X24315491Y-21959891D02*
X24315491Y-21677909D01*
X24033509Y-21677909D01*
X24033509Y-21959891D01*
X24315491Y-21959891D01*
X23975110Y-24007110D02*
X24373890Y-24405890D01*
X24373890Y-24007110D02*
X23975110Y-24405890D01*
X24315491Y-24347491D02*
X24315491Y-24065509D01*
X24033509Y-24065509D01*
X24033509Y-24347491D01*
X24315491Y-24347491D01*
X24800610Y-22813310D02*
X25199390Y-23212090D01*
X25199390Y-22813310D02*
X24800610Y-23212090D01*
X25140991Y-23153691D02*
X25140991Y-22871709D01*
X24859009Y-22871709D01*
X24859009Y-23153691D01*
X25140991Y-23153691D01*
X25875110Y-21619510D02*
X26273890Y-22018290D01*
X26273890Y-21619510D02*
X25875110Y-22018290D01*
X26215491Y-21959891D02*
X26215491Y-21677909D01*
X25933509Y-21677909D01*
X25933509Y-21959891D01*
X26215491Y-21959891D01*
X25875110Y-24007110D02*
X26273890Y-24405890D01*
X26273890Y-24007110D02*
X25875110Y-24405890D01*
X26215491Y-24347491D02*
X26215491Y-24065509D01*
X25933509Y-24065509D01*
X25933509Y-24347491D01*
X26215491Y-24347491D01*
X26700610Y-22813310D02*
X27099390Y-23212090D01*
X27099390Y-22813310D02*
X26700610Y-23212090D01*
X27040991Y-23153691D02*
X27040991Y-22871709D01*
X26759009Y-22871709D01*
X26759009Y-23153691D01*
X27040991Y-23153691D01*
X27600610Y-19900610D02*
X27999390Y-20299390D01*
X27999390Y-19900610D02*
X27600610Y-20299390D01*
X27940991Y-20240991D02*
X27940991Y-19959009D01*
X27659009Y-19959009D01*
X27659009Y-20240991D01*
X27940991Y-20240991D01*
X27775110Y-21619510D02*
X28173890Y-22018290D01*
X28173890Y-21619510D02*
X27775110Y-22018290D01*
X28115491Y-21959891D02*
X28115491Y-21677909D01*
X27833509Y-21677909D01*
X27833509Y-21959891D01*
X28115491Y-21959891D01*
X27775110Y-24007110D02*
X28173890Y-24405890D01*
X28173890Y-24007110D02*
X27775110Y-24405890D01*
X28115491Y-24347491D02*
X28115491Y-24065509D01*
X27833509Y-24065509D01*
X27833509Y-24347491D01*
X28115491Y-24347491D01*
X28600610Y-22813310D02*
X28999390Y-23212090D01*
X28999390Y-22813310D02*
X28600610Y-23212090D01*
X28940991Y-23153691D02*
X28940991Y-22871709D01*
X28659009Y-22871709D01*
X28659009Y-23153691D01*
X28940991Y-23153691D01*
X29500610Y-19900610D02*
X29899390Y-20299390D01*
X29899390Y-19900610D02*
X29500610Y-20299390D01*
X29840991Y-20240991D02*
X29840991Y-19959009D01*
X29559009Y-19959009D01*
X29559009Y-20240991D01*
X29840991Y-20240991D01*
X29675110Y-21619510D02*
X30073890Y-22018290D01*
X30073890Y-21619510D02*
X29675110Y-22018290D01*
X30015491Y-21959891D02*
X30015491Y-21677909D01*
X29733509Y-21677909D01*
X29733509Y-21959891D01*
X30015491Y-21959891D01*
X29675110Y-24007110D02*
X30073890Y-24405890D01*
X30073890Y-24007110D02*
X29675110Y-24405890D01*
X30015491Y-24347491D02*
X30015491Y-24065509D01*
X29733509Y-24065509D01*
X29733509Y-24347491D01*
X30015491Y-24347491D01*
X30500610Y-22813310D02*
X30899390Y-23212090D01*
X30899390Y-22813310D02*
X30500610Y-23212090D01*
X30840991Y-23153691D02*
X30840991Y-22871709D01*
X30559009Y-22871709D01*
X30559009Y-23153691D01*
X30840991Y-23153691D01*
X31400610Y-19900610D02*
X31799390Y-20299390D01*
X31799390Y-19900610D02*
X31400610Y-20299390D01*
X31740991Y-20240991D02*
X31740991Y-19959009D01*
X31459009Y-19959009D01*
X31459009Y-20240991D01*
X31740991Y-20240991D01*
X31575110Y-21619510D02*
X31973890Y-22018290D01*
X31973890Y-21619510D02*
X31575110Y-22018290D01*
X31915491Y-21959891D02*
X31915491Y-21677909D01*
X31633509Y-21677909D01*
X31633509Y-21959891D01*
X31915491Y-21959891D01*
X31575110Y-24007110D02*
X31973890Y-24405890D01*
X31973890Y-24007110D02*
X31575110Y-24405890D01*
X31915491Y-24347491D02*
X31915491Y-24065509D01*
X31633509Y-24065509D01*
X31633509Y-24347491D01*
X31915491Y-24347491D01*
X32400610Y-22813310D02*
X32799390Y-23212090D01*
X32799390Y-22813310D02*
X32400610Y-23212090D01*
X32740991Y-23153691D02*
X32740991Y-22871709D01*
X32459009Y-22871709D01*
X32459009Y-23153691D01*
X32740991Y-23153691D01*
X33475110Y-21619510D02*
X33873890Y-22018290D01*
X33873890Y-21619510D02*
X33475110Y-22018290D01*
X33815491Y-21959891D02*
X33815491Y-21677909D01*
X33533509Y-21677909D01*
X33533509Y-21959891D01*
X33815491Y-21959891D01*
X33475110Y-24007110D02*
X33873890Y-24405890D01*
X33873890Y-24007110D02*
X33475110Y-24405890D01*
X33815491Y-24347491D02*
X33815491Y-24065509D01*
X33533509Y-24065509D01*
X33533509Y-24347491D01*
X33815491Y-24347491D01*
X34300610Y-22813310D02*
X34699390Y-23212090D01*
X34699390Y-22813310D02*
X34300610Y-23212090D01*
X34640991Y-23153691D02*
X34640991Y-22871709D01*
X34359009Y-22871709D01*
X34359009Y-23153691D01*
X34640991Y-23153691D01*
D11*
X4252619Y-25415476D02*
X4252619Y-25215476D01*
X4300238Y-25215476D01*
X4328810Y-25225000D01*
X4347857Y-25244048D01*
X4357381Y-25263095D01*
X4366905Y-25301190D01*
X4366905Y-25329762D01*
X4357381Y-25367857D01*
X4347857Y-25386905D01*
X4328810Y-25405952D01*
X4300238Y-25415476D01*
X4252619Y-25415476D01*
X4452619Y-25415476D02*
X4452619Y-25282143D01*
X4452619Y-25320238D02*
X4462143Y-25301190D01*
X4471667Y-25291667D01*
X4490714Y-25282143D01*
X4509762Y-25282143D01*
X4576429Y-25415476D02*
X4576429Y-25282143D01*
X4576429Y-25215476D02*
X4566905Y-25225000D01*
X4576429Y-25234524D01*
X4585952Y-25225000D01*
X4576429Y-25215476D01*
X4576429Y-25234524D01*
X4700238Y-25415476D02*
X4681190Y-25405952D01*
X4671667Y-25386905D01*
X4671667Y-25215476D01*
X4805000Y-25415476D02*
X4785952Y-25405952D01*
X4776429Y-25386905D01*
X4776429Y-25215476D01*
X5033571Y-25415476D02*
X5033571Y-25215476D01*
X5100238Y-25358333D01*
X5166905Y-25215476D01*
X5166905Y-25415476D01*
X5347857Y-25415476D02*
X5347857Y-25310714D01*
X5338333Y-25291667D01*
X5319286Y-25282143D01*
X5281190Y-25282143D01*
X5262143Y-25291667D01*
X5347857Y-25405952D02*
X5328810Y-25415476D01*
X5281190Y-25415476D01*
X5262143Y-25405952D01*
X5252619Y-25386905D01*
X5252619Y-25367857D01*
X5262143Y-25348809D01*
X5281190Y-25339286D01*
X5328810Y-25339286D01*
X5347857Y-25329762D01*
X5443095Y-25282143D02*
X5443095Y-25482143D01*
X5443095Y-25291667D02*
X5462143Y-25282143D01*
X5500238Y-25282143D01*
X5519286Y-25291667D01*
X5528810Y-25301190D01*
X5538333Y-25320238D01*
X5538333Y-25377381D01*
X5528810Y-25396428D01*
X5519286Y-25405952D01*
X5500238Y-25415476D01*
X5462143Y-25415476D01*
X5443095Y-25405952D01*
X5624048Y-25396428D02*
X5633571Y-25405952D01*
X5624048Y-25415476D01*
X5614524Y-25405952D01*
X5624048Y-25396428D01*
X5624048Y-25415476D01*
X5624048Y-25291667D02*
X5633571Y-25301190D01*
X5624048Y-25310714D01*
X5614524Y-25301190D01*
X5624048Y-25291667D01*
X5624048Y-25310714D01*
D12*
X3930000Y-25712500D02*
X3995000Y-25777500D01*
X3995000Y-25712500D02*
X3930000Y-25777500D01*
D11*
X4290714Y-25635476D02*
X4309762Y-25635476D01*
X4328810Y-25645000D01*
X4338333Y-25654524D01*
X4347857Y-25673571D01*
X4357381Y-25711667D01*
X4357381Y-25759286D01*
X4347857Y-25797381D01*
X4338333Y-25816428D01*
X4328810Y-25825952D01*
X4309762Y-25835476D01*
X4290714Y-25835476D01*
X4271667Y-25825952D01*
X4262143Y-25816428D01*
X4252619Y-25797381D01*
X4243095Y-25759286D01*
X4243095Y-25711667D01*
X4252619Y-25673571D01*
X4262143Y-25654524D01*
X4271667Y-25645000D01*
X4290714Y-25635476D01*
X4443095Y-25816428D02*
X4452619Y-25825952D01*
X4443095Y-25835476D01*
X4433571Y-25825952D01*
X4443095Y-25816428D01*
X4443095Y-25835476D01*
X4624048Y-25635476D02*
X4585952Y-25635476D01*
X4566905Y-25645000D01*
X4557381Y-25654524D01*
X4538333Y-25683095D01*
X4528810Y-25721190D01*
X4528810Y-25797381D01*
X4538333Y-25816428D01*
X4547857Y-25825952D01*
X4566905Y-25835476D01*
X4605000Y-25835476D01*
X4624048Y-25825952D01*
X4633571Y-25816428D01*
X4643095Y-25797381D01*
X4643095Y-25749762D01*
X4633571Y-25730714D01*
X4624048Y-25721190D01*
X4605000Y-25711667D01*
X4566905Y-25711667D01*
X4547857Y-25721190D01*
X4538333Y-25730714D01*
X4528810Y-25749762D01*
X4824048Y-25635476D02*
X4728810Y-25635476D01*
X4719286Y-25730714D01*
X4728810Y-25721190D01*
X4747857Y-25711667D01*
X4795476Y-25711667D01*
X4814524Y-25721190D01*
X4824048Y-25730714D01*
X4833571Y-25749762D01*
X4833571Y-25797381D01*
X4824048Y-25816428D01*
X4814524Y-25825952D01*
X4795476Y-25835476D01*
X4747857Y-25835476D01*
X4728810Y-25825952D01*
X4719286Y-25816428D01*
X4957381Y-25635476D02*
X4976429Y-25635476D01*
X4995476Y-25645000D01*
X5005000Y-25654524D01*
X5014524Y-25673571D01*
X5024048Y-25711667D01*
X5024048Y-25759286D01*
X5014524Y-25797381D01*
X5005000Y-25816428D01*
X4995476Y-25825952D01*
X4976429Y-25835476D01*
X4957381Y-25835476D01*
X4938333Y-25825952D01*
X4928810Y-25816428D01*
X4919286Y-25797381D01*
X4909762Y-25759286D01*
X4909762Y-25711667D01*
X4919286Y-25673571D01*
X4928810Y-25654524D01*
X4938333Y-25645000D01*
X4957381Y-25635476D01*
X5109762Y-25835476D02*
X5109762Y-25702143D01*
X5109762Y-25721190D02*
X5119286Y-25711667D01*
X5138333Y-25702143D01*
X5166905Y-25702143D01*
X5185952Y-25711667D01*
X5195476Y-25730714D01*
X5195476Y-25835476D01*
X5195476Y-25730714D02*
X5205000Y-25711667D01*
X5224048Y-25702143D01*
X5252619Y-25702143D01*
X5271667Y-25711667D01*
X5281190Y-25730714D01*
X5281190Y-25835476D01*
X5376429Y-25835476D02*
X5376429Y-25702143D01*
X5376429Y-25721190D02*
X5385952Y-25711667D01*
X5405000Y-25702143D01*
X5433571Y-25702143D01*
X5452619Y-25711667D01*
X5462143Y-25730714D01*
X5462143Y-25835476D01*
X5462143Y-25730714D02*
X5471667Y-25711667D01*
X5490714Y-25702143D01*
X5519286Y-25702143D01*
X5538333Y-25711667D01*
X5547857Y-25730714D01*
X5547857Y-25835476D01*
X5938333Y-25625952D02*
X5766905Y-25883095D01*
X6195476Y-25635476D02*
X6214524Y-25635476D01*
X6233571Y-25645000D01*
X6243095Y-25654524D01*
X6252619Y-25673571D01*
X6262143Y-25711667D01*
X6262143Y-25759286D01*
X6252619Y-25797381D01*
X6243095Y-25816428D01*
X6233571Y-25825952D01*
X6214524Y-25835476D01*
X6195476Y-25835476D01*
X6176428Y-25825952D01*
X6166905Y-25816428D01*
X6157381Y-25797381D01*
X6147857Y-25759286D01*
X6147857Y-25711667D01*
X6157381Y-25673571D01*
X6166905Y-25654524D01*
X6176428Y-25645000D01*
X6195476Y-25635476D01*
X6347857Y-25816428D02*
X6357381Y-25825952D01*
X6347857Y-25835476D01*
X6338333Y-25825952D01*
X6347857Y-25816428D01*
X6347857Y-25835476D01*
X6481190Y-25635476D02*
X6500238Y-25635476D01*
X6519286Y-25645000D01*
X6528809Y-25654524D01*
X6538333Y-25673571D01*
X6547857Y-25711667D01*
X6547857Y-25759286D01*
X6538333Y-25797381D01*
X6528809Y-25816428D01*
X6519286Y-25825952D01*
X6500238Y-25835476D01*
X6481190Y-25835476D01*
X6462143Y-25825952D01*
X6452619Y-25816428D01*
X6443095Y-25797381D01*
X6433571Y-25759286D01*
X6433571Y-25711667D01*
X6443095Y-25673571D01*
X6452619Y-25654524D01*
X6462143Y-25645000D01*
X6481190Y-25635476D01*
X6624048Y-25654524D02*
X6633571Y-25645000D01*
X6652619Y-25635476D01*
X6700238Y-25635476D01*
X6719286Y-25645000D01*
X6728809Y-25654524D01*
X6738333Y-25673571D01*
X6738333Y-25692619D01*
X6728809Y-25721190D01*
X6614524Y-25835476D01*
X6738333Y-25835476D01*
X6919286Y-25635476D02*
X6824048Y-25635476D01*
X6814524Y-25730714D01*
X6824048Y-25721190D01*
X6843095Y-25711667D01*
X6890714Y-25711667D01*
X6909762Y-25721190D01*
X6919286Y-25730714D01*
X6928809Y-25749762D01*
X6928809Y-25797381D01*
X6919286Y-25816428D01*
X6909762Y-25825952D01*
X6890714Y-25835476D01*
X6843095Y-25835476D01*
X6824048Y-25825952D01*
X6814524Y-25816428D01*
X7100238Y-25635476D02*
X7062143Y-25635476D01*
X7043095Y-25645000D01*
X7033571Y-25654524D01*
X7014524Y-25683095D01*
X7005000Y-25721190D01*
X7005000Y-25797381D01*
X7014524Y-25816428D01*
X7024048Y-25825952D01*
X7043095Y-25835476D01*
X7081190Y-25835476D01*
X7100238Y-25825952D01*
X7109762Y-25816428D01*
X7119286Y-25797381D01*
X7119286Y-25749762D01*
X7109762Y-25730714D01*
X7100238Y-25721190D01*
X7081190Y-25711667D01*
X7043095Y-25711667D01*
X7024048Y-25721190D01*
X7014524Y-25730714D01*
X7005000Y-25749762D01*
X7195476Y-25635476D02*
X7195476Y-25673571D01*
X7271667Y-25635476D02*
X7271667Y-25673571D01*
X7566905Y-25911667D02*
X7557381Y-25902143D01*
X7538333Y-25873571D01*
X7528809Y-25854524D01*
X7519286Y-25825952D01*
X7509762Y-25778333D01*
X7509762Y-25740238D01*
X7519286Y-25692619D01*
X7528809Y-25664048D01*
X7538333Y-25645000D01*
X7557381Y-25616428D01*
X7566905Y-25606905D01*
X7633571Y-25654524D02*
X7643095Y-25645000D01*
X7662143Y-25635476D01*
X7709762Y-25635476D01*
X7728809Y-25645000D01*
X7738333Y-25654524D01*
X7747857Y-25673571D01*
X7747857Y-25692619D01*
X7738333Y-25721190D01*
X7624048Y-25835476D01*
X7747857Y-25835476D01*
X7985952Y-25835476D02*
X7985952Y-25635476D01*
X8071667Y-25835476D02*
X8071667Y-25730714D01*
X8062143Y-25711667D01*
X8043095Y-25702143D01*
X8014524Y-25702143D01*
X7995476Y-25711667D01*
X7985952Y-25721190D01*
X8195476Y-25835476D02*
X8176428Y-25825952D01*
X8166905Y-25816428D01*
X8157381Y-25797381D01*
X8157381Y-25740238D01*
X8166905Y-25721190D01*
X8176428Y-25711667D01*
X8195476Y-25702143D01*
X8224048Y-25702143D01*
X8243095Y-25711667D01*
X8252619Y-25721190D01*
X8262143Y-25740238D01*
X8262143Y-25797381D01*
X8252619Y-25816428D01*
X8243095Y-25825952D01*
X8224048Y-25835476D01*
X8195476Y-25835476D01*
X8376428Y-25835476D02*
X8357381Y-25825952D01*
X8347857Y-25806905D01*
X8347857Y-25635476D01*
X8528810Y-25825952D02*
X8509762Y-25835476D01*
X8471667Y-25835476D01*
X8452619Y-25825952D01*
X8443095Y-25806905D01*
X8443095Y-25730714D01*
X8452619Y-25711667D01*
X8471667Y-25702143D01*
X8509762Y-25702143D01*
X8528810Y-25711667D01*
X8538333Y-25730714D01*
X8538333Y-25749762D01*
X8443095Y-25768809D01*
X8614524Y-25825952D02*
X8633571Y-25835476D01*
X8671667Y-25835476D01*
X8690714Y-25825952D01*
X8700238Y-25806905D01*
X8700238Y-25797381D01*
X8690714Y-25778333D01*
X8671667Y-25768809D01*
X8643095Y-25768809D01*
X8624048Y-25759286D01*
X8614524Y-25740238D01*
X8614524Y-25730714D01*
X8624048Y-25711667D01*
X8643095Y-25702143D01*
X8671667Y-25702143D01*
X8690714Y-25711667D01*
X8766905Y-25911667D02*
X8776429Y-25902143D01*
X8795476Y-25873571D01*
X8805000Y-25854524D01*
X8814524Y-25825952D01*
X8824048Y-25778333D01*
X8824048Y-25740238D01*
X8814524Y-25692619D01*
X8805000Y-25664048D01*
X8795476Y-25645000D01*
X8776429Y-25616428D01*
X8766905Y-25606905D01*
X9128810Y-25911667D02*
X9119286Y-25902143D01*
X9100238Y-25873571D01*
X9090714Y-25854524D01*
X9081190Y-25825952D01*
X9071667Y-25778333D01*
X9071667Y-25740238D01*
X9081190Y-25692619D01*
X9090714Y-25664048D01*
X9100238Y-25645000D01*
X9119286Y-25616428D01*
X9128810Y-25606905D01*
X9205000Y-25702143D02*
X9205000Y-25835476D01*
X9205000Y-25721190D02*
X9214524Y-25711667D01*
X9233571Y-25702143D01*
X9262143Y-25702143D01*
X9281190Y-25711667D01*
X9290714Y-25730714D01*
X9290714Y-25835476D01*
X9414524Y-25835476D02*
X9395476Y-25825952D01*
X9385952Y-25816428D01*
X9376429Y-25797381D01*
X9376429Y-25740238D01*
X9385952Y-25721190D01*
X9395476Y-25711667D01*
X9414524Y-25702143D01*
X9443095Y-25702143D01*
X9462143Y-25711667D01*
X9471667Y-25721190D01*
X9481190Y-25740238D01*
X9481190Y-25797381D01*
X9471667Y-25816428D01*
X9462143Y-25825952D01*
X9443095Y-25835476D01*
X9414524Y-25835476D01*
X9538333Y-25702143D02*
X9614524Y-25702143D01*
X9566905Y-25635476D02*
X9566905Y-25806905D01*
X9576429Y-25825952D01*
X9595476Y-25835476D01*
X9614524Y-25835476D01*
X9833571Y-25702143D02*
X9833571Y-25902143D01*
X9833571Y-25711667D02*
X9852619Y-25702143D01*
X9890714Y-25702143D01*
X9909762Y-25711667D01*
X9919286Y-25721190D01*
X9928810Y-25740238D01*
X9928810Y-25797381D01*
X9919286Y-25816428D01*
X9909762Y-25825952D01*
X9890714Y-25835476D01*
X9852619Y-25835476D01*
X9833571Y-25825952D01*
X10043095Y-25835476D02*
X10024048Y-25825952D01*
X10014524Y-25806905D01*
X10014524Y-25635476D01*
X10205000Y-25835476D02*
X10205000Y-25730714D01*
X10195476Y-25711667D01*
X10176429Y-25702143D01*
X10138333Y-25702143D01*
X10119286Y-25711667D01*
X10205000Y-25825952D02*
X10185952Y-25835476D01*
X10138333Y-25835476D01*
X10119286Y-25825952D01*
X10109762Y-25806905D01*
X10109762Y-25787857D01*
X10119286Y-25768809D01*
X10138333Y-25759286D01*
X10185952Y-25759286D01*
X10205000Y-25749762D01*
X10271667Y-25702143D02*
X10347857Y-25702143D01*
X10300238Y-25635476D02*
X10300238Y-25806905D01*
X10309762Y-25825952D01*
X10328810Y-25835476D01*
X10347857Y-25835476D01*
X10490714Y-25825952D02*
X10471667Y-25835476D01*
X10433571Y-25835476D01*
X10414524Y-25825952D01*
X10405000Y-25806905D01*
X10405000Y-25730714D01*
X10414524Y-25711667D01*
X10433571Y-25702143D01*
X10471667Y-25702143D01*
X10490714Y-25711667D01*
X10500238Y-25730714D01*
X10500238Y-25749762D01*
X10405000Y-25768809D01*
X10671667Y-25835476D02*
X10671667Y-25635476D01*
X10671667Y-25825952D02*
X10652619Y-25835476D01*
X10614524Y-25835476D01*
X10595476Y-25825952D01*
X10585952Y-25816428D01*
X10576429Y-25797381D01*
X10576429Y-25740238D01*
X10585952Y-25721190D01*
X10595476Y-25711667D01*
X10614524Y-25702143D01*
X10652619Y-25702143D01*
X10671667Y-25711667D01*
X10747857Y-25911667D02*
X10757381Y-25902143D01*
X10776429Y-25873571D01*
X10785952Y-25854524D01*
X10795476Y-25825952D01*
X10805000Y-25778333D01*
X10805000Y-25740238D01*
X10795476Y-25692619D01*
X10785952Y-25664048D01*
X10776429Y-25645000D01*
X10757381Y-25616428D01*
X10747857Y-25606905D01*
D13*
X3995000Y-26009000D02*
G75*
G03*
X3995000Y-26009000I-60000J0D01*
G01*
D11*
X4357381Y-26099476D02*
X4243095Y-26099476D01*
X4300238Y-26099476D02*
X4300238Y-25899476D01*
X4281190Y-25928048D01*
X4262143Y-25947095D01*
X4243095Y-25956619D01*
X4443095Y-26080428D02*
X4452619Y-26089952D01*
X4443095Y-26099476D01*
X4433571Y-26089952D01*
X4443095Y-26080428D01*
X4443095Y-26099476D01*
X4528810Y-25918524D02*
X4538333Y-25909000D01*
X4557381Y-25899476D01*
X4605000Y-25899476D01*
X4624048Y-25909000D01*
X4633571Y-25918524D01*
X4643095Y-25937571D01*
X4643095Y-25956619D01*
X4633571Y-25985190D01*
X4519286Y-26099476D01*
X4643095Y-26099476D01*
X4766905Y-25899476D02*
X4785952Y-25899476D01*
X4805000Y-25909000D01*
X4814524Y-25918524D01*
X4824048Y-25937571D01*
X4833571Y-25975667D01*
X4833571Y-26023286D01*
X4824048Y-26061381D01*
X4814524Y-26080428D01*
X4805000Y-26089952D01*
X4785952Y-26099476D01*
X4766905Y-26099476D01*
X4747857Y-26089952D01*
X4738333Y-26080428D01*
X4728810Y-26061381D01*
X4719286Y-26023286D01*
X4719286Y-25975667D01*
X4728810Y-25937571D01*
X4738333Y-25918524D01*
X4747857Y-25909000D01*
X4766905Y-25899476D01*
X4957381Y-25899476D02*
X4976429Y-25899476D01*
X4995476Y-25909000D01*
X5005000Y-25918524D01*
X5014524Y-25937571D01*
X5024048Y-25975667D01*
X5024048Y-26023286D01*
X5014524Y-26061381D01*
X5005000Y-26080428D01*
X4995476Y-26089952D01*
X4976429Y-26099476D01*
X4957381Y-26099476D01*
X4938333Y-26089952D01*
X4928810Y-26080428D01*
X4919286Y-26061381D01*
X4909762Y-26023286D01*
X4909762Y-25975667D01*
X4919286Y-25937571D01*
X4928810Y-25918524D01*
X4938333Y-25909000D01*
X4957381Y-25899476D01*
X5109762Y-26099476D02*
X5109762Y-25966143D01*
X5109762Y-25985190D02*
X5119286Y-25975667D01*
X5138333Y-25966143D01*
X5166905Y-25966143D01*
X5185952Y-25975667D01*
X5195476Y-25994714D01*
X5195476Y-26099476D01*
X5195476Y-25994714D02*
X5205000Y-25975667D01*
X5224048Y-25966143D01*
X5252619Y-25966143D01*
X5271667Y-25975667D01*
X5281190Y-25994714D01*
X5281190Y-26099476D01*
X5376429Y-26099476D02*
X5376429Y-25966143D01*
X5376429Y-25985190D02*
X5385952Y-25975667D01*
X5405000Y-25966143D01*
X5433571Y-25966143D01*
X5452619Y-25975667D01*
X5462143Y-25994714D01*
X5462143Y-26099476D01*
X5462143Y-25994714D02*
X5471667Y-25975667D01*
X5490714Y-25966143D01*
X5519286Y-25966143D01*
X5538333Y-25975667D01*
X5547857Y-25994714D01*
X5547857Y-26099476D01*
X5938333Y-25889952D02*
X5766905Y-26147095D01*
X6195476Y-25899476D02*
X6214524Y-25899476D01*
X6233571Y-25909000D01*
X6243095Y-25918524D01*
X6252619Y-25937571D01*
X6262143Y-25975667D01*
X6262143Y-26023286D01*
X6252619Y-26061381D01*
X6243095Y-26080428D01*
X6233571Y-26089952D01*
X6214524Y-26099476D01*
X6195476Y-26099476D01*
X6176428Y-26089952D01*
X6166905Y-26080428D01*
X6157381Y-26061381D01*
X6147857Y-26023286D01*
X6147857Y-25975667D01*
X6157381Y-25937571D01*
X6166905Y-25918524D01*
X6176428Y-25909000D01*
X6195476Y-25899476D01*
X6347857Y-26080428D02*
X6357381Y-26089952D01*
X6347857Y-26099476D01*
X6338333Y-26089952D01*
X6347857Y-26080428D01*
X6347857Y-26099476D01*
X6481190Y-25899476D02*
X6500238Y-25899476D01*
X6519286Y-25909000D01*
X6528809Y-25918524D01*
X6538333Y-25937571D01*
X6547857Y-25975667D01*
X6547857Y-26023286D01*
X6538333Y-26061381D01*
X6528809Y-26080428D01*
X6519286Y-26089952D01*
X6500238Y-26099476D01*
X6481190Y-26099476D01*
X6462143Y-26089952D01*
X6452619Y-26080428D01*
X6443095Y-26061381D01*
X6433571Y-26023286D01*
X6433571Y-25975667D01*
X6443095Y-25937571D01*
X6452619Y-25918524D01*
X6462143Y-25909000D01*
X6481190Y-25899476D01*
X6719286Y-25966143D02*
X6719286Y-26099476D01*
X6671667Y-25889952D02*
X6624048Y-26032809D01*
X6747857Y-26032809D01*
X6805000Y-25899476D02*
X6938333Y-25899476D01*
X6852619Y-26099476D01*
X7005000Y-25918524D02*
X7014524Y-25909000D01*
X7033571Y-25899476D01*
X7081190Y-25899476D01*
X7100238Y-25909000D01*
X7109762Y-25918524D01*
X7119286Y-25937571D01*
X7119286Y-25956619D01*
X7109762Y-25985190D01*
X6995476Y-26099476D01*
X7119286Y-26099476D01*
X7195476Y-25899476D02*
X7195476Y-25937571D01*
X7271667Y-25899476D02*
X7271667Y-25937571D01*
X7566905Y-26175667D02*
X7557381Y-26166143D01*
X7538333Y-26137571D01*
X7528809Y-26118524D01*
X7519286Y-26089952D01*
X7509762Y-26042333D01*
X7509762Y-26004238D01*
X7519286Y-25956619D01*
X7528809Y-25928048D01*
X7538333Y-25909000D01*
X7557381Y-25880428D01*
X7566905Y-25870905D01*
X7633571Y-25918524D02*
X7643095Y-25909000D01*
X7662143Y-25899476D01*
X7709762Y-25899476D01*
X7728809Y-25909000D01*
X7738333Y-25918524D01*
X7747857Y-25937571D01*
X7747857Y-25956619D01*
X7738333Y-25985190D01*
X7624048Y-26099476D01*
X7747857Y-26099476D01*
X7928809Y-25899476D02*
X7833571Y-25899476D01*
X7824048Y-25994714D01*
X7833571Y-25985190D01*
X7852619Y-25975667D01*
X7900238Y-25975667D01*
X7919286Y-25985190D01*
X7928809Y-25994714D01*
X7938333Y-26013762D01*
X7938333Y-26061381D01*
X7928809Y-26080428D01*
X7919286Y-26089952D01*
X7900238Y-26099476D01*
X7852619Y-26099476D01*
X7833571Y-26089952D01*
X7824048Y-26080428D01*
X8176428Y-26099476D02*
X8176428Y-25899476D01*
X8262143Y-26099476D02*
X8262143Y-25994714D01*
X8252619Y-25975667D01*
X8233571Y-25966143D01*
X8205000Y-25966143D01*
X8185952Y-25975667D01*
X8176428Y-25985190D01*
X8385952Y-26099476D02*
X8366905Y-26089952D01*
X8357381Y-26080428D01*
X8347857Y-26061381D01*
X8347857Y-26004238D01*
X8357381Y-25985190D01*
X8366905Y-25975667D01*
X8385952Y-25966143D01*
X8414524Y-25966143D01*
X8433571Y-25975667D01*
X8443095Y-25985190D01*
X8452619Y-26004238D01*
X8452619Y-26061381D01*
X8443095Y-26080428D01*
X8433571Y-26089952D01*
X8414524Y-26099476D01*
X8385952Y-26099476D01*
X8566905Y-26099476D02*
X8547857Y-26089952D01*
X8538333Y-26070905D01*
X8538333Y-25899476D01*
X8719286Y-26089952D02*
X8700238Y-26099476D01*
X8662143Y-26099476D01*
X8643095Y-26089952D01*
X8633571Y-26070905D01*
X8633571Y-25994714D01*
X8643095Y-25975667D01*
X8662143Y-25966143D01*
X8700238Y-25966143D01*
X8719286Y-25975667D01*
X8728810Y-25994714D01*
X8728810Y-26013762D01*
X8633571Y-26032809D01*
X8805000Y-26089952D02*
X8824048Y-26099476D01*
X8862143Y-26099476D01*
X8881190Y-26089952D01*
X8890714Y-26070905D01*
X8890714Y-26061381D01*
X8881190Y-26042333D01*
X8862143Y-26032809D01*
X8833571Y-26032809D01*
X8814524Y-26023286D01*
X8805000Y-26004238D01*
X8805000Y-25994714D01*
X8814524Y-25975667D01*
X8833571Y-25966143D01*
X8862143Y-25966143D01*
X8881190Y-25975667D01*
X8957381Y-26175667D02*
X8966905Y-26166143D01*
X8985952Y-26137571D01*
X8995476Y-26118524D01*
X9005000Y-26089952D01*
X9014524Y-26042333D01*
X9014524Y-26004238D01*
X9005000Y-25956619D01*
X8995476Y-25928048D01*
X8985952Y-25909000D01*
X8966905Y-25880428D01*
X8957381Y-25870905D01*
X9319286Y-26175667D02*
X9309762Y-26166143D01*
X9290714Y-26137571D01*
X9281190Y-26118524D01*
X9271667Y-26089952D01*
X9262143Y-26042333D01*
X9262143Y-26004238D01*
X9271667Y-25956619D01*
X9281190Y-25928048D01*
X9290714Y-25909000D01*
X9309762Y-25880428D01*
X9319286Y-25870905D01*
X9395476Y-25966143D02*
X9395476Y-26099476D01*
X9395476Y-25985190D02*
X9405000Y-25975667D01*
X9424048Y-25966143D01*
X9452619Y-25966143D01*
X9471667Y-25975667D01*
X9481190Y-25994714D01*
X9481190Y-26099476D01*
X9605000Y-26099476D02*
X9585952Y-26089952D01*
X9576429Y-26080428D01*
X9566905Y-26061381D01*
X9566905Y-26004238D01*
X9576429Y-25985190D01*
X9585952Y-25975667D01*
X9605000Y-25966143D01*
X9633571Y-25966143D01*
X9652619Y-25975667D01*
X9662143Y-25985190D01*
X9671667Y-26004238D01*
X9671667Y-26061381D01*
X9662143Y-26080428D01*
X9652619Y-26089952D01*
X9633571Y-26099476D01*
X9605000Y-26099476D01*
X9728810Y-25966143D02*
X9805000Y-25966143D01*
X9757381Y-25899476D02*
X9757381Y-26070905D01*
X9766905Y-26089952D01*
X9785952Y-26099476D01*
X9805000Y-26099476D01*
X10024048Y-25966143D02*
X10024048Y-26166143D01*
X10024048Y-25975667D02*
X10043095Y-25966143D01*
X10081190Y-25966143D01*
X10100238Y-25975667D01*
X10109762Y-25985190D01*
X10119286Y-26004238D01*
X10119286Y-26061381D01*
X10109762Y-26080428D01*
X10100238Y-26089952D01*
X10081190Y-26099476D01*
X10043095Y-26099476D01*
X10024048Y-26089952D01*
X10233571Y-26099476D02*
X10214524Y-26089952D01*
X10205000Y-26070905D01*
X10205000Y-25899476D01*
X10395476Y-26099476D02*
X10395476Y-25994714D01*
X10385952Y-25975667D01*
X10366905Y-25966143D01*
X10328810Y-25966143D01*
X10309762Y-25975667D01*
X10395476Y-26089952D02*
X10376429Y-26099476D01*
X10328810Y-26099476D01*
X10309762Y-26089952D01*
X10300238Y-26070905D01*
X10300238Y-26051857D01*
X10309762Y-26032809D01*
X10328810Y-26023286D01*
X10376429Y-26023286D01*
X10395476Y-26013762D01*
X10462143Y-25966143D02*
X10538333Y-25966143D01*
X10490714Y-25899476D02*
X10490714Y-26070905D01*
X10500238Y-26089952D01*
X10519286Y-26099476D01*
X10538333Y-26099476D01*
X10681190Y-26089952D02*
X10662143Y-26099476D01*
X10624048Y-26099476D01*
X10605000Y-26089952D01*
X10595476Y-26070905D01*
X10595476Y-25994714D01*
X10605000Y-25975667D01*
X10624048Y-25966143D01*
X10662143Y-25966143D01*
X10681190Y-25975667D01*
X10690714Y-25994714D01*
X10690714Y-26013762D01*
X10595476Y-26032809D01*
X10862143Y-26099476D02*
X10862143Y-25899476D01*
X10862143Y-26089952D02*
X10843095Y-26099476D01*
X10805000Y-26099476D01*
X10785952Y-26089952D01*
X10776429Y-26080428D01*
X10766905Y-26061381D01*
X10766905Y-26004238D01*
X10776429Y-25985190D01*
X10785952Y-25975667D01*
X10805000Y-25966143D01*
X10843095Y-25966143D01*
X10862143Y-25975667D01*
X10938333Y-26175667D02*
X10947857Y-26166143D01*
X10966905Y-26137571D01*
X10976429Y-26118524D01*
X10985952Y-26089952D01*
X10995476Y-26042333D01*
X10995476Y-26004238D01*
X10985952Y-25956619D01*
X10976429Y-25928048D01*
X10966905Y-25909000D01*
X10947857Y-25880428D01*
X10938333Y-25870905D01*
D14*
X3930000Y-26208000D02*
X3930000Y-26338000D01*
X3865000Y-26273000D02*
X3995000Y-26273000D01*
D11*
X4357381Y-26363476D02*
X4243095Y-26363476D01*
X4300238Y-26363476D02*
X4300238Y-26163476D01*
X4281190Y-26192048D01*
X4262143Y-26211095D01*
X4243095Y-26220619D01*
X4443095Y-26344428D02*
X4452619Y-26353952D01*
X4443095Y-26363476D01*
X4433571Y-26353952D01*
X4443095Y-26344428D01*
X4443095Y-26363476D01*
X4519286Y-26163476D02*
X4643095Y-26163476D01*
X4576429Y-26239667D01*
X4605000Y-26239667D01*
X4624048Y-26249190D01*
X4633571Y-26258714D01*
X4643095Y-26277762D01*
X4643095Y-26325381D01*
X4633571Y-26344428D01*
X4624048Y-26353952D01*
X4605000Y-26363476D01*
X4547857Y-26363476D01*
X4528810Y-26353952D01*
X4519286Y-26344428D01*
X4766905Y-26163476D02*
X4785952Y-26163476D01*
X4805000Y-26173000D01*
X4814524Y-26182524D01*
X4824048Y-26201571D01*
X4833571Y-26239667D01*
X4833571Y-26287286D01*
X4824048Y-26325381D01*
X4814524Y-26344428D01*
X4805000Y-26353952D01*
X4785952Y-26363476D01*
X4766905Y-26363476D01*
X4747857Y-26353952D01*
X4738333Y-26344428D01*
X4728810Y-26325381D01*
X4719286Y-26287286D01*
X4719286Y-26239667D01*
X4728810Y-26201571D01*
X4738333Y-26182524D01*
X4747857Y-26173000D01*
X4766905Y-26163476D01*
X4957381Y-26163476D02*
X4976429Y-26163476D01*
X4995476Y-26173000D01*
X5005000Y-26182524D01*
X5014524Y-26201571D01*
X5024048Y-26239667D01*
X5024048Y-26287286D01*
X5014524Y-26325381D01*
X5005000Y-26344428D01*
X4995476Y-26353952D01*
X4976429Y-26363476D01*
X4957381Y-26363476D01*
X4938333Y-26353952D01*
X4928810Y-26344428D01*
X4919286Y-26325381D01*
X4909762Y-26287286D01*
X4909762Y-26239667D01*
X4919286Y-26201571D01*
X4928810Y-26182524D01*
X4938333Y-26173000D01*
X4957381Y-26163476D01*
X5109762Y-26363476D02*
X5109762Y-26230143D01*
X5109762Y-26249190D02*
X5119286Y-26239667D01*
X5138333Y-26230143D01*
X5166905Y-26230143D01*
X5185952Y-26239667D01*
X5195476Y-26258714D01*
X5195476Y-26363476D01*
X5195476Y-26258714D02*
X5205000Y-26239667D01*
X5224048Y-26230143D01*
X5252619Y-26230143D01*
X5271667Y-26239667D01*
X5281190Y-26258714D01*
X5281190Y-26363476D01*
X5376429Y-26363476D02*
X5376429Y-26230143D01*
X5376429Y-26249190D02*
X5385952Y-26239667D01*
X5405000Y-26230143D01*
X5433571Y-26230143D01*
X5452619Y-26239667D01*
X5462143Y-26258714D01*
X5462143Y-26363476D01*
X5462143Y-26258714D02*
X5471667Y-26239667D01*
X5490714Y-26230143D01*
X5519286Y-26230143D01*
X5538333Y-26239667D01*
X5547857Y-26258714D01*
X5547857Y-26363476D01*
X5938333Y-26153952D02*
X5766905Y-26411095D01*
X6195476Y-26163476D02*
X6214524Y-26163476D01*
X6233571Y-26173000D01*
X6243095Y-26182524D01*
X6252619Y-26201571D01*
X6262143Y-26239667D01*
X6262143Y-26287286D01*
X6252619Y-26325381D01*
X6243095Y-26344428D01*
X6233571Y-26353952D01*
X6214524Y-26363476D01*
X6195476Y-26363476D01*
X6176428Y-26353952D01*
X6166905Y-26344428D01*
X6157381Y-26325381D01*
X6147857Y-26287286D01*
X6147857Y-26239667D01*
X6157381Y-26201571D01*
X6166905Y-26182524D01*
X6176428Y-26173000D01*
X6195476Y-26163476D01*
X6347857Y-26344428D02*
X6357381Y-26353952D01*
X6347857Y-26363476D01*
X6338333Y-26353952D01*
X6347857Y-26344428D01*
X6347857Y-26363476D01*
X6481190Y-26163476D02*
X6500238Y-26163476D01*
X6519286Y-26173000D01*
X6528809Y-26182524D01*
X6538333Y-26201571D01*
X6547857Y-26239667D01*
X6547857Y-26287286D01*
X6538333Y-26325381D01*
X6528809Y-26344428D01*
X6519286Y-26353952D01*
X6500238Y-26363476D01*
X6481190Y-26363476D01*
X6462143Y-26353952D01*
X6452619Y-26344428D01*
X6443095Y-26325381D01*
X6433571Y-26287286D01*
X6433571Y-26239667D01*
X6443095Y-26201571D01*
X6452619Y-26182524D01*
X6462143Y-26173000D01*
X6481190Y-26163476D01*
X6728809Y-26163476D02*
X6633571Y-26163476D01*
X6624048Y-26258714D01*
X6633571Y-26249190D01*
X6652619Y-26239667D01*
X6700238Y-26239667D01*
X6719286Y-26249190D01*
X6728809Y-26258714D01*
X6738333Y-26277762D01*
X6738333Y-26325381D01*
X6728809Y-26344428D01*
X6719286Y-26353952D01*
X6700238Y-26363476D01*
X6652619Y-26363476D01*
X6633571Y-26353952D01*
X6624048Y-26344428D01*
X6928809Y-26363476D02*
X6814524Y-26363476D01*
X6871667Y-26363476D02*
X6871667Y-26163476D01*
X6852619Y-26192048D01*
X6833571Y-26211095D01*
X6814524Y-26220619D01*
X7005000Y-26182524D02*
X7014524Y-26173000D01*
X7033571Y-26163476D01*
X7081190Y-26163476D01*
X7100238Y-26173000D01*
X7109762Y-26182524D01*
X7119286Y-26201571D01*
X7119286Y-26220619D01*
X7109762Y-26249190D01*
X6995476Y-26363476D01*
X7119286Y-26363476D01*
X7195476Y-26163476D02*
X7195476Y-26201571D01*
X7271667Y-26163476D02*
X7271667Y-26201571D01*
X7566905Y-26439667D02*
X7557381Y-26430143D01*
X7538333Y-26401571D01*
X7528809Y-26382524D01*
X7519286Y-26353952D01*
X7509762Y-26306333D01*
X7509762Y-26268238D01*
X7519286Y-26220619D01*
X7528809Y-26192048D01*
X7538333Y-26173000D01*
X7557381Y-26144428D01*
X7566905Y-26134905D01*
X7671667Y-26249190D02*
X7652619Y-26239667D01*
X7643095Y-26230143D01*
X7633571Y-26211095D01*
X7633571Y-26201571D01*
X7643095Y-26182524D01*
X7652619Y-26173000D01*
X7671667Y-26163476D01*
X7709762Y-26163476D01*
X7728809Y-26173000D01*
X7738333Y-26182524D01*
X7747857Y-26201571D01*
X7747857Y-26211095D01*
X7738333Y-26230143D01*
X7728809Y-26239667D01*
X7709762Y-26249190D01*
X7671667Y-26249190D01*
X7652619Y-26258714D01*
X7643095Y-26268238D01*
X7633571Y-26287286D01*
X7633571Y-26325381D01*
X7643095Y-26344428D01*
X7652619Y-26353952D01*
X7671667Y-26363476D01*
X7709762Y-26363476D01*
X7728809Y-26353952D01*
X7738333Y-26344428D01*
X7747857Y-26325381D01*
X7747857Y-26287286D01*
X7738333Y-26268238D01*
X7728809Y-26258714D01*
X7709762Y-26249190D01*
X7985952Y-26363476D02*
X7985952Y-26163476D01*
X8071667Y-26363476D02*
X8071667Y-26258714D01*
X8062143Y-26239667D01*
X8043095Y-26230143D01*
X8014524Y-26230143D01*
X7995476Y-26239667D01*
X7985952Y-26249190D01*
X8195476Y-26363476D02*
X8176428Y-26353952D01*
X8166905Y-26344428D01*
X8157381Y-26325381D01*
X8157381Y-26268238D01*
X8166905Y-26249190D01*
X8176428Y-26239667D01*
X8195476Y-26230143D01*
X8224048Y-26230143D01*
X8243095Y-26239667D01*
X8252619Y-26249190D01*
X8262143Y-26268238D01*
X8262143Y-26325381D01*
X8252619Y-26344428D01*
X8243095Y-26353952D01*
X8224048Y-26363476D01*
X8195476Y-26363476D01*
X8376428Y-26363476D02*
X8357381Y-26353952D01*
X8347857Y-26334905D01*
X8347857Y-26163476D01*
X8528810Y-26353952D02*
X8509762Y-26363476D01*
X8471667Y-26363476D01*
X8452619Y-26353952D01*
X8443095Y-26334905D01*
X8443095Y-26258714D01*
X8452619Y-26239667D01*
X8471667Y-26230143D01*
X8509762Y-26230143D01*
X8528810Y-26239667D01*
X8538333Y-26258714D01*
X8538333Y-26277762D01*
X8443095Y-26296809D01*
X8614524Y-26353952D02*
X8633571Y-26363476D01*
X8671667Y-26363476D01*
X8690714Y-26353952D01*
X8700238Y-26334905D01*
X8700238Y-26325381D01*
X8690714Y-26306333D01*
X8671667Y-26296809D01*
X8643095Y-26296809D01*
X8624048Y-26287286D01*
X8614524Y-26268238D01*
X8614524Y-26258714D01*
X8624048Y-26239667D01*
X8643095Y-26230143D01*
X8671667Y-26230143D01*
X8690714Y-26239667D01*
X8766905Y-26439667D02*
X8776429Y-26430143D01*
X8795476Y-26401571D01*
X8805000Y-26382524D01*
X8814524Y-26353952D01*
X8824048Y-26306333D01*
X8824048Y-26268238D01*
X8814524Y-26220619D01*
X8805000Y-26192048D01*
X8795476Y-26173000D01*
X8776429Y-26144428D01*
X8766905Y-26134905D01*
X9128810Y-26439667D02*
X9119286Y-26430143D01*
X9100238Y-26401571D01*
X9090714Y-26382524D01*
X9081190Y-26353952D01*
X9071667Y-26306333D01*
X9071667Y-26268238D01*
X9081190Y-26220619D01*
X9090714Y-26192048D01*
X9100238Y-26173000D01*
X9119286Y-26144428D01*
X9128810Y-26134905D01*
X9205000Y-26230143D02*
X9205000Y-26363476D01*
X9205000Y-26249190D02*
X9214524Y-26239667D01*
X9233571Y-26230143D01*
X9262143Y-26230143D01*
X9281190Y-26239667D01*
X9290714Y-26258714D01*
X9290714Y-26363476D01*
X9414524Y-26363476D02*
X9395476Y-26353952D01*
X9385952Y-26344428D01*
X9376429Y-26325381D01*
X9376429Y-26268238D01*
X9385952Y-26249190D01*
X9395476Y-26239667D01*
X9414524Y-26230143D01*
X9443095Y-26230143D01*
X9462143Y-26239667D01*
X9471667Y-26249190D01*
X9481190Y-26268238D01*
X9481190Y-26325381D01*
X9471667Y-26344428D01*
X9462143Y-26353952D01*
X9443095Y-26363476D01*
X9414524Y-26363476D01*
X9538333Y-26230143D02*
X9614524Y-26230143D01*
X9566905Y-26163476D02*
X9566905Y-26334905D01*
X9576429Y-26353952D01*
X9595476Y-26363476D01*
X9614524Y-26363476D01*
X9833571Y-26230143D02*
X9833571Y-26430143D01*
X9833571Y-26239667D02*
X9852619Y-26230143D01*
X9890714Y-26230143D01*
X9909762Y-26239667D01*
X9919286Y-26249190D01*
X9928810Y-26268238D01*
X9928810Y-26325381D01*
X9919286Y-26344428D01*
X9909762Y-26353952D01*
X9890714Y-26363476D01*
X9852619Y-26363476D01*
X9833571Y-26353952D01*
X10043095Y-26363476D02*
X10024048Y-26353952D01*
X10014524Y-26334905D01*
X10014524Y-26163476D01*
X10205000Y-26363476D02*
X10205000Y-26258714D01*
X10195476Y-26239667D01*
X10176429Y-26230143D01*
X10138333Y-26230143D01*
X10119286Y-26239667D01*
X10205000Y-26353952D02*
X10185952Y-26363476D01*
X10138333Y-26363476D01*
X10119286Y-26353952D01*
X10109762Y-26334905D01*
X10109762Y-26315857D01*
X10119286Y-26296809D01*
X10138333Y-26287286D01*
X10185952Y-26287286D01*
X10205000Y-26277762D01*
X10271667Y-26230143D02*
X10347857Y-26230143D01*
X10300238Y-26163476D02*
X10300238Y-26334905D01*
X10309762Y-26353952D01*
X10328810Y-26363476D01*
X10347857Y-26363476D01*
X10490714Y-26353952D02*
X10471667Y-26363476D01*
X10433571Y-26363476D01*
X10414524Y-26353952D01*
X10405000Y-26334905D01*
X10405000Y-26258714D01*
X10414524Y-26239667D01*
X10433571Y-26230143D01*
X10471667Y-26230143D01*
X10490714Y-26239667D01*
X10500238Y-26258714D01*
X10500238Y-26277762D01*
X10405000Y-26296809D01*
X10671667Y-26363476D02*
X10671667Y-26163476D01*
X10671667Y-26353952D02*
X10652619Y-26363476D01*
X10614524Y-26363476D01*
X10595476Y-26353952D01*
X10585952Y-26344428D01*
X10576429Y-26325381D01*
X10576429Y-26268238D01*
X10585952Y-26249190D01*
X10595476Y-26239667D01*
X10614524Y-26230143D01*
X10652619Y-26230143D01*
X10671667Y-26239667D01*
X10747857Y-26439667D02*
X10757381Y-26430143D01*
X10776429Y-26401571D01*
X10785952Y-26382524D01*
X10795476Y-26353952D01*
X10805000Y-26306333D01*
X10805000Y-26268238D01*
X10795476Y-26220619D01*
X10785952Y-26192048D01*
X10776429Y-26173000D01*
X10757381Y-26144428D01*
X10747857Y-26134905D01*
D15*
X3970105Y-26597105D02*
X3970105Y-26476895D01*
X3849895Y-26476895D01*
X3849895Y-26597105D01*
X3970105Y-26597105D01*
D11*
X4357381Y-26627476D02*
X4243095Y-26627476D01*
X4300238Y-26627476D02*
X4300238Y-26427476D01*
X4281190Y-26456048D01*
X4262143Y-26475095D01*
X4243095Y-26484619D01*
X4443095Y-26608428D02*
X4452619Y-26617952D01*
X4443095Y-26627476D01*
X4433571Y-26617952D01*
X4443095Y-26608428D01*
X4443095Y-26627476D01*
X4519286Y-26427476D02*
X4652619Y-26427476D01*
X4566905Y-26627476D01*
X4766905Y-26427476D02*
X4785952Y-26427476D01*
X4805000Y-26437000D01*
X4814524Y-26446524D01*
X4824048Y-26465571D01*
X4833571Y-26503667D01*
X4833571Y-26551286D01*
X4824048Y-26589381D01*
X4814524Y-26608428D01*
X4805000Y-26617952D01*
X4785952Y-26627476D01*
X4766905Y-26627476D01*
X4747857Y-26617952D01*
X4738333Y-26608428D01*
X4728810Y-26589381D01*
X4719286Y-26551286D01*
X4719286Y-26503667D01*
X4728810Y-26465571D01*
X4738333Y-26446524D01*
X4747857Y-26437000D01*
X4766905Y-26427476D01*
X4957381Y-26427476D02*
X4976429Y-26427476D01*
X4995476Y-26437000D01*
X5005000Y-26446524D01*
X5014524Y-26465571D01*
X5024048Y-26503667D01*
X5024048Y-26551286D01*
X5014524Y-26589381D01*
X5005000Y-26608428D01*
X4995476Y-26617952D01*
X4976429Y-26627476D01*
X4957381Y-26627476D01*
X4938333Y-26617952D01*
X4928810Y-26608428D01*
X4919286Y-26589381D01*
X4909762Y-26551286D01*
X4909762Y-26503667D01*
X4919286Y-26465571D01*
X4928810Y-26446524D01*
X4938333Y-26437000D01*
X4957381Y-26427476D01*
X5109762Y-26627476D02*
X5109762Y-26494143D01*
X5109762Y-26513190D02*
X5119286Y-26503667D01*
X5138333Y-26494143D01*
X5166905Y-26494143D01*
X5185952Y-26503667D01*
X5195476Y-26522714D01*
X5195476Y-26627476D01*
X5195476Y-26522714D02*
X5205000Y-26503667D01*
X5224048Y-26494143D01*
X5252619Y-26494143D01*
X5271667Y-26503667D01*
X5281190Y-26522714D01*
X5281190Y-26627476D01*
X5376429Y-26627476D02*
X5376429Y-26494143D01*
X5376429Y-26513190D02*
X5385952Y-26503667D01*
X5405000Y-26494143D01*
X5433571Y-26494143D01*
X5452619Y-26503667D01*
X5462143Y-26522714D01*
X5462143Y-26627476D01*
X5462143Y-26522714D02*
X5471667Y-26503667D01*
X5490714Y-26494143D01*
X5519286Y-26494143D01*
X5538333Y-26503667D01*
X5547857Y-26522714D01*
X5547857Y-26627476D01*
X5938333Y-26417952D02*
X5766905Y-26675095D01*
X6195476Y-26427476D02*
X6214524Y-26427476D01*
X6233571Y-26437000D01*
X6243095Y-26446524D01*
X6252619Y-26465571D01*
X6262143Y-26503667D01*
X6262143Y-26551286D01*
X6252619Y-26589381D01*
X6243095Y-26608428D01*
X6233571Y-26617952D01*
X6214524Y-26627476D01*
X6195476Y-26627476D01*
X6176428Y-26617952D01*
X6166905Y-26608428D01*
X6157381Y-26589381D01*
X6147857Y-26551286D01*
X6147857Y-26503667D01*
X6157381Y-26465571D01*
X6166905Y-26446524D01*
X6176428Y-26437000D01*
X6195476Y-26427476D01*
X6347857Y-26608428D02*
X6357381Y-26617952D01*
X6347857Y-26627476D01*
X6338333Y-26617952D01*
X6347857Y-26608428D01*
X6347857Y-26627476D01*
X6481190Y-26427476D02*
X6500238Y-26427476D01*
X6519286Y-26437000D01*
X6528809Y-26446524D01*
X6538333Y-26465571D01*
X6547857Y-26503667D01*
X6547857Y-26551286D01*
X6538333Y-26589381D01*
X6528809Y-26608428D01*
X6519286Y-26617952D01*
X6500238Y-26627476D01*
X6481190Y-26627476D01*
X6462143Y-26617952D01*
X6452619Y-26608428D01*
X6443095Y-26589381D01*
X6433571Y-26551286D01*
X6433571Y-26503667D01*
X6443095Y-26465571D01*
X6452619Y-26446524D01*
X6462143Y-26437000D01*
X6481190Y-26427476D01*
X6719286Y-26427476D02*
X6681190Y-26427476D01*
X6662143Y-26437000D01*
X6652619Y-26446524D01*
X6633571Y-26475095D01*
X6624048Y-26513190D01*
X6624048Y-26589381D01*
X6633571Y-26608428D01*
X6643095Y-26617952D01*
X6662143Y-26627476D01*
X6700238Y-26627476D01*
X6719286Y-26617952D01*
X6728809Y-26608428D01*
X6738333Y-26589381D01*
X6738333Y-26541762D01*
X6728809Y-26522714D01*
X6719286Y-26513190D01*
X6700238Y-26503667D01*
X6662143Y-26503667D01*
X6643095Y-26513190D01*
X6633571Y-26522714D01*
X6624048Y-26541762D01*
X6909762Y-26427476D02*
X6871667Y-26427476D01*
X6852619Y-26437000D01*
X6843095Y-26446524D01*
X6824048Y-26475095D01*
X6814524Y-26513190D01*
X6814524Y-26589381D01*
X6824048Y-26608428D01*
X6833571Y-26617952D01*
X6852619Y-26627476D01*
X6890714Y-26627476D01*
X6909762Y-26617952D01*
X6919286Y-26608428D01*
X6928809Y-26589381D01*
X6928809Y-26541762D01*
X6919286Y-26522714D01*
X6909762Y-26513190D01*
X6890714Y-26503667D01*
X6852619Y-26503667D01*
X6833571Y-26513190D01*
X6824048Y-26522714D01*
X6814524Y-26541762D01*
X7024048Y-26627476D02*
X7062143Y-26627476D01*
X7081190Y-26617952D01*
X7090714Y-26608428D01*
X7109762Y-26579857D01*
X7119286Y-26541762D01*
X7119286Y-26465571D01*
X7109762Y-26446524D01*
X7100238Y-26437000D01*
X7081190Y-26427476D01*
X7043095Y-26427476D01*
X7024048Y-26437000D01*
X7014524Y-26446524D01*
X7005000Y-26465571D01*
X7005000Y-26513190D01*
X7014524Y-26532238D01*
X7024048Y-26541762D01*
X7043095Y-26551286D01*
X7081190Y-26551286D01*
X7100238Y-26541762D01*
X7109762Y-26532238D01*
X7119286Y-26513190D01*
X7195476Y-26427476D02*
X7195476Y-26465571D01*
X7271667Y-26427476D02*
X7271667Y-26465571D01*
X7566905Y-26703667D02*
X7557381Y-26694143D01*
X7538333Y-26665571D01*
X7528809Y-26646524D01*
X7519286Y-26617952D01*
X7509762Y-26570333D01*
X7509762Y-26532238D01*
X7519286Y-26484619D01*
X7528809Y-26456048D01*
X7538333Y-26437000D01*
X7557381Y-26408428D01*
X7566905Y-26398905D01*
X7738333Y-26427476D02*
X7643095Y-26427476D01*
X7633571Y-26522714D01*
X7643095Y-26513190D01*
X7662143Y-26503667D01*
X7709762Y-26503667D01*
X7728809Y-26513190D01*
X7738333Y-26522714D01*
X7747857Y-26541762D01*
X7747857Y-26589381D01*
X7738333Y-26608428D01*
X7728809Y-26617952D01*
X7709762Y-26627476D01*
X7662143Y-26627476D01*
X7643095Y-26617952D01*
X7633571Y-26608428D01*
X7871667Y-26427476D02*
X7890714Y-26427476D01*
X7909762Y-26437000D01*
X7919286Y-26446524D01*
X7928809Y-26465571D01*
X7938333Y-26503667D01*
X7938333Y-26551286D01*
X7928809Y-26589381D01*
X7919286Y-26608428D01*
X7909762Y-26617952D01*
X7890714Y-26627476D01*
X7871667Y-26627476D01*
X7852619Y-26617952D01*
X7843095Y-26608428D01*
X7833571Y-26589381D01*
X7824048Y-26551286D01*
X7824048Y-26503667D01*
X7833571Y-26465571D01*
X7843095Y-26446524D01*
X7852619Y-26437000D01*
X7871667Y-26427476D01*
X8176428Y-26627476D02*
X8176428Y-26427476D01*
X8262143Y-26627476D02*
X8262143Y-26522714D01*
X8252619Y-26503667D01*
X8233571Y-26494143D01*
X8205000Y-26494143D01*
X8185952Y-26503667D01*
X8176428Y-26513190D01*
X8385952Y-26627476D02*
X8366905Y-26617952D01*
X8357381Y-26608428D01*
X8347857Y-26589381D01*
X8347857Y-26532238D01*
X8357381Y-26513190D01*
X8366905Y-26503667D01*
X8385952Y-26494143D01*
X8414524Y-26494143D01*
X8433571Y-26503667D01*
X8443095Y-26513190D01*
X8452619Y-26532238D01*
X8452619Y-26589381D01*
X8443095Y-26608428D01*
X8433571Y-26617952D01*
X8414524Y-26627476D01*
X8385952Y-26627476D01*
X8566905Y-26627476D02*
X8547857Y-26617952D01*
X8538333Y-26598905D01*
X8538333Y-26427476D01*
X8719286Y-26617952D02*
X8700238Y-26627476D01*
X8662143Y-26627476D01*
X8643095Y-26617952D01*
X8633571Y-26598905D01*
X8633571Y-26522714D01*
X8643095Y-26503667D01*
X8662143Y-26494143D01*
X8700238Y-26494143D01*
X8719286Y-26503667D01*
X8728810Y-26522714D01*
X8728810Y-26541762D01*
X8633571Y-26560809D01*
X8805000Y-26617952D02*
X8824048Y-26627476D01*
X8862143Y-26627476D01*
X8881190Y-26617952D01*
X8890714Y-26598905D01*
X8890714Y-26589381D01*
X8881190Y-26570333D01*
X8862143Y-26560809D01*
X8833571Y-26560809D01*
X8814524Y-26551286D01*
X8805000Y-26532238D01*
X8805000Y-26522714D01*
X8814524Y-26503667D01*
X8833571Y-26494143D01*
X8862143Y-26494143D01*
X8881190Y-26503667D01*
X8957381Y-26703667D02*
X8966905Y-26694143D01*
X8985952Y-26665571D01*
X8995476Y-26646524D01*
X9005000Y-26617952D01*
X9014524Y-26570333D01*
X9014524Y-26532238D01*
X9005000Y-26484619D01*
X8995476Y-26456048D01*
X8985952Y-26437000D01*
X8966905Y-26408428D01*
X8957381Y-26398905D01*
X9319286Y-26703667D02*
X9309762Y-26694143D01*
X9290714Y-26665571D01*
X9281190Y-26646524D01*
X9271667Y-26617952D01*
X9262143Y-26570333D01*
X9262143Y-26532238D01*
X9271667Y-26484619D01*
X9281190Y-26456048D01*
X9290714Y-26437000D01*
X9309762Y-26408428D01*
X9319286Y-26398905D01*
X9395476Y-26494143D02*
X9395476Y-26627476D01*
X9395476Y-26513190D02*
X9405000Y-26503667D01*
X9424048Y-26494143D01*
X9452619Y-26494143D01*
X9471667Y-26503667D01*
X9481190Y-26522714D01*
X9481190Y-26627476D01*
X9605000Y-26627476D02*
X9585952Y-26617952D01*
X9576429Y-26608428D01*
X9566905Y-26589381D01*
X9566905Y-26532238D01*
X9576429Y-26513190D01*
X9585952Y-26503667D01*
X9605000Y-26494143D01*
X9633571Y-26494143D01*
X9652619Y-26503667D01*
X9662143Y-26513190D01*
X9671667Y-26532238D01*
X9671667Y-26589381D01*
X9662143Y-26608428D01*
X9652619Y-26617952D01*
X9633571Y-26627476D01*
X9605000Y-26627476D01*
X9728810Y-26494143D02*
X9805000Y-26494143D01*
X9757381Y-26427476D02*
X9757381Y-26598905D01*
X9766905Y-26617952D01*
X9785952Y-26627476D01*
X9805000Y-26627476D01*
X10024048Y-26494143D02*
X10024048Y-26694143D01*
X10024048Y-26503667D02*
X10043095Y-26494143D01*
X10081190Y-26494143D01*
X10100238Y-26503667D01*
X10109762Y-26513190D01*
X10119286Y-26532238D01*
X10119286Y-26589381D01*
X10109762Y-26608428D01*
X10100238Y-26617952D01*
X10081190Y-26627476D01*
X10043095Y-26627476D01*
X10024048Y-26617952D01*
X10233571Y-26627476D02*
X10214524Y-26617952D01*
X10205000Y-26598905D01*
X10205000Y-26427476D01*
X10395476Y-26627476D02*
X10395476Y-26522714D01*
X10385952Y-26503667D01*
X10366905Y-26494143D01*
X10328810Y-26494143D01*
X10309762Y-26503667D01*
X10395476Y-26617952D02*
X10376429Y-26627476D01*
X10328810Y-26627476D01*
X10309762Y-26617952D01*
X10300238Y-26598905D01*
X10300238Y-26579857D01*
X10309762Y-26560809D01*
X10328810Y-26551286D01*
X10376429Y-26551286D01*
X10395476Y-26541762D01*
X10462143Y-26494143D02*
X10538333Y-26494143D01*
X10490714Y-26427476D02*
X10490714Y-26598905D01*
X10500238Y-26617952D01*
X10519286Y-26627476D01*
X10538333Y-26627476D01*
X10681190Y-26617952D02*
X10662143Y-26627476D01*
X10624048Y-26627476D01*
X10605000Y-26617952D01*
X10595476Y-26598905D01*
X10595476Y-26522714D01*
X10605000Y-26503667D01*
X10624048Y-26494143D01*
X10662143Y-26494143D01*
X10681190Y-26503667D01*
X10690714Y-26522714D01*
X10690714Y-26541762D01*
X10595476Y-26560809D01*
X10862143Y-26627476D02*
X10862143Y-26427476D01*
X10862143Y-26617952D02*
X10843095Y-26627476D01*
X10805000Y-26627476D01*
X10785952Y-26617952D01*
X10776429Y-26608428D01*
X10766905Y-26589381D01*
X10766905Y-26532238D01*
X10776429Y-26513190D01*
X10785952Y-26503667D01*
X10805000Y-26494143D01*
X10843095Y-26494143D01*
X10862143Y-26503667D01*
X10938333Y-26703667D02*
X10947857Y-26694143D01*
X10966905Y-26665571D01*
X10976429Y-26646524D01*
X10985952Y-26617952D01*
X10995476Y-26570333D01*
X10995476Y-26532238D01*
X10985952Y-26484619D01*
X10976429Y-26456048D01*
X10966905Y-26437000D01*
X10947857Y-26408428D01*
X10938333Y-26398905D01*
D16*
X3907500Y-26914500D02*
X3995000Y-26827000D01*
X3907500Y-26739500D01*
X3820000Y-26827000D01*
X3907500Y-26914500D01*
D11*
X4357381Y-26917476D02*
X4243095Y-26917476D01*
X4300238Y-26917476D02*
X4300238Y-26717476D01*
X4281190Y-26746048D01*
X4262143Y-26765095D01*
X4243095Y-26774619D01*
X4443095Y-26898428D02*
X4452619Y-26907952D01*
X4443095Y-26917476D01*
X4433571Y-26907952D01*
X4443095Y-26898428D01*
X4443095Y-26917476D01*
X4519286Y-26717476D02*
X4652619Y-26717476D01*
X4566905Y-26917476D01*
X4824048Y-26717476D02*
X4728810Y-26717476D01*
X4719286Y-26812714D01*
X4728810Y-26803190D01*
X4747857Y-26793667D01*
X4795476Y-26793667D01*
X4814524Y-26803190D01*
X4824048Y-26812714D01*
X4833571Y-26831762D01*
X4833571Y-26879381D01*
X4824048Y-26898428D01*
X4814524Y-26907952D01*
X4795476Y-26917476D01*
X4747857Y-26917476D01*
X4728810Y-26907952D01*
X4719286Y-26898428D01*
X4957381Y-26717476D02*
X4976429Y-26717476D01*
X4995476Y-26727000D01*
X5005000Y-26736524D01*
X5014524Y-26755571D01*
X5024048Y-26793667D01*
X5024048Y-26841286D01*
X5014524Y-26879381D01*
X5005000Y-26898428D01*
X4995476Y-26907952D01*
X4976429Y-26917476D01*
X4957381Y-26917476D01*
X4938333Y-26907952D01*
X4928810Y-26898428D01*
X4919286Y-26879381D01*
X4909762Y-26841286D01*
X4909762Y-26793667D01*
X4919286Y-26755571D01*
X4928810Y-26736524D01*
X4938333Y-26727000D01*
X4957381Y-26717476D01*
X5109762Y-26917476D02*
X5109762Y-26784143D01*
X5109762Y-26803190D02*
X5119286Y-26793667D01*
X5138333Y-26784143D01*
X5166905Y-26784143D01*
X5185952Y-26793667D01*
X5195476Y-26812714D01*
X5195476Y-26917476D01*
X5195476Y-26812714D02*
X5205000Y-26793667D01*
X5224048Y-26784143D01*
X5252619Y-26784143D01*
X5271667Y-26793667D01*
X5281190Y-26812714D01*
X5281190Y-26917476D01*
X5376429Y-26917476D02*
X5376429Y-26784143D01*
X5376429Y-26803190D02*
X5385952Y-26793667D01*
X5405000Y-26784143D01*
X5433571Y-26784143D01*
X5452619Y-26793667D01*
X5462143Y-26812714D01*
X5462143Y-26917476D01*
X5462143Y-26812714D02*
X5471667Y-26793667D01*
X5490714Y-26784143D01*
X5519286Y-26784143D01*
X5538333Y-26793667D01*
X5547857Y-26812714D01*
X5547857Y-26917476D01*
X5938333Y-26707952D02*
X5766905Y-26965095D01*
X6195476Y-26717476D02*
X6214524Y-26717476D01*
X6233571Y-26727000D01*
X6243095Y-26736524D01*
X6252619Y-26755571D01*
X6262143Y-26793667D01*
X6262143Y-26841286D01*
X6252619Y-26879381D01*
X6243095Y-26898428D01*
X6233571Y-26907952D01*
X6214524Y-26917476D01*
X6195476Y-26917476D01*
X6176428Y-26907952D01*
X6166905Y-26898428D01*
X6157381Y-26879381D01*
X6147857Y-26841286D01*
X6147857Y-26793667D01*
X6157381Y-26755571D01*
X6166905Y-26736524D01*
X6176428Y-26727000D01*
X6195476Y-26717476D01*
X6347857Y-26898428D02*
X6357381Y-26907952D01*
X6347857Y-26917476D01*
X6338333Y-26907952D01*
X6347857Y-26898428D01*
X6347857Y-26917476D01*
X6481190Y-26717476D02*
X6500238Y-26717476D01*
X6519286Y-26727000D01*
X6528809Y-26736524D01*
X6538333Y-26755571D01*
X6547857Y-26793667D01*
X6547857Y-26841286D01*
X6538333Y-26879381D01*
X6528809Y-26898428D01*
X6519286Y-26907952D01*
X6500238Y-26917476D01*
X6481190Y-26917476D01*
X6462143Y-26907952D01*
X6452619Y-26898428D01*
X6443095Y-26879381D01*
X6433571Y-26841286D01*
X6433571Y-26793667D01*
X6443095Y-26755571D01*
X6452619Y-26736524D01*
X6462143Y-26727000D01*
X6481190Y-26717476D01*
X6719286Y-26717476D02*
X6681190Y-26717476D01*
X6662143Y-26727000D01*
X6652619Y-26736524D01*
X6633571Y-26765095D01*
X6624048Y-26803190D01*
X6624048Y-26879381D01*
X6633571Y-26898428D01*
X6643095Y-26907952D01*
X6662143Y-26917476D01*
X6700238Y-26917476D01*
X6719286Y-26907952D01*
X6728809Y-26898428D01*
X6738333Y-26879381D01*
X6738333Y-26831762D01*
X6728809Y-26812714D01*
X6719286Y-26803190D01*
X6700238Y-26793667D01*
X6662143Y-26793667D01*
X6643095Y-26803190D01*
X6633571Y-26812714D01*
X6624048Y-26831762D01*
X6852619Y-26803190D02*
X6833571Y-26793667D01*
X6824048Y-26784143D01*
X6814524Y-26765095D01*
X6814524Y-26755571D01*
X6824048Y-26736524D01*
X6833571Y-26727000D01*
X6852619Y-26717476D01*
X6890714Y-26717476D01*
X6909762Y-26727000D01*
X6919286Y-26736524D01*
X6928809Y-26755571D01*
X6928809Y-26765095D01*
X6919286Y-26784143D01*
X6909762Y-26793667D01*
X6890714Y-26803190D01*
X6852619Y-26803190D01*
X6833571Y-26812714D01*
X6824048Y-26822238D01*
X6814524Y-26841286D01*
X6814524Y-26879381D01*
X6824048Y-26898428D01*
X6833571Y-26907952D01*
X6852619Y-26917476D01*
X6890714Y-26917476D01*
X6909762Y-26907952D01*
X6919286Y-26898428D01*
X6928809Y-26879381D01*
X6928809Y-26841286D01*
X6919286Y-26822238D01*
X6909762Y-26812714D01*
X6890714Y-26803190D01*
X7024048Y-26917476D02*
X7062143Y-26917476D01*
X7081190Y-26907952D01*
X7090714Y-26898428D01*
X7109762Y-26869857D01*
X7119286Y-26831762D01*
X7119286Y-26755571D01*
X7109762Y-26736524D01*
X7100238Y-26727000D01*
X7081190Y-26717476D01*
X7043095Y-26717476D01*
X7024048Y-26727000D01*
X7014524Y-26736524D01*
X7005000Y-26755571D01*
X7005000Y-26803190D01*
X7014524Y-26822238D01*
X7024048Y-26831762D01*
X7043095Y-26841286D01*
X7081190Y-26841286D01*
X7100238Y-26831762D01*
X7109762Y-26822238D01*
X7119286Y-26803190D01*
X7195476Y-26717476D02*
X7195476Y-26755571D01*
X7271667Y-26717476D02*
X7271667Y-26755571D01*
X7566905Y-26993667D02*
X7557381Y-26984143D01*
X7538333Y-26955571D01*
X7528809Y-26936524D01*
X7519286Y-26907952D01*
X7509762Y-26860333D01*
X7509762Y-26822238D01*
X7519286Y-26774619D01*
X7528809Y-26746048D01*
X7538333Y-26727000D01*
X7557381Y-26698428D01*
X7566905Y-26688905D01*
X7738333Y-26717476D02*
X7643095Y-26717476D01*
X7633571Y-26812714D01*
X7643095Y-26803190D01*
X7662143Y-26793667D01*
X7709762Y-26793667D01*
X7728809Y-26803190D01*
X7738333Y-26812714D01*
X7747857Y-26831762D01*
X7747857Y-26879381D01*
X7738333Y-26898428D01*
X7728809Y-26907952D01*
X7709762Y-26917476D01*
X7662143Y-26917476D01*
X7643095Y-26907952D01*
X7633571Y-26898428D01*
X7871667Y-26717476D02*
X7890714Y-26717476D01*
X7909762Y-26727000D01*
X7919286Y-26736524D01*
X7928809Y-26755571D01*
X7938333Y-26793667D01*
X7938333Y-26841286D01*
X7928809Y-26879381D01*
X7919286Y-26898428D01*
X7909762Y-26907952D01*
X7890714Y-26917476D01*
X7871667Y-26917476D01*
X7852619Y-26907952D01*
X7843095Y-26898428D01*
X7833571Y-26879381D01*
X7824048Y-26841286D01*
X7824048Y-26793667D01*
X7833571Y-26755571D01*
X7843095Y-26736524D01*
X7852619Y-26727000D01*
X7871667Y-26717476D01*
X8176428Y-26917476D02*
X8176428Y-26717476D01*
X8262143Y-26917476D02*
X8262143Y-26812714D01*
X8252619Y-26793667D01*
X8233571Y-26784143D01*
X8205000Y-26784143D01*
X8185952Y-26793667D01*
X8176428Y-26803190D01*
X8385952Y-26917476D02*
X8366905Y-26907952D01*
X8357381Y-26898428D01*
X8347857Y-26879381D01*
X8347857Y-26822238D01*
X8357381Y-26803190D01*
X8366905Y-26793667D01*
X8385952Y-26784143D01*
X8414524Y-26784143D01*
X8433571Y-26793667D01*
X8443095Y-26803190D01*
X8452619Y-26822238D01*
X8452619Y-26879381D01*
X8443095Y-26898428D01*
X8433571Y-26907952D01*
X8414524Y-26917476D01*
X8385952Y-26917476D01*
X8566905Y-26917476D02*
X8547857Y-26907952D01*
X8538333Y-26888905D01*
X8538333Y-26717476D01*
X8719286Y-26907952D02*
X8700238Y-26917476D01*
X8662143Y-26917476D01*
X8643095Y-26907952D01*
X8633571Y-26888905D01*
X8633571Y-26812714D01*
X8643095Y-26793667D01*
X8662143Y-26784143D01*
X8700238Y-26784143D01*
X8719286Y-26793667D01*
X8728810Y-26812714D01*
X8728810Y-26831762D01*
X8633571Y-26850809D01*
X8805000Y-26907952D02*
X8824048Y-26917476D01*
X8862143Y-26917476D01*
X8881190Y-26907952D01*
X8890714Y-26888905D01*
X8890714Y-26879381D01*
X8881190Y-26860333D01*
X8862143Y-26850809D01*
X8833571Y-26850809D01*
X8814524Y-26841286D01*
X8805000Y-26822238D01*
X8805000Y-26812714D01*
X8814524Y-26793667D01*
X8833571Y-26784143D01*
X8862143Y-26784143D01*
X8881190Y-26793667D01*
X8957381Y-26993667D02*
X8966905Y-26984143D01*
X8985952Y-26955571D01*
X8995476Y-26936524D01*
X9005000Y-26907952D01*
X9014524Y-26860333D01*
X9014524Y-26822238D01*
X9005000Y-26774619D01*
X8995476Y-26746048D01*
X8985952Y-26727000D01*
X8966905Y-26698428D01*
X8957381Y-26688905D01*
X9319286Y-26993667D02*
X9309762Y-26984143D01*
X9290714Y-26955571D01*
X9281190Y-26936524D01*
X9271667Y-26907952D01*
X9262143Y-26860333D01*
X9262143Y-26822238D01*
X9271667Y-26774619D01*
X9281190Y-26746048D01*
X9290714Y-26727000D01*
X9309762Y-26698428D01*
X9319286Y-26688905D01*
X9395476Y-26784143D02*
X9395476Y-26917476D01*
X9395476Y-26803190D02*
X9405000Y-26793667D01*
X9424048Y-26784143D01*
X9452619Y-26784143D01*
X9471667Y-26793667D01*
X9481190Y-26812714D01*
X9481190Y-26917476D01*
X9605000Y-26917476D02*
X9585952Y-26907952D01*
X9576429Y-26898428D01*
X9566905Y-26879381D01*
X9566905Y-26822238D01*
X9576429Y-26803190D01*
X9585952Y-26793667D01*
X9605000Y-26784143D01*
X9633571Y-26784143D01*
X9652619Y-26793667D01*
X9662143Y-26803190D01*
X9671667Y-26822238D01*
X9671667Y-26879381D01*
X9662143Y-26898428D01*
X9652619Y-26907952D01*
X9633571Y-26917476D01*
X9605000Y-26917476D01*
X9728810Y-26784143D02*
X9805000Y-26784143D01*
X9757381Y-26717476D02*
X9757381Y-26888905D01*
X9766905Y-26907952D01*
X9785952Y-26917476D01*
X9805000Y-26917476D01*
X10024048Y-26784143D02*
X10024048Y-26984143D01*
X10024048Y-26793667D02*
X10043095Y-26784143D01*
X10081190Y-26784143D01*
X10100238Y-26793667D01*
X10109762Y-26803190D01*
X10119286Y-26822238D01*
X10119286Y-26879381D01*
X10109762Y-26898428D01*
X10100238Y-26907952D01*
X10081190Y-26917476D01*
X10043095Y-26917476D01*
X10024048Y-26907952D01*
X10233571Y-26917476D02*
X10214524Y-26907952D01*
X10205000Y-26888905D01*
X10205000Y-26717476D01*
X10395476Y-26917476D02*
X10395476Y-26812714D01*
X10385952Y-26793667D01*
X10366905Y-26784143D01*
X10328810Y-26784143D01*
X10309762Y-26793667D01*
X10395476Y-26907952D02*
X10376429Y-26917476D01*
X10328810Y-26917476D01*
X10309762Y-26907952D01*
X10300238Y-26888905D01*
X10300238Y-26869857D01*
X10309762Y-26850809D01*
X10328810Y-26841286D01*
X10376429Y-26841286D01*
X10395476Y-26831762D01*
X10462143Y-26784143D02*
X10538333Y-26784143D01*
X10490714Y-26717476D02*
X10490714Y-26888905D01*
X10500238Y-26907952D01*
X10519286Y-26917476D01*
X10538333Y-26917476D01*
X10681190Y-26907952D02*
X10662143Y-26917476D01*
X10624048Y-26917476D01*
X10605000Y-26907952D01*
X10595476Y-26888905D01*
X10595476Y-26812714D01*
X10605000Y-26793667D01*
X10624048Y-26784143D01*
X10662143Y-26784143D01*
X10681190Y-26793667D01*
X10690714Y-26812714D01*
X10690714Y-26831762D01*
X10595476Y-26850809D01*
X10862143Y-26917476D02*
X10862143Y-26717476D01*
X10862143Y-26907952D02*
X10843095Y-26917476D01*
X10805000Y-26917476D01*
X10785952Y-26907952D01*
X10776429Y-26898428D01*
X10766905Y-26879381D01*
X10766905Y-26822238D01*
X10776429Y-26803190D01*
X10785952Y-26793667D01*
X10805000Y-26784143D01*
X10843095Y-26784143D01*
X10862143Y-26793667D01*
X10938333Y-26993667D02*
X10947857Y-26984143D01*
X10966905Y-26955571D01*
X10976429Y-26936524D01*
X10985952Y-26907952D01*
X10995476Y-26860333D01*
X10995476Y-26822238D01*
X10985952Y-26774619D01*
X10976429Y-26746048D01*
X10966905Y-26727000D01*
X10947857Y-26698428D01*
X10938333Y-26688905D01*
X3795000Y-27022000D02*
X3995000Y-27222000D01*
X3995000Y-27022000D02*
X3795000Y-27222000D01*
X3995000Y-27122000D02*
G75*
G03*
X3995000Y-27122000I-100000J0D01*
G01*
X4233571Y-27012476D02*
X4357381Y-27012476D01*
X4290714Y-27088667D01*
X4319286Y-27088667D01*
X4338333Y-27098190D01*
X4347857Y-27107714D01*
X4357381Y-27126762D01*
X4357381Y-27174381D01*
X4347857Y-27193428D01*
X4338333Y-27202952D01*
X4319286Y-27212476D01*
X4262143Y-27212476D01*
X4243095Y-27202952D01*
X4233571Y-27193428D01*
X4443095Y-27193428D02*
X4452619Y-27202952D01*
X4443095Y-27212476D01*
X4433571Y-27202952D01*
X4443095Y-27193428D01*
X4443095Y-27212476D01*
X4576429Y-27012476D02*
X4595476Y-27012476D01*
X4614524Y-27022000D01*
X4624048Y-27031524D01*
X4633571Y-27050571D01*
X4643095Y-27088667D01*
X4643095Y-27136286D01*
X4633571Y-27174381D01*
X4624048Y-27193428D01*
X4614524Y-27202952D01*
X4595476Y-27212476D01*
X4576429Y-27212476D01*
X4557381Y-27202952D01*
X4547857Y-27193428D01*
X4538333Y-27174381D01*
X4528810Y-27136286D01*
X4528810Y-27088667D01*
X4538333Y-27050571D01*
X4547857Y-27031524D01*
X4557381Y-27022000D01*
X4576429Y-27012476D01*
X4814524Y-27079143D02*
X4814524Y-27212476D01*
X4766905Y-27002952D02*
X4719286Y-27145809D01*
X4843095Y-27145809D01*
X4947857Y-27098190D02*
X4928810Y-27088667D01*
X4919286Y-27079143D01*
X4909762Y-27060095D01*
X4909762Y-27050571D01*
X4919286Y-27031524D01*
X4928810Y-27022000D01*
X4947857Y-27012476D01*
X4985952Y-27012476D01*
X5005000Y-27022000D01*
X5014524Y-27031524D01*
X5024048Y-27050571D01*
X5024048Y-27060095D01*
X5014524Y-27079143D01*
X5005000Y-27088667D01*
X4985952Y-27098190D01*
X4947857Y-27098190D01*
X4928810Y-27107714D01*
X4919286Y-27117238D01*
X4909762Y-27136286D01*
X4909762Y-27174381D01*
X4919286Y-27193428D01*
X4928810Y-27202952D01*
X4947857Y-27212476D01*
X4985952Y-27212476D01*
X5005000Y-27202952D01*
X5014524Y-27193428D01*
X5024048Y-27174381D01*
X5024048Y-27136286D01*
X5014524Y-27117238D01*
X5005000Y-27107714D01*
X4985952Y-27098190D01*
X5109762Y-27212476D02*
X5109762Y-27079143D01*
X5109762Y-27098190D02*
X5119286Y-27088667D01*
X5138333Y-27079143D01*
X5166905Y-27079143D01*
X5185952Y-27088667D01*
X5195476Y-27107714D01*
X5195476Y-27212476D01*
X5195476Y-27107714D02*
X5205000Y-27088667D01*
X5224048Y-27079143D01*
X5252619Y-27079143D01*
X5271667Y-27088667D01*
X5281190Y-27107714D01*
X5281190Y-27212476D01*
X5376429Y-27212476D02*
X5376429Y-27079143D01*
X5376429Y-27098190D02*
X5385952Y-27088667D01*
X5405000Y-27079143D01*
X5433571Y-27079143D01*
X5452619Y-27088667D01*
X5462143Y-27107714D01*
X5462143Y-27212476D01*
X5462143Y-27107714D02*
X5471667Y-27088667D01*
X5490714Y-27079143D01*
X5519286Y-27079143D01*
X5538333Y-27088667D01*
X5547857Y-27107714D01*
X5547857Y-27212476D01*
X5938333Y-27002952D02*
X5766905Y-27260095D01*
X6195476Y-27012476D02*
X6214524Y-27012476D01*
X6233571Y-27022000D01*
X6243095Y-27031524D01*
X6252619Y-27050571D01*
X6262143Y-27088667D01*
X6262143Y-27136286D01*
X6252619Y-27174381D01*
X6243095Y-27193428D01*
X6233571Y-27202952D01*
X6214524Y-27212476D01*
X6195476Y-27212476D01*
X6176428Y-27202952D01*
X6166905Y-27193428D01*
X6157381Y-27174381D01*
X6147857Y-27136286D01*
X6147857Y-27088667D01*
X6157381Y-27050571D01*
X6166905Y-27031524D01*
X6176428Y-27022000D01*
X6195476Y-27012476D01*
X6347857Y-27193428D02*
X6357381Y-27202952D01*
X6347857Y-27212476D01*
X6338333Y-27202952D01*
X6347857Y-27193428D01*
X6347857Y-27212476D01*
X6547857Y-27212476D02*
X6433571Y-27212476D01*
X6490714Y-27212476D02*
X6490714Y-27012476D01*
X6471667Y-27041048D01*
X6452619Y-27060095D01*
X6433571Y-27069619D01*
X6624048Y-27031524D02*
X6633571Y-27022000D01*
X6652619Y-27012476D01*
X6700238Y-27012476D01*
X6719286Y-27022000D01*
X6728809Y-27031524D01*
X6738333Y-27050571D01*
X6738333Y-27069619D01*
X6728809Y-27098190D01*
X6614524Y-27212476D01*
X6738333Y-27212476D01*
X6862143Y-27012476D02*
X6881190Y-27012476D01*
X6900238Y-27022000D01*
X6909762Y-27031524D01*
X6919286Y-27050571D01*
X6928809Y-27088667D01*
X6928809Y-27136286D01*
X6919286Y-27174381D01*
X6909762Y-27193428D01*
X6900238Y-27202952D01*
X6881190Y-27212476D01*
X6862143Y-27212476D01*
X6843095Y-27202952D01*
X6833571Y-27193428D01*
X6824048Y-27174381D01*
X6814524Y-27136286D01*
X6814524Y-27088667D01*
X6824048Y-27050571D01*
X6833571Y-27031524D01*
X6843095Y-27022000D01*
X6862143Y-27012476D01*
X7052619Y-27012476D02*
X7071667Y-27012476D01*
X7090714Y-27022000D01*
X7100238Y-27031524D01*
X7109762Y-27050571D01*
X7119286Y-27088667D01*
X7119286Y-27136286D01*
X7109762Y-27174381D01*
X7100238Y-27193428D01*
X7090714Y-27202952D01*
X7071667Y-27212476D01*
X7052619Y-27212476D01*
X7033571Y-27202952D01*
X7024048Y-27193428D01*
X7014524Y-27174381D01*
X7005000Y-27136286D01*
X7005000Y-27088667D01*
X7014524Y-27050571D01*
X7024048Y-27031524D01*
X7033571Y-27022000D01*
X7052619Y-27012476D01*
X7195476Y-27012476D02*
X7195476Y-27050571D01*
X7271667Y-27012476D02*
X7271667Y-27050571D01*
X7566905Y-27288667D02*
X7557381Y-27279143D01*
X7538333Y-27250571D01*
X7528809Y-27231524D01*
X7519286Y-27202952D01*
X7509762Y-27155333D01*
X7509762Y-27117238D01*
X7519286Y-27069619D01*
X7528809Y-27041048D01*
X7538333Y-27022000D01*
X7557381Y-26993428D01*
X7566905Y-26983905D01*
X7624048Y-27012476D02*
X7747857Y-27012476D01*
X7681190Y-27088667D01*
X7709762Y-27088667D01*
X7728809Y-27098190D01*
X7738333Y-27107714D01*
X7747857Y-27126762D01*
X7747857Y-27174381D01*
X7738333Y-27193428D01*
X7728809Y-27202952D01*
X7709762Y-27212476D01*
X7652619Y-27212476D01*
X7633571Y-27202952D01*
X7624048Y-27193428D01*
X7871667Y-27012476D02*
X7890714Y-27012476D01*
X7909762Y-27022000D01*
X7919286Y-27031524D01*
X7928809Y-27050571D01*
X7938333Y-27088667D01*
X7938333Y-27136286D01*
X7928809Y-27174381D01*
X7919286Y-27193428D01*
X7909762Y-27202952D01*
X7890714Y-27212476D01*
X7871667Y-27212476D01*
X7852619Y-27202952D01*
X7843095Y-27193428D01*
X7833571Y-27174381D01*
X7824048Y-27136286D01*
X7824048Y-27088667D01*
X7833571Y-27050571D01*
X7843095Y-27031524D01*
X7852619Y-27022000D01*
X7871667Y-27012476D01*
X8176428Y-27212476D02*
X8176428Y-27012476D01*
X8262143Y-27212476D02*
X8262143Y-27107714D01*
X8252619Y-27088667D01*
X8233571Y-27079143D01*
X8205000Y-27079143D01*
X8185952Y-27088667D01*
X8176428Y-27098190D01*
X8385952Y-27212476D02*
X8366905Y-27202952D01*
X8357381Y-27193428D01*
X8347857Y-27174381D01*
X8347857Y-27117238D01*
X8357381Y-27098190D01*
X8366905Y-27088667D01*
X8385952Y-27079143D01*
X8414524Y-27079143D01*
X8433571Y-27088667D01*
X8443095Y-27098190D01*
X8452619Y-27117238D01*
X8452619Y-27174381D01*
X8443095Y-27193428D01*
X8433571Y-27202952D01*
X8414524Y-27212476D01*
X8385952Y-27212476D01*
X8566905Y-27212476D02*
X8547857Y-27202952D01*
X8538333Y-27183905D01*
X8538333Y-27012476D01*
X8719286Y-27202952D02*
X8700238Y-27212476D01*
X8662143Y-27212476D01*
X8643095Y-27202952D01*
X8633571Y-27183905D01*
X8633571Y-27107714D01*
X8643095Y-27088667D01*
X8662143Y-27079143D01*
X8700238Y-27079143D01*
X8719286Y-27088667D01*
X8728810Y-27107714D01*
X8728810Y-27126762D01*
X8633571Y-27145809D01*
X8805000Y-27202952D02*
X8824048Y-27212476D01*
X8862143Y-27212476D01*
X8881190Y-27202952D01*
X8890714Y-27183905D01*
X8890714Y-27174381D01*
X8881190Y-27155333D01*
X8862143Y-27145809D01*
X8833571Y-27145809D01*
X8814524Y-27136286D01*
X8805000Y-27117238D01*
X8805000Y-27107714D01*
X8814524Y-27088667D01*
X8833571Y-27079143D01*
X8862143Y-27079143D01*
X8881190Y-27088667D01*
X8957381Y-27288667D02*
X8966905Y-27279143D01*
X8985952Y-27250571D01*
X8995476Y-27231524D01*
X9005000Y-27202952D01*
X9014524Y-27155333D01*
X9014524Y-27117238D01*
X9005000Y-27069619D01*
X8995476Y-27041048D01*
X8985952Y-27022000D01*
X8966905Y-26993428D01*
X8957381Y-26983905D01*
X9319286Y-27288667D02*
X9309762Y-27279143D01*
X9290714Y-27250571D01*
X9281190Y-27231524D01*
X9271667Y-27202952D01*
X9262143Y-27155333D01*
X9262143Y-27117238D01*
X9271667Y-27069619D01*
X9281190Y-27041048D01*
X9290714Y-27022000D01*
X9309762Y-26993428D01*
X9319286Y-26983905D01*
X9395476Y-27079143D02*
X9395476Y-27212476D01*
X9395476Y-27098190D02*
X9405000Y-27088667D01*
X9424048Y-27079143D01*
X9452619Y-27079143D01*
X9471667Y-27088667D01*
X9481190Y-27107714D01*
X9481190Y-27212476D01*
X9605000Y-27212476D02*
X9585952Y-27202952D01*
X9576429Y-27193428D01*
X9566905Y-27174381D01*
X9566905Y-27117238D01*
X9576429Y-27098190D01*
X9585952Y-27088667D01*
X9605000Y-27079143D01*
X9633571Y-27079143D01*
X9652619Y-27088667D01*
X9662143Y-27098190D01*
X9671667Y-27117238D01*
X9671667Y-27174381D01*
X9662143Y-27193428D01*
X9652619Y-27202952D01*
X9633571Y-27212476D01*
X9605000Y-27212476D01*
X9728810Y-27079143D02*
X9805000Y-27079143D01*
X9757381Y-27012476D02*
X9757381Y-27183905D01*
X9766905Y-27202952D01*
X9785952Y-27212476D01*
X9805000Y-27212476D01*
X10024048Y-27079143D02*
X10024048Y-27279143D01*
X10024048Y-27088667D02*
X10043095Y-27079143D01*
X10081190Y-27079143D01*
X10100238Y-27088667D01*
X10109762Y-27098190D01*
X10119286Y-27117238D01*
X10119286Y-27174381D01*
X10109762Y-27193428D01*
X10100238Y-27202952D01*
X10081190Y-27212476D01*
X10043095Y-27212476D01*
X10024048Y-27202952D01*
X10233571Y-27212476D02*
X10214524Y-27202952D01*
X10205000Y-27183905D01*
X10205000Y-27012476D01*
X10395476Y-27212476D02*
X10395476Y-27107714D01*
X10385952Y-27088667D01*
X10366905Y-27079143D01*
X10328810Y-27079143D01*
X10309762Y-27088667D01*
X10395476Y-27202952D02*
X10376429Y-27212476D01*
X10328810Y-27212476D01*
X10309762Y-27202952D01*
X10300238Y-27183905D01*
X10300238Y-27164857D01*
X10309762Y-27145809D01*
X10328810Y-27136286D01*
X10376429Y-27136286D01*
X10395476Y-27126762D01*
X10462143Y-27079143D02*
X10538333Y-27079143D01*
X10490714Y-27012476D02*
X10490714Y-27183905D01*
X10500238Y-27202952D01*
X10519286Y-27212476D01*
X10538333Y-27212476D01*
X10681190Y-27202952D02*
X10662143Y-27212476D01*
X10624048Y-27212476D01*
X10605000Y-27202952D01*
X10595476Y-27183905D01*
X10595476Y-27107714D01*
X10605000Y-27088667D01*
X10624048Y-27079143D01*
X10662143Y-27079143D01*
X10681190Y-27088667D01*
X10690714Y-27107714D01*
X10690714Y-27126762D01*
X10595476Y-27145809D01*
X10862143Y-27212476D02*
X10862143Y-27012476D01*
X10862143Y-27202952D02*
X10843095Y-27212476D01*
X10805000Y-27212476D01*
X10785952Y-27202952D01*
X10776429Y-27193428D01*
X10766905Y-27174381D01*
X10766905Y-27117238D01*
X10776429Y-27098190D01*
X10785952Y-27088667D01*
X10805000Y-27079143D01*
X10843095Y-27079143D01*
X10862143Y-27088667D01*
X10938333Y-27288667D02*
X10947857Y-27279143D01*
X10966905Y-27250571D01*
X10976429Y-27231524D01*
X10985952Y-27202952D01*
X10995476Y-27155333D01*
X10995476Y-27117238D01*
X10985952Y-27069619D01*
X10976429Y-27041048D01*
X10966905Y-27022000D01*
X10947857Y-26993428D01*
X10938333Y-26983905D01*
X3795000Y-27342000D02*
X3995000Y-27542000D01*
X3995000Y-27342000D02*
X3795000Y-27542000D01*
X3895000Y-27342000D02*
X3895000Y-27542000D01*
X3795000Y-27442000D02*
X3995000Y-27442000D01*
X4233571Y-27332476D02*
X4357381Y-27332476D01*
X4290714Y-27408667D01*
X4319286Y-27408667D01*
X4338333Y-27418190D01*
X4347857Y-27427714D01*
X4357381Y-27446762D01*
X4357381Y-27494381D01*
X4347857Y-27513428D01*
X4338333Y-27522952D01*
X4319286Y-27532476D01*
X4262143Y-27532476D01*
X4243095Y-27522952D01*
X4233571Y-27513428D01*
X4443095Y-27513428D02*
X4452619Y-27522952D01*
X4443095Y-27532476D01*
X4433571Y-27522952D01*
X4443095Y-27513428D01*
X4443095Y-27532476D01*
X4633571Y-27332476D02*
X4538333Y-27332476D01*
X4528810Y-27427714D01*
X4538333Y-27418190D01*
X4557381Y-27408667D01*
X4605000Y-27408667D01*
X4624048Y-27418190D01*
X4633571Y-27427714D01*
X4643095Y-27446762D01*
X4643095Y-27494381D01*
X4633571Y-27513428D01*
X4624048Y-27522952D01*
X4605000Y-27532476D01*
X4557381Y-27532476D01*
X4538333Y-27522952D01*
X4528810Y-27513428D01*
X4766905Y-27332476D02*
X4785952Y-27332476D01*
X4805000Y-27342000D01*
X4814524Y-27351524D01*
X4824048Y-27370571D01*
X4833571Y-27408667D01*
X4833571Y-27456286D01*
X4824048Y-27494381D01*
X4814524Y-27513428D01*
X4805000Y-27522952D01*
X4785952Y-27532476D01*
X4766905Y-27532476D01*
X4747857Y-27522952D01*
X4738333Y-27513428D01*
X4728810Y-27494381D01*
X4719286Y-27456286D01*
X4719286Y-27408667D01*
X4728810Y-27370571D01*
X4738333Y-27351524D01*
X4747857Y-27342000D01*
X4766905Y-27332476D01*
X4957381Y-27332476D02*
X4976429Y-27332476D01*
X4995476Y-27342000D01*
X5005000Y-27351524D01*
X5014524Y-27370571D01*
X5024048Y-27408667D01*
X5024048Y-27456286D01*
X5014524Y-27494381D01*
X5005000Y-27513428D01*
X4995476Y-27522952D01*
X4976429Y-27532476D01*
X4957381Y-27532476D01*
X4938333Y-27522952D01*
X4928810Y-27513428D01*
X4919286Y-27494381D01*
X4909762Y-27456286D01*
X4909762Y-27408667D01*
X4919286Y-27370571D01*
X4928810Y-27351524D01*
X4938333Y-27342000D01*
X4957381Y-27332476D01*
X5109762Y-27532476D02*
X5109762Y-27399143D01*
X5109762Y-27418190D02*
X5119286Y-27408667D01*
X5138333Y-27399143D01*
X5166905Y-27399143D01*
X5185952Y-27408667D01*
X5195476Y-27427714D01*
X5195476Y-27532476D01*
X5195476Y-27427714D02*
X5205000Y-27408667D01*
X5224048Y-27399143D01*
X5252619Y-27399143D01*
X5271667Y-27408667D01*
X5281190Y-27427714D01*
X5281190Y-27532476D01*
X5376429Y-27532476D02*
X5376429Y-27399143D01*
X5376429Y-27418190D02*
X5385952Y-27408667D01*
X5405000Y-27399143D01*
X5433571Y-27399143D01*
X5452619Y-27408667D01*
X5462143Y-27427714D01*
X5462143Y-27532476D01*
X5462143Y-27427714D02*
X5471667Y-27408667D01*
X5490714Y-27399143D01*
X5519286Y-27399143D01*
X5538333Y-27408667D01*
X5547857Y-27427714D01*
X5547857Y-27532476D01*
X5938333Y-27322952D02*
X5766905Y-27580095D01*
X6195476Y-27332476D02*
X6214524Y-27332476D01*
X6233571Y-27342000D01*
X6243095Y-27351524D01*
X6252619Y-27370571D01*
X6262143Y-27408667D01*
X6262143Y-27456286D01*
X6252619Y-27494381D01*
X6243095Y-27513428D01*
X6233571Y-27522952D01*
X6214524Y-27532476D01*
X6195476Y-27532476D01*
X6176428Y-27522952D01*
X6166905Y-27513428D01*
X6157381Y-27494381D01*
X6147857Y-27456286D01*
X6147857Y-27408667D01*
X6157381Y-27370571D01*
X6166905Y-27351524D01*
X6176428Y-27342000D01*
X6195476Y-27332476D01*
X6347857Y-27513428D02*
X6357381Y-27522952D01*
X6347857Y-27532476D01*
X6338333Y-27522952D01*
X6347857Y-27513428D01*
X6347857Y-27532476D01*
X6547857Y-27532476D02*
X6433571Y-27532476D01*
X6490714Y-27532476D02*
X6490714Y-27332476D01*
X6471667Y-27361048D01*
X6452619Y-27380095D01*
X6433571Y-27389619D01*
X6614524Y-27332476D02*
X6738333Y-27332476D01*
X6671667Y-27408667D01*
X6700238Y-27408667D01*
X6719286Y-27418190D01*
X6728809Y-27427714D01*
X6738333Y-27446762D01*
X6738333Y-27494381D01*
X6728809Y-27513428D01*
X6719286Y-27522952D01*
X6700238Y-27532476D01*
X6643095Y-27532476D01*
X6624048Y-27522952D01*
X6614524Y-27513428D01*
X6805000Y-27332476D02*
X6938333Y-27332476D01*
X6852619Y-27532476D01*
X7043095Y-27418190D02*
X7024048Y-27408667D01*
X7014524Y-27399143D01*
X7005000Y-27380095D01*
X7005000Y-27370571D01*
X7014524Y-27351524D01*
X7024048Y-27342000D01*
X7043095Y-27332476D01*
X7081190Y-27332476D01*
X7100238Y-27342000D01*
X7109762Y-27351524D01*
X7119286Y-27370571D01*
X7119286Y-27380095D01*
X7109762Y-27399143D01*
X7100238Y-27408667D01*
X7081190Y-27418190D01*
X7043095Y-27418190D01*
X7024048Y-27427714D01*
X7014524Y-27437238D01*
X7005000Y-27456286D01*
X7005000Y-27494381D01*
X7014524Y-27513428D01*
X7024048Y-27522952D01*
X7043095Y-27532476D01*
X7081190Y-27532476D01*
X7100238Y-27522952D01*
X7109762Y-27513428D01*
X7119286Y-27494381D01*
X7119286Y-27456286D01*
X7109762Y-27437238D01*
X7100238Y-27427714D01*
X7081190Y-27418190D01*
X7195476Y-27332476D02*
X7195476Y-27370571D01*
X7271667Y-27332476D02*
X7271667Y-27370571D01*
X7566905Y-27608667D02*
X7557381Y-27599143D01*
X7538333Y-27570571D01*
X7528809Y-27551524D01*
X7519286Y-27522952D01*
X7509762Y-27475333D01*
X7509762Y-27437238D01*
X7519286Y-27389619D01*
X7528809Y-27361048D01*
X7538333Y-27342000D01*
X7557381Y-27313428D01*
X7566905Y-27303905D01*
X7728809Y-27399143D02*
X7728809Y-27532476D01*
X7681190Y-27322952D02*
X7633571Y-27465809D01*
X7757381Y-27465809D01*
X7985952Y-27532476D02*
X7985952Y-27332476D01*
X8071667Y-27532476D02*
X8071667Y-27427714D01*
X8062143Y-27408667D01*
X8043095Y-27399143D01*
X8014524Y-27399143D01*
X7995476Y-27408667D01*
X7985952Y-27418190D01*
X8195476Y-27532476D02*
X8176428Y-27522952D01*
X8166905Y-27513428D01*
X8157381Y-27494381D01*
X8157381Y-27437238D01*
X8166905Y-27418190D01*
X8176428Y-27408667D01*
X8195476Y-27399143D01*
X8224048Y-27399143D01*
X8243095Y-27408667D01*
X8252619Y-27418190D01*
X8262143Y-27437238D01*
X8262143Y-27494381D01*
X8252619Y-27513428D01*
X8243095Y-27522952D01*
X8224048Y-27532476D01*
X8195476Y-27532476D01*
X8376428Y-27532476D02*
X8357381Y-27522952D01*
X8347857Y-27503905D01*
X8347857Y-27332476D01*
X8528810Y-27522952D02*
X8509762Y-27532476D01*
X8471667Y-27532476D01*
X8452619Y-27522952D01*
X8443095Y-27503905D01*
X8443095Y-27427714D01*
X8452619Y-27408667D01*
X8471667Y-27399143D01*
X8509762Y-27399143D01*
X8528810Y-27408667D01*
X8538333Y-27427714D01*
X8538333Y-27446762D01*
X8443095Y-27465809D01*
X8614524Y-27522952D02*
X8633571Y-27532476D01*
X8671667Y-27532476D01*
X8690714Y-27522952D01*
X8700238Y-27503905D01*
X8700238Y-27494381D01*
X8690714Y-27475333D01*
X8671667Y-27465809D01*
X8643095Y-27465809D01*
X8624048Y-27456286D01*
X8614524Y-27437238D01*
X8614524Y-27427714D01*
X8624048Y-27408667D01*
X8643095Y-27399143D01*
X8671667Y-27399143D01*
X8690714Y-27408667D01*
X8766905Y-27608667D02*
X8776429Y-27599143D01*
X8795476Y-27570571D01*
X8805000Y-27551524D01*
X8814524Y-27522952D01*
X8824048Y-27475333D01*
X8824048Y-27437238D01*
X8814524Y-27389619D01*
X8805000Y-27361048D01*
X8795476Y-27342000D01*
X8776429Y-27313428D01*
X8766905Y-27303905D01*
X9128810Y-27608667D02*
X9119286Y-27599143D01*
X9100238Y-27570571D01*
X9090714Y-27551524D01*
X9081190Y-27522952D01*
X9071667Y-27475333D01*
X9071667Y-27437238D01*
X9081190Y-27389619D01*
X9090714Y-27361048D01*
X9100238Y-27342000D01*
X9119286Y-27313428D01*
X9128810Y-27303905D01*
X9205000Y-27399143D02*
X9205000Y-27532476D01*
X9205000Y-27418190D02*
X9214524Y-27408667D01*
X9233571Y-27399143D01*
X9262143Y-27399143D01*
X9281190Y-27408667D01*
X9290714Y-27427714D01*
X9290714Y-27532476D01*
X9414524Y-27532476D02*
X9395476Y-27522952D01*
X9385952Y-27513428D01*
X9376429Y-27494381D01*
X9376429Y-27437238D01*
X9385952Y-27418190D01*
X9395476Y-27408667D01*
X9414524Y-27399143D01*
X9443095Y-27399143D01*
X9462143Y-27408667D01*
X9471667Y-27418190D01*
X9481190Y-27437238D01*
X9481190Y-27494381D01*
X9471667Y-27513428D01*
X9462143Y-27522952D01*
X9443095Y-27532476D01*
X9414524Y-27532476D01*
X9538333Y-27399143D02*
X9614524Y-27399143D01*
X9566905Y-27332476D02*
X9566905Y-27503905D01*
X9576429Y-27522952D01*
X9595476Y-27532476D01*
X9614524Y-27532476D01*
X9833571Y-27399143D02*
X9833571Y-27599143D01*
X9833571Y-27408667D02*
X9852619Y-27399143D01*
X9890714Y-27399143D01*
X9909762Y-27408667D01*
X9919286Y-27418190D01*
X9928810Y-27437238D01*
X9928810Y-27494381D01*
X9919286Y-27513428D01*
X9909762Y-27522952D01*
X9890714Y-27532476D01*
X9852619Y-27532476D01*
X9833571Y-27522952D01*
X10043095Y-27532476D02*
X10024048Y-27522952D01*
X10014524Y-27503905D01*
X10014524Y-27332476D01*
X10205000Y-27532476D02*
X10205000Y-27427714D01*
X10195476Y-27408667D01*
X10176429Y-27399143D01*
X10138333Y-27399143D01*
X10119286Y-27408667D01*
X10205000Y-27522952D02*
X10185952Y-27532476D01*
X10138333Y-27532476D01*
X10119286Y-27522952D01*
X10109762Y-27503905D01*
X10109762Y-27484857D01*
X10119286Y-27465809D01*
X10138333Y-27456286D01*
X10185952Y-27456286D01*
X10205000Y-27446762D01*
X10271667Y-27399143D02*
X10347857Y-27399143D01*
X10300238Y-27332476D02*
X10300238Y-27503905D01*
X10309762Y-27522952D01*
X10328810Y-27532476D01*
X10347857Y-27532476D01*
X10490714Y-27522952D02*
X10471667Y-27532476D01*
X10433571Y-27532476D01*
X10414524Y-27522952D01*
X10405000Y-27503905D01*
X10405000Y-27427714D01*
X10414524Y-27408667D01*
X10433571Y-27399143D01*
X10471667Y-27399143D01*
X10490714Y-27408667D01*
X10500238Y-27427714D01*
X10500238Y-27446762D01*
X10405000Y-27465809D01*
X10671667Y-27532476D02*
X10671667Y-27332476D01*
X10671667Y-27522952D02*
X10652619Y-27532476D01*
X10614524Y-27532476D01*
X10595476Y-27522952D01*
X10585952Y-27513428D01*
X10576429Y-27494381D01*
X10576429Y-27437238D01*
X10585952Y-27418190D01*
X10595476Y-27408667D01*
X10614524Y-27399143D01*
X10652619Y-27399143D01*
X10671667Y-27408667D01*
X10747857Y-27608667D02*
X10757381Y-27599143D01*
X10776429Y-27570571D01*
X10785952Y-27551524D01*
X10795476Y-27522952D01*
X10805000Y-27475333D01*
X10805000Y-27437238D01*
X10795476Y-27389619D01*
X10785952Y-27361048D01*
X10776429Y-27342000D01*
X10757381Y-27313428D01*
X10747857Y-27303905D01*
X3795000Y-27662000D02*
X3995000Y-27862000D01*
X3995000Y-27662000D02*
X3795000Y-27862000D01*
X3965711Y-27832711D02*
X3965711Y-27691289D01*
X3824289Y-27691289D01*
X3824289Y-27832711D01*
X3965711Y-27832711D01*
X4233571Y-27652476D02*
X4357381Y-27652476D01*
X4290714Y-27728667D01*
X4319286Y-27728667D01*
X4338333Y-27738190D01*
X4347857Y-27747714D01*
X4357381Y-27766762D01*
X4357381Y-27814381D01*
X4347857Y-27833428D01*
X4338333Y-27842952D01*
X4319286Y-27852476D01*
X4262143Y-27852476D01*
X4243095Y-27842952D01*
X4233571Y-27833428D01*
X4443095Y-27833428D02*
X4452619Y-27842952D01*
X4443095Y-27852476D01*
X4433571Y-27842952D01*
X4443095Y-27833428D01*
X4443095Y-27852476D01*
X4547857Y-27852476D02*
X4585952Y-27852476D01*
X4605000Y-27842952D01*
X4614524Y-27833428D01*
X4633571Y-27804857D01*
X4643095Y-27766762D01*
X4643095Y-27690571D01*
X4633571Y-27671524D01*
X4624048Y-27662000D01*
X4605000Y-27652476D01*
X4566905Y-27652476D01*
X4547857Y-27662000D01*
X4538333Y-27671524D01*
X4528810Y-27690571D01*
X4528810Y-27738190D01*
X4538333Y-27757238D01*
X4547857Y-27766762D01*
X4566905Y-27776286D01*
X4605000Y-27776286D01*
X4624048Y-27766762D01*
X4633571Y-27757238D01*
X4643095Y-27738190D01*
X4757381Y-27738190D02*
X4738333Y-27728667D01*
X4728810Y-27719143D01*
X4719286Y-27700095D01*
X4719286Y-27690571D01*
X4728810Y-27671524D01*
X4738333Y-27662000D01*
X4757381Y-27652476D01*
X4795476Y-27652476D01*
X4814524Y-27662000D01*
X4824048Y-27671524D01*
X4833571Y-27690571D01*
X4833571Y-27700095D01*
X4824048Y-27719143D01*
X4814524Y-27728667D01*
X4795476Y-27738190D01*
X4757381Y-27738190D01*
X4738333Y-27747714D01*
X4728810Y-27757238D01*
X4719286Y-27776286D01*
X4719286Y-27814381D01*
X4728810Y-27833428D01*
X4738333Y-27842952D01*
X4757381Y-27852476D01*
X4795476Y-27852476D01*
X4814524Y-27842952D01*
X4824048Y-27833428D01*
X4833571Y-27814381D01*
X4833571Y-27776286D01*
X4824048Y-27757238D01*
X4814524Y-27747714D01*
X4795476Y-27738190D01*
X4947857Y-27738190D02*
X4928810Y-27728667D01*
X4919286Y-27719143D01*
X4909762Y-27700095D01*
X4909762Y-27690571D01*
X4919286Y-27671524D01*
X4928810Y-27662000D01*
X4947857Y-27652476D01*
X4985952Y-27652476D01*
X5005000Y-27662000D01*
X5014524Y-27671524D01*
X5024048Y-27690571D01*
X5024048Y-27700095D01*
X5014524Y-27719143D01*
X5005000Y-27728667D01*
X4985952Y-27738190D01*
X4947857Y-27738190D01*
X4928810Y-27747714D01*
X4919286Y-27757238D01*
X4909762Y-27776286D01*
X4909762Y-27814381D01*
X4919286Y-27833428D01*
X4928810Y-27842952D01*
X4947857Y-27852476D01*
X4985952Y-27852476D01*
X5005000Y-27842952D01*
X5014524Y-27833428D01*
X5024048Y-27814381D01*
X5024048Y-27776286D01*
X5014524Y-27757238D01*
X5005000Y-27747714D01*
X4985952Y-27738190D01*
X5109762Y-27852476D02*
X5109762Y-27719143D01*
X5109762Y-27738190D02*
X5119286Y-27728667D01*
X5138333Y-27719143D01*
X5166905Y-27719143D01*
X5185952Y-27728667D01*
X5195476Y-27747714D01*
X5195476Y-27852476D01*
X5195476Y-27747714D02*
X5205000Y-27728667D01*
X5224048Y-27719143D01*
X5252619Y-27719143D01*
X5271667Y-27728667D01*
X5281190Y-27747714D01*
X5281190Y-27852476D01*
X5376429Y-27852476D02*
X5376429Y-27719143D01*
X5376429Y-27738190D02*
X5385952Y-27728667D01*
X5405000Y-27719143D01*
X5433571Y-27719143D01*
X5452619Y-27728667D01*
X5462143Y-27747714D01*
X5462143Y-27852476D01*
X5462143Y-27747714D02*
X5471667Y-27728667D01*
X5490714Y-27719143D01*
X5519286Y-27719143D01*
X5538333Y-27728667D01*
X5547857Y-27747714D01*
X5547857Y-27852476D01*
X5938333Y-27642952D02*
X5766905Y-27900095D01*
X6195476Y-27652476D02*
X6214524Y-27652476D01*
X6233571Y-27662000D01*
X6243095Y-27671524D01*
X6252619Y-27690571D01*
X6262143Y-27728667D01*
X6262143Y-27776286D01*
X6252619Y-27814381D01*
X6243095Y-27833428D01*
X6233571Y-27842952D01*
X6214524Y-27852476D01*
X6195476Y-27852476D01*
X6176428Y-27842952D01*
X6166905Y-27833428D01*
X6157381Y-27814381D01*
X6147857Y-27776286D01*
X6147857Y-27728667D01*
X6157381Y-27690571D01*
X6166905Y-27671524D01*
X6176428Y-27662000D01*
X6195476Y-27652476D01*
X6347857Y-27833428D02*
X6357381Y-27842952D01*
X6347857Y-27852476D01*
X6338333Y-27842952D01*
X6347857Y-27833428D01*
X6347857Y-27852476D01*
X6547857Y-27852476D02*
X6433571Y-27852476D01*
X6490714Y-27852476D02*
X6490714Y-27652476D01*
X6471667Y-27681048D01*
X6452619Y-27700095D01*
X6433571Y-27709619D01*
X6728809Y-27652476D02*
X6633571Y-27652476D01*
X6624048Y-27747714D01*
X6633571Y-27738190D01*
X6652619Y-27728667D01*
X6700238Y-27728667D01*
X6719286Y-27738190D01*
X6728809Y-27747714D01*
X6738333Y-27766762D01*
X6738333Y-27814381D01*
X6728809Y-27833428D01*
X6719286Y-27842952D01*
X6700238Y-27852476D01*
X6652619Y-27852476D01*
X6633571Y-27842952D01*
X6624048Y-27833428D01*
X6805000Y-27652476D02*
X6938333Y-27652476D01*
X6852619Y-27852476D01*
X7052619Y-27652476D02*
X7071667Y-27652476D01*
X7090714Y-27662000D01*
X7100238Y-27671524D01*
X7109762Y-27690571D01*
X7119286Y-27728667D01*
X7119286Y-27776286D01*
X7109762Y-27814381D01*
X7100238Y-27833428D01*
X7090714Y-27842952D01*
X7071667Y-27852476D01*
X7052619Y-27852476D01*
X7033571Y-27842952D01*
X7024048Y-27833428D01*
X7014524Y-27814381D01*
X7005000Y-27776286D01*
X7005000Y-27728667D01*
X7014524Y-27690571D01*
X7024048Y-27671524D01*
X7033571Y-27662000D01*
X7052619Y-27652476D01*
X7195476Y-27652476D02*
X7195476Y-27690571D01*
X7271667Y-27652476D02*
X7271667Y-27690571D01*
X7566905Y-27928667D02*
X7557381Y-27919143D01*
X7538333Y-27890571D01*
X7528809Y-27871524D01*
X7519286Y-27842952D01*
X7509762Y-27795333D01*
X7509762Y-27757238D01*
X7519286Y-27709619D01*
X7528809Y-27681048D01*
X7538333Y-27662000D01*
X7557381Y-27633428D01*
X7566905Y-27623905D01*
X7738333Y-27652476D02*
X7643095Y-27652476D01*
X7633571Y-27747714D01*
X7643095Y-27738190D01*
X7662143Y-27728667D01*
X7709762Y-27728667D01*
X7728809Y-27738190D01*
X7738333Y-27747714D01*
X7747857Y-27766762D01*
X7747857Y-27814381D01*
X7738333Y-27833428D01*
X7728809Y-27842952D01*
X7709762Y-27852476D01*
X7662143Y-27852476D01*
X7643095Y-27842952D01*
X7633571Y-27833428D01*
X7928809Y-27652476D02*
X7833571Y-27652476D01*
X7824048Y-27747714D01*
X7833571Y-27738190D01*
X7852619Y-27728667D01*
X7900238Y-27728667D01*
X7919286Y-27738190D01*
X7928809Y-27747714D01*
X7938333Y-27766762D01*
X7938333Y-27814381D01*
X7928809Y-27833428D01*
X7919286Y-27842952D01*
X7900238Y-27852476D01*
X7852619Y-27852476D01*
X7833571Y-27842952D01*
X7824048Y-27833428D01*
X8176428Y-27852476D02*
X8176428Y-27652476D01*
X8262143Y-27852476D02*
X8262143Y-27747714D01*
X8252619Y-27728667D01*
X8233571Y-27719143D01*
X8205000Y-27719143D01*
X8185952Y-27728667D01*
X8176428Y-27738190D01*
X8385952Y-27852476D02*
X8366905Y-27842952D01*
X8357381Y-27833428D01*
X8347857Y-27814381D01*
X8347857Y-27757238D01*
X8357381Y-27738190D01*
X8366905Y-27728667D01*
X8385952Y-27719143D01*
X8414524Y-27719143D01*
X8433571Y-27728667D01*
X8443095Y-27738190D01*
X8452619Y-27757238D01*
X8452619Y-27814381D01*
X8443095Y-27833428D01*
X8433571Y-27842952D01*
X8414524Y-27852476D01*
X8385952Y-27852476D01*
X8566905Y-27852476D02*
X8547857Y-27842952D01*
X8538333Y-27823905D01*
X8538333Y-27652476D01*
X8719286Y-27842952D02*
X8700238Y-27852476D01*
X8662143Y-27852476D01*
X8643095Y-27842952D01*
X8633571Y-27823905D01*
X8633571Y-27747714D01*
X8643095Y-27728667D01*
X8662143Y-27719143D01*
X8700238Y-27719143D01*
X8719286Y-27728667D01*
X8728810Y-27747714D01*
X8728810Y-27766762D01*
X8633571Y-27785809D01*
X8805000Y-27842952D02*
X8824048Y-27852476D01*
X8862143Y-27852476D01*
X8881190Y-27842952D01*
X8890714Y-27823905D01*
X8890714Y-27814381D01*
X8881190Y-27795333D01*
X8862143Y-27785809D01*
X8833571Y-27785809D01*
X8814524Y-27776286D01*
X8805000Y-27757238D01*
X8805000Y-27747714D01*
X8814524Y-27728667D01*
X8833571Y-27719143D01*
X8862143Y-27719143D01*
X8881190Y-27728667D01*
X8957381Y-27928667D02*
X8966905Y-27919143D01*
X8985952Y-27890571D01*
X8995476Y-27871524D01*
X9005000Y-27842952D01*
X9014524Y-27795333D01*
X9014524Y-27757238D01*
X9005000Y-27709619D01*
X8995476Y-27681048D01*
X8985952Y-27662000D01*
X8966905Y-27633428D01*
X8957381Y-27623905D01*
X9319286Y-27928667D02*
X9309762Y-27919143D01*
X9290714Y-27890571D01*
X9281190Y-27871524D01*
X9271667Y-27842952D01*
X9262143Y-27795333D01*
X9262143Y-27757238D01*
X9271667Y-27709619D01*
X9281190Y-27681048D01*
X9290714Y-27662000D01*
X9309762Y-27633428D01*
X9319286Y-27623905D01*
X9395476Y-27719143D02*
X9395476Y-27852476D01*
X9395476Y-27738190D02*
X9405000Y-27728667D01*
X9424048Y-27719143D01*
X9452619Y-27719143D01*
X9471667Y-27728667D01*
X9481190Y-27747714D01*
X9481190Y-27852476D01*
X9605000Y-27852476D02*
X9585952Y-27842952D01*
X9576429Y-27833428D01*
X9566905Y-27814381D01*
X9566905Y-27757238D01*
X9576429Y-27738190D01*
X9585952Y-27728667D01*
X9605000Y-27719143D01*
X9633571Y-27719143D01*
X9652619Y-27728667D01*
X9662143Y-27738190D01*
X9671667Y-27757238D01*
X9671667Y-27814381D01*
X9662143Y-27833428D01*
X9652619Y-27842952D01*
X9633571Y-27852476D01*
X9605000Y-27852476D01*
X9728810Y-27719143D02*
X9805000Y-27719143D01*
X9757381Y-27652476D02*
X9757381Y-27823905D01*
X9766905Y-27842952D01*
X9785952Y-27852476D01*
X9805000Y-27852476D01*
X10024048Y-27719143D02*
X10024048Y-27919143D01*
X10024048Y-27728667D02*
X10043095Y-27719143D01*
X10081190Y-27719143D01*
X10100238Y-27728667D01*
X10109762Y-27738190D01*
X10119286Y-27757238D01*
X10119286Y-27814381D01*
X10109762Y-27833428D01*
X10100238Y-27842952D01*
X10081190Y-27852476D01*
X10043095Y-27852476D01*
X10024048Y-27842952D01*
X10233571Y-27852476D02*
X10214524Y-27842952D01*
X10205000Y-27823905D01*
X10205000Y-27652476D01*
X10395476Y-27852476D02*
X10395476Y-27747714D01*
X10385952Y-27728667D01*
X10366905Y-27719143D01*
X10328810Y-27719143D01*
X10309762Y-27728667D01*
X10395476Y-27842952D02*
X10376429Y-27852476D01*
X10328810Y-27852476D01*
X10309762Y-27842952D01*
X10300238Y-27823905D01*
X10300238Y-27804857D01*
X10309762Y-27785809D01*
X10328810Y-27776286D01*
X10376429Y-27776286D01*
X10395476Y-27766762D01*
X10462143Y-27719143D02*
X10538333Y-27719143D01*
X10490714Y-27652476D02*
X10490714Y-27823905D01*
X10500238Y-27842952D01*
X10519286Y-27852476D01*
X10538333Y-27852476D01*
X10681190Y-27842952D02*
X10662143Y-27852476D01*
X10624048Y-27852476D01*
X10605000Y-27842952D01*
X10595476Y-27823905D01*
X10595476Y-27747714D01*
X10605000Y-27728667D01*
X10624048Y-27719143D01*
X10662143Y-27719143D01*
X10681190Y-27728667D01*
X10690714Y-27747714D01*
X10690714Y-27766762D01*
X10595476Y-27785809D01*
X10862143Y-27852476D02*
X10862143Y-27652476D01*
X10862143Y-27842952D02*
X10843095Y-27852476D01*
X10805000Y-27852476D01*
X10785952Y-27842952D01*
X10776429Y-27833428D01*
X10766905Y-27814381D01*
X10766905Y-27757238D01*
X10776429Y-27738190D01*
X10785952Y-27728667D01*
X10805000Y-27719143D01*
X10843095Y-27719143D01*
X10862143Y-27728667D01*
X10938333Y-27928667D02*
X10947857Y-27919143D01*
X10966905Y-27890571D01*
X10976429Y-27871524D01*
X10985952Y-27842952D01*
X10995476Y-27795333D01*
X10995476Y-27757238D01*
X10985952Y-27709619D01*
X10976429Y-27681048D01*
X10966905Y-27662000D01*
X10947857Y-27633428D01*
X10938333Y-27623905D01*
M02*
