G04 #@! TF.GenerationSoftware,KiCad,Pcbnew,(6.0.1)*
G04 #@! TF.CreationDate,2022-03-21T15:47:41+08:00*
G04 #@! TF.ProjectId,Teensy_Grovebox,5465656e-7379-45f4-9772-6f7665626f78,rev?*
G04 #@! TF.SameCoordinates,Original*
G04 #@! TF.FileFunction,Legend,Top*
G04 #@! TF.FilePolarity,Positive*
%FSLAX46Y46*%
G04 Gerber Fmt 4.6, Leading zero omitted, Abs format (unit mm)*
G04 Created by KiCad (PCBNEW (6.0.1)) date 2022-03-21 15:47:41*
%MOMM*%
%LPD*%
G01*
G04 APERTURE LIST*
%ADD10C,0.150000*%
%ADD11C,0.400000*%
%ADD12C,0.200000*%
%ADD13C,0.120000*%
%ADD14R,1.600000X1.600000*%
%ADD15C,1.600000*%
%ADD16R,1.300000X1.300000*%
%ADD17C,1.300000*%
%ADD18R,2.000000X2.000000*%
%ADD19C,2.000000*%
%ADD20C,3.200000*%
%ADD21O,1.850000X3.048000*%
%ADD22O,3.048000X1.850000*%
%ADD23C,1.750000*%
%ADD24C,1.700000*%
%ADD25C,1.200000*%
%ADD26C,3.987800*%
%ADD27C,2.250000*%
%ADD28C,3.048000*%
%ADD29C,5.000000*%
%ADD30O,1.700000X2.000000*%
%ADD31R,2.032000X2.032000*%
%ADD32C,2.032000*%
%ADD33C,3.500000*%
%ADD34R,1.524000X1.524000*%
%ADD35C,1.524000*%
%ADD36O,2.000000X1.700000*%
%ADD37R,1.700000X1.700000*%
%ADD38O,1.700000X1.700000*%
%ADD39O,1.524000X1.524000*%
%ADD40O,1.600000X1.600000*%
%ADD41C,0.650000*%
%ADD42O,1.600000X1.000000*%
%ADD43O,2.100000X1.000000*%
%ADD44R,2.000000X1.905000*%
%ADD45O,2.000000X1.905000*%
%ADD46R,2.200000X2.200000*%
%ADD47O,2.200000X2.200000*%
%ADD48R,1.500000X1.050000*%
%ADD49O,1.500000X1.050000*%
G04 APERTURE END LIST*
D10*
X84652380Y-145590476D02*
X84652380Y-146066666D01*
X85128571Y-146114285D01*
X85080952Y-146066666D01*
X85033333Y-145971428D01*
X85033333Y-145733333D01*
X85080952Y-145638095D01*
X85128571Y-145590476D01*
X85223809Y-145542857D01*
X85461904Y-145542857D01*
X85557142Y-145590476D01*
X85604761Y-145638095D01*
X85652380Y-145733333D01*
X85652380Y-145971428D01*
X85604761Y-146066666D01*
X85557142Y-146114285D01*
X84652380Y-145257142D02*
X85652380Y-144923809D01*
X84652380Y-144590476D01*
X78004761Y-147090476D02*
X78052380Y-146947619D01*
X78052380Y-146709523D01*
X78004761Y-146614285D01*
X77957142Y-146566666D01*
X77861904Y-146519047D01*
X77766666Y-146519047D01*
X77671428Y-146566666D01*
X77623809Y-146614285D01*
X77576190Y-146709523D01*
X77528571Y-146900000D01*
X77480952Y-146995238D01*
X77433333Y-147042857D01*
X77338095Y-147090476D01*
X77242857Y-147090476D01*
X77147619Y-147042857D01*
X77100000Y-146995238D01*
X77052380Y-146900000D01*
X77052380Y-146661904D01*
X77100000Y-146519047D01*
X77957142Y-145519047D02*
X78004761Y-145566666D01*
X78052380Y-145709523D01*
X78052380Y-145804761D01*
X78004761Y-145947619D01*
X77909523Y-146042857D01*
X77814285Y-146090476D01*
X77623809Y-146138095D01*
X77480952Y-146138095D01*
X77290476Y-146090476D01*
X77195238Y-146042857D01*
X77100000Y-145947619D01*
X77052380Y-145804761D01*
X77052380Y-145709523D01*
X77100000Y-145566666D01*
X77147619Y-145519047D01*
X78052380Y-144614285D02*
X78052380Y-145090476D01*
X77052380Y-145090476D01*
X85200000Y-249576190D02*
X85200000Y-250052380D01*
X84866666Y-249052380D02*
X85200000Y-249576190D01*
X85533333Y-249052380D01*
D11*
X187523809Y-162857142D02*
X186857142Y-162857142D01*
X186857142Y-163904761D02*
X186857142Y-161904761D01*
X187809523Y-161904761D01*
X188571428Y-163904761D02*
X188571428Y-161904761D01*
X189714285Y-163904761D01*
X189714285Y-161904761D01*
X192000000Y-161904761D02*
X193238095Y-161904761D01*
X192571428Y-162666666D01*
X192857142Y-162666666D01*
X193047619Y-162761904D01*
X193142857Y-162857142D01*
X193238095Y-163047619D01*
X193238095Y-163523809D01*
X193142857Y-163714285D01*
X193047619Y-163809523D01*
X192857142Y-163904761D01*
X192285714Y-163904761D01*
X192095238Y-163809523D01*
X192000000Y-163714285D01*
D10*
X65750000Y-147338095D02*
X65702380Y-147433333D01*
X65702380Y-147576190D01*
X65750000Y-147719047D01*
X65845238Y-147814285D01*
X65940476Y-147861904D01*
X66130952Y-147909523D01*
X66273809Y-147909523D01*
X66464285Y-147861904D01*
X66559523Y-147814285D01*
X66654761Y-147719047D01*
X66702380Y-147576190D01*
X66702380Y-147480952D01*
X66654761Y-147338095D01*
X66607142Y-147290476D01*
X66273809Y-147290476D01*
X66273809Y-147480952D01*
X65702380Y-149690476D02*
X65702380Y-150166666D01*
X66178571Y-150214285D01*
X66130952Y-150166666D01*
X66083333Y-150071428D01*
X66083333Y-149833333D01*
X66130952Y-149738095D01*
X66178571Y-149690476D01*
X66273809Y-149642857D01*
X66511904Y-149642857D01*
X66607142Y-149690476D01*
X66654761Y-149738095D01*
X66702380Y-149833333D01*
X66702380Y-150071428D01*
X66654761Y-150166666D01*
X66607142Y-150214285D01*
X65702380Y-149357142D02*
X66702380Y-149023809D01*
X65702380Y-148690476D01*
D11*
X171523809Y-162857142D02*
X170857142Y-162857142D01*
X170857142Y-163904761D02*
X170857142Y-161904761D01*
X171809523Y-161904761D01*
X172571428Y-163904761D02*
X172571428Y-161904761D01*
X173714285Y-163904761D01*
X173714285Y-161904761D01*
X176095238Y-162095238D02*
X176190476Y-162000000D01*
X176380952Y-161904761D01*
X176857142Y-161904761D01*
X177047619Y-162000000D01*
X177142857Y-162095238D01*
X177238095Y-162285714D01*
X177238095Y-162476190D01*
X177142857Y-162761904D01*
X176000000Y-163904761D01*
X177238095Y-163904761D01*
X70559523Y-143204761D02*
X70654761Y-142919047D01*
X70654761Y-142442857D01*
X70559523Y-142252380D01*
X70464285Y-142157142D01*
X70273809Y-142061904D01*
X70083333Y-142061904D01*
X69892857Y-142157142D01*
X69797619Y-142252380D01*
X69702380Y-142442857D01*
X69607142Y-142823809D01*
X69511904Y-143014285D01*
X69416666Y-143109523D01*
X69226190Y-143204761D01*
X69035714Y-143204761D01*
X68845238Y-143109523D01*
X68750000Y-143014285D01*
X68654761Y-142823809D01*
X68654761Y-142347619D01*
X68750000Y-142061904D01*
X70654761Y-141204761D02*
X68654761Y-141204761D01*
X68654761Y-140442857D01*
X68750000Y-140252380D01*
X68845238Y-140157142D01*
X69035714Y-140061904D01*
X69321428Y-140061904D01*
X69511904Y-140157142D01*
X69607142Y-140252380D01*
X69702380Y-140442857D01*
X69702380Y-141204761D01*
X70654761Y-139204761D02*
X68654761Y-139204761D01*
X68654761Y-138728571D01*
X68750000Y-138442857D01*
X68940476Y-138252380D01*
X69130952Y-138157142D01*
X69511904Y-138061904D01*
X69797619Y-138061904D01*
X70178571Y-138157142D01*
X70369047Y-138252380D01*
X70559523Y-138442857D01*
X70654761Y-138728571D01*
X70654761Y-139204761D01*
X70654761Y-137204761D02*
X68654761Y-137204761D01*
X69607142Y-135585714D02*
X69607142Y-136252380D01*
X70654761Y-136252380D02*
X68654761Y-136252380D01*
X68654761Y-135300000D01*
D10*
X64002380Y-149500000D02*
X63002380Y-149500000D01*
D11*
X203523809Y-162857142D02*
X202857142Y-162857142D01*
X202857142Y-163904761D02*
X202857142Y-161904761D01*
X203809523Y-161904761D01*
X204571428Y-163904761D02*
X204571428Y-161904761D01*
X205714285Y-163904761D01*
X205714285Y-161904761D01*
X209047619Y-162571428D02*
X209047619Y-163904761D01*
X208571428Y-161809523D02*
X208095238Y-163238095D01*
X209333333Y-163238095D01*
D10*
X82200000Y-146661904D02*
X82152380Y-146757142D01*
X82152380Y-146900000D01*
X82200000Y-147042857D01*
X82295238Y-147138095D01*
X82390476Y-147185714D01*
X82580952Y-147233333D01*
X82723809Y-147233333D01*
X82914285Y-147185714D01*
X83009523Y-147138095D01*
X83104761Y-147042857D01*
X83152380Y-146900000D01*
X83152380Y-146804761D01*
X83104761Y-146661904D01*
X83057142Y-146614285D01*
X82723809Y-146614285D01*
X82723809Y-146804761D01*
X83152380Y-146185714D02*
X82152380Y-146185714D01*
X83152380Y-145614285D01*
X82152380Y-145614285D01*
X83152380Y-145138095D02*
X82152380Y-145138095D01*
X82152380Y-144900000D01*
X82200000Y-144757142D01*
X82295238Y-144661904D01*
X82390476Y-144614285D01*
X82580952Y-144566666D01*
X82723809Y-144566666D01*
X82914285Y-144614285D01*
X83009523Y-144661904D01*
X83104761Y-144757142D01*
X83152380Y-144900000D01*
X83152380Y-145138095D01*
D11*
X155523809Y-162857142D02*
X154857142Y-162857142D01*
X154857142Y-163904761D02*
X154857142Y-161904761D01*
X155809523Y-161904761D01*
X156571428Y-163904761D02*
X156571428Y-161904761D01*
X157714285Y-163904761D01*
X157714285Y-161904761D01*
X161238095Y-163904761D02*
X160095238Y-163904761D01*
X160666666Y-163904761D02*
X160666666Y-161904761D01*
X160476190Y-162190476D01*
X160285714Y-162380952D01*
X160095238Y-162476190D01*
D10*
X71004761Y-149452380D02*
X71623809Y-149452380D01*
X71290476Y-149833333D01*
X71433333Y-149833333D01*
X71528571Y-149880952D01*
X71576190Y-149928571D01*
X71623809Y-150023809D01*
X71623809Y-150261904D01*
X71576190Y-150357142D01*
X71528571Y-150404761D01*
X71433333Y-150452380D01*
X71147619Y-150452380D01*
X71052380Y-150404761D01*
X71004761Y-150357142D01*
X72052380Y-150357142D02*
X72100000Y-150404761D01*
X72052380Y-150452380D01*
X72004761Y-150404761D01*
X72052380Y-150357142D01*
X72052380Y-150452380D01*
X72433333Y-149452380D02*
X73052380Y-149452380D01*
X72719047Y-149833333D01*
X72861904Y-149833333D01*
X72957142Y-149880952D01*
X73004761Y-149928571D01*
X73052380Y-150023809D01*
X73052380Y-150261904D01*
X73004761Y-150357142D01*
X72957142Y-150404761D01*
X72861904Y-150452380D01*
X72576190Y-150452380D01*
X72480952Y-150404761D01*
X72433333Y-150357142D01*
X73338095Y-149452380D02*
X73671428Y-150452380D01*
X74004761Y-149452380D01*
X75100000Y-150452380D02*
X75100000Y-149452380D01*
X76290476Y-149404761D02*
X75433333Y-150690476D01*
X76814285Y-149452380D02*
X77004761Y-149452380D01*
X77100000Y-149500000D01*
X77195238Y-149595238D01*
X77242857Y-149785714D01*
X77242857Y-150119047D01*
X77195238Y-150309523D01*
X77100000Y-150404761D01*
X77004761Y-150452380D01*
X76814285Y-150452380D01*
X76719047Y-150404761D01*
X76623809Y-150309523D01*
X76576190Y-150119047D01*
X76576190Y-149785714D01*
X76623809Y-149595238D01*
X76719047Y-149500000D01*
X76814285Y-149452380D01*
X78576190Y-150452380D02*
X78480952Y-150404761D01*
X78433333Y-150357142D01*
X78385714Y-150261904D01*
X78385714Y-149976190D01*
X78433333Y-149880952D01*
X78480952Y-149833333D01*
X78576190Y-149785714D01*
X78719047Y-149785714D01*
X78814285Y-149833333D01*
X78861904Y-149880952D01*
X78909523Y-149976190D01*
X78909523Y-150261904D01*
X78861904Y-150357142D01*
X78814285Y-150404761D01*
X78719047Y-150452380D01*
X78576190Y-150452380D01*
X79338095Y-149785714D02*
X79338095Y-150452380D01*
X79338095Y-149880952D02*
X79385714Y-149833333D01*
X79480952Y-149785714D01*
X79623809Y-149785714D01*
X79719047Y-149833333D01*
X79766666Y-149928571D01*
X79766666Y-150452380D01*
X80385714Y-150452380D02*
X80290476Y-150404761D01*
X80242857Y-150309523D01*
X80242857Y-149452380D01*
X80671428Y-149785714D02*
X80909523Y-150452380D01*
X81147619Y-149785714D02*
X80909523Y-150452380D01*
X80814285Y-150690476D01*
X80766666Y-150738095D01*
X80671428Y-150785714D01*
X81528571Y-150357142D02*
X81576190Y-150404761D01*
X81528571Y-150452380D01*
X81480952Y-150404761D01*
X81528571Y-150357142D01*
X81528571Y-150452380D01*
X83052380Y-150833333D02*
X83004761Y-150785714D01*
X82909523Y-150642857D01*
X82861904Y-150547619D01*
X82814285Y-150404761D01*
X82766666Y-150166666D01*
X82766666Y-149976190D01*
X82814285Y-149738095D01*
X82861904Y-149595238D01*
X82909523Y-149500000D01*
X83004761Y-149357142D01*
X83052380Y-149309523D01*
X84195238Y-149976190D02*
X83433333Y-149976190D01*
X83433333Y-150214285D01*
X84719047Y-149690476D02*
X84719047Y-150452380D01*
X84766666Y-150452380D02*
X84766666Y-149690476D01*
X84814285Y-149690476D02*
X84814285Y-150452380D01*
X84861904Y-150452380D02*
X84861904Y-149690476D01*
X84909523Y-149690476D02*
X84909523Y-150452380D01*
X84957142Y-150452380D02*
X84957142Y-149690476D01*
X85004761Y-149690476D02*
X85004761Y-150452380D01*
X85052380Y-150452380D02*
X85052380Y-149690476D01*
X85100000Y-149690476D02*
X85100000Y-150452380D01*
X85147619Y-150452380D02*
X85147619Y-149690476D01*
X85195238Y-149690476D02*
X85195238Y-150452380D01*
X85242857Y-150452380D02*
X85242857Y-149690476D01*
X85290476Y-149690476D02*
X85290476Y-150452380D01*
X85338095Y-150452380D02*
X85338095Y-149690476D01*
X85385714Y-149690476D02*
X85385714Y-150452380D01*
X84671428Y-149690476D02*
X85433333Y-149690476D01*
X85433333Y-150452380D01*
X84671428Y-150452380D01*
X84671428Y-149690476D01*
X85671428Y-150547619D02*
X86433333Y-150547619D01*
X86719047Y-149690476D02*
X86719047Y-150452380D01*
X86766666Y-150452380D02*
X86766666Y-149690476D01*
X86814285Y-149690476D02*
X86814285Y-150452380D01*
X86861904Y-150452380D02*
X86861904Y-149690476D01*
X86909523Y-149690476D02*
X86909523Y-150452380D01*
X86957142Y-150452380D02*
X86957142Y-149690476D01*
X87004761Y-149690476D02*
X87004761Y-150452380D01*
X87052380Y-150452380D02*
X87052380Y-149690476D01*
X87100000Y-149690476D02*
X87100000Y-150452380D01*
X87147619Y-150452380D02*
X87147619Y-149690476D01*
X87195238Y-149690476D02*
X87195238Y-150452380D01*
X87242857Y-150452380D02*
X87242857Y-149690476D01*
X87290476Y-149690476D02*
X87290476Y-150452380D01*
X87338095Y-150452380D02*
X87338095Y-149690476D01*
X87385714Y-149690476D02*
X87385714Y-150452380D01*
X86671428Y-149690476D02*
X87433333Y-149690476D01*
X87433333Y-150452380D01*
X86671428Y-150452380D01*
X86671428Y-149690476D01*
X87814285Y-150833333D02*
X87861904Y-150785714D01*
X87957142Y-150642857D01*
X88004761Y-150547619D01*
X88052380Y-150404761D01*
X88100000Y-150166666D01*
X88100000Y-149976190D01*
X88052380Y-149738095D01*
X88004761Y-149595238D01*
X87957142Y-149500000D01*
X87861904Y-149357142D01*
X87814285Y-149309523D01*
X89161904Y-249052380D02*
X89780952Y-249052380D01*
X89447619Y-249433333D01*
X89590476Y-249433333D01*
X89685714Y-249480952D01*
X89733333Y-249528571D01*
X89780952Y-249623809D01*
X89780952Y-249861904D01*
X89733333Y-249957142D01*
X89685714Y-250004761D01*
X89590476Y-250052380D01*
X89304761Y-250052380D01*
X89209523Y-250004761D01*
X89161904Y-249957142D01*
X90066666Y-249052380D02*
X90400000Y-250052380D01*
X90733333Y-249052380D01*
X90971428Y-249052380D02*
X91590476Y-249052380D01*
X91257142Y-249433333D01*
X91400000Y-249433333D01*
X91495238Y-249480952D01*
X91542857Y-249528571D01*
X91590476Y-249623809D01*
X91590476Y-249861904D01*
X91542857Y-249957142D01*
X91495238Y-250004761D01*
X91400000Y-250052380D01*
X91114285Y-250052380D01*
X91019047Y-250004761D01*
X90971428Y-249957142D01*
X81780952Y-211952380D02*
X81780952Y-210952380D01*
X82114285Y-211666666D01*
X82447619Y-210952380D01*
X82447619Y-211952380D01*
X82828571Y-210952380D02*
X83495238Y-211952380D01*
X83495238Y-210952380D02*
X82828571Y-211952380D01*
X83876190Y-211571428D02*
X84638095Y-211571428D01*
X85066666Y-211666666D02*
X85542857Y-211666666D01*
X84971428Y-211952380D02*
X85304761Y-210952380D01*
X85638095Y-211952380D01*
X86114285Y-211952380D02*
X86019047Y-211904761D01*
X85971428Y-211809523D01*
X85971428Y-210952380D01*
X86495238Y-211285714D02*
X86495238Y-212285714D01*
X86495238Y-211333333D02*
X86590476Y-211285714D01*
X86780952Y-211285714D01*
X86876190Y-211333333D01*
X86923809Y-211380952D01*
X86971428Y-211476190D01*
X86971428Y-211761904D01*
X86923809Y-211857142D01*
X86876190Y-211904761D01*
X86780952Y-211952380D01*
X86590476Y-211952380D01*
X86495238Y-211904761D01*
X87352380Y-211904761D02*
X87447619Y-211952380D01*
X87638095Y-211952380D01*
X87733333Y-211904761D01*
X87780952Y-211809523D01*
X87780952Y-211761904D01*
X87733333Y-211666666D01*
X87638095Y-211619047D01*
X87495238Y-211619047D01*
X87400000Y-211571428D01*
X87352380Y-211476190D01*
X87352380Y-211428571D01*
X87400000Y-211333333D01*
X87495238Y-211285714D01*
X87638095Y-211285714D01*
X87733333Y-211333333D01*
X88209523Y-211571428D02*
X88971428Y-211571428D01*
X90019047Y-211857142D02*
X89971428Y-211904761D01*
X89828571Y-211952380D01*
X89733333Y-211952380D01*
X89590476Y-211904761D01*
X89495238Y-211809523D01*
X89447619Y-211714285D01*
X89400000Y-211523809D01*
X89400000Y-211380952D01*
X89447619Y-211190476D01*
X89495238Y-211095238D01*
X89590476Y-211000000D01*
X89733333Y-210952380D01*
X89828571Y-210952380D01*
X89971428Y-211000000D01*
X90019047Y-211047619D01*
X90447619Y-211952380D02*
X90447619Y-210952380D01*
X90876190Y-211952380D02*
X90876190Y-211428571D01*
X90828571Y-211333333D01*
X90733333Y-211285714D01*
X90590476Y-211285714D01*
X90495238Y-211333333D01*
X90447619Y-211380952D01*
X91495238Y-211952380D02*
X91400000Y-211904761D01*
X91352380Y-211857142D01*
X91304761Y-211761904D01*
X91304761Y-211476190D01*
X91352380Y-211380952D01*
X91400000Y-211333333D01*
X91495238Y-211285714D01*
X91638095Y-211285714D01*
X91733333Y-211333333D01*
X91780952Y-211380952D01*
X91828571Y-211476190D01*
X91828571Y-211761904D01*
X91780952Y-211857142D01*
X91733333Y-211904761D01*
X91638095Y-211952380D01*
X91495238Y-211952380D01*
X92685714Y-211904761D02*
X92590476Y-211952380D01*
X92400000Y-211952380D01*
X92304761Y-211904761D01*
X92257142Y-211857142D01*
X92209523Y-211761904D01*
X92209523Y-211476190D01*
X92257142Y-211380952D01*
X92304761Y-211333333D01*
X92400000Y-211285714D01*
X92590476Y-211285714D01*
X92685714Y-211333333D01*
X92971428Y-210952380D02*
X93304761Y-211952380D01*
X93638095Y-210952380D01*
X94495238Y-211952380D02*
X93923809Y-211952380D01*
X94209523Y-211952380D02*
X94209523Y-210952380D01*
X94114285Y-211095238D01*
X94019047Y-211190476D01*
X93923809Y-211238095D01*
X96971428Y-211952380D02*
X96400000Y-211952380D01*
X96685714Y-211952380D02*
X96685714Y-210952380D01*
X96590476Y-211095238D01*
X96495238Y-211190476D01*
X96400000Y-211238095D01*
X97828571Y-211285714D02*
X97828571Y-211952380D01*
X97400000Y-211285714D02*
X97400000Y-211809523D01*
X97447619Y-211904761D01*
X97542857Y-211952380D01*
X97685714Y-211952380D01*
X97780952Y-211904761D01*
X97828571Y-211857142D01*
X99066666Y-211952380D02*
X99066666Y-210952380D01*
X99066666Y-211333333D02*
X99161904Y-211285714D01*
X99352380Y-211285714D01*
X99447619Y-211333333D01*
X99495238Y-211380952D01*
X99542857Y-211476190D01*
X99542857Y-211761904D01*
X99495238Y-211857142D01*
X99447619Y-211904761D01*
X99352380Y-211952380D01*
X99161904Y-211952380D01*
X99066666Y-211904761D01*
X100114285Y-211952380D02*
X100019047Y-211904761D01*
X99971428Y-211809523D01*
X99971428Y-210952380D01*
X100923809Y-211952380D02*
X100923809Y-211428571D01*
X100876190Y-211333333D01*
X100780952Y-211285714D01*
X100590476Y-211285714D01*
X100495238Y-211333333D01*
X100923809Y-211904761D02*
X100828571Y-211952380D01*
X100590476Y-211952380D01*
X100495238Y-211904761D01*
X100447619Y-211809523D01*
X100447619Y-211714285D01*
X100495238Y-211619047D01*
X100590476Y-211571428D01*
X100828571Y-211571428D01*
X100923809Y-211523809D01*
X101828571Y-211904761D02*
X101733333Y-211952380D01*
X101542857Y-211952380D01*
X101447619Y-211904761D01*
X101400000Y-211857142D01*
X101352380Y-211761904D01*
X101352380Y-211476190D01*
X101400000Y-211380952D01*
X101447619Y-211333333D01*
X101542857Y-211285714D01*
X101733333Y-211285714D01*
X101828571Y-211333333D01*
X102257142Y-211952380D02*
X102257142Y-210952380D01*
X102352380Y-211571428D02*
X102638095Y-211952380D01*
X102638095Y-211285714D02*
X102257142Y-211666666D01*
X103828571Y-211952380D02*
X103828571Y-210952380D01*
X103923809Y-211571428D02*
X104209523Y-211952380D01*
X104209523Y-211285714D02*
X103828571Y-211666666D01*
X105019047Y-211904761D02*
X104923809Y-211952380D01*
X104733333Y-211952380D01*
X104638095Y-211904761D01*
X104590476Y-211809523D01*
X104590476Y-211428571D01*
X104638095Y-211333333D01*
X104733333Y-211285714D01*
X104923809Y-211285714D01*
X105019047Y-211333333D01*
X105066666Y-211428571D01*
X105066666Y-211523809D01*
X104590476Y-211619047D01*
X105400000Y-211285714D02*
X105638095Y-211952380D01*
X105876190Y-211285714D02*
X105638095Y-211952380D01*
X105542857Y-212190476D01*
X105495238Y-212238095D01*
X105400000Y-212285714D01*
X107733333Y-210904761D02*
X106876190Y-212190476D01*
X108780952Y-211047619D02*
X108828571Y-211000000D01*
X108923809Y-210952380D01*
X109161904Y-210952380D01*
X109257142Y-211000000D01*
X109304761Y-211047619D01*
X109352380Y-211142857D01*
X109352380Y-211238095D01*
X109304761Y-211380952D01*
X108733333Y-211952380D01*
X109352380Y-211952380D01*
X110209523Y-211285714D02*
X110209523Y-211952380D01*
X109780952Y-211285714D02*
X109780952Y-211809523D01*
X109828571Y-211904761D01*
X109923809Y-211952380D01*
X110066666Y-211952380D01*
X110161904Y-211904761D01*
X110209523Y-211857142D01*
X111352380Y-211285714D02*
X111542857Y-211952380D01*
X111733333Y-211476190D01*
X111923809Y-211952380D01*
X112114285Y-211285714D01*
X112495238Y-211952380D02*
X112495238Y-210952380D01*
X112923809Y-211952380D02*
X112923809Y-211428571D01*
X112876190Y-211333333D01*
X112780952Y-211285714D01*
X112638095Y-211285714D01*
X112542857Y-211333333D01*
X112495238Y-211380952D01*
X113400000Y-211952380D02*
X113400000Y-211285714D01*
X113400000Y-210952380D02*
X113352380Y-211000000D01*
X113400000Y-211047619D01*
X113447619Y-211000000D01*
X113400000Y-210952380D01*
X113400000Y-211047619D01*
X113733333Y-211285714D02*
X114114285Y-211285714D01*
X113876190Y-210952380D02*
X113876190Y-211809523D01*
X113923809Y-211904761D01*
X114019047Y-211952380D01*
X114114285Y-211952380D01*
X114828571Y-211904761D02*
X114733333Y-211952380D01*
X114542857Y-211952380D01*
X114447619Y-211904761D01*
X114400000Y-211809523D01*
X114400000Y-211428571D01*
X114447619Y-211333333D01*
X114542857Y-211285714D01*
X114733333Y-211285714D01*
X114828571Y-211333333D01*
X114876190Y-211428571D01*
X114876190Y-211523809D01*
X114400000Y-211619047D01*
X116066666Y-211952380D02*
X116066666Y-210952380D01*
X116161904Y-211571428D02*
X116447619Y-211952380D01*
X116447619Y-211285714D02*
X116066666Y-211666666D01*
X117257142Y-211904761D02*
X117161904Y-211952380D01*
X116971428Y-211952380D01*
X116876190Y-211904761D01*
X116828571Y-211809523D01*
X116828571Y-211428571D01*
X116876190Y-211333333D01*
X116971428Y-211285714D01*
X117161904Y-211285714D01*
X117257142Y-211333333D01*
X117304761Y-211428571D01*
X117304761Y-211523809D01*
X116828571Y-211619047D01*
X117638095Y-211285714D02*
X117876190Y-211952380D01*
X118114285Y-211285714D02*
X117876190Y-211952380D01*
X117780952Y-212190476D01*
X117733333Y-212238095D01*
X117638095Y-212285714D01*
X80504761Y-147114285D02*
X80552380Y-146971428D01*
X80552380Y-146733333D01*
X80504761Y-146638095D01*
X80457142Y-146590476D01*
X80361904Y-146542857D01*
X80266666Y-146542857D01*
X80171428Y-146590476D01*
X80123809Y-146638095D01*
X80076190Y-146733333D01*
X80028571Y-146923809D01*
X79980952Y-147019047D01*
X79933333Y-147066666D01*
X79838095Y-147114285D01*
X79742857Y-147114285D01*
X79647619Y-147066666D01*
X79600000Y-147019047D01*
X79552380Y-146923809D01*
X79552380Y-146685714D01*
X79600000Y-146542857D01*
X80552380Y-146114285D02*
X79552380Y-146114285D01*
X79552380Y-145876190D01*
X79600000Y-145733333D01*
X79695238Y-145638095D01*
X79790476Y-145590476D01*
X79980952Y-145542857D01*
X80123809Y-145542857D01*
X80314285Y-145590476D01*
X80409523Y-145638095D01*
X80504761Y-145733333D01*
X80552380Y-145876190D01*
X80552380Y-146114285D01*
X80266666Y-145161904D02*
X80266666Y-144685714D01*
X80552380Y-145257142D02*
X79552380Y-144923809D01*
X80552380Y-144590476D01*
X81742857Y-250004761D02*
X81885714Y-250052380D01*
X82123809Y-250052380D01*
X82219047Y-250004761D01*
X82266666Y-249957142D01*
X82314285Y-249861904D01*
X82314285Y-249766666D01*
X82266666Y-249671428D01*
X82219047Y-249623809D01*
X82123809Y-249576190D01*
X81933333Y-249528571D01*
X81838095Y-249480952D01*
X81790476Y-249433333D01*
X81742857Y-249338095D01*
X81742857Y-249242857D01*
X81790476Y-249147619D01*
X81838095Y-249100000D01*
X81933333Y-249052380D01*
X82171428Y-249052380D01*
X82314285Y-249100000D01*
X82647619Y-249052380D02*
X82885714Y-250052380D01*
X83076190Y-249338095D01*
X83266666Y-250052380D01*
X83504761Y-249052380D01*
D11*
X219523809Y-162857142D02*
X218857142Y-162857142D01*
X218857142Y-163904761D02*
X218857142Y-161904761D01*
X219809523Y-161904761D01*
X220571428Y-163904761D02*
X220571428Y-161904761D01*
X221714285Y-163904761D01*
X221714285Y-161904761D01*
X225142857Y-161904761D02*
X224190476Y-161904761D01*
X224095238Y-162857142D01*
X224190476Y-162761904D01*
X224380952Y-162666666D01*
X224857142Y-162666666D01*
X225047619Y-162761904D01*
X225142857Y-162857142D01*
X225238095Y-163047619D01*
X225238095Y-163523809D01*
X225142857Y-163714285D01*
X225047619Y-163809523D01*
X224857142Y-163904761D01*
X224380952Y-163904761D01*
X224190476Y-163809523D01*
X224095238Y-163714285D01*
D10*
X93061904Y-249100000D02*
X92966666Y-249052380D01*
X92823809Y-249052380D01*
X92680952Y-249100000D01*
X92585714Y-249195238D01*
X92538095Y-249290476D01*
X92490476Y-249480952D01*
X92490476Y-249623809D01*
X92538095Y-249814285D01*
X92585714Y-249909523D01*
X92680952Y-250004761D01*
X92823809Y-250052380D01*
X92919047Y-250052380D01*
X93061904Y-250004761D01*
X93109523Y-249957142D01*
X93109523Y-249623809D01*
X92919047Y-249623809D01*
D11*
X139523809Y-162857142D02*
X138857142Y-162857142D01*
X138857142Y-163904761D02*
X138857142Y-161904761D01*
X139809523Y-161904761D01*
X140571428Y-163904761D02*
X140571428Y-161904761D01*
X141714285Y-163904761D01*
X141714285Y-161904761D01*
X144571428Y-161904761D02*
X144761904Y-161904761D01*
X144952380Y-162000000D01*
X145047619Y-162095238D01*
X145142857Y-162285714D01*
X145238095Y-162666666D01*
X145238095Y-163142857D01*
X145142857Y-163523809D01*
X145047619Y-163714285D01*
X144952380Y-163809523D01*
X144761904Y-163904761D01*
X144571428Y-163904761D01*
X144380952Y-163809523D01*
X144285714Y-163714285D01*
X144190476Y-163523809D01*
X144095238Y-163142857D01*
X144095238Y-162666666D01*
X144190476Y-162285714D01*
X144285714Y-162095238D01*
X144380952Y-162000000D01*
X144571428Y-161904761D01*
X89654761Y-139352380D02*
X87654761Y-139352380D01*
X87845238Y-138495238D02*
X87750000Y-138400000D01*
X87654761Y-138209523D01*
X87654761Y-137733333D01*
X87750000Y-137542857D01*
X87845238Y-137447619D01*
X88035714Y-137352380D01*
X88226190Y-137352380D01*
X88511904Y-137447619D01*
X89654761Y-138590476D01*
X89654761Y-137352380D01*
X89464285Y-135352380D02*
X89559523Y-135447619D01*
X89654761Y-135733333D01*
X89654761Y-135923809D01*
X89559523Y-136209523D01*
X89369047Y-136400000D01*
X89178571Y-136495238D01*
X88797619Y-136590476D01*
X88511904Y-136590476D01*
X88130952Y-136495238D01*
X87940476Y-136400000D01*
X87750000Y-136209523D01*
X87654761Y-135923809D01*
X87654761Y-135733333D01*
X87750000Y-135447619D01*
X87845238Y-135352380D01*
D10*
X63002380Y-147695238D02*
X63002380Y-147504761D01*
X63050000Y-147409523D01*
X63145238Y-147314285D01*
X63335714Y-147266666D01*
X63669047Y-147266666D01*
X63859523Y-147314285D01*
X63954761Y-147409523D01*
X64002380Y-147504761D01*
X64002380Y-147695238D01*
X63954761Y-147790476D01*
X63859523Y-147885714D01*
X63669047Y-147933333D01*
X63335714Y-147933333D01*
X63145238Y-147885714D01*
X63050000Y-147790476D01*
X63002380Y-147695238D01*
D11*
X44736190Y-182654761D02*
X44736190Y-180654761D01*
X44736190Y-181607142D02*
X45879047Y-181607142D01*
X45879047Y-182654761D02*
X45879047Y-180654761D01*
X46831428Y-181607142D02*
X47498095Y-181607142D01*
X47783809Y-182654761D02*
X46831428Y-182654761D01*
X46831428Y-180654761D01*
X47783809Y-180654761D01*
X48545714Y-182083333D02*
X49498095Y-182083333D01*
X48355238Y-182654761D02*
X49021904Y-180654761D01*
X49688571Y-182654761D01*
X50355238Y-182654761D02*
X50355238Y-180654761D01*
X50831428Y-180654761D01*
X51117142Y-180750000D01*
X51307619Y-180940476D01*
X51402857Y-181130952D01*
X51498095Y-181511904D01*
X51498095Y-181797619D01*
X51402857Y-182178571D01*
X51307619Y-182369047D01*
X51117142Y-182559523D01*
X50831428Y-182654761D01*
X50355238Y-182654761D01*
X52355238Y-182654761D02*
X52355238Y-180654761D01*
X53117142Y-180654761D01*
X53307619Y-180750000D01*
X53402857Y-180845238D01*
X53498095Y-181035714D01*
X53498095Y-181321428D01*
X53402857Y-181511904D01*
X53307619Y-181607142D01*
X53117142Y-181702380D01*
X52355238Y-181702380D01*
X54355238Y-182654761D02*
X54355238Y-180654761D01*
X54355238Y-181607142D02*
X55498095Y-181607142D01*
X55498095Y-182654761D02*
X55498095Y-180654761D01*
X56831428Y-180654761D02*
X57212380Y-180654761D01*
X57402857Y-180750000D01*
X57593333Y-180940476D01*
X57688571Y-181321428D01*
X57688571Y-181988095D01*
X57593333Y-182369047D01*
X57402857Y-182559523D01*
X57212380Y-182654761D01*
X56831428Y-182654761D01*
X56640952Y-182559523D01*
X56450476Y-182369047D01*
X56355238Y-181988095D01*
X56355238Y-181321428D01*
X56450476Y-180940476D01*
X56640952Y-180750000D01*
X56831428Y-180654761D01*
X58545714Y-182654761D02*
X58545714Y-180654761D01*
X59688571Y-182654761D01*
X59688571Y-180654761D01*
X60640952Y-181607142D02*
X61307619Y-181607142D01*
X61593333Y-182654761D02*
X60640952Y-182654761D01*
X60640952Y-180654761D01*
X61593333Y-180654761D01*
X235523809Y-162857142D02*
X234857142Y-162857142D01*
X234857142Y-163904761D02*
X234857142Y-161904761D01*
X235809523Y-161904761D01*
X236571428Y-163904761D02*
X236571428Y-161904761D01*
X237714285Y-163904761D01*
X237714285Y-161904761D01*
X241047619Y-161904761D02*
X240666666Y-161904761D01*
X240476190Y-162000000D01*
X240380952Y-162095238D01*
X240190476Y-162380952D01*
X240095238Y-162761904D01*
X240095238Y-163523809D01*
X240190476Y-163714285D01*
X240285714Y-163809523D01*
X240476190Y-163904761D01*
X240857142Y-163904761D01*
X241047619Y-163809523D01*
X241142857Y-163714285D01*
X241238095Y-163523809D01*
X241238095Y-163047619D01*
X241142857Y-162857142D01*
X241047619Y-162761904D01*
X240857142Y-162666666D01*
X240476190Y-162666666D01*
X240285714Y-162761904D01*
X240190476Y-162857142D01*
X240095238Y-163047619D01*
X340880952Y-193804761D02*
X340880952Y-191804761D01*
X341642857Y-191804761D01*
X341833333Y-191900000D01*
X341928571Y-191995238D01*
X342023809Y-192185714D01*
X342023809Y-192471428D01*
X341928571Y-192661904D01*
X341833333Y-192757142D01*
X341642857Y-192852380D01*
X340880952Y-192852380D01*
X343261904Y-191804761D02*
X343642857Y-191804761D01*
X343833333Y-191900000D01*
X344023809Y-192090476D01*
X344119047Y-192471428D01*
X344119047Y-193138095D01*
X344023809Y-193519047D01*
X343833333Y-193709523D01*
X343642857Y-193804761D01*
X343261904Y-193804761D01*
X343071428Y-193709523D01*
X342880952Y-193519047D01*
X342785714Y-193138095D01*
X342785714Y-192471428D01*
X342880952Y-192090476D01*
X343071428Y-191900000D01*
X343261904Y-191804761D01*
X344785714Y-191804761D02*
X345261904Y-193804761D01*
X345642857Y-192376190D01*
X346023809Y-193804761D01*
X346500000Y-191804761D01*
X347261904Y-192757142D02*
X347928571Y-192757142D01*
X348214285Y-193804761D02*
X347261904Y-193804761D01*
X347261904Y-191804761D01*
X348214285Y-191804761D01*
X350214285Y-193804761D02*
X349547619Y-192852380D01*
X349071428Y-193804761D02*
X349071428Y-191804761D01*
X349833333Y-191804761D01*
X350023809Y-191900000D01*
X350119047Y-191995238D01*
X350214285Y-192185714D01*
X350214285Y-192471428D01*
X350119047Y-192661904D01*
X350023809Y-192757142D01*
X349833333Y-192852380D01*
X349071428Y-192852380D01*
X251523809Y-162857142D02*
X250857142Y-162857142D01*
X250857142Y-163904761D02*
X250857142Y-161904761D01*
X251809523Y-161904761D01*
X252571428Y-163904761D02*
X252571428Y-161904761D01*
X253714285Y-163904761D01*
X253714285Y-161904761D01*
X256000000Y-161904761D02*
X257333333Y-161904761D01*
X256476190Y-163904761D01*
X45438571Y-156654761D02*
X44486190Y-156654761D01*
X44486190Y-154654761D01*
X46105238Y-156654761D02*
X46105238Y-154654761D01*
X47057619Y-156654761D02*
X47057619Y-154654761D01*
X48200476Y-156654761D01*
X48200476Y-154654761D01*
X49152857Y-155607142D02*
X49819523Y-155607142D01*
X50105238Y-156654761D02*
X49152857Y-156654761D01*
X49152857Y-154654761D01*
X50105238Y-154654761D01*
X52486190Y-156654761D02*
X52486190Y-154654761D01*
X53438571Y-156654761D02*
X53438571Y-154654761D01*
X54581428Y-156654761D01*
X54581428Y-154654761D01*
D12*
X327371428Y-247178571D02*
X327371428Y-248250000D01*
X327300000Y-248464285D01*
X327157142Y-248607142D01*
X326942857Y-248678571D01*
X326800000Y-248678571D01*
X328800000Y-248678571D02*
X328085714Y-248678571D01*
X328085714Y-247178571D01*
X330157142Y-248535714D02*
X330085714Y-248607142D01*
X329871428Y-248678571D01*
X329728571Y-248678571D01*
X329514285Y-248607142D01*
X329371428Y-248464285D01*
X329300000Y-248321428D01*
X329228571Y-248035714D01*
X329228571Y-247821428D01*
X329300000Y-247535714D01*
X329371428Y-247392857D01*
X329514285Y-247250000D01*
X329728571Y-247178571D01*
X329871428Y-247178571D01*
X330085714Y-247250000D01*
X330157142Y-247321428D01*
X331228571Y-247178571D02*
X331228571Y-248250000D01*
X331157142Y-248464285D01*
X331014285Y-248607142D01*
X330800000Y-248678571D01*
X330657142Y-248678571D01*
X332657142Y-248678571D02*
X331942857Y-248678571D01*
X331942857Y-247178571D01*
X334014285Y-248535714D02*
X333942857Y-248607142D01*
X333728571Y-248678571D01*
X333585714Y-248678571D01*
X333371428Y-248607142D01*
X333228571Y-248464285D01*
X333157142Y-248321428D01*
X333085714Y-248035714D01*
X333085714Y-247821428D01*
X333157142Y-247535714D01*
X333228571Y-247392857D01*
X333371428Y-247250000D01*
X333585714Y-247178571D01*
X333728571Y-247178571D01*
X333942857Y-247250000D01*
X334014285Y-247321428D01*
X335085714Y-247178571D02*
X335085714Y-248250000D01*
X335014285Y-248464285D01*
X334871428Y-248607142D01*
X334657142Y-248678571D01*
X334514285Y-248678571D01*
X336514285Y-248678571D02*
X335800000Y-248678571D01*
X335800000Y-247178571D01*
X337871428Y-248535714D02*
X337800000Y-248607142D01*
X337585714Y-248678571D01*
X337442857Y-248678571D01*
X337228571Y-248607142D01*
X337085714Y-248464285D01*
X337014285Y-248321428D01*
X336942857Y-248035714D01*
X336942857Y-247821428D01*
X337014285Y-247535714D01*
X337085714Y-247392857D01*
X337228571Y-247250000D01*
X337442857Y-247178571D01*
X337585714Y-247178571D01*
X337800000Y-247250000D01*
X337871428Y-247321428D01*
X338942857Y-247178571D02*
X338942857Y-248250000D01*
X338871428Y-248464285D01*
X338728571Y-248607142D01*
X338514285Y-248678571D01*
X338371428Y-248678571D01*
X340371428Y-248678571D02*
X339657142Y-248678571D01*
X339657142Y-247178571D01*
X341728571Y-248535714D02*
X341657142Y-248607142D01*
X341442857Y-248678571D01*
X341300000Y-248678571D01*
X341085714Y-248607142D01*
X340942857Y-248464285D01*
X340871428Y-248321428D01*
X340800000Y-248035714D01*
X340800000Y-247821428D01*
X340871428Y-247535714D01*
X340942857Y-247392857D01*
X341085714Y-247250000D01*
X341300000Y-247178571D01*
X341442857Y-247178571D01*
X341657142Y-247250000D01*
X341728571Y-247321428D01*
D10*
X75452380Y-146604761D02*
X74452380Y-146604761D01*
X75452380Y-146128571D02*
X74452380Y-146128571D01*
X75452380Y-145557142D01*
X74452380Y-145557142D01*
X74452380Y-145223809D02*
X74452380Y-144652380D01*
X75452380Y-144938095D02*
X74452380Y-144938095D01*
D11*
X45438571Y-169654761D02*
X44486190Y-169654761D01*
X44486190Y-167654761D01*
X46105238Y-169654761D02*
X46105238Y-167654761D01*
X47057619Y-169654761D02*
X47057619Y-167654761D01*
X48200476Y-169654761D01*
X48200476Y-167654761D01*
X49152857Y-168607142D02*
X49819523Y-168607142D01*
X50105238Y-169654761D02*
X49152857Y-169654761D01*
X49152857Y-167654761D01*
X50105238Y-167654761D01*
X52867142Y-167654761D02*
X53248095Y-167654761D01*
X53438571Y-167750000D01*
X53629047Y-167940476D01*
X53724285Y-168321428D01*
X53724285Y-168988095D01*
X53629047Y-169369047D01*
X53438571Y-169559523D01*
X53248095Y-169654761D01*
X52867142Y-169654761D01*
X52676666Y-169559523D01*
X52486190Y-169369047D01*
X52390952Y-168988095D01*
X52390952Y-168321428D01*
X52486190Y-167940476D01*
X52676666Y-167750000D01*
X52867142Y-167654761D01*
X54581428Y-167654761D02*
X54581428Y-169273809D01*
X54676666Y-169464285D01*
X54771904Y-169559523D01*
X54962380Y-169654761D01*
X55343333Y-169654761D01*
X55533809Y-169559523D01*
X55629047Y-169464285D01*
X55724285Y-169273809D01*
X55724285Y-167654761D01*
X56390952Y-167654761D02*
X57533809Y-167654761D01*
X56962380Y-169654761D02*
X56962380Y-167654761D01*
D10*
X87366666Y-249052380D02*
X88033333Y-250052380D01*
X88033333Y-249052380D02*
X87366666Y-250052380D01*
G04 #@! TO.C,C20*
X331754491Y-210657142D02*
X331706872Y-210704761D01*
X331564015Y-210752380D01*
X331468777Y-210752380D01*
X331325920Y-210704761D01*
X331230682Y-210609523D01*
X331183063Y-210514285D01*
X331135444Y-210323809D01*
X331135444Y-210180952D01*
X331183063Y-209990476D01*
X331230682Y-209895238D01*
X331325920Y-209800000D01*
X331468777Y-209752380D01*
X331564015Y-209752380D01*
X331706872Y-209800000D01*
X331754491Y-209847619D01*
X332135444Y-209847619D02*
X332183063Y-209800000D01*
X332278301Y-209752380D01*
X332516396Y-209752380D01*
X332611634Y-209800000D01*
X332659253Y-209847619D01*
X332706872Y-209942857D01*
X332706872Y-210038095D01*
X332659253Y-210180952D01*
X332087825Y-210752380D01*
X332706872Y-210752380D01*
X333325920Y-209752380D02*
X333421158Y-209752380D01*
X333516396Y-209800000D01*
X333564015Y-209847619D01*
X333611634Y-209942857D01*
X333659253Y-210133333D01*
X333659253Y-210371428D01*
X333611634Y-210561904D01*
X333564015Y-210657142D01*
X333516396Y-210704761D01*
X333421158Y-210752380D01*
X333325920Y-210752380D01*
X333230682Y-210704761D01*
X333183063Y-210657142D01*
X333135444Y-210561904D01*
X333087825Y-210371428D01*
X333087825Y-210133333D01*
X333135444Y-209942857D01*
X333183063Y-209847619D01*
X333230682Y-209800000D01*
X333325920Y-209752380D01*
G04 #@! TO.C,ENC2*
X176135714Y-141103571D02*
X176469047Y-141103571D01*
X176611904Y-141627380D02*
X176135714Y-141627380D01*
X176135714Y-140627380D01*
X176611904Y-140627380D01*
X177040476Y-141627380D02*
X177040476Y-140627380D01*
X177611904Y-141627380D01*
X177611904Y-140627380D01*
X178659523Y-141532142D02*
X178611904Y-141579761D01*
X178469047Y-141627380D01*
X178373809Y-141627380D01*
X178230952Y-141579761D01*
X178135714Y-141484523D01*
X178088095Y-141389285D01*
X178040476Y-141198809D01*
X178040476Y-141055952D01*
X178088095Y-140865476D01*
X178135714Y-140770238D01*
X178230952Y-140675000D01*
X178373809Y-140627380D01*
X178469047Y-140627380D01*
X178611904Y-140675000D01*
X178659523Y-140722619D01*
X179040476Y-140722619D02*
X179088095Y-140675000D01*
X179183333Y-140627380D01*
X179421428Y-140627380D01*
X179516666Y-140675000D01*
X179564285Y-140722619D01*
X179611904Y-140817857D01*
X179611904Y-140913095D01*
X179564285Y-141055952D01*
X178992857Y-141627380D01*
X179611904Y-141627380D01*
G04 #@! TO.C,ENC4*
X239835714Y-141103571D02*
X240169047Y-141103571D01*
X240311904Y-141627380D02*
X239835714Y-141627380D01*
X239835714Y-140627380D01*
X240311904Y-140627380D01*
X240740476Y-141627380D02*
X240740476Y-140627380D01*
X241311904Y-141627380D01*
X241311904Y-140627380D01*
X242359523Y-141532142D02*
X242311904Y-141579761D01*
X242169047Y-141627380D01*
X242073809Y-141627380D01*
X241930952Y-141579761D01*
X241835714Y-141484523D01*
X241788095Y-141389285D01*
X241740476Y-141198809D01*
X241740476Y-141055952D01*
X241788095Y-140865476D01*
X241835714Y-140770238D01*
X241930952Y-140675000D01*
X242073809Y-140627380D01*
X242169047Y-140627380D01*
X242311904Y-140675000D01*
X242359523Y-140722619D01*
X243216666Y-140960714D02*
X243216666Y-141627380D01*
X242978571Y-140579761D02*
X242740476Y-141294047D01*
X243359523Y-141294047D01*
G04 #@! TO.C,ENC1*
X144135714Y-141103571D02*
X144469047Y-141103571D01*
X144611904Y-141627380D02*
X144135714Y-141627380D01*
X144135714Y-140627380D01*
X144611904Y-140627380D01*
X145040476Y-141627380D02*
X145040476Y-140627380D01*
X145611904Y-141627380D01*
X145611904Y-140627380D01*
X146659523Y-141532142D02*
X146611904Y-141579761D01*
X146469047Y-141627380D01*
X146373809Y-141627380D01*
X146230952Y-141579761D01*
X146135714Y-141484523D01*
X146088095Y-141389285D01*
X146040476Y-141198809D01*
X146040476Y-141055952D01*
X146088095Y-140865476D01*
X146135714Y-140770238D01*
X146230952Y-140675000D01*
X146373809Y-140627380D01*
X146469047Y-140627380D01*
X146611904Y-140675000D01*
X146659523Y-140722619D01*
X147611904Y-141627380D02*
X147040476Y-141627380D01*
X147326190Y-141627380D02*
X147326190Y-140627380D01*
X147230952Y-140770238D01*
X147135714Y-140865476D01*
X147040476Y-140913095D01*
G04 #@! TO.C,ENC3*
X208135714Y-141103571D02*
X208469047Y-141103571D01*
X208611904Y-141627380D02*
X208135714Y-141627380D01*
X208135714Y-140627380D01*
X208611904Y-140627380D01*
X209040476Y-141627380D02*
X209040476Y-140627380D01*
X209611904Y-141627380D01*
X209611904Y-140627380D01*
X210659523Y-141532142D02*
X210611904Y-141579761D01*
X210469047Y-141627380D01*
X210373809Y-141627380D01*
X210230952Y-141579761D01*
X210135714Y-141484523D01*
X210088095Y-141389285D01*
X210040476Y-141198809D01*
X210040476Y-141055952D01*
X210088095Y-140865476D01*
X210135714Y-140770238D01*
X210230952Y-140675000D01*
X210373809Y-140627380D01*
X210469047Y-140627380D01*
X210611904Y-140675000D01*
X210659523Y-140722619D01*
X210992857Y-140627380D02*
X211611904Y-140627380D01*
X211278571Y-141008333D01*
X211421428Y-141008333D01*
X211516666Y-141055952D01*
X211564285Y-141103571D01*
X211611904Y-141198809D01*
X211611904Y-141436904D01*
X211564285Y-141532142D01*
X211516666Y-141579761D01*
X211421428Y-141627380D01*
X211135714Y-141627380D01*
X211040476Y-141579761D01*
X210992857Y-141532142D01*
G04 #@! TO.C,SW27*
X135244761Y-177104523D02*
X135292380Y-176961666D01*
X135292380Y-176723571D01*
X135244761Y-176628333D01*
X135197142Y-176580714D01*
X135101904Y-176533095D01*
X135006666Y-176533095D01*
X134911428Y-176580714D01*
X134863809Y-176628333D01*
X134816190Y-176723571D01*
X134768571Y-176914047D01*
X134720952Y-177009285D01*
X134673333Y-177056904D01*
X134578095Y-177104523D01*
X134482857Y-177104523D01*
X134387619Y-177056904D01*
X134340000Y-177009285D01*
X134292380Y-176914047D01*
X134292380Y-176675952D01*
X134340000Y-176533095D01*
X134292380Y-176199761D02*
X135292380Y-175961666D01*
X134578095Y-175771190D01*
X135292380Y-175580714D01*
X134292380Y-175342619D01*
X134387619Y-175009285D02*
X134340000Y-174961666D01*
X134292380Y-174866428D01*
X134292380Y-174628333D01*
X134340000Y-174533095D01*
X134387619Y-174485476D01*
X134482857Y-174437857D01*
X134578095Y-174437857D01*
X134720952Y-174485476D01*
X135292380Y-175056904D01*
X135292380Y-174437857D01*
X134292380Y-174104523D02*
X134292380Y-173437857D01*
X135292380Y-173866428D01*
G04 #@! TO.C,SW34*
X247244761Y-177104523D02*
X247292380Y-176961666D01*
X247292380Y-176723571D01*
X247244761Y-176628333D01*
X247197142Y-176580714D01*
X247101904Y-176533095D01*
X247006666Y-176533095D01*
X246911428Y-176580714D01*
X246863809Y-176628333D01*
X246816190Y-176723571D01*
X246768571Y-176914047D01*
X246720952Y-177009285D01*
X246673333Y-177056904D01*
X246578095Y-177104523D01*
X246482857Y-177104523D01*
X246387619Y-177056904D01*
X246340000Y-177009285D01*
X246292380Y-176914047D01*
X246292380Y-176675952D01*
X246340000Y-176533095D01*
X246292380Y-176199761D02*
X247292380Y-175961666D01*
X246578095Y-175771190D01*
X247292380Y-175580714D01*
X246292380Y-175342619D01*
X246292380Y-175056904D02*
X246292380Y-174437857D01*
X246673333Y-174771190D01*
X246673333Y-174628333D01*
X246720952Y-174533095D01*
X246768571Y-174485476D01*
X246863809Y-174437857D01*
X247101904Y-174437857D01*
X247197142Y-174485476D01*
X247244761Y-174533095D01*
X247292380Y-174628333D01*
X247292380Y-174914047D01*
X247244761Y-175009285D01*
X247197142Y-175056904D01*
X246625714Y-173580714D02*
X247292380Y-173580714D01*
X246244761Y-173818809D02*
X246959047Y-174056904D01*
X246959047Y-173437857D01*
G04 #@! TO.C,SW28*
X151244761Y-177104523D02*
X151292380Y-176961666D01*
X151292380Y-176723571D01*
X151244761Y-176628333D01*
X151197142Y-176580714D01*
X151101904Y-176533095D01*
X151006666Y-176533095D01*
X150911428Y-176580714D01*
X150863809Y-176628333D01*
X150816190Y-176723571D01*
X150768571Y-176914047D01*
X150720952Y-177009285D01*
X150673333Y-177056904D01*
X150578095Y-177104523D01*
X150482857Y-177104523D01*
X150387619Y-177056904D01*
X150340000Y-177009285D01*
X150292380Y-176914047D01*
X150292380Y-176675952D01*
X150340000Y-176533095D01*
X150292380Y-176199761D02*
X151292380Y-175961666D01*
X150578095Y-175771190D01*
X151292380Y-175580714D01*
X150292380Y-175342619D01*
X150387619Y-175009285D02*
X150340000Y-174961666D01*
X150292380Y-174866428D01*
X150292380Y-174628333D01*
X150340000Y-174533095D01*
X150387619Y-174485476D01*
X150482857Y-174437857D01*
X150578095Y-174437857D01*
X150720952Y-174485476D01*
X151292380Y-175056904D01*
X151292380Y-174437857D01*
X150720952Y-173866428D02*
X150673333Y-173961666D01*
X150625714Y-174009285D01*
X150530476Y-174056904D01*
X150482857Y-174056904D01*
X150387619Y-174009285D01*
X150340000Y-173961666D01*
X150292380Y-173866428D01*
X150292380Y-173675952D01*
X150340000Y-173580714D01*
X150387619Y-173533095D01*
X150482857Y-173485476D01*
X150530476Y-173485476D01*
X150625714Y-173533095D01*
X150673333Y-173580714D01*
X150720952Y-173675952D01*
X150720952Y-173866428D01*
X150768571Y-173961666D01*
X150816190Y-174009285D01*
X150911428Y-174056904D01*
X151101904Y-174056904D01*
X151197142Y-174009285D01*
X151244761Y-173961666D01*
X151292380Y-173866428D01*
X151292380Y-173675952D01*
X151244761Y-173580714D01*
X151197142Y-173533095D01*
X151101904Y-173485476D01*
X150911428Y-173485476D01*
X150816190Y-173533095D01*
X150768571Y-173580714D01*
X150720952Y-173675952D01*
G04 #@! TO.C,SW30*
X183244761Y-177104523D02*
X183292380Y-176961666D01*
X183292380Y-176723571D01*
X183244761Y-176628333D01*
X183197142Y-176580714D01*
X183101904Y-176533095D01*
X183006666Y-176533095D01*
X182911428Y-176580714D01*
X182863809Y-176628333D01*
X182816190Y-176723571D01*
X182768571Y-176914047D01*
X182720952Y-177009285D01*
X182673333Y-177056904D01*
X182578095Y-177104523D01*
X182482857Y-177104523D01*
X182387619Y-177056904D01*
X182340000Y-177009285D01*
X182292380Y-176914047D01*
X182292380Y-176675952D01*
X182340000Y-176533095D01*
X182292380Y-176199761D02*
X183292380Y-175961666D01*
X182578095Y-175771190D01*
X183292380Y-175580714D01*
X182292380Y-175342619D01*
X182292380Y-175056904D02*
X182292380Y-174437857D01*
X182673333Y-174771190D01*
X182673333Y-174628333D01*
X182720952Y-174533095D01*
X182768571Y-174485476D01*
X182863809Y-174437857D01*
X183101904Y-174437857D01*
X183197142Y-174485476D01*
X183244761Y-174533095D01*
X183292380Y-174628333D01*
X183292380Y-174914047D01*
X183244761Y-175009285D01*
X183197142Y-175056904D01*
X182292380Y-173818809D02*
X182292380Y-173723571D01*
X182340000Y-173628333D01*
X182387619Y-173580714D01*
X182482857Y-173533095D01*
X182673333Y-173485476D01*
X182911428Y-173485476D01*
X183101904Y-173533095D01*
X183197142Y-173580714D01*
X183244761Y-173628333D01*
X183292380Y-173723571D01*
X183292380Y-173818809D01*
X183244761Y-173914047D01*
X183197142Y-173961666D01*
X183101904Y-174009285D01*
X182911428Y-174056904D01*
X182673333Y-174056904D01*
X182482857Y-174009285D01*
X182387619Y-173961666D01*
X182340000Y-173914047D01*
X182292380Y-173818809D01*
G04 #@! TO.C,SW32*
X215244761Y-177104523D02*
X215292380Y-176961666D01*
X215292380Y-176723571D01*
X215244761Y-176628333D01*
X215197142Y-176580714D01*
X215101904Y-176533095D01*
X215006666Y-176533095D01*
X214911428Y-176580714D01*
X214863809Y-176628333D01*
X214816190Y-176723571D01*
X214768571Y-176914047D01*
X214720952Y-177009285D01*
X214673333Y-177056904D01*
X214578095Y-177104523D01*
X214482857Y-177104523D01*
X214387619Y-177056904D01*
X214340000Y-177009285D01*
X214292380Y-176914047D01*
X214292380Y-176675952D01*
X214340000Y-176533095D01*
X214292380Y-176199761D02*
X215292380Y-175961666D01*
X214578095Y-175771190D01*
X215292380Y-175580714D01*
X214292380Y-175342619D01*
X214292380Y-175056904D02*
X214292380Y-174437857D01*
X214673333Y-174771190D01*
X214673333Y-174628333D01*
X214720952Y-174533095D01*
X214768571Y-174485476D01*
X214863809Y-174437857D01*
X215101904Y-174437857D01*
X215197142Y-174485476D01*
X215244761Y-174533095D01*
X215292380Y-174628333D01*
X215292380Y-174914047D01*
X215244761Y-175009285D01*
X215197142Y-175056904D01*
X214387619Y-174056904D02*
X214340000Y-174009285D01*
X214292380Y-173914047D01*
X214292380Y-173675952D01*
X214340000Y-173580714D01*
X214387619Y-173533095D01*
X214482857Y-173485476D01*
X214578095Y-173485476D01*
X214720952Y-173533095D01*
X215292380Y-174104523D01*
X215292380Y-173485476D01*
G04 #@! TO.C,SW29*
X167244761Y-177104523D02*
X167292380Y-176961666D01*
X167292380Y-176723571D01*
X167244761Y-176628333D01*
X167197142Y-176580714D01*
X167101904Y-176533095D01*
X167006666Y-176533095D01*
X166911428Y-176580714D01*
X166863809Y-176628333D01*
X166816190Y-176723571D01*
X166768571Y-176914047D01*
X166720952Y-177009285D01*
X166673333Y-177056904D01*
X166578095Y-177104523D01*
X166482857Y-177104523D01*
X166387619Y-177056904D01*
X166340000Y-177009285D01*
X166292380Y-176914047D01*
X166292380Y-176675952D01*
X166340000Y-176533095D01*
X166292380Y-176199761D02*
X167292380Y-175961666D01*
X166578095Y-175771190D01*
X167292380Y-175580714D01*
X166292380Y-175342619D01*
X166387619Y-175009285D02*
X166340000Y-174961666D01*
X166292380Y-174866428D01*
X166292380Y-174628333D01*
X166340000Y-174533095D01*
X166387619Y-174485476D01*
X166482857Y-174437857D01*
X166578095Y-174437857D01*
X166720952Y-174485476D01*
X167292380Y-175056904D01*
X167292380Y-174437857D01*
X167292380Y-173961666D02*
X167292380Y-173771190D01*
X167244761Y-173675952D01*
X167197142Y-173628333D01*
X167054285Y-173533095D01*
X166863809Y-173485476D01*
X166482857Y-173485476D01*
X166387619Y-173533095D01*
X166340000Y-173580714D01*
X166292380Y-173675952D01*
X166292380Y-173866428D01*
X166340000Y-173961666D01*
X166387619Y-174009285D01*
X166482857Y-174056904D01*
X166720952Y-174056904D01*
X166816190Y-174009285D01*
X166863809Y-173961666D01*
X166911428Y-173866428D01*
X166911428Y-173675952D01*
X166863809Y-173580714D01*
X166816190Y-173533095D01*
X166720952Y-173485476D01*
G04 #@! TO.C,SW31*
X199244761Y-177104523D02*
X199292380Y-176961666D01*
X199292380Y-176723571D01*
X199244761Y-176628333D01*
X199197142Y-176580714D01*
X199101904Y-176533095D01*
X199006666Y-176533095D01*
X198911428Y-176580714D01*
X198863809Y-176628333D01*
X198816190Y-176723571D01*
X198768571Y-176914047D01*
X198720952Y-177009285D01*
X198673333Y-177056904D01*
X198578095Y-177104523D01*
X198482857Y-177104523D01*
X198387619Y-177056904D01*
X198340000Y-177009285D01*
X198292380Y-176914047D01*
X198292380Y-176675952D01*
X198340000Y-176533095D01*
X198292380Y-176199761D02*
X199292380Y-175961666D01*
X198578095Y-175771190D01*
X199292380Y-175580714D01*
X198292380Y-175342619D01*
X198292380Y-175056904D02*
X198292380Y-174437857D01*
X198673333Y-174771190D01*
X198673333Y-174628333D01*
X198720952Y-174533095D01*
X198768571Y-174485476D01*
X198863809Y-174437857D01*
X199101904Y-174437857D01*
X199197142Y-174485476D01*
X199244761Y-174533095D01*
X199292380Y-174628333D01*
X199292380Y-174914047D01*
X199244761Y-175009285D01*
X199197142Y-175056904D01*
X199292380Y-173485476D02*
X199292380Y-174056904D01*
X199292380Y-173771190D02*
X198292380Y-173771190D01*
X198435238Y-173866428D01*
X198530476Y-173961666D01*
X198578095Y-174056904D01*
G04 #@! TO.C,SW33*
X231244761Y-177104523D02*
X231292380Y-176961666D01*
X231292380Y-176723571D01*
X231244761Y-176628333D01*
X231197142Y-176580714D01*
X231101904Y-176533095D01*
X231006666Y-176533095D01*
X230911428Y-176580714D01*
X230863809Y-176628333D01*
X230816190Y-176723571D01*
X230768571Y-176914047D01*
X230720952Y-177009285D01*
X230673333Y-177056904D01*
X230578095Y-177104523D01*
X230482857Y-177104523D01*
X230387619Y-177056904D01*
X230340000Y-177009285D01*
X230292380Y-176914047D01*
X230292380Y-176675952D01*
X230340000Y-176533095D01*
X230292380Y-176199761D02*
X231292380Y-175961666D01*
X230578095Y-175771190D01*
X231292380Y-175580714D01*
X230292380Y-175342619D01*
X230292380Y-175056904D02*
X230292380Y-174437857D01*
X230673333Y-174771190D01*
X230673333Y-174628333D01*
X230720952Y-174533095D01*
X230768571Y-174485476D01*
X230863809Y-174437857D01*
X231101904Y-174437857D01*
X231197142Y-174485476D01*
X231244761Y-174533095D01*
X231292380Y-174628333D01*
X231292380Y-174914047D01*
X231244761Y-175009285D01*
X231197142Y-175056904D01*
X230292380Y-174104523D02*
X230292380Y-173485476D01*
X230673333Y-173818809D01*
X230673333Y-173675952D01*
X230720952Y-173580714D01*
X230768571Y-173533095D01*
X230863809Y-173485476D01*
X231101904Y-173485476D01*
X231197142Y-173533095D01*
X231244761Y-173580714D01*
X231292380Y-173675952D01*
X231292380Y-173961666D01*
X231244761Y-174056904D01*
X231197142Y-174104523D01*
G04 #@! TO.C,SW26*
X343530476Y-209404761D02*
X343673333Y-209452380D01*
X343911428Y-209452380D01*
X344006666Y-209404761D01*
X344054285Y-209357142D01*
X344101904Y-209261904D01*
X344101904Y-209166666D01*
X344054285Y-209071428D01*
X344006666Y-209023809D01*
X343911428Y-208976190D01*
X343720952Y-208928571D01*
X343625714Y-208880952D01*
X343578095Y-208833333D01*
X343530476Y-208738095D01*
X343530476Y-208642857D01*
X343578095Y-208547619D01*
X343625714Y-208500000D01*
X343720952Y-208452380D01*
X343959047Y-208452380D01*
X344101904Y-208500000D01*
X344435238Y-208452380D02*
X344673333Y-209452380D01*
X344863809Y-208738095D01*
X345054285Y-209452380D01*
X345292380Y-208452380D01*
X345625714Y-208547619D02*
X345673333Y-208500000D01*
X345768571Y-208452380D01*
X346006666Y-208452380D01*
X346101904Y-208500000D01*
X346149523Y-208547619D01*
X346197142Y-208642857D01*
X346197142Y-208738095D01*
X346149523Y-208880952D01*
X345578095Y-209452380D01*
X346197142Y-209452380D01*
X347054285Y-208452380D02*
X346863809Y-208452380D01*
X346768571Y-208500000D01*
X346720952Y-208547619D01*
X346625714Y-208690476D01*
X346578095Y-208880952D01*
X346578095Y-209261904D01*
X346625714Y-209357142D01*
X346673333Y-209404761D01*
X346768571Y-209452380D01*
X346959047Y-209452380D01*
X347054285Y-209404761D01*
X347101904Y-209357142D01*
X347149523Y-209261904D01*
X347149523Y-209023809D01*
X347101904Y-208928571D01*
X347054285Y-208880952D01*
X346959047Y-208833333D01*
X346768571Y-208833333D01*
X346673333Y-208880952D01*
X346625714Y-208928571D01*
X346578095Y-209023809D01*
D11*
G04 #@! TO.C,MIC*
X45107142Y-142654761D02*
X45107142Y-140654761D01*
X45773809Y-142083333D01*
X46440476Y-140654761D01*
X46440476Y-142654761D01*
X47392857Y-142654761D02*
X47392857Y-140654761D01*
X49488095Y-142464285D02*
X49392857Y-142559523D01*
X49107142Y-142654761D01*
X48916666Y-142654761D01*
X48630952Y-142559523D01*
X48440476Y-142369047D01*
X48345238Y-142178571D01*
X48250000Y-141797619D01*
X48250000Y-141511904D01*
X48345238Y-141130952D01*
X48440476Y-140940476D01*
X48630952Y-140750000D01*
X48916666Y-140654761D01*
X49107142Y-140654761D01*
X49392857Y-140750000D01*
X49488095Y-140845238D01*
D10*
G04 #@! TO.C,C1*
X62435984Y-171307142D02*
X62388365Y-171354761D01*
X62245508Y-171402380D01*
X62150270Y-171402380D01*
X62007412Y-171354761D01*
X61912174Y-171259523D01*
X61864555Y-171164285D01*
X61816936Y-170973809D01*
X61816936Y-170830952D01*
X61864555Y-170640476D01*
X61912174Y-170545238D01*
X62007412Y-170450000D01*
X62150270Y-170402380D01*
X62245508Y-170402380D01*
X62388365Y-170450000D01*
X62435984Y-170497619D01*
X63388365Y-171402380D02*
X62816936Y-171402380D01*
X63102651Y-171402380D02*
X63102651Y-170402380D01*
X63007412Y-170545238D01*
X62912174Y-170640476D01*
X62816936Y-170688095D01*
G04 #@! TO.C,C2*
X62435984Y-160807142D02*
X62388365Y-160854761D01*
X62245508Y-160902380D01*
X62150270Y-160902380D01*
X62007412Y-160854761D01*
X61912174Y-160759523D01*
X61864555Y-160664285D01*
X61816936Y-160473809D01*
X61816936Y-160330952D01*
X61864555Y-160140476D01*
X61912174Y-160045238D01*
X62007412Y-159950000D01*
X62150270Y-159902380D01*
X62245508Y-159902380D01*
X62388365Y-159950000D01*
X62435984Y-159997619D01*
X62816936Y-159997619D02*
X62864555Y-159950000D01*
X62959793Y-159902380D01*
X63197889Y-159902380D01*
X63293127Y-159950000D01*
X63340746Y-159997619D01*
X63388365Y-160092857D01*
X63388365Y-160188095D01*
X63340746Y-160330952D01*
X62769317Y-160902380D01*
X63388365Y-160902380D01*
G04 #@! TO.C,SW21*
X289990476Y-192904761D02*
X290133333Y-192952380D01*
X290371428Y-192952380D01*
X290466666Y-192904761D01*
X290514285Y-192857142D01*
X290561904Y-192761904D01*
X290561904Y-192666666D01*
X290514285Y-192571428D01*
X290466666Y-192523809D01*
X290371428Y-192476190D01*
X290180952Y-192428571D01*
X290085714Y-192380952D01*
X290038095Y-192333333D01*
X289990476Y-192238095D01*
X289990476Y-192142857D01*
X290038095Y-192047619D01*
X290085714Y-192000000D01*
X290180952Y-191952380D01*
X290419047Y-191952380D01*
X290561904Y-192000000D01*
X290895238Y-191952380D02*
X291133333Y-192952380D01*
X291323809Y-192238095D01*
X291514285Y-192952380D01*
X291752380Y-191952380D01*
X292085714Y-192047619D02*
X292133333Y-192000000D01*
X292228571Y-191952380D01*
X292466666Y-191952380D01*
X292561904Y-192000000D01*
X292609523Y-192047619D01*
X292657142Y-192142857D01*
X292657142Y-192238095D01*
X292609523Y-192380952D01*
X292038095Y-192952380D01*
X292657142Y-192952380D01*
X293609523Y-192952380D02*
X293038095Y-192952380D01*
X293323809Y-192952380D02*
X293323809Y-191952380D01*
X293228571Y-192095238D01*
X293133333Y-192190476D01*
X293038095Y-192238095D01*
G04 #@! TO.C,R11*
X343757142Y-147202380D02*
X343423809Y-146726190D01*
X343185714Y-147202380D02*
X343185714Y-146202380D01*
X343566666Y-146202380D01*
X343661904Y-146250000D01*
X343709523Y-146297619D01*
X343757142Y-146392857D01*
X343757142Y-146535714D01*
X343709523Y-146630952D01*
X343661904Y-146678571D01*
X343566666Y-146726190D01*
X343185714Y-146726190D01*
X344709523Y-147202380D02*
X344138095Y-147202380D01*
X344423809Y-147202380D02*
X344423809Y-146202380D01*
X344328571Y-146345238D01*
X344233333Y-146440476D01*
X344138095Y-146488095D01*
X345661904Y-147202380D02*
X345090476Y-147202380D01*
X345376190Y-147202380D02*
X345376190Y-146202380D01*
X345280952Y-146345238D01*
X345185714Y-146440476D01*
X345090476Y-146488095D01*
G04 #@! TO.C,SW17*
X258095238Y-223190476D02*
X258047619Y-223333333D01*
X258047619Y-223571428D01*
X258095238Y-223666666D01*
X258142857Y-223714285D01*
X258238095Y-223761904D01*
X258333333Y-223761904D01*
X258428571Y-223714285D01*
X258476190Y-223666666D01*
X258523809Y-223571428D01*
X258571428Y-223380952D01*
X258619047Y-223285714D01*
X258666666Y-223238095D01*
X258761904Y-223190476D01*
X258857142Y-223190476D01*
X258952380Y-223238095D01*
X259000000Y-223285714D01*
X259047619Y-223380952D01*
X259047619Y-223619047D01*
X259000000Y-223761904D01*
X259047619Y-224095238D02*
X258047619Y-224333333D01*
X258761904Y-224523809D01*
X258047619Y-224714285D01*
X259047619Y-224952380D01*
X258047619Y-225857142D02*
X258047619Y-225285714D01*
X258047619Y-225571428D02*
X259047619Y-225571428D01*
X258904761Y-225476190D01*
X258809523Y-225380952D01*
X258761904Y-225285714D01*
X259047619Y-226190476D02*
X259047619Y-226857142D01*
X258047619Y-226428571D01*
G04 #@! TO.C,R12*
X343757142Y-150802380D02*
X343423809Y-150326190D01*
X343185714Y-150802380D02*
X343185714Y-149802380D01*
X343566666Y-149802380D01*
X343661904Y-149850000D01*
X343709523Y-149897619D01*
X343757142Y-149992857D01*
X343757142Y-150135714D01*
X343709523Y-150230952D01*
X343661904Y-150278571D01*
X343566666Y-150326190D01*
X343185714Y-150326190D01*
X344709523Y-150802380D02*
X344138095Y-150802380D01*
X344423809Y-150802380D02*
X344423809Y-149802380D01*
X344328571Y-149945238D01*
X344233333Y-150040476D01*
X344138095Y-150088095D01*
X345090476Y-149897619D02*
X345138095Y-149850000D01*
X345233333Y-149802380D01*
X345471428Y-149802380D01*
X345566666Y-149850000D01*
X345614285Y-149897619D01*
X345661904Y-149992857D01*
X345661904Y-150088095D01*
X345614285Y-150230952D01*
X345042857Y-150802380D01*
X345661904Y-150802380D01*
G04 #@! TO.C,SW9*
X157466666Y-192904761D02*
X157609523Y-192952380D01*
X157847619Y-192952380D01*
X157942857Y-192904761D01*
X157990476Y-192857142D01*
X158038095Y-192761904D01*
X158038095Y-192666666D01*
X157990476Y-192571428D01*
X157942857Y-192523809D01*
X157847619Y-192476190D01*
X157657142Y-192428571D01*
X157561904Y-192380952D01*
X157514285Y-192333333D01*
X157466666Y-192238095D01*
X157466666Y-192142857D01*
X157514285Y-192047619D01*
X157561904Y-192000000D01*
X157657142Y-191952380D01*
X157895238Y-191952380D01*
X158038095Y-192000000D01*
X158371428Y-191952380D02*
X158609523Y-192952380D01*
X158800000Y-192238095D01*
X158990476Y-192952380D01*
X159228571Y-191952380D01*
X159657142Y-192952380D02*
X159847619Y-192952380D01*
X159942857Y-192904761D01*
X159990476Y-192857142D01*
X160085714Y-192714285D01*
X160133333Y-192523809D01*
X160133333Y-192142857D01*
X160085714Y-192047619D01*
X160038095Y-192000000D01*
X159942857Y-191952380D01*
X159752380Y-191952380D01*
X159657142Y-192000000D01*
X159609523Y-192047619D01*
X159561904Y-192142857D01*
X159561904Y-192380952D01*
X159609523Y-192476190D01*
X159657142Y-192523809D01*
X159752380Y-192571428D01*
X159942857Y-192571428D01*
X160038095Y-192523809D01*
X160085714Y-192476190D01*
X160133333Y-192380952D01*
G04 #@! TO.C,SW12*
X201095238Y-223190476D02*
X201047619Y-223333333D01*
X201047619Y-223571428D01*
X201095238Y-223666666D01*
X201142857Y-223714285D01*
X201238095Y-223761904D01*
X201333333Y-223761904D01*
X201428571Y-223714285D01*
X201476190Y-223666666D01*
X201523809Y-223571428D01*
X201571428Y-223380952D01*
X201619047Y-223285714D01*
X201666666Y-223238095D01*
X201761904Y-223190476D01*
X201857142Y-223190476D01*
X201952380Y-223238095D01*
X202000000Y-223285714D01*
X202047619Y-223380952D01*
X202047619Y-223619047D01*
X202000000Y-223761904D01*
X202047619Y-224095238D02*
X201047619Y-224333333D01*
X201761904Y-224523809D01*
X201047619Y-224714285D01*
X202047619Y-224952380D01*
X201047619Y-225857142D02*
X201047619Y-225285714D01*
X201047619Y-225571428D02*
X202047619Y-225571428D01*
X201904761Y-225476190D01*
X201809523Y-225380952D01*
X201761904Y-225285714D01*
X201952380Y-226238095D02*
X202000000Y-226285714D01*
X202047619Y-226380952D01*
X202047619Y-226619047D01*
X202000000Y-226714285D01*
X201952380Y-226761904D01*
X201857142Y-226809523D01*
X201761904Y-226809523D01*
X201619047Y-226761904D01*
X201047619Y-226190476D01*
X201047619Y-226809523D01*
G04 #@! TO.C,SW22*
X315095238Y-223190476D02*
X315047619Y-223333333D01*
X315047619Y-223571428D01*
X315095238Y-223666666D01*
X315142857Y-223714285D01*
X315238095Y-223761904D01*
X315333333Y-223761904D01*
X315428571Y-223714285D01*
X315476190Y-223666666D01*
X315523809Y-223571428D01*
X315571428Y-223380952D01*
X315619047Y-223285714D01*
X315666666Y-223238095D01*
X315761904Y-223190476D01*
X315857142Y-223190476D01*
X315952380Y-223238095D01*
X316000000Y-223285714D01*
X316047619Y-223380952D01*
X316047619Y-223619047D01*
X316000000Y-223761904D01*
X316047619Y-224095238D02*
X315047619Y-224333333D01*
X315761904Y-224523809D01*
X315047619Y-224714285D01*
X316047619Y-224952380D01*
X315952380Y-225285714D02*
X316000000Y-225333333D01*
X316047619Y-225428571D01*
X316047619Y-225666666D01*
X316000000Y-225761904D01*
X315952380Y-225809523D01*
X315857142Y-225857142D01*
X315761904Y-225857142D01*
X315619047Y-225809523D01*
X315047619Y-225238095D01*
X315047619Y-225857142D01*
X315952380Y-226238095D02*
X316000000Y-226285714D01*
X316047619Y-226380952D01*
X316047619Y-226619047D01*
X316000000Y-226714285D01*
X315952380Y-226761904D01*
X315857142Y-226809523D01*
X315761904Y-226809523D01*
X315619047Y-226761904D01*
X315047619Y-226190476D01*
X315047619Y-226809523D01*
G04 #@! TO.C,SW4*
X100466666Y-192904761D02*
X100609523Y-192952380D01*
X100847619Y-192952380D01*
X100942857Y-192904761D01*
X100990476Y-192857142D01*
X101038095Y-192761904D01*
X101038095Y-192666666D01*
X100990476Y-192571428D01*
X100942857Y-192523809D01*
X100847619Y-192476190D01*
X100657142Y-192428571D01*
X100561904Y-192380952D01*
X100514285Y-192333333D01*
X100466666Y-192238095D01*
X100466666Y-192142857D01*
X100514285Y-192047619D01*
X100561904Y-192000000D01*
X100657142Y-191952380D01*
X100895238Y-191952380D01*
X101038095Y-192000000D01*
X101371428Y-191952380D02*
X101609523Y-192952380D01*
X101800000Y-192238095D01*
X101990476Y-192952380D01*
X102228571Y-191952380D01*
X103038095Y-192285714D02*
X103038095Y-192952380D01*
X102800000Y-191904761D02*
X102561904Y-192619047D01*
X103180952Y-192619047D01*
G04 #@! TO.C,SW3*
X106095238Y-223666666D02*
X106047619Y-223809523D01*
X106047619Y-224047619D01*
X106095238Y-224142857D01*
X106142857Y-224190476D01*
X106238095Y-224238095D01*
X106333333Y-224238095D01*
X106428571Y-224190476D01*
X106476190Y-224142857D01*
X106523809Y-224047619D01*
X106571428Y-223857142D01*
X106619047Y-223761904D01*
X106666666Y-223714285D01*
X106761904Y-223666666D01*
X106857142Y-223666666D01*
X106952380Y-223714285D01*
X107000000Y-223761904D01*
X107047619Y-223857142D01*
X107047619Y-224095238D01*
X107000000Y-224238095D01*
X107047619Y-224571428D02*
X106047619Y-224809523D01*
X106761904Y-225000000D01*
X106047619Y-225190476D01*
X107047619Y-225428571D01*
X107047619Y-225714285D02*
X107047619Y-226333333D01*
X106666666Y-226000000D01*
X106666666Y-226142857D01*
X106619047Y-226238095D01*
X106571428Y-226285714D01*
X106476190Y-226333333D01*
X106238095Y-226333333D01*
X106142857Y-226285714D01*
X106095238Y-226238095D01*
X106047619Y-226142857D01*
X106047619Y-225857142D01*
X106095238Y-225761904D01*
X106142857Y-225714285D01*
G04 #@! TO.C,SW19*
X270990476Y-192904761D02*
X271133333Y-192952380D01*
X271371428Y-192952380D01*
X271466666Y-192904761D01*
X271514285Y-192857142D01*
X271561904Y-192761904D01*
X271561904Y-192666666D01*
X271514285Y-192571428D01*
X271466666Y-192523809D01*
X271371428Y-192476190D01*
X271180952Y-192428571D01*
X271085714Y-192380952D01*
X271038095Y-192333333D01*
X270990476Y-192238095D01*
X270990476Y-192142857D01*
X271038095Y-192047619D01*
X271085714Y-192000000D01*
X271180952Y-191952380D01*
X271419047Y-191952380D01*
X271561904Y-192000000D01*
X271895238Y-191952380D02*
X272133333Y-192952380D01*
X272323809Y-192238095D01*
X272514285Y-192952380D01*
X272752380Y-191952380D01*
X273657142Y-192952380D02*
X273085714Y-192952380D01*
X273371428Y-192952380D02*
X273371428Y-191952380D01*
X273276190Y-192095238D01*
X273180952Y-192190476D01*
X273085714Y-192238095D01*
X274133333Y-192952380D02*
X274323809Y-192952380D01*
X274419047Y-192904761D01*
X274466666Y-192857142D01*
X274561904Y-192714285D01*
X274609523Y-192523809D01*
X274609523Y-192142857D01*
X274561904Y-192047619D01*
X274514285Y-192000000D01*
X274419047Y-191952380D01*
X274228571Y-191952380D01*
X274133333Y-192000000D01*
X274085714Y-192047619D01*
X274038095Y-192142857D01*
X274038095Y-192380952D01*
X274085714Y-192476190D01*
X274133333Y-192523809D01*
X274228571Y-192571428D01*
X274419047Y-192571428D01*
X274514285Y-192523809D01*
X274561904Y-192476190D01*
X274609523Y-192380952D01*
G04 #@! TO.C,*
G04 #@! TO.C,J8*
X41666666Y-154452380D02*
X41666666Y-155166666D01*
X41619047Y-155309523D01*
X41523809Y-155404761D01*
X41380952Y-155452380D01*
X41285714Y-155452380D01*
X42285714Y-154880952D02*
X42190476Y-154833333D01*
X42142857Y-154785714D01*
X42095238Y-154690476D01*
X42095238Y-154642857D01*
X42142857Y-154547619D01*
X42190476Y-154500000D01*
X42285714Y-154452380D01*
X42476190Y-154452380D01*
X42571428Y-154500000D01*
X42619047Y-154547619D01*
X42666666Y-154642857D01*
X42666666Y-154690476D01*
X42619047Y-154785714D01*
X42571428Y-154833333D01*
X42476190Y-154880952D01*
X42285714Y-154880952D01*
X42190476Y-154928571D01*
X42142857Y-154976190D01*
X42095238Y-155071428D01*
X42095238Y-155261904D01*
X42142857Y-155357142D01*
X42190476Y-155404761D01*
X42285714Y-155452380D01*
X42476190Y-155452380D01*
X42571428Y-155404761D01*
X42619047Y-155357142D01*
X42666666Y-155261904D01*
X42666666Y-155071428D01*
X42619047Y-154976190D01*
X42571428Y-154928571D01*
X42476190Y-154880952D01*
G04 #@! TO.C,R14*
X344057142Y-141052380D02*
X343723809Y-140576190D01*
X343485714Y-141052380D02*
X343485714Y-140052380D01*
X343866666Y-140052380D01*
X343961904Y-140100000D01*
X344009523Y-140147619D01*
X344057142Y-140242857D01*
X344057142Y-140385714D01*
X344009523Y-140480952D01*
X343961904Y-140528571D01*
X343866666Y-140576190D01*
X343485714Y-140576190D01*
X345009523Y-141052380D02*
X344438095Y-141052380D01*
X344723809Y-141052380D02*
X344723809Y-140052380D01*
X344628571Y-140195238D01*
X344533333Y-140290476D01*
X344438095Y-140338095D01*
X345866666Y-140385714D02*
X345866666Y-141052380D01*
X345628571Y-140004761D02*
X345390476Y-140719047D01*
X346009523Y-140719047D01*
G04 #@! TO.C,BAR2*
X72666666Y-187928571D02*
X72809523Y-187976190D01*
X72857142Y-188023809D01*
X72904761Y-188119047D01*
X72904761Y-188261904D01*
X72857142Y-188357142D01*
X72809523Y-188404761D01*
X72714285Y-188452380D01*
X72333333Y-188452380D01*
X72333333Y-187452380D01*
X72666666Y-187452380D01*
X72761904Y-187500000D01*
X72809523Y-187547619D01*
X72857142Y-187642857D01*
X72857142Y-187738095D01*
X72809523Y-187833333D01*
X72761904Y-187880952D01*
X72666666Y-187928571D01*
X72333333Y-187928571D01*
X73285714Y-188166666D02*
X73761904Y-188166666D01*
X73190476Y-188452380D02*
X73523809Y-187452380D01*
X73857142Y-188452380D01*
X74761904Y-188452380D02*
X74428571Y-187976190D01*
X74190476Y-188452380D02*
X74190476Y-187452380D01*
X74571428Y-187452380D01*
X74666666Y-187500000D01*
X74714285Y-187547619D01*
X74761904Y-187642857D01*
X74761904Y-187785714D01*
X74714285Y-187880952D01*
X74666666Y-187928571D01*
X74571428Y-187976190D01*
X74190476Y-187976190D01*
X75142857Y-187547619D02*
X75190476Y-187500000D01*
X75285714Y-187452380D01*
X75523809Y-187452380D01*
X75619047Y-187500000D01*
X75666666Y-187547619D01*
X75714285Y-187642857D01*
X75714285Y-187738095D01*
X75666666Y-187880952D01*
X75095238Y-188452380D01*
X75714285Y-188452380D01*
G04 #@! TO.C,SW10*
X182095238Y-223190476D02*
X182047619Y-223333333D01*
X182047619Y-223571428D01*
X182095238Y-223666666D01*
X182142857Y-223714285D01*
X182238095Y-223761904D01*
X182333333Y-223761904D01*
X182428571Y-223714285D01*
X182476190Y-223666666D01*
X182523809Y-223571428D01*
X182571428Y-223380952D01*
X182619047Y-223285714D01*
X182666666Y-223238095D01*
X182761904Y-223190476D01*
X182857142Y-223190476D01*
X182952380Y-223238095D01*
X183000000Y-223285714D01*
X183047619Y-223380952D01*
X183047619Y-223619047D01*
X183000000Y-223761904D01*
X183047619Y-224095238D02*
X182047619Y-224333333D01*
X182761904Y-224523809D01*
X182047619Y-224714285D01*
X183047619Y-224952380D01*
X182047619Y-225857142D02*
X182047619Y-225285714D01*
X182047619Y-225571428D02*
X183047619Y-225571428D01*
X182904761Y-225476190D01*
X182809523Y-225380952D01*
X182761904Y-225285714D01*
X183047619Y-226476190D02*
X183047619Y-226571428D01*
X183000000Y-226666666D01*
X182952380Y-226714285D01*
X182857142Y-226761904D01*
X182666666Y-226809523D01*
X182428571Y-226809523D01*
X182238095Y-226761904D01*
X182142857Y-226714285D01*
X182095238Y-226666666D01*
X182047619Y-226571428D01*
X182047619Y-226476190D01*
X182095238Y-226380952D01*
X182142857Y-226333333D01*
X182238095Y-226285714D01*
X182428571Y-226238095D01*
X182666666Y-226238095D01*
X182857142Y-226285714D01*
X182952380Y-226333333D01*
X183000000Y-226380952D01*
X183047619Y-226476190D01*
G04 #@! TO.C,*
G04 #@! TO.C,SW7*
X138466666Y-192904761D02*
X138609523Y-192952380D01*
X138847619Y-192952380D01*
X138942857Y-192904761D01*
X138990476Y-192857142D01*
X139038095Y-192761904D01*
X139038095Y-192666666D01*
X138990476Y-192571428D01*
X138942857Y-192523809D01*
X138847619Y-192476190D01*
X138657142Y-192428571D01*
X138561904Y-192380952D01*
X138514285Y-192333333D01*
X138466666Y-192238095D01*
X138466666Y-192142857D01*
X138514285Y-192047619D01*
X138561904Y-192000000D01*
X138657142Y-191952380D01*
X138895238Y-191952380D01*
X139038095Y-192000000D01*
X139371428Y-191952380D02*
X139609523Y-192952380D01*
X139800000Y-192238095D01*
X139990476Y-192952380D01*
X140228571Y-191952380D01*
X140514285Y-191952380D02*
X141180952Y-191952380D01*
X140752380Y-192952380D01*
G04 #@! TO.C,SW11*
X175990476Y-192904761D02*
X176133333Y-192952380D01*
X176371428Y-192952380D01*
X176466666Y-192904761D01*
X176514285Y-192857142D01*
X176561904Y-192761904D01*
X176561904Y-192666666D01*
X176514285Y-192571428D01*
X176466666Y-192523809D01*
X176371428Y-192476190D01*
X176180952Y-192428571D01*
X176085714Y-192380952D01*
X176038095Y-192333333D01*
X175990476Y-192238095D01*
X175990476Y-192142857D01*
X176038095Y-192047619D01*
X176085714Y-192000000D01*
X176180952Y-191952380D01*
X176419047Y-191952380D01*
X176561904Y-192000000D01*
X176895238Y-191952380D02*
X177133333Y-192952380D01*
X177323809Y-192238095D01*
X177514285Y-192952380D01*
X177752380Y-191952380D01*
X178657142Y-192952380D02*
X178085714Y-192952380D01*
X178371428Y-192952380D02*
X178371428Y-191952380D01*
X178276190Y-192095238D01*
X178180952Y-192190476D01*
X178085714Y-192238095D01*
X179609523Y-192952380D02*
X179038095Y-192952380D01*
X179323809Y-192952380D02*
X179323809Y-191952380D01*
X179228571Y-192095238D01*
X179133333Y-192190476D01*
X179038095Y-192238095D01*
G04 #@! TO.C,SW2*
X81466666Y-192904761D02*
X81609523Y-192952380D01*
X81847619Y-192952380D01*
X81942857Y-192904761D01*
X81990476Y-192857142D01*
X82038095Y-192761904D01*
X82038095Y-192666666D01*
X81990476Y-192571428D01*
X81942857Y-192523809D01*
X81847619Y-192476190D01*
X81657142Y-192428571D01*
X81561904Y-192380952D01*
X81514285Y-192333333D01*
X81466666Y-192238095D01*
X81466666Y-192142857D01*
X81514285Y-192047619D01*
X81561904Y-192000000D01*
X81657142Y-191952380D01*
X81895238Y-191952380D01*
X82038095Y-192000000D01*
X82371428Y-191952380D02*
X82609523Y-192952380D01*
X82800000Y-192238095D01*
X82990476Y-192952380D01*
X83228571Y-191952380D01*
X83561904Y-192047619D02*
X83609523Y-192000000D01*
X83704761Y-191952380D01*
X83942857Y-191952380D01*
X84038095Y-192000000D01*
X84085714Y-192047619D01*
X84133333Y-192142857D01*
X84133333Y-192238095D01*
X84085714Y-192380952D01*
X83514285Y-192952380D01*
X84133333Y-192952380D01*
G04 #@! TO.C,J10*
X41190476Y-180452380D02*
X41190476Y-181166666D01*
X41142857Y-181309523D01*
X41047619Y-181404761D01*
X40904761Y-181452380D01*
X40809523Y-181452380D01*
X42190476Y-181452380D02*
X41619047Y-181452380D01*
X41904761Y-181452380D02*
X41904761Y-180452380D01*
X41809523Y-180595238D01*
X41714285Y-180690476D01*
X41619047Y-180738095D01*
X42809523Y-180452380D02*
X42904761Y-180452380D01*
X43000000Y-180500000D01*
X43047619Y-180547619D01*
X43095238Y-180642857D01*
X43142857Y-180833333D01*
X43142857Y-181071428D01*
X43095238Y-181261904D01*
X43047619Y-181357142D01*
X43000000Y-181404761D01*
X42904761Y-181452380D01*
X42809523Y-181452380D01*
X42714285Y-181404761D01*
X42666666Y-181357142D01*
X42619047Y-181261904D01*
X42571428Y-181071428D01*
X42571428Y-180833333D01*
X42619047Y-180642857D01*
X42666666Y-180547619D01*
X42714285Y-180500000D01*
X42809523Y-180452380D01*
G04 #@! TO.C,*
G04 #@! TO.C,U1*
X261738095Y-134952380D02*
X261738095Y-135761904D01*
X261785714Y-135857142D01*
X261833333Y-135904761D01*
X261928571Y-135952380D01*
X262119047Y-135952380D01*
X262214285Y-135904761D01*
X262261904Y-135857142D01*
X262309523Y-135761904D01*
X262309523Y-134952380D01*
X263309523Y-135952380D02*
X262738095Y-135952380D01*
X263023809Y-135952380D02*
X263023809Y-134952380D01*
X262928571Y-135095238D01*
X262833333Y-135190476D01*
X262738095Y-135238095D01*
G04 #@! TO.C,SW5*
X125095238Y-223666666D02*
X125047619Y-223809523D01*
X125047619Y-224047619D01*
X125095238Y-224142857D01*
X125142857Y-224190476D01*
X125238095Y-224238095D01*
X125333333Y-224238095D01*
X125428571Y-224190476D01*
X125476190Y-224142857D01*
X125523809Y-224047619D01*
X125571428Y-223857142D01*
X125619047Y-223761904D01*
X125666666Y-223714285D01*
X125761904Y-223666666D01*
X125857142Y-223666666D01*
X125952380Y-223714285D01*
X126000000Y-223761904D01*
X126047619Y-223857142D01*
X126047619Y-224095238D01*
X126000000Y-224238095D01*
X126047619Y-224571428D02*
X125047619Y-224809523D01*
X125761904Y-225000000D01*
X125047619Y-225190476D01*
X126047619Y-225428571D01*
X126047619Y-226285714D02*
X126047619Y-225809523D01*
X125571428Y-225761904D01*
X125619047Y-225809523D01*
X125666666Y-225904761D01*
X125666666Y-226142857D01*
X125619047Y-226238095D01*
X125571428Y-226285714D01*
X125476190Y-226333333D01*
X125238095Y-226333333D01*
X125142857Y-226285714D01*
X125095238Y-226238095D01*
X125047619Y-226142857D01*
X125047619Y-225904761D01*
X125095238Y-225809523D01*
X125142857Y-225761904D01*
G04 #@! TO.C,R13*
X344057142Y-137502380D02*
X343723809Y-137026190D01*
X343485714Y-137502380D02*
X343485714Y-136502380D01*
X343866666Y-136502380D01*
X343961904Y-136550000D01*
X344009523Y-136597619D01*
X344057142Y-136692857D01*
X344057142Y-136835714D01*
X344009523Y-136930952D01*
X343961904Y-136978571D01*
X343866666Y-137026190D01*
X343485714Y-137026190D01*
X345009523Y-137502380D02*
X344438095Y-137502380D01*
X344723809Y-137502380D02*
X344723809Y-136502380D01*
X344628571Y-136645238D01*
X344533333Y-136740476D01*
X344438095Y-136788095D01*
X345342857Y-136502380D02*
X345961904Y-136502380D01*
X345628571Y-136883333D01*
X345771428Y-136883333D01*
X345866666Y-136930952D01*
X345914285Y-136978571D01*
X345961904Y-137073809D01*
X345961904Y-137311904D01*
X345914285Y-137407142D01*
X345866666Y-137454761D01*
X345771428Y-137502380D01*
X345485714Y-137502380D01*
X345390476Y-137454761D01*
X345342857Y-137407142D01*
G04 #@! TO.C,SW25*
X353095238Y-223190476D02*
X353047619Y-223333333D01*
X353047619Y-223571428D01*
X353095238Y-223666666D01*
X353142857Y-223714285D01*
X353238095Y-223761904D01*
X353333333Y-223761904D01*
X353428571Y-223714285D01*
X353476190Y-223666666D01*
X353523809Y-223571428D01*
X353571428Y-223380952D01*
X353619047Y-223285714D01*
X353666666Y-223238095D01*
X353761904Y-223190476D01*
X353857142Y-223190476D01*
X353952380Y-223238095D01*
X354000000Y-223285714D01*
X354047619Y-223380952D01*
X354047619Y-223619047D01*
X354000000Y-223761904D01*
X354047619Y-224095238D02*
X353047619Y-224333333D01*
X353761904Y-224523809D01*
X353047619Y-224714285D01*
X354047619Y-224952380D01*
X353952380Y-225285714D02*
X354000000Y-225333333D01*
X354047619Y-225428571D01*
X354047619Y-225666666D01*
X354000000Y-225761904D01*
X353952380Y-225809523D01*
X353857142Y-225857142D01*
X353761904Y-225857142D01*
X353619047Y-225809523D01*
X353047619Y-225238095D01*
X353047619Y-225857142D01*
X354047619Y-226761904D02*
X354047619Y-226285714D01*
X353571428Y-226238095D01*
X353619047Y-226285714D01*
X353666666Y-226380952D01*
X353666666Y-226619047D01*
X353619047Y-226714285D01*
X353571428Y-226761904D01*
X353476190Y-226809523D01*
X353238095Y-226809523D01*
X353142857Y-226761904D01*
X353095238Y-226714285D01*
X353047619Y-226619047D01*
X353047619Y-226380952D01*
X353095238Y-226285714D01*
X353142857Y-226238095D01*
G04 #@! TO.C,SW20*
X296095238Y-223190476D02*
X296047619Y-223333333D01*
X296047619Y-223571428D01*
X296095238Y-223666666D01*
X296142857Y-223714285D01*
X296238095Y-223761904D01*
X296333333Y-223761904D01*
X296428571Y-223714285D01*
X296476190Y-223666666D01*
X296523809Y-223571428D01*
X296571428Y-223380952D01*
X296619047Y-223285714D01*
X296666666Y-223238095D01*
X296761904Y-223190476D01*
X296857142Y-223190476D01*
X296952380Y-223238095D01*
X297000000Y-223285714D01*
X297047619Y-223380952D01*
X297047619Y-223619047D01*
X297000000Y-223761904D01*
X297047619Y-224095238D02*
X296047619Y-224333333D01*
X296761904Y-224523809D01*
X296047619Y-224714285D01*
X297047619Y-224952380D01*
X296952380Y-225285714D02*
X297000000Y-225333333D01*
X297047619Y-225428571D01*
X297047619Y-225666666D01*
X297000000Y-225761904D01*
X296952380Y-225809523D01*
X296857142Y-225857142D01*
X296761904Y-225857142D01*
X296619047Y-225809523D01*
X296047619Y-225238095D01*
X296047619Y-225857142D01*
X297047619Y-226476190D02*
X297047619Y-226571428D01*
X297000000Y-226666666D01*
X296952380Y-226714285D01*
X296857142Y-226761904D01*
X296666666Y-226809523D01*
X296428571Y-226809523D01*
X296238095Y-226761904D01*
X296142857Y-226714285D01*
X296095238Y-226666666D01*
X296047619Y-226571428D01*
X296047619Y-226476190D01*
X296095238Y-226380952D01*
X296142857Y-226333333D01*
X296238095Y-226285714D01*
X296428571Y-226238095D01*
X296666666Y-226238095D01*
X296857142Y-226285714D01*
X296952380Y-226333333D01*
X297000000Y-226380952D01*
X297047619Y-226476190D01*
G04 #@! TO.C,*
G04 #@! TO.C,R16*
X328107142Y-169132380D02*
X327773809Y-168656190D01*
X327535714Y-169132380D02*
X327535714Y-168132380D01*
X327916666Y-168132380D01*
X328011904Y-168180000D01*
X328059523Y-168227619D01*
X328107142Y-168322857D01*
X328107142Y-168465714D01*
X328059523Y-168560952D01*
X328011904Y-168608571D01*
X327916666Y-168656190D01*
X327535714Y-168656190D01*
X329059523Y-169132380D02*
X328488095Y-169132380D01*
X328773809Y-169132380D02*
X328773809Y-168132380D01*
X328678571Y-168275238D01*
X328583333Y-168370476D01*
X328488095Y-168418095D01*
X329916666Y-168132380D02*
X329726190Y-168132380D01*
X329630952Y-168180000D01*
X329583333Y-168227619D01*
X329488095Y-168370476D01*
X329440476Y-168560952D01*
X329440476Y-168941904D01*
X329488095Y-169037142D01*
X329535714Y-169084761D01*
X329630952Y-169132380D01*
X329821428Y-169132380D01*
X329916666Y-169084761D01*
X329964285Y-169037142D01*
X330011904Y-168941904D01*
X330011904Y-168703809D01*
X329964285Y-168608571D01*
X329916666Y-168560952D01*
X329821428Y-168513333D01*
X329630952Y-168513333D01*
X329535714Y-168560952D01*
X329488095Y-168608571D01*
X329440476Y-168703809D01*
G04 #@! TO.C,SW6*
X144095238Y-223666666D02*
X144047619Y-223809523D01*
X144047619Y-224047619D01*
X144095238Y-224142857D01*
X144142857Y-224190476D01*
X144238095Y-224238095D01*
X144333333Y-224238095D01*
X144428571Y-224190476D01*
X144476190Y-224142857D01*
X144523809Y-224047619D01*
X144571428Y-223857142D01*
X144619047Y-223761904D01*
X144666666Y-223714285D01*
X144761904Y-223666666D01*
X144857142Y-223666666D01*
X144952380Y-223714285D01*
X145000000Y-223761904D01*
X145047619Y-223857142D01*
X145047619Y-224095238D01*
X145000000Y-224238095D01*
X145047619Y-224571428D02*
X144047619Y-224809523D01*
X144761904Y-225000000D01*
X144047619Y-225190476D01*
X145047619Y-225428571D01*
X145047619Y-226238095D02*
X145047619Y-226047619D01*
X145000000Y-225952380D01*
X144952380Y-225904761D01*
X144809523Y-225809523D01*
X144619047Y-225761904D01*
X144238095Y-225761904D01*
X144142857Y-225809523D01*
X144095238Y-225857142D01*
X144047619Y-225952380D01*
X144047619Y-226142857D01*
X144095238Y-226238095D01*
X144142857Y-226285714D01*
X144238095Y-226333333D01*
X144476190Y-226333333D01*
X144571428Y-226285714D01*
X144619047Y-226238095D01*
X144666666Y-226142857D01*
X144666666Y-225952380D01*
X144619047Y-225857142D01*
X144571428Y-225809523D01*
X144476190Y-225761904D01*
G04 #@! TO.C,SW15*
X239095238Y-223190476D02*
X239047619Y-223333333D01*
X239047619Y-223571428D01*
X239095238Y-223666666D01*
X239142857Y-223714285D01*
X239238095Y-223761904D01*
X239333333Y-223761904D01*
X239428571Y-223714285D01*
X239476190Y-223666666D01*
X239523809Y-223571428D01*
X239571428Y-223380952D01*
X239619047Y-223285714D01*
X239666666Y-223238095D01*
X239761904Y-223190476D01*
X239857142Y-223190476D01*
X239952380Y-223238095D01*
X240000000Y-223285714D01*
X240047619Y-223380952D01*
X240047619Y-223619047D01*
X240000000Y-223761904D01*
X240047619Y-224095238D02*
X239047619Y-224333333D01*
X239761904Y-224523809D01*
X239047619Y-224714285D01*
X240047619Y-224952380D01*
X239047619Y-225857142D02*
X239047619Y-225285714D01*
X239047619Y-225571428D02*
X240047619Y-225571428D01*
X239904761Y-225476190D01*
X239809523Y-225380952D01*
X239761904Y-225285714D01*
X240047619Y-226761904D02*
X240047619Y-226285714D01*
X239571428Y-226238095D01*
X239619047Y-226285714D01*
X239666666Y-226380952D01*
X239666666Y-226619047D01*
X239619047Y-226714285D01*
X239571428Y-226761904D01*
X239476190Y-226809523D01*
X239238095Y-226809523D01*
X239142857Y-226761904D01*
X239095238Y-226714285D01*
X239047619Y-226619047D01*
X239047619Y-226380952D01*
X239095238Y-226285714D01*
X239142857Y-226238095D01*
G04 #@! TO.C,SW16*
X232990476Y-192904761D02*
X233133333Y-192952380D01*
X233371428Y-192952380D01*
X233466666Y-192904761D01*
X233514285Y-192857142D01*
X233561904Y-192761904D01*
X233561904Y-192666666D01*
X233514285Y-192571428D01*
X233466666Y-192523809D01*
X233371428Y-192476190D01*
X233180952Y-192428571D01*
X233085714Y-192380952D01*
X233038095Y-192333333D01*
X232990476Y-192238095D01*
X232990476Y-192142857D01*
X233038095Y-192047619D01*
X233085714Y-192000000D01*
X233180952Y-191952380D01*
X233419047Y-191952380D01*
X233561904Y-192000000D01*
X233895238Y-191952380D02*
X234133333Y-192952380D01*
X234323809Y-192238095D01*
X234514285Y-192952380D01*
X234752380Y-191952380D01*
X235657142Y-192952380D02*
X235085714Y-192952380D01*
X235371428Y-192952380D02*
X235371428Y-191952380D01*
X235276190Y-192095238D01*
X235180952Y-192190476D01*
X235085714Y-192238095D01*
X236514285Y-191952380D02*
X236323809Y-191952380D01*
X236228571Y-192000000D01*
X236180952Y-192047619D01*
X236085714Y-192190476D01*
X236038095Y-192380952D01*
X236038095Y-192761904D01*
X236085714Y-192857142D01*
X236133333Y-192904761D01*
X236228571Y-192952380D01*
X236419047Y-192952380D01*
X236514285Y-192904761D01*
X236561904Y-192857142D01*
X236609523Y-192761904D01*
X236609523Y-192523809D01*
X236561904Y-192428571D01*
X236514285Y-192380952D01*
X236419047Y-192333333D01*
X236228571Y-192333333D01*
X236133333Y-192380952D01*
X236085714Y-192428571D01*
X236038095Y-192523809D01*
G04 #@! TO.C,R37*
X256607142Y-204952380D02*
X256273809Y-204476190D01*
X256035714Y-204952380D02*
X256035714Y-203952380D01*
X256416666Y-203952380D01*
X256511904Y-204000000D01*
X256559523Y-204047619D01*
X256607142Y-204142857D01*
X256607142Y-204285714D01*
X256559523Y-204380952D01*
X256511904Y-204428571D01*
X256416666Y-204476190D01*
X256035714Y-204476190D01*
X256940476Y-203952380D02*
X257559523Y-203952380D01*
X257226190Y-204333333D01*
X257369047Y-204333333D01*
X257464285Y-204380952D01*
X257511904Y-204428571D01*
X257559523Y-204523809D01*
X257559523Y-204761904D01*
X257511904Y-204857142D01*
X257464285Y-204904761D01*
X257369047Y-204952380D01*
X257083333Y-204952380D01*
X256988095Y-204904761D01*
X256940476Y-204857142D01*
X257892857Y-203952380D02*
X258559523Y-203952380D01*
X258130952Y-204952380D01*
G04 #@! TO.C,R17*
X328107142Y-174202380D02*
X327773809Y-173726190D01*
X327535714Y-174202380D02*
X327535714Y-173202380D01*
X327916666Y-173202380D01*
X328011904Y-173250000D01*
X328059523Y-173297619D01*
X328107142Y-173392857D01*
X328107142Y-173535714D01*
X328059523Y-173630952D01*
X328011904Y-173678571D01*
X327916666Y-173726190D01*
X327535714Y-173726190D01*
X329059523Y-174202380D02*
X328488095Y-174202380D01*
X328773809Y-174202380D02*
X328773809Y-173202380D01*
X328678571Y-173345238D01*
X328583333Y-173440476D01*
X328488095Y-173488095D01*
X329392857Y-173202380D02*
X330059523Y-173202380D01*
X329630952Y-174202380D01*
G04 #@! TO.C,R36*
X256607142Y-199452380D02*
X256273809Y-198976190D01*
X256035714Y-199452380D02*
X256035714Y-198452380D01*
X256416666Y-198452380D01*
X256511904Y-198500000D01*
X256559523Y-198547619D01*
X256607142Y-198642857D01*
X256607142Y-198785714D01*
X256559523Y-198880952D01*
X256511904Y-198928571D01*
X256416666Y-198976190D01*
X256035714Y-198976190D01*
X256940476Y-198452380D02*
X257559523Y-198452380D01*
X257226190Y-198833333D01*
X257369047Y-198833333D01*
X257464285Y-198880952D01*
X257511904Y-198928571D01*
X257559523Y-199023809D01*
X257559523Y-199261904D01*
X257511904Y-199357142D01*
X257464285Y-199404761D01*
X257369047Y-199452380D01*
X257083333Y-199452380D01*
X256988095Y-199404761D01*
X256940476Y-199357142D01*
X258416666Y-198452380D02*
X258226190Y-198452380D01*
X258130952Y-198500000D01*
X258083333Y-198547619D01*
X257988095Y-198690476D01*
X257940476Y-198880952D01*
X257940476Y-199261904D01*
X257988095Y-199357142D01*
X258035714Y-199404761D01*
X258130952Y-199452380D01*
X258321428Y-199452380D01*
X258416666Y-199404761D01*
X258464285Y-199357142D01*
X258511904Y-199261904D01*
X258511904Y-199023809D01*
X258464285Y-198928571D01*
X258416666Y-198880952D01*
X258321428Y-198833333D01*
X258130952Y-198833333D01*
X258035714Y-198880952D01*
X257988095Y-198928571D01*
X257940476Y-199023809D01*
G04 #@! TO.C,BAR1*
X72666666Y-198678571D02*
X72809523Y-198726190D01*
X72857142Y-198773809D01*
X72904761Y-198869047D01*
X72904761Y-199011904D01*
X72857142Y-199107142D01*
X72809523Y-199154761D01*
X72714285Y-199202380D01*
X72333333Y-199202380D01*
X72333333Y-198202380D01*
X72666666Y-198202380D01*
X72761904Y-198250000D01*
X72809523Y-198297619D01*
X72857142Y-198392857D01*
X72857142Y-198488095D01*
X72809523Y-198583333D01*
X72761904Y-198630952D01*
X72666666Y-198678571D01*
X72333333Y-198678571D01*
X73285714Y-198916666D02*
X73761904Y-198916666D01*
X73190476Y-199202380D02*
X73523809Y-198202380D01*
X73857142Y-199202380D01*
X74761904Y-199202380D02*
X74428571Y-198726190D01*
X74190476Y-199202380D02*
X74190476Y-198202380D01*
X74571428Y-198202380D01*
X74666666Y-198250000D01*
X74714285Y-198297619D01*
X74761904Y-198392857D01*
X74761904Y-198535714D01*
X74714285Y-198630952D01*
X74666666Y-198678571D01*
X74571428Y-198726190D01*
X74190476Y-198726190D01*
X75714285Y-199202380D02*
X75142857Y-199202380D01*
X75428571Y-199202380D02*
X75428571Y-198202380D01*
X75333333Y-198345238D01*
X75238095Y-198440476D01*
X75142857Y-198488095D01*
G04 #@! TO.C,SW1*
X87095238Y-223666666D02*
X87047619Y-223809523D01*
X87047619Y-224047619D01*
X87095238Y-224142857D01*
X87142857Y-224190476D01*
X87238095Y-224238095D01*
X87333333Y-224238095D01*
X87428571Y-224190476D01*
X87476190Y-224142857D01*
X87523809Y-224047619D01*
X87571428Y-223857142D01*
X87619047Y-223761904D01*
X87666666Y-223714285D01*
X87761904Y-223666666D01*
X87857142Y-223666666D01*
X87952380Y-223714285D01*
X88000000Y-223761904D01*
X88047619Y-223857142D01*
X88047619Y-224095238D01*
X88000000Y-224238095D01*
X88047619Y-224571428D02*
X87047619Y-224809523D01*
X87761904Y-225000000D01*
X87047619Y-225190476D01*
X88047619Y-225428571D01*
X87047619Y-226333333D02*
X87047619Y-225761904D01*
X87047619Y-226047619D02*
X88047619Y-226047619D01*
X87904761Y-225952380D01*
X87809523Y-225857142D01*
X87761904Y-225761904D01*
G04 #@! TO.C,SW24*
X334095238Y-223190476D02*
X334047619Y-223333333D01*
X334047619Y-223571428D01*
X334095238Y-223666666D01*
X334142857Y-223714285D01*
X334238095Y-223761904D01*
X334333333Y-223761904D01*
X334428571Y-223714285D01*
X334476190Y-223666666D01*
X334523809Y-223571428D01*
X334571428Y-223380952D01*
X334619047Y-223285714D01*
X334666666Y-223238095D01*
X334761904Y-223190476D01*
X334857142Y-223190476D01*
X334952380Y-223238095D01*
X335000000Y-223285714D01*
X335047619Y-223380952D01*
X335047619Y-223619047D01*
X335000000Y-223761904D01*
X335047619Y-224095238D02*
X334047619Y-224333333D01*
X334761904Y-224523809D01*
X334047619Y-224714285D01*
X335047619Y-224952380D01*
X334952380Y-225285714D02*
X335000000Y-225333333D01*
X335047619Y-225428571D01*
X335047619Y-225666666D01*
X335000000Y-225761904D01*
X334952380Y-225809523D01*
X334857142Y-225857142D01*
X334761904Y-225857142D01*
X334619047Y-225809523D01*
X334047619Y-225238095D01*
X334047619Y-225857142D01*
X334714285Y-226714285D02*
X334047619Y-226714285D01*
X335095238Y-226476190D02*
X334380952Y-226238095D01*
X334380952Y-226857142D01*
G04 #@! TO.C,D3*
X334572380Y-195938095D02*
X333572380Y-195938095D01*
X333572380Y-195700000D01*
X333620000Y-195557142D01*
X333715238Y-195461904D01*
X333810476Y-195414285D01*
X334000952Y-195366666D01*
X334143809Y-195366666D01*
X334334285Y-195414285D01*
X334429523Y-195461904D01*
X334524761Y-195557142D01*
X334572380Y-195700000D01*
X334572380Y-195938095D01*
X333572380Y-195033333D02*
X333572380Y-194414285D01*
X333953333Y-194747619D01*
X333953333Y-194604761D01*
X334000952Y-194509523D01*
X334048571Y-194461904D01*
X334143809Y-194414285D01*
X334381904Y-194414285D01*
X334477142Y-194461904D01*
X334524761Y-194509523D01*
X334572380Y-194604761D01*
X334572380Y-194890476D01*
X334524761Y-194985714D01*
X334477142Y-195033333D01*
G04 #@! TO.C,J4*
X99952380Y-134133333D02*
X100666666Y-134133333D01*
X100809523Y-134180952D01*
X100904761Y-134276190D01*
X100952380Y-134419047D01*
X100952380Y-134514285D01*
X100285714Y-133228571D02*
X100952380Y-133228571D01*
X99904761Y-133466666D02*
X100619047Y-133704761D01*
X100619047Y-133085714D01*
D11*
X102059523Y-146714285D02*
X102154761Y-146428571D01*
X102154761Y-145952380D01*
X102059523Y-145761904D01*
X101964285Y-145666666D01*
X101773809Y-145571428D01*
X101583333Y-145571428D01*
X101392857Y-145666666D01*
X101297619Y-145761904D01*
X101202380Y-145952380D01*
X101107142Y-146333333D01*
X101011904Y-146523809D01*
X100916666Y-146619047D01*
X100726190Y-146714285D01*
X100535714Y-146714285D01*
X100345238Y-146619047D01*
X100250000Y-146523809D01*
X100154761Y-146333333D01*
X100154761Y-145857142D01*
X100250000Y-145571428D01*
X100154761Y-144714285D02*
X101773809Y-144714285D01*
X101964285Y-144619047D01*
X102059523Y-144523809D01*
X102154761Y-144333333D01*
X102154761Y-143952380D01*
X102059523Y-143761904D01*
X101964285Y-143666666D01*
X101773809Y-143571428D01*
X100154761Y-143571428D01*
X102059523Y-142714285D02*
X102154761Y-142428571D01*
X102154761Y-141952380D01*
X102059523Y-141761904D01*
X101964285Y-141666666D01*
X101773809Y-141571428D01*
X101583333Y-141571428D01*
X101392857Y-141666666D01*
X101297619Y-141761904D01*
X101202380Y-141952380D01*
X101107142Y-142333333D01*
X101011904Y-142523809D01*
X100916666Y-142619047D01*
X100726190Y-142714285D01*
X100535714Y-142714285D01*
X100345238Y-142619047D01*
X100250000Y-142523809D01*
X100154761Y-142333333D01*
X100154761Y-141857142D01*
X100250000Y-141571428D01*
X100154761Y-141000000D02*
X100154761Y-139857142D01*
X102154761Y-140428571D02*
X100154761Y-140428571D01*
X101583333Y-139285714D02*
X101583333Y-138333333D01*
X102154761Y-139476190D02*
X100154761Y-138809523D01*
X102154761Y-138142857D01*
X102154761Y-137476190D02*
X100154761Y-137476190D01*
X102154761Y-136523809D02*
X100154761Y-136523809D01*
X102154761Y-135380952D01*
X100154761Y-135380952D01*
D10*
G04 #@! TO.C,SW14*
X213990476Y-192904761D02*
X214133333Y-192952380D01*
X214371428Y-192952380D01*
X214466666Y-192904761D01*
X214514285Y-192857142D01*
X214561904Y-192761904D01*
X214561904Y-192666666D01*
X214514285Y-192571428D01*
X214466666Y-192523809D01*
X214371428Y-192476190D01*
X214180952Y-192428571D01*
X214085714Y-192380952D01*
X214038095Y-192333333D01*
X213990476Y-192238095D01*
X213990476Y-192142857D01*
X214038095Y-192047619D01*
X214085714Y-192000000D01*
X214180952Y-191952380D01*
X214419047Y-191952380D01*
X214561904Y-192000000D01*
X214895238Y-191952380D02*
X215133333Y-192952380D01*
X215323809Y-192238095D01*
X215514285Y-192952380D01*
X215752380Y-191952380D01*
X216657142Y-192952380D02*
X216085714Y-192952380D01*
X216371428Y-192952380D02*
X216371428Y-191952380D01*
X216276190Y-192095238D01*
X216180952Y-192190476D01*
X216085714Y-192238095D01*
X217514285Y-192285714D02*
X217514285Y-192952380D01*
X217276190Y-191904761D02*
X217038095Y-192619047D01*
X217657142Y-192619047D01*
G04 #@! TO.C,SW13*
X220095238Y-223190476D02*
X220047619Y-223333333D01*
X220047619Y-223571428D01*
X220095238Y-223666666D01*
X220142857Y-223714285D01*
X220238095Y-223761904D01*
X220333333Y-223761904D01*
X220428571Y-223714285D01*
X220476190Y-223666666D01*
X220523809Y-223571428D01*
X220571428Y-223380952D01*
X220619047Y-223285714D01*
X220666666Y-223238095D01*
X220761904Y-223190476D01*
X220857142Y-223190476D01*
X220952380Y-223238095D01*
X221000000Y-223285714D01*
X221047619Y-223380952D01*
X221047619Y-223619047D01*
X221000000Y-223761904D01*
X221047619Y-224095238D02*
X220047619Y-224333333D01*
X220761904Y-224523809D01*
X220047619Y-224714285D01*
X221047619Y-224952380D01*
X220047619Y-225857142D02*
X220047619Y-225285714D01*
X220047619Y-225571428D02*
X221047619Y-225571428D01*
X220904761Y-225476190D01*
X220809523Y-225380952D01*
X220761904Y-225285714D01*
X221047619Y-226190476D02*
X221047619Y-226809523D01*
X220666666Y-226476190D01*
X220666666Y-226619047D01*
X220619047Y-226714285D01*
X220571428Y-226761904D01*
X220476190Y-226809523D01*
X220238095Y-226809523D01*
X220142857Y-226761904D01*
X220095238Y-226714285D01*
X220047619Y-226619047D01*
X220047619Y-226333333D01*
X220095238Y-226238095D01*
X220142857Y-226190476D01*
G04 #@! TO.C,SW18*
X277095238Y-223190476D02*
X277047619Y-223333333D01*
X277047619Y-223571428D01*
X277095238Y-223666666D01*
X277142857Y-223714285D01*
X277238095Y-223761904D01*
X277333333Y-223761904D01*
X277428571Y-223714285D01*
X277476190Y-223666666D01*
X277523809Y-223571428D01*
X277571428Y-223380952D01*
X277619047Y-223285714D01*
X277666666Y-223238095D01*
X277761904Y-223190476D01*
X277857142Y-223190476D01*
X277952380Y-223238095D01*
X278000000Y-223285714D01*
X278047619Y-223380952D01*
X278047619Y-223619047D01*
X278000000Y-223761904D01*
X278047619Y-224095238D02*
X277047619Y-224333333D01*
X277761904Y-224523809D01*
X277047619Y-224714285D01*
X278047619Y-224952380D01*
X277047619Y-225857142D02*
X277047619Y-225285714D01*
X277047619Y-225571428D02*
X278047619Y-225571428D01*
X277904761Y-225476190D01*
X277809523Y-225380952D01*
X277761904Y-225285714D01*
X277619047Y-226428571D02*
X277666666Y-226333333D01*
X277714285Y-226285714D01*
X277809523Y-226238095D01*
X277857142Y-226238095D01*
X277952380Y-226285714D01*
X278000000Y-226333333D01*
X278047619Y-226428571D01*
X278047619Y-226619047D01*
X278000000Y-226714285D01*
X277952380Y-226761904D01*
X277857142Y-226809523D01*
X277809523Y-226809523D01*
X277714285Y-226761904D01*
X277666666Y-226714285D01*
X277619047Y-226619047D01*
X277619047Y-226428571D01*
X277571428Y-226333333D01*
X277523809Y-226285714D01*
X277428571Y-226238095D01*
X277238095Y-226238095D01*
X277142857Y-226285714D01*
X277095238Y-226333333D01*
X277047619Y-226428571D01*
X277047619Y-226619047D01*
X277095238Y-226714285D01*
X277142857Y-226761904D01*
X277238095Y-226809523D01*
X277428571Y-226809523D01*
X277523809Y-226761904D01*
X277571428Y-226714285D01*
X277619047Y-226619047D01*
G04 #@! TO.C,*
G04 #@! TO.C,SW23*
X308990476Y-192904761D02*
X309133333Y-192952380D01*
X309371428Y-192952380D01*
X309466666Y-192904761D01*
X309514285Y-192857142D01*
X309561904Y-192761904D01*
X309561904Y-192666666D01*
X309514285Y-192571428D01*
X309466666Y-192523809D01*
X309371428Y-192476190D01*
X309180952Y-192428571D01*
X309085714Y-192380952D01*
X309038095Y-192333333D01*
X308990476Y-192238095D01*
X308990476Y-192142857D01*
X309038095Y-192047619D01*
X309085714Y-192000000D01*
X309180952Y-191952380D01*
X309419047Y-191952380D01*
X309561904Y-192000000D01*
X309895238Y-191952380D02*
X310133333Y-192952380D01*
X310323809Y-192238095D01*
X310514285Y-192952380D01*
X310752380Y-191952380D01*
X311085714Y-192047619D02*
X311133333Y-192000000D01*
X311228571Y-191952380D01*
X311466666Y-191952380D01*
X311561904Y-192000000D01*
X311609523Y-192047619D01*
X311657142Y-192142857D01*
X311657142Y-192238095D01*
X311609523Y-192380952D01*
X311038095Y-192952380D01*
X311657142Y-192952380D01*
X311990476Y-191952380D02*
X312609523Y-191952380D01*
X312276190Y-192333333D01*
X312419047Y-192333333D01*
X312514285Y-192380952D01*
X312561904Y-192428571D01*
X312609523Y-192523809D01*
X312609523Y-192761904D01*
X312561904Y-192857142D01*
X312514285Y-192904761D01*
X312419047Y-192952380D01*
X312133333Y-192952380D01*
X312038095Y-192904761D01*
X311990476Y-192857142D01*
G04 #@! TO.C,J6*
X68452380Y-134033333D02*
X69166666Y-134033333D01*
X69309523Y-134080952D01*
X69404761Y-134176190D01*
X69452380Y-134319047D01*
X69452380Y-134414285D01*
X68452380Y-133128571D02*
X68452380Y-133319047D01*
X68500000Y-133414285D01*
X68547619Y-133461904D01*
X68690476Y-133557142D01*
X68880952Y-133604761D01*
X69261904Y-133604761D01*
X69357142Y-133557142D01*
X69404761Y-133509523D01*
X69452380Y-133414285D01*
X69452380Y-133223809D01*
X69404761Y-133128571D01*
X69357142Y-133080952D01*
X69261904Y-133033333D01*
X69023809Y-133033333D01*
X68928571Y-133080952D01*
X68880952Y-133128571D01*
X68833333Y-133223809D01*
X68833333Y-133414285D01*
X68880952Y-133509523D01*
X68928571Y-133557142D01*
X69023809Y-133604761D01*
G04 #@! TO.C,J9*
X41666666Y-167452380D02*
X41666666Y-168166666D01*
X41619047Y-168309523D01*
X41523809Y-168404761D01*
X41380952Y-168452380D01*
X41285714Y-168452380D01*
X42190476Y-168452380D02*
X42380952Y-168452380D01*
X42476190Y-168404761D01*
X42523809Y-168357142D01*
X42619047Y-168214285D01*
X42666666Y-168023809D01*
X42666666Y-167642857D01*
X42619047Y-167547619D01*
X42571428Y-167500000D01*
X42476190Y-167452380D01*
X42285714Y-167452380D01*
X42190476Y-167500000D01*
X42142857Y-167547619D01*
X42095238Y-167642857D01*
X42095238Y-167880952D01*
X42142857Y-167976190D01*
X42190476Y-168023809D01*
X42285714Y-168071428D01*
X42476190Y-168071428D01*
X42571428Y-168023809D01*
X42619047Y-167976190D01*
X42666666Y-167880952D01*
G04 #@! TO.C,SW8*
X163095238Y-223666666D02*
X163047619Y-223809523D01*
X163047619Y-224047619D01*
X163095238Y-224142857D01*
X163142857Y-224190476D01*
X163238095Y-224238095D01*
X163333333Y-224238095D01*
X163428571Y-224190476D01*
X163476190Y-224142857D01*
X163523809Y-224047619D01*
X163571428Y-223857142D01*
X163619047Y-223761904D01*
X163666666Y-223714285D01*
X163761904Y-223666666D01*
X163857142Y-223666666D01*
X163952380Y-223714285D01*
X164000000Y-223761904D01*
X164047619Y-223857142D01*
X164047619Y-224095238D01*
X164000000Y-224238095D01*
X164047619Y-224571428D02*
X163047619Y-224809523D01*
X163761904Y-225000000D01*
X163047619Y-225190476D01*
X164047619Y-225428571D01*
X163619047Y-225952380D02*
X163666666Y-225857142D01*
X163714285Y-225809523D01*
X163809523Y-225761904D01*
X163857142Y-225761904D01*
X163952380Y-225809523D01*
X164000000Y-225857142D01*
X164047619Y-225952380D01*
X164047619Y-226142857D01*
X164000000Y-226238095D01*
X163952380Y-226285714D01*
X163857142Y-226333333D01*
X163809523Y-226333333D01*
X163714285Y-226285714D01*
X163666666Y-226238095D01*
X163619047Y-226142857D01*
X163619047Y-225952380D01*
X163571428Y-225857142D01*
X163523809Y-225809523D01*
X163428571Y-225761904D01*
X163238095Y-225761904D01*
X163142857Y-225809523D01*
X163095238Y-225857142D01*
X163047619Y-225952380D01*
X163047619Y-226142857D01*
X163095238Y-226238095D01*
X163142857Y-226285714D01*
X163238095Y-226333333D01*
X163428571Y-226333333D01*
X163523809Y-226285714D01*
X163571428Y-226238095D01*
X163619047Y-226142857D01*
G04 #@! TO.C,J5*
X87602380Y-134033333D02*
X88316666Y-134033333D01*
X88459523Y-134080952D01*
X88554761Y-134176190D01*
X88602380Y-134319047D01*
X88602380Y-134414285D01*
X87602380Y-133080952D02*
X87602380Y-133557142D01*
X88078571Y-133604761D01*
X88030952Y-133557142D01*
X87983333Y-133461904D01*
X87983333Y-133223809D01*
X88030952Y-133128571D01*
X88078571Y-133080952D01*
X88173809Y-133033333D01*
X88411904Y-133033333D01*
X88507142Y-133080952D01*
X88554761Y-133128571D01*
X88602380Y-133223809D01*
X88602380Y-133461904D01*
X88554761Y-133557142D01*
X88507142Y-133604761D01*
G04 #@! TO.C,*
D13*
G04 #@! TO.C,C20*
X332397349Y-201220000D02*
G75*
G03*
X332397349Y-209380000I0J-4080000D01*
G01*
X333398349Y-206340000D02*
X333398349Y-209257000D01*
X332597349Y-201224000D02*
X332597349Y-209376000D01*
X335038349Y-206340000D02*
X335038349Y-208424000D01*
X333478349Y-206340000D02*
X333478349Y-209236000D01*
X333838349Y-206340000D02*
X333838349Y-209121000D01*
X334158349Y-201614000D02*
X334158349Y-204260000D01*
X336318349Y-204071000D02*
X336318349Y-206529000D01*
X334318349Y-206340000D02*
X334318349Y-208906000D01*
X333478349Y-201364000D02*
X333478349Y-204260000D01*
X333518349Y-201375000D02*
X333518349Y-204260000D01*
X333238349Y-201306000D02*
X333238349Y-209294000D01*
X334358349Y-201716000D02*
X334358349Y-204260000D01*
X335038349Y-202176000D02*
X335038349Y-204260000D01*
X334238349Y-201653000D02*
X334238349Y-204260000D01*
X333958349Y-201526000D02*
X333958349Y-204260000D01*
X333198349Y-201298000D02*
X333198349Y-209302000D01*
X333718349Y-206340000D02*
X333718349Y-209163000D01*
X336038349Y-203410000D02*
X336038349Y-207190000D01*
X333077349Y-201276000D02*
X333077349Y-209324000D01*
X333798349Y-206340000D02*
X333798349Y-209135000D01*
X334758349Y-206340000D02*
X334758349Y-208638000D01*
X335278349Y-202393000D02*
X335278349Y-204260000D01*
X333558349Y-206340000D02*
X333558349Y-209214000D01*
X335318349Y-206340000D02*
X335318349Y-208167000D01*
X335078349Y-206340000D02*
X335078349Y-208390000D01*
X334198349Y-206340000D02*
X334198349Y-208966000D01*
X336158349Y-203655000D02*
X336158349Y-206945000D01*
X334838349Y-202020000D02*
X334838349Y-204260000D01*
X333358349Y-206340000D02*
X333358349Y-209267000D01*
X336438349Y-204532000D02*
X336438349Y-206068000D01*
X333958349Y-206340000D02*
X333958349Y-209074000D01*
X333318349Y-206340000D02*
X333318349Y-209276000D01*
X328387651Y-202585000D02*
X328387651Y-203385000D01*
X335918349Y-203198000D02*
X335918349Y-207402000D01*
X336118349Y-203569000D02*
X336118349Y-207031000D01*
X333278349Y-201315000D02*
X333278349Y-204260000D01*
X334758349Y-201962000D02*
X334758349Y-204260000D01*
X332797349Y-201239000D02*
X332797349Y-209361000D01*
X334278349Y-206340000D02*
X334278349Y-208927000D01*
X335598349Y-202744000D02*
X335598349Y-207856000D01*
X334958349Y-202111000D02*
X334958349Y-204260000D01*
X333918349Y-201510000D02*
X333918349Y-204260000D01*
X334998349Y-202144000D02*
X334998349Y-204260000D01*
X334918349Y-202080000D02*
X334918349Y-204260000D01*
X333638349Y-201411000D02*
X333638349Y-204260000D01*
X332917349Y-201252000D02*
X332917349Y-209348000D01*
X332957349Y-201258000D02*
X332957349Y-209342000D01*
X335398349Y-202516000D02*
X335398349Y-208084000D01*
X334278349Y-201673000D02*
X334278349Y-204260000D01*
X334798349Y-201991000D02*
X334798349Y-204260000D01*
X335158349Y-206340000D02*
X335158349Y-208319000D01*
X332517349Y-201221000D02*
X332517349Y-209379000D01*
X335678349Y-202846000D02*
X335678349Y-207754000D01*
X335118349Y-202245000D02*
X335118349Y-204260000D01*
X334798349Y-206340000D02*
X334798349Y-208609000D01*
X334398349Y-201738000D02*
X334398349Y-204260000D01*
X334558349Y-201831000D02*
X334558349Y-204260000D01*
X336198349Y-203748000D02*
X336198349Y-206852000D01*
X335878349Y-203134000D02*
X335878349Y-207466000D01*
X335518349Y-202649000D02*
X335518349Y-207951000D01*
X334118349Y-201596000D02*
X334118349Y-204260000D01*
X335478349Y-202603000D02*
X335478349Y-207997000D01*
X332757349Y-201235000D02*
X332757349Y-209365000D01*
X335758349Y-202955000D02*
X335758349Y-207645000D01*
X334438349Y-201760000D02*
X334438349Y-204260000D01*
X334078349Y-206340000D02*
X334078349Y-209022000D01*
X334238349Y-206340000D02*
X334238349Y-208947000D01*
X332677349Y-201229000D02*
X332677349Y-209371000D01*
X335238349Y-206340000D02*
X335238349Y-208245000D01*
X335078349Y-202210000D02*
X335078349Y-204260000D01*
X335718349Y-202900000D02*
X335718349Y-207700000D01*
X334878349Y-202050000D02*
X334878349Y-204260000D01*
X333358349Y-201333000D02*
X333358349Y-204260000D01*
X336398349Y-204352000D02*
X336398349Y-206248000D01*
X334358349Y-206340000D02*
X334358349Y-208884000D01*
X334718349Y-201935000D02*
X334718349Y-204260000D01*
X333678349Y-206340000D02*
X333678349Y-209177000D01*
X334038349Y-206340000D02*
X334038349Y-209040000D01*
X335238349Y-202355000D02*
X335238349Y-204260000D01*
X336358349Y-204202000D02*
X336358349Y-206398000D01*
X332717349Y-201232000D02*
X332717349Y-209368000D01*
X334158349Y-206340000D02*
X334158349Y-208986000D01*
X335638349Y-202795000D02*
X335638349Y-207805000D01*
X332637349Y-201226000D02*
X332637349Y-209374000D01*
X334838349Y-206340000D02*
X334838349Y-208580000D01*
X333798349Y-201465000D02*
X333798349Y-204260000D01*
X334518349Y-201807000D02*
X334518349Y-204260000D01*
X334478349Y-206340000D02*
X334478349Y-208817000D01*
X333718349Y-201437000D02*
X333718349Y-204260000D01*
X333838349Y-201479000D02*
X333838349Y-204260000D01*
X332997349Y-201263000D02*
X332997349Y-209337000D01*
X334118349Y-206340000D02*
X334118349Y-209004000D01*
X334038349Y-201560000D02*
X334038349Y-204260000D01*
X332477349Y-201220000D02*
X332477349Y-209380000D01*
X334078349Y-201578000D02*
X334078349Y-204260000D01*
X334318349Y-201694000D02*
X334318349Y-204260000D01*
X333278349Y-206340000D02*
X333278349Y-209285000D01*
X334558349Y-206340000D02*
X334558349Y-208769000D01*
X333598349Y-206340000D02*
X333598349Y-209202000D01*
X336478349Y-204767000D02*
X336478349Y-205833000D01*
X333118349Y-201283000D02*
X333118349Y-209317000D01*
X334998349Y-206340000D02*
X334998349Y-208456000D01*
X333037349Y-201270000D02*
X333037349Y-209330000D01*
X335558349Y-202696000D02*
X335558349Y-207904000D01*
X333438349Y-206340000D02*
X333438349Y-209247000D01*
X334438349Y-206340000D02*
X334438349Y-208840000D01*
X333638349Y-206340000D02*
X333638349Y-209189000D01*
X334638349Y-206340000D02*
X334638349Y-208718000D01*
X333558349Y-201386000D02*
X333558349Y-204260000D01*
X335838349Y-203072000D02*
X335838349Y-207528000D01*
X334598349Y-206340000D02*
X334598349Y-208744000D01*
X333878349Y-201495000D02*
X333878349Y-204260000D01*
X332397349Y-201220000D02*
X332397349Y-209380000D01*
X335118349Y-206340000D02*
X335118349Y-208355000D01*
X335318349Y-202433000D02*
X335318349Y-204260000D01*
X335198349Y-202317000D02*
X335198349Y-204260000D01*
X335158349Y-202281000D02*
X335158349Y-204260000D01*
X334918349Y-206340000D02*
X334918349Y-208520000D01*
X335278349Y-206340000D02*
X335278349Y-208207000D01*
X334198349Y-201634000D02*
X334198349Y-204260000D01*
X332837349Y-201243000D02*
X332837349Y-209357000D01*
X334478349Y-201783000D02*
X334478349Y-204260000D01*
X334958349Y-206340000D02*
X334958349Y-208489000D01*
X335438349Y-202559000D02*
X335438349Y-208041000D01*
X335798349Y-203013000D02*
X335798349Y-207587000D01*
X333998349Y-201543000D02*
X333998349Y-204260000D01*
X333318349Y-201324000D02*
X333318349Y-204260000D01*
X333158349Y-201290000D02*
X333158349Y-209310000D01*
X333998349Y-206340000D02*
X333998349Y-209057000D01*
X333758349Y-201450000D02*
X333758349Y-204260000D01*
X333398349Y-201343000D02*
X333398349Y-204260000D01*
X333878349Y-206340000D02*
X333878349Y-209105000D01*
X333438349Y-201353000D02*
X333438349Y-204260000D01*
X333598349Y-201398000D02*
X333598349Y-204260000D01*
X336078349Y-203487000D02*
X336078349Y-207113000D01*
X335998349Y-203336000D02*
X335998349Y-207264000D01*
X334398349Y-206340000D02*
X334398349Y-208862000D01*
X335358349Y-202474000D02*
X335358349Y-208126000D01*
X335958349Y-203266000D02*
X335958349Y-207334000D01*
X334678349Y-206340000D02*
X334678349Y-208692000D01*
X334718349Y-206340000D02*
X334718349Y-208665000D01*
X332877349Y-201248000D02*
X332877349Y-209352000D01*
X336278349Y-203954000D02*
X336278349Y-206646000D01*
X332437349Y-201220000D02*
X332437349Y-209380000D01*
X334678349Y-201908000D02*
X334678349Y-204260000D01*
X334638349Y-201882000D02*
X334638349Y-204260000D01*
X327987651Y-202985000D02*
X328787651Y-202985000D01*
X334598349Y-201856000D02*
X334598349Y-204260000D01*
X333918349Y-206340000D02*
X333918349Y-209090000D01*
X333518349Y-206340000D02*
X333518349Y-209225000D01*
X334518349Y-206340000D02*
X334518349Y-208793000D01*
X333758349Y-206340000D02*
X333758349Y-209150000D01*
X335198349Y-206340000D02*
X335198349Y-208283000D01*
X332557349Y-201223000D02*
X332557349Y-209377000D01*
X333678349Y-201423000D02*
X333678349Y-204260000D01*
X336238349Y-203847000D02*
X336238349Y-206753000D01*
X334878349Y-206340000D02*
X334878349Y-208550000D01*
G04 #@! TO.C,ENC2*
X176450000Y-142475000D02*
X176450000Y-154275000D01*
X188650000Y-142475000D02*
X188650000Y-144875000D01*
X184550000Y-142475000D02*
X188650000Y-142475000D01*
X180550000Y-154275000D02*
X176450000Y-154275000D01*
X180550000Y-142475000D02*
X176450000Y-142475000D01*
X188650000Y-147075000D02*
X188650000Y-149675000D01*
X182550000Y-147875000D02*
X182550000Y-148875000D01*
X175050000Y-144575000D02*
X174750000Y-144275000D01*
X174750000Y-144275000D02*
X175350000Y-144275000D01*
X182050000Y-148375000D02*
X183050000Y-148375000D01*
X188650000Y-151875000D02*
X188650000Y-154275000D01*
X188650000Y-154275000D02*
X184550000Y-154275000D01*
X175350000Y-144275000D02*
X175050000Y-144575000D01*
G04 #@! TO.C,ENC4*
X240150000Y-142475000D02*
X240150000Y-154275000D01*
X252350000Y-142475000D02*
X252350000Y-144875000D01*
X248250000Y-142475000D02*
X252350000Y-142475000D01*
X244250000Y-154275000D02*
X240150000Y-154275000D01*
X244250000Y-142475000D02*
X240150000Y-142475000D01*
X252350000Y-147075000D02*
X252350000Y-149675000D01*
X246250000Y-147875000D02*
X246250000Y-148875000D01*
X238750000Y-144575000D02*
X238450000Y-144275000D01*
X238450000Y-144275000D02*
X239050000Y-144275000D01*
X245750000Y-148375000D02*
X246750000Y-148375000D01*
X252350000Y-151875000D02*
X252350000Y-154275000D01*
X252350000Y-154275000D02*
X248250000Y-154275000D01*
X239050000Y-144275000D02*
X238750000Y-144575000D01*
G04 #@! TO.C,ENC1*
X144450000Y-142475000D02*
X144450000Y-154275000D01*
X156650000Y-142475000D02*
X156650000Y-144875000D01*
X152550000Y-142475000D02*
X156650000Y-142475000D01*
X148550000Y-154275000D02*
X144450000Y-154275000D01*
X148550000Y-142475000D02*
X144450000Y-142475000D01*
X156650000Y-147075000D02*
X156650000Y-149675000D01*
X150550000Y-147875000D02*
X150550000Y-148875000D01*
X143050000Y-144575000D02*
X142750000Y-144275000D01*
X142750000Y-144275000D02*
X143350000Y-144275000D01*
X150050000Y-148375000D02*
X151050000Y-148375000D01*
X156650000Y-151875000D02*
X156650000Y-154275000D01*
X156650000Y-154275000D02*
X152550000Y-154275000D01*
X143350000Y-144275000D02*
X143050000Y-144575000D01*
G04 #@! TO.C,ENC3*
X208450000Y-142475000D02*
X208450000Y-154275000D01*
X220650000Y-142475000D02*
X220650000Y-144875000D01*
X216550000Y-142475000D02*
X220650000Y-142475000D01*
X212550000Y-154275000D02*
X208450000Y-154275000D01*
X212550000Y-142475000D02*
X208450000Y-142475000D01*
X220650000Y-147075000D02*
X220650000Y-149675000D01*
X214550000Y-147875000D02*
X214550000Y-148875000D01*
X207050000Y-144575000D02*
X206750000Y-144275000D01*
X206750000Y-144275000D02*
X207350000Y-144275000D01*
X214050000Y-148375000D02*
X215050000Y-148375000D01*
X220650000Y-151875000D02*
X220650000Y-154275000D01*
X220650000Y-154275000D02*
X216550000Y-154275000D01*
X207350000Y-144275000D02*
X207050000Y-144575000D01*
G04 #@! TO.C,SW27*
X135850000Y-168975000D02*
X138570000Y-168975000D01*
X138570000Y-181275000D02*
X135850000Y-181275000D01*
X143570000Y-181275000D02*
X140430000Y-181275000D01*
X135850000Y-181275000D02*
X135850000Y-168975000D01*
X145430000Y-168975000D02*
X148150000Y-168975000D01*
X140430000Y-168975000D02*
X143570000Y-168975000D01*
X148150000Y-168975000D02*
X148150000Y-181275000D01*
X148150000Y-181275000D02*
X145430000Y-181275000D01*
X137460950Y-175025000D02*
G75*
G03*
X146619050Y-175025000I4579050J0D01*
G01*
X146619050Y-175025000D02*
G75*
G03*
X137460950Y-175025000I-4579050J0D01*
G01*
G04 #@! TO.C,SW34*
X247850000Y-168975000D02*
X250570000Y-168975000D01*
X250570000Y-181275000D02*
X247850000Y-181275000D01*
X255570000Y-181275000D02*
X252430000Y-181275000D01*
X247850000Y-181275000D02*
X247850000Y-168975000D01*
X257430000Y-168975000D02*
X260150000Y-168975000D01*
X252430000Y-168975000D02*
X255570000Y-168975000D01*
X260150000Y-168975000D02*
X260150000Y-181275000D01*
X260150000Y-181275000D02*
X257430000Y-181275000D01*
X249460950Y-175025000D02*
G75*
G03*
X258619050Y-175025000I4579050J0D01*
G01*
X258619050Y-175025000D02*
G75*
G03*
X249460950Y-175025000I-4579050J0D01*
G01*
G04 #@! TO.C,SW28*
X151850000Y-168975000D02*
X154570000Y-168975000D01*
X154570000Y-181275000D02*
X151850000Y-181275000D01*
X159570000Y-181275000D02*
X156430000Y-181275000D01*
X151850000Y-181275000D02*
X151850000Y-168975000D01*
X161430000Y-168975000D02*
X164150000Y-168975000D01*
X156430000Y-168975000D02*
X159570000Y-168975000D01*
X164150000Y-168975000D02*
X164150000Y-181275000D01*
X164150000Y-181275000D02*
X161430000Y-181275000D01*
X153460950Y-175025000D02*
G75*
G03*
X162619050Y-175025000I4579050J0D01*
G01*
X162619050Y-175025000D02*
G75*
G03*
X153460950Y-175025000I-4579050J0D01*
G01*
G04 #@! TO.C,SW30*
X183850000Y-168975000D02*
X186570000Y-168975000D01*
X186570000Y-181275000D02*
X183850000Y-181275000D01*
X191570000Y-181275000D02*
X188430000Y-181275000D01*
X183850000Y-181275000D02*
X183850000Y-168975000D01*
X193430000Y-168975000D02*
X196150000Y-168975000D01*
X188430000Y-168975000D02*
X191570000Y-168975000D01*
X196150000Y-168975000D02*
X196150000Y-181275000D01*
X196150000Y-181275000D02*
X193430000Y-181275000D01*
X185460950Y-175025000D02*
G75*
G03*
X194619050Y-175025000I4579050J0D01*
G01*
X194619050Y-175025000D02*
G75*
G03*
X185460950Y-175025000I-4579050J0D01*
G01*
G04 #@! TO.C,SW32*
X215850000Y-168975000D02*
X218570000Y-168975000D01*
X218570000Y-181275000D02*
X215850000Y-181275000D01*
X223570000Y-181275000D02*
X220430000Y-181275000D01*
X215850000Y-181275000D02*
X215850000Y-168975000D01*
X225430000Y-168975000D02*
X228150000Y-168975000D01*
X220430000Y-168975000D02*
X223570000Y-168975000D01*
X228150000Y-168975000D02*
X228150000Y-181275000D01*
X228150000Y-181275000D02*
X225430000Y-181275000D01*
X217460950Y-175025000D02*
G75*
G03*
X226619050Y-175025000I4579050J0D01*
G01*
X226619050Y-175025000D02*
G75*
G03*
X217460950Y-175025000I-4579050J0D01*
G01*
G04 #@! TO.C,SW29*
X167850000Y-168975000D02*
X170570000Y-168975000D01*
X170570000Y-181275000D02*
X167850000Y-181275000D01*
X175570000Y-181275000D02*
X172430000Y-181275000D01*
X167850000Y-181275000D02*
X167850000Y-168975000D01*
X177430000Y-168975000D02*
X180150000Y-168975000D01*
X172430000Y-168975000D02*
X175570000Y-168975000D01*
X180150000Y-168975000D02*
X180150000Y-181275000D01*
X180150000Y-181275000D02*
X177430000Y-181275000D01*
X169460950Y-175025000D02*
G75*
G03*
X178619050Y-175025000I4579050J0D01*
G01*
X178619050Y-175025000D02*
G75*
G03*
X169460950Y-175025000I-4579050J0D01*
G01*
G04 #@! TO.C,SW31*
X199850000Y-168975000D02*
X202570000Y-168975000D01*
X202570000Y-181275000D02*
X199850000Y-181275000D01*
X207570000Y-181275000D02*
X204430000Y-181275000D01*
X199850000Y-181275000D02*
X199850000Y-168975000D01*
X209430000Y-168975000D02*
X212150000Y-168975000D01*
X204430000Y-168975000D02*
X207570000Y-168975000D01*
X212150000Y-168975000D02*
X212150000Y-181275000D01*
X212150000Y-181275000D02*
X209430000Y-181275000D01*
X201460950Y-175025000D02*
G75*
G03*
X210619050Y-175025000I4579050J0D01*
G01*
X210619050Y-175025000D02*
G75*
G03*
X201460950Y-175025000I-4579050J0D01*
G01*
G04 #@! TO.C,SW33*
X231850000Y-168975000D02*
X234570000Y-168975000D01*
X234570000Y-181275000D02*
X231850000Y-181275000D01*
X239570000Y-181275000D02*
X236430000Y-181275000D01*
X231850000Y-181275000D02*
X231850000Y-168975000D01*
X241430000Y-168975000D02*
X244150000Y-168975000D01*
X236430000Y-168975000D02*
X239570000Y-168975000D01*
X244150000Y-168975000D02*
X244150000Y-181275000D01*
X244150000Y-181275000D02*
X241430000Y-181275000D01*
X233460950Y-175025000D02*
G75*
G03*
X242619050Y-175025000I4579050J0D01*
G01*
X242619050Y-175025000D02*
G75*
G03*
X233460950Y-175025000I-4579050J0D01*
G01*
G04 #@! TO.C,SW26*
X351660000Y-195850000D02*
X351660000Y-198570000D01*
X339360000Y-198570000D02*
X339360000Y-195850000D01*
X339360000Y-203570000D02*
X339360000Y-200430000D01*
X339360000Y-195850000D02*
X351660000Y-195850000D01*
X351660000Y-205430000D02*
X351660000Y-208150000D01*
X351660000Y-200430000D02*
X351660000Y-203570000D01*
X351660000Y-208150000D02*
X339360000Y-208150000D01*
X339360000Y-208150000D02*
X339360000Y-205430000D01*
X345610000Y-197460950D02*
G75*
G03*
X345610000Y-206619050I0J-4579050D01*
G01*
X345610000Y-206619050D02*
G75*
G03*
X345610000Y-197460950I0J4579050D01*
G01*
G04 #@! TO.C,MIC*
X55550000Y-133100000D02*
G75*
G03*
X55550000Y-143900000I0J-5400000D01*
G01*
X55550000Y-143900000D02*
G75*
G03*
X55550000Y-133100000I0J5400000D01*
G01*
X56225000Y-134600000D02*
X57275000Y-134600000D01*
X56750000Y-134075000D02*
X56750000Y-135125000D01*
G04 #@! TO.C,C1*
X62602651Y-169780196D02*
G75*
G03*
X62562651Y-161620000I0J4080196D01*
G01*
X61801651Y-169702000D02*
X61801651Y-161698000D01*
X58801651Y-167252000D02*
X58801651Y-164148000D01*
X61922651Y-169724000D02*
X61922651Y-161676000D01*
X62562651Y-169780000D02*
X62562651Y-161620000D01*
X59161651Y-167928000D02*
X59161651Y-163472000D01*
X58641651Y-166798000D02*
X58641651Y-164602000D01*
X60561651Y-164660000D02*
X60561651Y-162160000D01*
X62082651Y-169748000D02*
X62082651Y-161652000D01*
X62242651Y-169765000D02*
X62242651Y-161635000D01*
X59681651Y-164660000D02*
X59681651Y-162833000D01*
X61441651Y-169614000D02*
X61441651Y-166740000D01*
X61001651Y-164660000D02*
X61001651Y-161943000D01*
X61881651Y-169717000D02*
X61881651Y-161683000D01*
X59921651Y-164660000D02*
X59921651Y-162610000D01*
X61401651Y-169602000D02*
X61401651Y-166740000D01*
X61201651Y-169535000D02*
X61201651Y-166740000D01*
X60841651Y-169386000D02*
X60841651Y-166740000D01*
X61201651Y-164660000D02*
X61201651Y-161865000D01*
X61281651Y-169563000D02*
X61281651Y-166740000D01*
X59081651Y-167802000D02*
X59081651Y-163598000D01*
X60401651Y-164660000D02*
X60401651Y-162256000D01*
X59521651Y-168397000D02*
X59521651Y-163003000D01*
X60281651Y-164660000D02*
X60281651Y-162335000D01*
X60681651Y-169306000D02*
X60681651Y-166740000D01*
X61001651Y-169457000D02*
X61001651Y-166740000D01*
X59681651Y-168567000D02*
X59681651Y-166740000D01*
X60521651Y-169217000D02*
X60521651Y-166740000D01*
X60601651Y-169262000D02*
X60601651Y-166740000D01*
X60841651Y-164660000D02*
X60841651Y-162014000D01*
X61481651Y-164660000D02*
X61481651Y-161775000D01*
X58961651Y-167590000D02*
X58961651Y-163810000D01*
X66612349Y-168415000D02*
X66612349Y-167615000D01*
X60801651Y-164660000D02*
X60801651Y-162034000D01*
X58681651Y-166929000D02*
X58681651Y-164471000D01*
X60361651Y-169118000D02*
X60361651Y-166740000D01*
X62122651Y-169752000D02*
X62122651Y-161648000D01*
X59841651Y-168719000D02*
X59841651Y-166740000D01*
X60441651Y-169169000D02*
X60441651Y-166740000D01*
X60721651Y-164660000D02*
X60721651Y-162073000D01*
X59961651Y-164660000D02*
X59961651Y-162576000D01*
X60121651Y-164660000D02*
X60121651Y-162450000D01*
X61681651Y-169676000D02*
X61681651Y-166740000D01*
X60601651Y-164660000D02*
X60601651Y-162138000D01*
X60201651Y-164660000D02*
X60201651Y-162391000D01*
X59121651Y-167866000D02*
X59121651Y-163534000D01*
X60481651Y-169193000D02*
X60481651Y-166740000D01*
X61441651Y-164660000D02*
X61441651Y-161786000D01*
X60241651Y-169038000D02*
X60241651Y-166740000D01*
X61241651Y-169550000D02*
X61241651Y-166740000D01*
X59961651Y-168824000D02*
X59961651Y-166740000D01*
X60641651Y-169284000D02*
X60641651Y-166740000D01*
X61601651Y-169657000D02*
X61601651Y-166740000D01*
X62602651Y-169780000D02*
X62602651Y-161620000D01*
X60401651Y-169144000D02*
X60401651Y-166740000D01*
X60041651Y-168889000D02*
X60041651Y-166740000D01*
X59881651Y-168755000D02*
X59881651Y-166740000D01*
X59761651Y-168645000D02*
X59761651Y-166740000D01*
X62402651Y-169776000D02*
X62402651Y-161624000D01*
X61841651Y-169710000D02*
X61841651Y-161690000D01*
X60241651Y-164660000D02*
X60241651Y-162362000D01*
X62042651Y-169742000D02*
X62042651Y-161658000D01*
X62202651Y-169761000D02*
X62202651Y-161639000D01*
X60201651Y-169009000D02*
X60201651Y-166740000D01*
X61641651Y-169667000D02*
X61641651Y-166740000D01*
X67012349Y-168015000D02*
X66212349Y-168015000D01*
X59801651Y-164660000D02*
X59801651Y-162717000D01*
X59321651Y-168154000D02*
X59321651Y-163246000D01*
X61962651Y-169730000D02*
X61962651Y-161670000D01*
X60881651Y-164660000D02*
X60881651Y-161996000D01*
X58841651Y-167345000D02*
X58841651Y-164055000D01*
X59641651Y-168526000D02*
X59641651Y-162874000D01*
X59041651Y-167734000D02*
X59041651Y-163666000D01*
X58521651Y-166233000D02*
X58521651Y-165167000D01*
X60361651Y-164660000D02*
X60361651Y-162282000D01*
X59281651Y-168100000D02*
X59281651Y-163300000D01*
X60121651Y-168950000D02*
X60121651Y-166740000D01*
X61321651Y-164660000D02*
X61321651Y-161823000D01*
X61521651Y-164660000D02*
X61521651Y-161764000D01*
X58761651Y-167153000D02*
X58761651Y-164247000D01*
X61601651Y-164660000D02*
X61601651Y-161743000D01*
X60441651Y-164660000D02*
X60441651Y-162231000D01*
X59241651Y-168045000D02*
X59241651Y-163355000D01*
X60521651Y-164660000D02*
X60521651Y-162183000D01*
X59201651Y-167987000D02*
X59201651Y-163413000D01*
X60641651Y-164660000D02*
X60641651Y-162116000D01*
X60961651Y-169440000D02*
X60961651Y-166740000D01*
X61081651Y-169490000D02*
X61081651Y-166740000D01*
X58561651Y-166468000D02*
X58561651Y-164932000D01*
X60081651Y-164660000D02*
X60081651Y-162480000D01*
X58921651Y-167513000D02*
X58921651Y-163887000D01*
X61121651Y-164660000D02*
X61121651Y-161895000D01*
X62282651Y-169768000D02*
X62282651Y-161632000D01*
X61521651Y-169636000D02*
X61521651Y-166740000D01*
X60921651Y-164660000D02*
X60921651Y-161978000D01*
X59761651Y-164660000D02*
X59761651Y-162755000D01*
X60881651Y-169404000D02*
X60881651Y-166740000D01*
X58601651Y-166648000D02*
X58601651Y-164752000D01*
X60161651Y-164660000D02*
X60161651Y-162420000D01*
X61041651Y-169474000D02*
X61041651Y-166740000D01*
X59881651Y-164660000D02*
X59881651Y-162645000D01*
X62522651Y-169780000D02*
X62522651Y-161620000D01*
X61561651Y-164660000D02*
X61561651Y-161753000D01*
X60721651Y-169327000D02*
X60721651Y-166740000D01*
X59481651Y-168351000D02*
X59481651Y-163049000D01*
X61041651Y-164660000D02*
X61041651Y-161926000D01*
X61241651Y-164660000D02*
X61241651Y-161850000D01*
X61361651Y-164660000D02*
X61361651Y-161811000D01*
X60161651Y-168980000D02*
X60161651Y-166740000D01*
X60681651Y-164660000D02*
X60681651Y-162094000D01*
X62002651Y-169737000D02*
X62002651Y-161663000D01*
X59441651Y-168304000D02*
X59441651Y-163096000D01*
X61641651Y-164660000D02*
X61641651Y-161733000D01*
X61081651Y-164660000D02*
X61081651Y-161910000D01*
X61121651Y-169505000D02*
X61121651Y-166740000D01*
X60041651Y-164660000D02*
X60041651Y-162511000D01*
X61361651Y-169589000D02*
X61361651Y-166740000D01*
X62442651Y-169777000D02*
X62442651Y-161623000D01*
X59721651Y-168607000D02*
X59721651Y-166740000D01*
X58881651Y-167431000D02*
X58881651Y-163969000D01*
X61721651Y-169685000D02*
X61721651Y-166740000D01*
X61401651Y-164660000D02*
X61401651Y-161798000D01*
X61721651Y-164660000D02*
X61721651Y-161715000D01*
X60281651Y-169065000D02*
X60281651Y-166740000D01*
X59841651Y-164660000D02*
X59841651Y-162681000D01*
X60001651Y-164660000D02*
X60001651Y-162544000D01*
X59921651Y-168790000D02*
X59921651Y-166740000D01*
X62322651Y-169771000D02*
X62322651Y-161629000D01*
X61681651Y-164660000D02*
X61681651Y-161724000D01*
X60321651Y-169092000D02*
X60321651Y-166740000D01*
X60321651Y-164660000D02*
X60321651Y-162308000D01*
X60761651Y-169347000D02*
X60761651Y-166740000D01*
X59801651Y-168683000D02*
X59801651Y-166740000D01*
X60801651Y-169366000D02*
X60801651Y-166740000D01*
X58721651Y-167046000D02*
X58721651Y-164354000D01*
X60481651Y-164660000D02*
X60481651Y-162207000D01*
X61161651Y-164660000D02*
X61161651Y-161879000D01*
X61281651Y-164660000D02*
X61281651Y-161837000D01*
X61561651Y-169647000D02*
X61561651Y-166740000D01*
X60961651Y-164660000D02*
X60961651Y-161960000D01*
X61161651Y-169521000D02*
X61161651Y-166740000D01*
X61761651Y-169694000D02*
X61761651Y-161706000D01*
X62482651Y-169779000D02*
X62482651Y-161621000D01*
X60921651Y-169422000D02*
X60921651Y-166740000D01*
X62362651Y-169774000D02*
X62362651Y-161626000D01*
X59601651Y-168484000D02*
X59601651Y-162916000D01*
X60761651Y-164660000D02*
X60761651Y-162053000D01*
X59361651Y-168205000D02*
X59361651Y-163195000D01*
X60001651Y-168856000D02*
X60001651Y-166740000D01*
X61481651Y-169625000D02*
X61481651Y-166740000D01*
X60081651Y-168920000D02*
X60081651Y-166740000D01*
X60561651Y-169240000D02*
X60561651Y-166740000D01*
X62162651Y-169757000D02*
X62162651Y-161643000D01*
X59401651Y-168256000D02*
X59401651Y-163144000D01*
X59561651Y-168441000D02*
X59561651Y-162959000D01*
X59001651Y-167664000D02*
X59001651Y-163736000D01*
X59721651Y-164660000D02*
X59721651Y-162793000D01*
X61321651Y-169577000D02*
X61321651Y-166740000D01*
G04 #@! TO.C,C2*
X62602651Y-159280000D02*
G75*
G03*
X62602651Y-151120000I0J4080000D01*
G01*
X62322651Y-159271000D02*
X62322651Y-151129000D01*
X61962651Y-159230000D02*
X61962651Y-151170000D01*
X61001651Y-154160000D02*
X61001651Y-151443000D01*
X58801651Y-156752000D02*
X58801651Y-153648000D01*
X61281651Y-159063000D02*
X61281651Y-156240000D01*
X60961651Y-154160000D02*
X60961651Y-151460000D01*
X61161651Y-159021000D02*
X61161651Y-156240000D01*
X60441651Y-154160000D02*
X60441651Y-151731000D01*
X61401651Y-159102000D02*
X61401651Y-156240000D01*
X58761651Y-156653000D02*
X58761651Y-153747000D01*
X60641651Y-154160000D02*
X60641651Y-151616000D01*
X61641651Y-159167000D02*
X61641651Y-156240000D01*
X58601651Y-156148000D02*
X58601651Y-154252000D01*
X62242651Y-159265000D02*
X62242651Y-151135000D01*
X60401651Y-154160000D02*
X60401651Y-151756000D01*
X62442651Y-159277000D02*
X62442651Y-151123000D01*
X60921651Y-154160000D02*
X60921651Y-151478000D01*
X66612349Y-157915000D02*
X66612349Y-157115000D01*
X59921651Y-154160000D02*
X59921651Y-152110000D01*
X62042651Y-159242000D02*
X62042651Y-151158000D01*
X67012349Y-157515000D02*
X66212349Y-157515000D01*
X61281651Y-154160000D02*
X61281651Y-151337000D01*
X60521651Y-154160000D02*
X60521651Y-151683000D01*
X60361651Y-158618000D02*
X60361651Y-156240000D01*
X58721651Y-156546000D02*
X58721651Y-153854000D01*
X59841651Y-158219000D02*
X59841651Y-156240000D01*
X61121651Y-159005000D02*
X61121651Y-156240000D01*
X58881651Y-156931000D02*
X58881651Y-153469000D01*
X59641651Y-158026000D02*
X59641651Y-152374000D01*
X60001651Y-154160000D02*
X60001651Y-152044000D01*
X61441651Y-159114000D02*
X61441651Y-156240000D01*
X58561651Y-155968000D02*
X58561651Y-154432000D01*
X61001651Y-158957000D02*
X61001651Y-156240000D01*
X62202651Y-159261000D02*
X62202651Y-151139000D01*
X61601651Y-154160000D02*
X61601651Y-151243000D01*
X62402651Y-159276000D02*
X62402651Y-151124000D01*
X60481651Y-158693000D02*
X60481651Y-156240000D01*
X61481651Y-154160000D02*
X61481651Y-151275000D01*
X60601651Y-158762000D02*
X60601651Y-156240000D01*
X61922651Y-159224000D02*
X61922651Y-151176000D01*
X59561651Y-157941000D02*
X59561651Y-152459000D01*
X60801651Y-154160000D02*
X60801651Y-151534000D01*
X61601651Y-159157000D02*
X61601651Y-156240000D01*
X60041651Y-158389000D02*
X60041651Y-156240000D01*
X60881651Y-154160000D02*
X60881651Y-151496000D01*
X61321651Y-154160000D02*
X61321651Y-151323000D01*
X61441651Y-154160000D02*
X61441651Y-151286000D01*
X59481651Y-157851000D02*
X59481651Y-152549000D01*
X61761651Y-159194000D02*
X61761651Y-151206000D01*
X61881651Y-159217000D02*
X61881651Y-151183000D01*
X60041651Y-154160000D02*
X60041651Y-152011000D01*
X61521651Y-159136000D02*
X61521651Y-156240000D01*
X60241651Y-158538000D02*
X60241651Y-156240000D01*
X59761651Y-154160000D02*
X59761651Y-152255000D01*
X60721651Y-154160000D02*
X60721651Y-151573000D01*
X58921651Y-157013000D02*
X58921651Y-153387000D01*
X59441651Y-157804000D02*
X59441651Y-152596000D01*
X60481651Y-154160000D02*
X60481651Y-151707000D01*
X61241651Y-159050000D02*
X61241651Y-156240000D01*
X61841651Y-159210000D02*
X61841651Y-151190000D01*
X60321651Y-158592000D02*
X60321651Y-156240000D01*
X61561651Y-159147000D02*
X61561651Y-156240000D01*
X59881651Y-158255000D02*
X59881651Y-156240000D01*
X61241651Y-154160000D02*
X61241651Y-151350000D01*
X60921651Y-158922000D02*
X60921651Y-156240000D01*
X61081651Y-154160000D02*
X61081651Y-151410000D01*
X60121651Y-154160000D02*
X60121651Y-151950000D01*
X62002651Y-159237000D02*
X62002651Y-151163000D01*
X59361651Y-157705000D02*
X59361651Y-152695000D01*
X59721651Y-158107000D02*
X59721651Y-156240000D01*
X58641651Y-156298000D02*
X58641651Y-154102000D01*
X58681651Y-156429000D02*
X58681651Y-153971000D01*
X60441651Y-158669000D02*
X60441651Y-156240000D01*
X60561651Y-154160000D02*
X60561651Y-151660000D01*
X59321651Y-157654000D02*
X59321651Y-152746000D01*
X59201651Y-157487000D02*
X59201651Y-152913000D01*
X61521651Y-154160000D02*
X61521651Y-151264000D01*
X61041651Y-154160000D02*
X61041651Y-151426000D01*
X61681651Y-159176000D02*
X61681651Y-156240000D01*
X59521651Y-157897000D02*
X59521651Y-152503000D01*
X59121651Y-157366000D02*
X59121651Y-153034000D01*
X60281651Y-158565000D02*
X60281651Y-156240000D01*
X60681651Y-158806000D02*
X60681651Y-156240000D01*
X60081651Y-154160000D02*
X60081651Y-151980000D01*
X60361651Y-154160000D02*
X60361651Y-151782000D01*
X61801651Y-159202000D02*
X61801651Y-151198000D01*
X59881651Y-154160000D02*
X59881651Y-152145000D01*
X58521651Y-155733000D02*
X58521651Y-154667000D01*
X61681651Y-154160000D02*
X61681651Y-151224000D01*
X59241651Y-157545000D02*
X59241651Y-152855000D01*
X61161651Y-154160000D02*
X61161651Y-151379000D01*
X62562651Y-159280000D02*
X62562651Y-151120000D01*
X61081651Y-158990000D02*
X61081651Y-156240000D01*
X59041651Y-157234000D02*
X59041651Y-153166000D01*
X61721651Y-159185000D02*
X61721651Y-156240000D01*
X61561651Y-154160000D02*
X61561651Y-151253000D01*
X59081651Y-157302000D02*
X59081651Y-153098000D01*
X60841651Y-158886000D02*
X60841651Y-156240000D01*
X59961651Y-154160000D02*
X59961651Y-152076000D01*
X62122651Y-159252000D02*
X62122651Y-151148000D01*
X60801651Y-158866000D02*
X60801651Y-156240000D01*
X60081651Y-158420000D02*
X60081651Y-156240000D01*
X60321651Y-154160000D02*
X60321651Y-151808000D01*
X59921651Y-158290000D02*
X59921651Y-156240000D01*
X60001651Y-158356000D02*
X60001651Y-156240000D01*
X60841651Y-154160000D02*
X60841651Y-151514000D01*
X59401651Y-157756000D02*
X59401651Y-152644000D01*
X59601651Y-157984000D02*
X59601651Y-152416000D01*
X60681651Y-154160000D02*
X60681651Y-151594000D01*
X60881651Y-158904000D02*
X60881651Y-156240000D01*
X59681651Y-158067000D02*
X59681651Y-156240000D01*
X60281651Y-154160000D02*
X60281651Y-151835000D01*
X62602651Y-159280000D02*
X62602651Y-151120000D01*
X60961651Y-158940000D02*
X60961651Y-156240000D01*
X61201651Y-154160000D02*
X61201651Y-151365000D01*
X61721651Y-154160000D02*
X61721651Y-151215000D01*
X60241651Y-154160000D02*
X60241651Y-151862000D01*
X59961651Y-158324000D02*
X59961651Y-156240000D01*
X60601651Y-154160000D02*
X60601651Y-151638000D01*
X62522651Y-159280000D02*
X62522651Y-151120000D01*
X61321651Y-159077000D02*
X61321651Y-156240000D01*
X60121651Y-158450000D02*
X60121651Y-156240000D01*
X60561651Y-158740000D02*
X60561651Y-156240000D01*
X59161651Y-157428000D02*
X59161651Y-152972000D01*
X59801651Y-154160000D02*
X59801651Y-152217000D01*
X60161651Y-158480000D02*
X60161651Y-156240000D01*
X62082651Y-159248000D02*
X62082651Y-151152000D01*
X59841651Y-154160000D02*
X59841651Y-152181000D01*
X60761651Y-154160000D02*
X60761651Y-151553000D01*
X58961651Y-157090000D02*
X58961651Y-153310000D01*
X59761651Y-158145000D02*
X59761651Y-156240000D01*
X61361651Y-154160000D02*
X61361651Y-151311000D01*
X60201651Y-158509000D02*
X60201651Y-156240000D01*
X60721651Y-158827000D02*
X60721651Y-156240000D01*
X60641651Y-158784000D02*
X60641651Y-156240000D01*
X61361651Y-159089000D02*
X61361651Y-156240000D01*
X60521651Y-158717000D02*
X60521651Y-156240000D01*
X61641651Y-154160000D02*
X61641651Y-151233000D01*
X59681651Y-154160000D02*
X59681651Y-152333000D01*
X62362651Y-159274000D02*
X62362651Y-151126000D01*
X60201651Y-154160000D02*
X60201651Y-151891000D01*
X60761651Y-158847000D02*
X60761651Y-156240000D01*
X58841651Y-156845000D02*
X58841651Y-153555000D01*
X62482651Y-159279000D02*
X62482651Y-151121000D01*
X60401651Y-158644000D02*
X60401651Y-156240000D01*
X61041651Y-158974000D02*
X61041651Y-156240000D01*
X61401651Y-154160000D02*
X61401651Y-151298000D01*
X61201651Y-159035000D02*
X61201651Y-156240000D01*
X59281651Y-157600000D02*
X59281651Y-152800000D01*
X62282651Y-159268000D02*
X62282651Y-151132000D01*
X60161651Y-154160000D02*
X60161651Y-151920000D01*
X59001651Y-157164000D02*
X59001651Y-153236000D01*
X62162651Y-159257000D02*
X62162651Y-151143000D01*
X59721651Y-154160000D02*
X59721651Y-152293000D01*
X61121651Y-154160000D02*
X61121651Y-151395000D01*
X61481651Y-159125000D02*
X61481651Y-156240000D01*
X59801651Y-158183000D02*
X59801651Y-156240000D01*
G04 #@! TO.C,SW21*
X290000000Y-194000000D02*
X290000000Y-196000000D01*
X304000000Y-208000000D02*
X304000000Y-206000000D01*
X302000000Y-208000000D02*
X304000000Y-208000000D01*
X292000000Y-194000000D02*
X290000000Y-194000000D01*
X290000000Y-206000000D02*
X290000000Y-208000000D01*
X304000000Y-196000000D02*
X304000000Y-194000000D01*
X304000000Y-194000000D02*
X302000000Y-194000000D01*
X290000000Y-208000000D02*
X292000000Y-208000000D01*
G04 #@! TO.C,R11*
X345127064Y-149410000D02*
X343672936Y-149410000D01*
X345127064Y-147590000D02*
X343672936Y-147590000D01*
G04 #@! TO.C,SW17*
X243000000Y-223100000D02*
X245000000Y-223100000D01*
X257000000Y-223100000D02*
X255000000Y-223100000D01*
X257000000Y-237100000D02*
X255000000Y-237100000D01*
X257000000Y-235100000D02*
X257000000Y-237100000D01*
X245000000Y-237100000D02*
X243000000Y-237100000D01*
X257000000Y-225100000D02*
X257000000Y-223100000D01*
X243000000Y-225100000D02*
X243000000Y-223100000D01*
X243000000Y-237100000D02*
X243000000Y-235100000D01*
G04 #@! TO.C,R12*
X345127064Y-151190000D02*
X343672936Y-151190000D01*
X345127064Y-153010000D02*
X343672936Y-153010000D01*
G04 #@! TO.C,SW9*
X159000000Y-194000000D02*
X157000000Y-194000000D01*
X171000000Y-194000000D02*
X169000000Y-194000000D01*
X157000000Y-194000000D02*
X157000000Y-196000000D01*
X171000000Y-208000000D02*
X171000000Y-206000000D01*
X157000000Y-208000000D02*
X159000000Y-208000000D01*
X157000000Y-206000000D02*
X157000000Y-208000000D01*
X169000000Y-208000000D02*
X171000000Y-208000000D01*
X171000000Y-196000000D02*
X171000000Y-194000000D01*
G04 #@! TO.C,SW12*
X200000000Y-235100000D02*
X200000000Y-237100000D01*
X200000000Y-237100000D02*
X198000000Y-237100000D01*
X188000000Y-237100000D02*
X186000000Y-237100000D01*
X186000000Y-223100000D02*
X188000000Y-223100000D01*
X200000000Y-223100000D02*
X198000000Y-223100000D01*
X186000000Y-237100000D02*
X186000000Y-235100000D01*
X186000000Y-225100000D02*
X186000000Y-223100000D01*
X200000000Y-225100000D02*
X200000000Y-223100000D01*
G04 #@! TO.C,SW22*
X314000000Y-237100000D02*
X312000000Y-237100000D01*
X300000000Y-237100000D02*
X300000000Y-235100000D01*
X302000000Y-237100000D02*
X300000000Y-237100000D01*
X300000000Y-223100000D02*
X302000000Y-223100000D01*
X300000000Y-225100000D02*
X300000000Y-223100000D01*
X314000000Y-225100000D02*
X314000000Y-223100000D01*
X314000000Y-223100000D02*
X312000000Y-223100000D01*
X314000000Y-235100000D02*
X314000000Y-237100000D01*
G04 #@! TO.C,SW4*
X100000000Y-208000000D02*
X102000000Y-208000000D01*
X100000000Y-206000000D02*
X100000000Y-208000000D01*
X114000000Y-194000000D02*
X112000000Y-194000000D01*
X114000000Y-208000000D02*
X114000000Y-206000000D01*
X100000000Y-194000000D02*
X100000000Y-196000000D01*
X114000000Y-196000000D02*
X114000000Y-194000000D01*
X112000000Y-208000000D02*
X114000000Y-208000000D01*
X102000000Y-194000000D02*
X100000000Y-194000000D01*
G04 #@! TO.C,SW3*
X105000000Y-237100000D02*
X103000000Y-237100000D01*
X91000000Y-223100000D02*
X93000000Y-223100000D01*
X91000000Y-225100000D02*
X91000000Y-223100000D01*
X105000000Y-235100000D02*
X105000000Y-237100000D01*
X93000000Y-237100000D02*
X91000000Y-237100000D01*
X91000000Y-237100000D02*
X91000000Y-235100000D01*
X105000000Y-223100000D02*
X103000000Y-223100000D01*
X105000000Y-225100000D02*
X105000000Y-223100000D01*
G04 #@! TO.C,SW19*
X283000000Y-208000000D02*
X285000000Y-208000000D01*
X271000000Y-194000000D02*
X271000000Y-196000000D01*
X285000000Y-194000000D02*
X283000000Y-194000000D01*
X285000000Y-196000000D02*
X285000000Y-194000000D01*
X273000000Y-194000000D02*
X271000000Y-194000000D01*
X271000000Y-208000000D02*
X273000000Y-208000000D01*
X285000000Y-208000000D02*
X285000000Y-206000000D01*
X271000000Y-206000000D02*
X271000000Y-208000000D01*
G04 #@! TO.C,J8*
X38750000Y-152982500D02*
X39950000Y-152982500D01*
X39950000Y-152982500D02*
X39950000Y-146982500D01*
X39950000Y-146982500D02*
X38750000Y-146982500D01*
X38750000Y-146982500D02*
X38750000Y-152982500D01*
X39950000Y-153582500D02*
X53750000Y-153582500D01*
X53750000Y-153582500D02*
X53750000Y-146482500D01*
X53750000Y-146482500D02*
X39950000Y-146482500D01*
X39950000Y-146482500D02*
X39950000Y-153582500D01*
G04 #@! TO.C,R14*
X345427064Y-143510000D02*
X343972936Y-143510000D01*
X345427064Y-141690000D02*
X343972936Y-141690000D01*
G04 #@! TO.C,BAR2*
X71160000Y-197030000D02*
X45480000Y-197030000D01*
X71160000Y-186590000D02*
X71160000Y-197030000D01*
X45480000Y-186590000D02*
X71160000Y-186590000D01*
X71450000Y-186300000D02*
X69750000Y-186300000D01*
X71450000Y-188000000D02*
X71450000Y-186300000D01*
X45480000Y-197030000D02*
X45480000Y-186590000D01*
G04 #@! TO.C,SW10*
X181000000Y-235100000D02*
X181000000Y-237100000D01*
X167000000Y-223100000D02*
X169000000Y-223100000D01*
X181000000Y-237100000D02*
X179000000Y-237100000D01*
X181000000Y-223100000D02*
X179000000Y-223100000D01*
X167000000Y-237100000D02*
X167000000Y-235100000D01*
X181000000Y-225100000D02*
X181000000Y-223100000D01*
X167000000Y-225100000D02*
X167000000Y-223100000D01*
X169000000Y-237100000D02*
X167000000Y-237100000D01*
G04 #@! TO.C,SW7*
X152000000Y-208000000D02*
X152000000Y-206000000D01*
X138000000Y-206000000D02*
X138000000Y-208000000D01*
X152000000Y-196000000D02*
X152000000Y-194000000D01*
X150000000Y-208000000D02*
X152000000Y-208000000D01*
X138000000Y-208000000D02*
X140000000Y-208000000D01*
X138000000Y-194000000D02*
X138000000Y-196000000D01*
X152000000Y-194000000D02*
X150000000Y-194000000D01*
X140000000Y-194000000D02*
X138000000Y-194000000D01*
G04 #@! TO.C,SW11*
X176000000Y-206000000D02*
X176000000Y-208000000D01*
X176000000Y-194000000D02*
X176000000Y-196000000D01*
X176000000Y-208000000D02*
X178000000Y-208000000D01*
X178000000Y-194000000D02*
X176000000Y-194000000D01*
X190000000Y-194000000D02*
X188000000Y-194000000D01*
X190000000Y-208000000D02*
X190000000Y-206000000D01*
X190000000Y-196000000D02*
X190000000Y-194000000D01*
X188000000Y-208000000D02*
X190000000Y-208000000D01*
G04 #@! TO.C,SW2*
X95000000Y-208000000D02*
X95000000Y-206000000D01*
X83000000Y-194000000D02*
X81000000Y-194000000D01*
X93000000Y-208000000D02*
X95000000Y-208000000D01*
X95000000Y-196000000D02*
X95000000Y-194000000D01*
X81000000Y-208000000D02*
X83000000Y-208000000D01*
X81000000Y-194000000D02*
X81000000Y-196000000D01*
X95000000Y-194000000D02*
X93000000Y-194000000D01*
X81000000Y-206000000D02*
X81000000Y-208000000D01*
G04 #@! TO.C,J10*
X39950000Y-179582500D02*
X53750000Y-179582500D01*
X53750000Y-179582500D02*
X53750000Y-172482500D01*
X53750000Y-172482500D02*
X39950000Y-172482500D01*
X39950000Y-172482500D02*
X39950000Y-179582500D01*
X38750000Y-178982500D02*
X39950000Y-178982500D01*
X39950000Y-178982500D02*
X39950000Y-172982500D01*
X39950000Y-172982500D02*
X38750000Y-172982500D01*
X38750000Y-172982500D02*
X38750000Y-178982500D01*
G04 #@! TO.C,U1*
X268200000Y-146195000D02*
X265700000Y-146195000D01*
X354550000Y-133655000D02*
X264850000Y-133655000D01*
X264850000Y-133655000D02*
X264850000Y-189095000D01*
X264850000Y-189095000D02*
X354550000Y-189095000D01*
X354550000Y-189095000D02*
X354550000Y-133655000D01*
X265710000Y-143895000D02*
X268250000Y-143895000D01*
X268250000Y-143895000D02*
X268250000Y-179455000D01*
X268250000Y-179455000D02*
X265710000Y-179455000D01*
X265710000Y-179455000D02*
X265710000Y-143895000D01*
G04 #@! TO.C,SW5*
X124000000Y-237100000D02*
X122000000Y-237100000D01*
X110000000Y-237100000D02*
X110000000Y-235100000D01*
X110000000Y-223100000D02*
X112000000Y-223100000D01*
X110000000Y-225100000D02*
X110000000Y-223100000D01*
X124000000Y-223100000D02*
X122000000Y-223100000D01*
X112000000Y-237100000D02*
X110000000Y-237100000D01*
X124000000Y-225100000D02*
X124000000Y-223100000D01*
X124000000Y-235100000D02*
X124000000Y-237100000D01*
G04 #@! TO.C,R13*
X345427064Y-137890000D02*
X343972936Y-137890000D01*
X345427064Y-139710000D02*
X343972936Y-139710000D01*
G04 #@! TO.C,SW25*
X340000000Y-237100000D02*
X338000000Y-237100000D01*
X338000000Y-237100000D02*
X338000000Y-235100000D01*
X338000000Y-225100000D02*
X338000000Y-223100000D01*
X352000000Y-223100000D02*
X350000000Y-223100000D01*
X352000000Y-237100000D02*
X350000000Y-237100000D01*
X352000000Y-235100000D02*
X352000000Y-237100000D01*
X352000000Y-225100000D02*
X352000000Y-223100000D01*
X338000000Y-223100000D02*
X340000000Y-223100000D01*
G04 #@! TO.C,SW20*
X295000000Y-237100000D02*
X293000000Y-237100000D01*
X281000000Y-237100000D02*
X281000000Y-235100000D01*
X281000000Y-223100000D02*
X283000000Y-223100000D01*
X281000000Y-225100000D02*
X281000000Y-223100000D01*
X295000000Y-225100000D02*
X295000000Y-223100000D01*
X295000000Y-223100000D02*
X293000000Y-223100000D01*
X283000000Y-237100000D02*
X281000000Y-237100000D01*
X295000000Y-235100000D02*
X295000000Y-237100000D01*
G04 #@! TO.C,R16*
X328022936Y-171410000D02*
X329477064Y-171410000D01*
X328022936Y-169590000D02*
X329477064Y-169590000D01*
G04 #@! TO.C,SW6*
X129000000Y-237100000D02*
X129000000Y-235100000D01*
X143000000Y-223100000D02*
X141000000Y-223100000D01*
X143000000Y-235100000D02*
X143000000Y-237100000D01*
X129000000Y-223100000D02*
X131000000Y-223100000D01*
X143000000Y-225100000D02*
X143000000Y-223100000D01*
X131000000Y-237100000D02*
X129000000Y-237100000D01*
X143000000Y-237100000D02*
X141000000Y-237100000D01*
X129000000Y-225100000D02*
X129000000Y-223100000D01*
G04 #@! TO.C,SW15*
X238000000Y-223100000D02*
X236000000Y-223100000D01*
X238000000Y-237100000D02*
X236000000Y-237100000D01*
X224000000Y-237100000D02*
X224000000Y-235100000D01*
X238000000Y-225100000D02*
X238000000Y-223100000D01*
X224000000Y-225100000D02*
X224000000Y-223100000D01*
X238000000Y-235100000D02*
X238000000Y-237100000D01*
X224000000Y-223100000D02*
X226000000Y-223100000D01*
X226000000Y-237100000D02*
X224000000Y-237100000D01*
G04 #@! TO.C,SW16*
X233000000Y-194000000D02*
X233000000Y-196000000D01*
X245000000Y-208000000D02*
X247000000Y-208000000D01*
X247000000Y-208000000D02*
X247000000Y-206000000D01*
X235000000Y-194000000D02*
X233000000Y-194000000D01*
X233000000Y-208000000D02*
X235000000Y-208000000D01*
X247000000Y-196000000D02*
X247000000Y-194000000D01*
X233000000Y-206000000D02*
X233000000Y-208000000D01*
X247000000Y-194000000D02*
X245000000Y-194000000D01*
G04 #@! TO.C,R37*
X257977064Y-205340000D02*
X256522936Y-205340000D01*
X257977064Y-207160000D02*
X256522936Y-207160000D01*
G04 #@! TO.C,R17*
X329477064Y-176410000D02*
X328022936Y-176410000D01*
X329477064Y-174590000D02*
X328022936Y-174590000D01*
G04 #@! TO.C,R36*
X257977064Y-199840000D02*
X256522936Y-199840000D01*
X257977064Y-201660000D02*
X256522936Y-201660000D01*
G04 #@! TO.C,BAR1*
X45480000Y-207732500D02*
X45480000Y-197292500D01*
X45480000Y-197292500D02*
X71160000Y-197292500D01*
X71450000Y-198702500D02*
X71450000Y-197002500D01*
X71160000Y-207732500D02*
X45480000Y-207732500D01*
X71450000Y-197002500D02*
X69750000Y-197002500D01*
X71160000Y-197292500D02*
X71160000Y-207732500D01*
G04 #@! TO.C,SW1*
X86000000Y-223100000D02*
X84000000Y-223100000D01*
X74000000Y-237100000D02*
X72000000Y-237100000D01*
X72000000Y-223100000D02*
X74000000Y-223100000D01*
X86000000Y-237100000D02*
X84000000Y-237100000D01*
X86000000Y-235100000D02*
X86000000Y-237100000D01*
X72000000Y-237100000D02*
X72000000Y-235100000D01*
X86000000Y-225100000D02*
X86000000Y-223100000D01*
X72000000Y-225100000D02*
X72000000Y-223100000D01*
G04 #@! TO.C,SW24*
X333000000Y-225100000D02*
X333000000Y-223100000D01*
X321000000Y-237100000D02*
X319000000Y-237100000D01*
X333000000Y-223100000D02*
X331000000Y-223100000D01*
X319000000Y-237100000D02*
X319000000Y-235100000D01*
X333000000Y-237100000D02*
X331000000Y-237100000D01*
X319000000Y-223100000D02*
X321000000Y-223100000D01*
X319000000Y-225100000D02*
X319000000Y-223100000D01*
X333000000Y-235100000D02*
X333000000Y-237100000D01*
G04 #@! TO.C,D3*
X333435000Y-192740000D02*
X331165000Y-192740000D01*
X333435000Y-196800000D02*
X333435000Y-192740000D01*
X331165000Y-192740000D02*
X331165000Y-196800000D01*
G04 #@! TO.C,J4*
X91917500Y-131950000D02*
X99017500Y-131950000D01*
X99017500Y-131950000D02*
X99017500Y-145750000D01*
X99017500Y-145750000D02*
X91917500Y-145750000D01*
X91917500Y-145750000D02*
X91917500Y-131950000D01*
X92517500Y-130750000D02*
X98517500Y-130750000D01*
X98517500Y-130750000D02*
X98517500Y-131950000D01*
X98517500Y-131950000D02*
X92517500Y-131950000D01*
X92517500Y-131950000D02*
X92517500Y-130750000D01*
G04 #@! TO.C,SW14*
X214000000Y-206000000D02*
X214000000Y-208000000D01*
X228000000Y-208000000D02*
X228000000Y-206000000D01*
X214000000Y-194000000D02*
X214000000Y-196000000D01*
X228000000Y-196000000D02*
X228000000Y-194000000D01*
X226000000Y-208000000D02*
X228000000Y-208000000D01*
X214000000Y-208000000D02*
X216000000Y-208000000D01*
X228000000Y-194000000D02*
X226000000Y-194000000D01*
X216000000Y-194000000D02*
X214000000Y-194000000D01*
G04 #@! TO.C,SW13*
X207000000Y-237100000D02*
X205000000Y-237100000D01*
X219000000Y-223100000D02*
X217000000Y-223100000D01*
X205000000Y-223100000D02*
X207000000Y-223100000D01*
X219000000Y-237100000D02*
X217000000Y-237100000D01*
X205000000Y-225100000D02*
X205000000Y-223100000D01*
X219000000Y-235100000D02*
X219000000Y-237100000D01*
X205000000Y-237100000D02*
X205000000Y-235100000D01*
X219000000Y-225100000D02*
X219000000Y-223100000D01*
G04 #@! TO.C,SW18*
X262000000Y-237100000D02*
X262000000Y-235100000D01*
X276000000Y-235100000D02*
X276000000Y-237100000D01*
X276000000Y-223100000D02*
X274000000Y-223100000D01*
X264000000Y-237100000D02*
X262000000Y-237100000D01*
X262000000Y-223100000D02*
X264000000Y-223100000D01*
X276000000Y-237100000D02*
X274000000Y-237100000D01*
X262000000Y-225100000D02*
X262000000Y-223100000D01*
X276000000Y-225100000D02*
X276000000Y-223100000D01*
G04 #@! TO.C,SW23*
X323000000Y-208000000D02*
X323000000Y-206000000D01*
X309000000Y-194000000D02*
X309000000Y-196000000D01*
X311000000Y-194000000D02*
X309000000Y-194000000D01*
X323000000Y-196000000D02*
X323000000Y-194000000D01*
X321000000Y-208000000D02*
X323000000Y-208000000D01*
X323000000Y-194000000D02*
X321000000Y-194000000D01*
X309000000Y-208000000D02*
X311000000Y-208000000D01*
X309000000Y-206000000D02*
X309000000Y-208000000D01*
G04 #@! TO.C,J6*
X64120000Y-143135000D02*
X64120000Y-143575000D01*
X65266195Y-131995000D02*
X65266195Y-140625000D01*
X66565240Y-131995000D02*
X66565240Y-140625000D01*
X63400000Y-143135000D02*
X63400000Y-143575000D01*
X64120000Y-140625000D02*
X64120000Y-141035000D01*
X65502385Y-131995000D02*
X65502385Y-140625000D01*
X65738575Y-131995000D02*
X65738575Y-140625000D01*
X67391905Y-131995000D02*
X67391905Y-140625000D01*
X67630000Y-131995000D02*
X67630000Y-140625000D01*
X67155715Y-131995000D02*
X67155715Y-140625000D01*
X65940000Y-143135000D02*
X65940000Y-143515000D01*
X66210955Y-131995000D02*
X66210955Y-140625000D01*
X66919525Y-131995000D02*
X66919525Y-140625000D01*
X67630000Y-144625000D02*
X67630000Y-145735000D01*
X65384290Y-131995000D02*
X65384290Y-140625000D01*
X63400000Y-140625000D02*
X63400000Y-141035000D01*
X66329050Y-131995000D02*
X66329050Y-140625000D01*
X66092860Y-131995000D02*
X66092860Y-140625000D01*
X67273810Y-131995000D02*
X67273810Y-140625000D01*
X67510000Y-131995000D02*
X67510000Y-140625000D01*
X66660000Y-140625000D02*
X66660000Y-141035000D01*
X65620480Y-131995000D02*
X65620480Y-140625000D01*
X65940000Y-140625000D02*
X65940000Y-141035000D01*
X66447145Y-131995000D02*
X66447145Y-140625000D01*
X66683335Y-131995000D02*
X66683335Y-140625000D01*
X67630000Y-131995000D02*
X62430000Y-131995000D01*
X66801430Y-131995000D02*
X66801430Y-140625000D01*
X67037620Y-131995000D02*
X67037620Y-140625000D01*
X65974765Y-131995000D02*
X65974765Y-140625000D01*
X65030000Y-131995000D02*
X65030000Y-140625000D01*
X62430000Y-131995000D02*
X62430000Y-140625000D01*
X66660000Y-143135000D02*
X66660000Y-143515000D01*
X67630000Y-140625000D02*
X62430000Y-140625000D01*
X65856670Y-131995000D02*
X65856670Y-140625000D01*
X65148100Y-131995000D02*
X65148100Y-140625000D01*
X67630000Y-145735000D02*
X66300000Y-145735000D01*
G04 #@! TO.C,J9*
X38750000Y-165982500D02*
X39950000Y-165982500D01*
X39950000Y-165982500D02*
X39950000Y-159982500D01*
X39950000Y-159982500D02*
X38750000Y-159982500D01*
X38750000Y-159982500D02*
X38750000Y-165982500D01*
X39950000Y-166582500D02*
X53750000Y-166582500D01*
X53750000Y-166582500D02*
X53750000Y-159482500D01*
X53750000Y-159482500D02*
X39950000Y-159482500D01*
X39950000Y-159482500D02*
X39950000Y-166582500D01*
G04 #@! TO.C,SW8*
X150000000Y-237100000D02*
X148000000Y-237100000D01*
X162000000Y-225100000D02*
X162000000Y-223100000D01*
X162000000Y-237100000D02*
X160000000Y-237100000D01*
X148000000Y-237100000D02*
X148000000Y-235100000D01*
X148000000Y-223100000D02*
X150000000Y-223100000D01*
X148000000Y-225100000D02*
X148000000Y-223100000D01*
X162000000Y-223100000D02*
X160000000Y-223100000D01*
X162000000Y-235100000D02*
X162000000Y-237100000D01*
G04 #@! TO.C,J5*
X85279050Y-132010000D02*
X85279050Y-140640000D01*
X84334290Y-132010000D02*
X84334290Y-140640000D01*
X84452385Y-132010000D02*
X84452385Y-140640000D01*
X84098100Y-132010000D02*
X84098100Y-140640000D01*
X84688575Y-132010000D02*
X84688575Y-140640000D01*
X86580000Y-132010000D02*
X86580000Y-140640000D01*
X82350000Y-140640000D02*
X82350000Y-141050000D01*
X76360000Y-132010000D02*
X76360000Y-140640000D01*
X77990000Y-140640000D02*
X77990000Y-141050000D01*
X86580000Y-132010000D02*
X73760000Y-132010000D01*
X85869525Y-132010000D02*
X85869525Y-140640000D01*
X86580000Y-143210000D02*
X85250000Y-143210000D01*
X86580000Y-142100000D02*
X86580000Y-143210000D01*
X85515240Y-132010000D02*
X85515240Y-140640000D01*
X81440000Y-132010000D02*
X81440000Y-140640000D01*
X85397145Y-132010000D02*
X85397145Y-140640000D01*
X85987620Y-132010000D02*
X85987620Y-140640000D01*
X85160955Y-132010000D02*
X85160955Y-140640000D01*
X84924765Y-132010000D02*
X84924765Y-140640000D01*
X86580000Y-140640000D02*
X73760000Y-140640000D01*
X74730000Y-140640000D02*
X74730000Y-141050000D01*
X86105715Y-132010000D02*
X86105715Y-140640000D01*
X86341905Y-132010000D02*
X86341905Y-140640000D01*
X78900000Y-132010000D02*
X78900000Y-140640000D01*
X85633335Y-132010000D02*
X85633335Y-140640000D01*
X77270000Y-140640000D02*
X77270000Y-141050000D01*
X83980000Y-132010000D02*
X83980000Y-140640000D01*
X84216195Y-132010000D02*
X84216195Y-140640000D01*
X75450000Y-140640000D02*
X75450000Y-141050000D01*
X84570480Y-132010000D02*
X84570480Y-140640000D01*
X79810000Y-140640000D02*
X79810000Y-141050000D01*
X84890000Y-140640000D02*
X84890000Y-140990000D01*
X86460000Y-132010000D02*
X86460000Y-140640000D01*
X80530000Y-140640000D02*
X80530000Y-141050000D01*
X85751430Y-132010000D02*
X85751430Y-140640000D01*
X73760000Y-132010000D02*
X73760000Y-140640000D01*
X85610000Y-140640000D02*
X85610000Y-140990000D01*
X85042860Y-132010000D02*
X85042860Y-140640000D01*
X86223810Y-132010000D02*
X86223810Y-140640000D01*
X83070000Y-140640000D02*
X83070000Y-141050000D01*
X84806670Y-132010000D02*
X84806670Y-140640000D01*
G04 #@! TD*
%LPC*%
D14*
G04 #@! TO.C,U3*
X292790000Y-165380000D03*
D15*
X295330000Y-165380000D03*
X297870000Y-165380000D03*
X300410000Y-165380000D03*
X302950000Y-165380000D03*
X305490000Y-165380000D03*
X308030000Y-165380000D03*
X310570000Y-165380000D03*
X313110000Y-165380000D03*
X315650000Y-165380000D03*
X318190000Y-165380000D03*
X320730000Y-165380000D03*
X323270000Y-165380000D03*
X325810000Y-165380000D03*
X328350000Y-165380000D03*
X330890000Y-165380000D03*
X333430000Y-165380000D03*
X335970000Y-165380000D03*
X338510000Y-165380000D03*
X341050000Y-165380000D03*
X343590000Y-165380000D03*
X346130000Y-165380000D03*
X348670000Y-165380000D03*
X351210000Y-165380000D03*
X351210000Y-180620000D03*
X348670000Y-180620000D03*
X346130000Y-180620000D03*
X343590000Y-180620000D03*
X341050000Y-180620000D03*
X338510000Y-180620000D03*
X335970000Y-180620000D03*
X333430000Y-180620000D03*
X330890000Y-180620000D03*
X328350000Y-180620000D03*
X325810000Y-180620000D03*
X323270000Y-180620000D03*
X320730000Y-180620000D03*
X318190000Y-180620000D03*
X315650000Y-180620000D03*
X313110000Y-180620000D03*
X310570000Y-180620000D03*
X308030000Y-180620000D03*
X305490000Y-180620000D03*
X302950000Y-180620000D03*
X300410000Y-180620000D03*
X297870000Y-180620000D03*
X295330000Y-180620000D03*
X292790000Y-180620000D03*
X295330000Y-178080000D03*
X338510000Y-167920000D03*
X338510000Y-170460000D03*
X338510000Y-173000000D03*
X338510000Y-175540000D03*
X338510000Y-178080000D03*
D14*
X299089200Y-168430800D03*
D15*
X301629200Y-168430800D03*
X304169200Y-168430800D03*
X306709200Y-168430800D03*
X309249200Y-168430800D03*
D16*
X305760000Y-178181600D03*
D17*
X305760000Y-176181600D03*
X305760000Y-174181600D03*
X307760000Y-174181600D03*
X307760000Y-176181600D03*
X307760000Y-178181600D03*
X293520000Y-174270000D03*
X293520000Y-171730000D03*
G04 #@! TD*
D14*
G04 #@! TO.C,C20*
X330497349Y-205300000D03*
D15*
X334297349Y-205300000D03*
G04 #@! TD*
D18*
G04 #@! TO.C,ENC2*
X175050000Y-145875000D03*
D19*
X175050000Y-150875000D03*
X175050000Y-148375000D03*
D20*
X182550000Y-142775000D03*
X182550000Y-153975000D03*
D19*
X189550000Y-150875000D03*
X189550000Y-145875000D03*
G04 #@! TD*
D18*
G04 #@! TO.C,ENC4*
X238750000Y-145875000D03*
D19*
X238750000Y-150875000D03*
X238750000Y-148375000D03*
D20*
X246250000Y-142775000D03*
X246250000Y-153975000D03*
D19*
X253250000Y-150875000D03*
X253250000Y-145875000D03*
G04 #@! TD*
D18*
G04 #@! TO.C,ENC1*
X143050000Y-145875000D03*
D19*
X143050000Y-150875000D03*
X143050000Y-148375000D03*
D20*
X150550000Y-142775000D03*
X150550000Y-153975000D03*
D19*
X157550000Y-150875000D03*
X157550000Y-145875000D03*
G04 #@! TD*
D18*
G04 #@! TO.C,ENC3*
X207050000Y-145875000D03*
D19*
X207050000Y-150875000D03*
X207050000Y-148375000D03*
D20*
X214550000Y-142775000D03*
X214550000Y-153975000D03*
D19*
X221550000Y-150875000D03*
X221550000Y-145875000D03*
G04 #@! TD*
D21*
G04 #@! TO.C,SW27*
X139500000Y-181375000D03*
X139500000Y-168875000D03*
X144500000Y-181375000D03*
X144500000Y-168875000D03*
G04 #@! TD*
G04 #@! TO.C,SW34*
X251500000Y-181375000D03*
X251500000Y-168875000D03*
X256500000Y-181375000D03*
X256500000Y-168875000D03*
G04 #@! TD*
G04 #@! TO.C,SW28*
X155500000Y-181375000D03*
X155500000Y-168875000D03*
X160500000Y-181375000D03*
X160500000Y-168875000D03*
G04 #@! TD*
G04 #@! TO.C,SW30*
X187500000Y-181375000D03*
X187500000Y-168875000D03*
X192500000Y-181375000D03*
X192500000Y-168875000D03*
G04 #@! TD*
G04 #@! TO.C,SW32*
X219500000Y-181375000D03*
X219500000Y-168875000D03*
X224500000Y-181375000D03*
X224500000Y-168875000D03*
G04 #@! TD*
G04 #@! TO.C,SW29*
X171500000Y-181375000D03*
X171500000Y-168875000D03*
X176500000Y-181375000D03*
X176500000Y-168875000D03*
G04 #@! TD*
G04 #@! TO.C,SW31*
X203500000Y-181375000D03*
X203500000Y-168875000D03*
X208500000Y-181375000D03*
X208500000Y-168875000D03*
G04 #@! TD*
G04 #@! TO.C,SW33*
X235500000Y-181375000D03*
X235500000Y-168875000D03*
X240500000Y-181375000D03*
X240500000Y-168875000D03*
G04 #@! TD*
D22*
G04 #@! TO.C,SW26*
X339260000Y-199500000D03*
X351760000Y-199500000D03*
X339260000Y-204500000D03*
X351760000Y-204500000D03*
G04 #@! TD*
D14*
G04 #@! TO.C,MIC*
X54250000Y-136575000D03*
D15*
X56750000Y-136575000D03*
G04 #@! TD*
D14*
G04 #@! TO.C,C1*
X64502651Y-165700000D03*
D15*
X60702651Y-165700000D03*
G04 #@! TD*
D14*
G04 #@! TO.C,C2*
X64502651Y-155200000D03*
D15*
X60702651Y-155200000D03*
G04 #@! TD*
D23*
G04 #@! TO.C,SW21*
X291920000Y-201000000D03*
D24*
X291500000Y-201000000D03*
D25*
X291780000Y-205200000D03*
D24*
X302500000Y-201000000D03*
D26*
X297000000Y-201000000D03*
D23*
X302080000Y-201000000D03*
G36*
G01*
X299423483Y-197622395D02*
X299423483Y-197622395D01*
G75*
G02*
X298377605Y-196423483I76517J1122395D01*
G01*
X298417147Y-195843451D01*
G75*
G02*
X299616059Y-194797573I1122395J-76517D01*
G01*
X299616059Y-194797573D01*
G75*
G02*
X300661937Y-195996485I-76517J-1122395D01*
G01*
X300622395Y-196576517D01*
G75*
G02*
X299423483Y-197622395I-1122395J76517D01*
G01*
G37*
D27*
X299540000Y-195920000D03*
D19*
X302000000Y-197200000D03*
X297000000Y-195100000D03*
D27*
X294500000Y-197000000D03*
G36*
G01*
X292438688Y-199297350D02*
X292438688Y-199297350D01*
G75*
G02*
X292352650Y-197708688I751312J837350D01*
G01*
X293662640Y-196248680D01*
G75*
G02*
X295251302Y-196162642I837350J-751312D01*
G01*
X295251302Y-196162642D01*
G75*
G02*
X295337340Y-197751304I-751312J-837350D01*
G01*
X294027350Y-199211312D01*
G75*
G02*
X292438688Y-199297350I-837350J751312D01*
G01*
G37*
G04 #@! TD*
G04 #@! TO.C,R11*
G36*
G01*
X346600000Y-147875000D02*
X346600000Y-149125000D01*
G75*
G02*
X346350000Y-149375000I-250000J0D01*
G01*
X345550000Y-149375000D01*
G75*
G02*
X345300000Y-149125000I0J250000D01*
G01*
X345300000Y-147875000D01*
G75*
G02*
X345550000Y-147625000I250000J0D01*
G01*
X346350000Y-147625000D01*
G75*
G02*
X346600000Y-147875000I0J-250000D01*
G01*
G37*
G36*
G01*
X343500000Y-147875000D02*
X343500000Y-149125000D01*
G75*
G02*
X343250000Y-149375000I-250000J0D01*
G01*
X342450000Y-149375000D01*
G75*
G02*
X342200000Y-149125000I0J250000D01*
G01*
X342200000Y-147875000D01*
G75*
G02*
X342450000Y-147625000I250000J0D01*
G01*
X343250000Y-147625000D01*
G75*
G02*
X343500000Y-147875000I0J-250000D01*
G01*
G37*
G04 #@! TD*
D24*
G04 #@! TO.C,SW17*
X250000000Y-235627000D03*
X250000000Y-224627000D03*
D28*
X256985000Y-218189000D03*
D26*
X241745000Y-242065000D03*
D23*
X250000000Y-225047000D03*
X250000000Y-235207000D03*
D25*
X245800000Y-224907000D03*
D26*
X241745000Y-218189000D03*
D28*
X256985000Y-242065000D03*
D26*
X250000000Y-230127000D03*
D27*
X254000000Y-227627000D03*
G36*
G01*
X251702650Y-225565688D02*
X251702650Y-225565688D01*
G75*
G02*
X253291312Y-225479650I837350J-751312D01*
G01*
X254751320Y-226789640D01*
G75*
G02*
X254837358Y-228378302I-751312J-837350D01*
G01*
X254837358Y-228378302D01*
G75*
G02*
X253248696Y-228464340I-837350J751312D01*
G01*
X251788688Y-227154350D01*
G75*
G02*
X251702650Y-225565688I751312J837350D01*
G01*
G37*
D19*
X255900000Y-230127000D03*
D27*
X255080000Y-232667000D03*
G36*
G01*
X253377605Y-232550483D02*
X253377605Y-232550483D01*
G75*
G02*
X254576517Y-231504605I1122395J-76517D01*
G01*
X255156549Y-231544147D01*
G75*
G02*
X256202427Y-232743059I-76517J-1122395D01*
G01*
X256202427Y-232743059D01*
G75*
G02*
X255003515Y-233788937I-1122395J76517D01*
G01*
X254423483Y-233749395D01*
G75*
G02*
X253377605Y-232550483I76517J1122395D01*
G01*
G37*
D19*
X253800000Y-235127000D03*
G04 #@! TD*
G04 #@! TO.C,R12*
G36*
G01*
X346600000Y-151475000D02*
X346600000Y-152725000D01*
G75*
G02*
X346350000Y-152975000I-250000J0D01*
G01*
X345550000Y-152975000D01*
G75*
G02*
X345300000Y-152725000I0J250000D01*
G01*
X345300000Y-151475000D01*
G75*
G02*
X345550000Y-151225000I250000J0D01*
G01*
X346350000Y-151225000D01*
G75*
G02*
X346600000Y-151475000I0J-250000D01*
G01*
G37*
G36*
G01*
X343500000Y-151475000D02*
X343500000Y-152725000D01*
G75*
G02*
X343250000Y-152975000I-250000J0D01*
G01*
X342450000Y-152975000D01*
G75*
G02*
X342200000Y-152725000I0J250000D01*
G01*
X342200000Y-151475000D01*
G75*
G02*
X342450000Y-151225000I250000J0D01*
G01*
X343250000Y-151225000D01*
G75*
G02*
X343500000Y-151475000I0J-250000D01*
G01*
G37*
G04 #@! TD*
D24*
G04 #@! TO.C,SW9*
X158500000Y-201000000D03*
D26*
X164000000Y-201000000D03*
D24*
X169500000Y-201000000D03*
D23*
X158920000Y-201000000D03*
D25*
X158780000Y-205200000D03*
D23*
X169080000Y-201000000D03*
G36*
G01*
X166423483Y-197622395D02*
X166423483Y-197622395D01*
G75*
G02*
X165377605Y-196423483I76517J1122395D01*
G01*
X165417147Y-195843451D01*
G75*
G02*
X166616059Y-194797573I1122395J-76517D01*
G01*
X166616059Y-194797573D01*
G75*
G02*
X167661937Y-195996485I-76517J-1122395D01*
G01*
X167622395Y-196576517D01*
G75*
G02*
X166423483Y-197622395I-1122395J76517D01*
G01*
G37*
D19*
X169000000Y-197200000D03*
D27*
X166540000Y-195920000D03*
D19*
X164000000Y-195100000D03*
G36*
G01*
X159438688Y-199297350D02*
X159438688Y-199297350D01*
G75*
G02*
X159352650Y-197708688I751312J837350D01*
G01*
X160662640Y-196248680D01*
G75*
G02*
X162251302Y-196162642I837350J-751312D01*
G01*
X162251302Y-196162642D01*
G75*
G02*
X162337340Y-197751304I-751312J-837350D01*
G01*
X161027350Y-199211312D01*
G75*
G02*
X159438688Y-199297350I-837350J751312D01*
G01*
G37*
D27*
X161500000Y-197000000D03*
G04 #@! TD*
D28*
G04 #@! TO.C,SW12*
X199985000Y-218189000D03*
D26*
X184745000Y-218189000D03*
D23*
X193000000Y-225047000D03*
D24*
X193000000Y-235627000D03*
D25*
X188800000Y-224907000D03*
D28*
X199985000Y-242065000D03*
D26*
X193000000Y-230127000D03*
D23*
X193000000Y-235207000D03*
D24*
X193000000Y-224627000D03*
D26*
X184745000Y-242065000D03*
D27*
X197000000Y-227627000D03*
D19*
X198900000Y-230127000D03*
G36*
G01*
X194702650Y-225565688D02*
X194702650Y-225565688D01*
G75*
G02*
X196291312Y-225479650I837350J-751312D01*
G01*
X197751320Y-226789640D01*
G75*
G02*
X197837358Y-228378302I-751312J-837350D01*
G01*
X197837358Y-228378302D01*
G75*
G02*
X196248696Y-228464340I-837350J751312D01*
G01*
X194788688Y-227154350D01*
G75*
G02*
X194702650Y-225565688I751312J837350D01*
G01*
G37*
G36*
G01*
X196377605Y-232550483D02*
X196377605Y-232550483D01*
G75*
G02*
X197576517Y-231504605I1122395J-76517D01*
G01*
X198156549Y-231544147D01*
G75*
G02*
X199202427Y-232743059I-76517J-1122395D01*
G01*
X199202427Y-232743059D01*
G75*
G02*
X198003515Y-233788937I-1122395J76517D01*
G01*
X197423483Y-233749395D01*
G75*
G02*
X196377605Y-232550483I76517J1122395D01*
G01*
G37*
D27*
X198080000Y-232667000D03*
D19*
X196800000Y-235127000D03*
G04 #@! TD*
D28*
G04 #@! TO.C,SW22*
X313985000Y-218189000D03*
D23*
X307000000Y-235207000D03*
D28*
X313985000Y-242065000D03*
D26*
X307000000Y-230127000D03*
D24*
X307000000Y-235627000D03*
D25*
X302800000Y-224907000D03*
D26*
X298745000Y-218189000D03*
D23*
X307000000Y-225047000D03*
D24*
X307000000Y-224627000D03*
D26*
X298745000Y-242065000D03*
G36*
G01*
X308702650Y-225565688D02*
X308702650Y-225565688D01*
G75*
G02*
X310291312Y-225479650I837350J-751312D01*
G01*
X311751320Y-226789640D01*
G75*
G02*
X311837358Y-228378302I-751312J-837350D01*
G01*
X311837358Y-228378302D01*
G75*
G02*
X310248696Y-228464340I-837350J751312D01*
G01*
X308788688Y-227154350D01*
G75*
G02*
X308702650Y-225565688I751312J837350D01*
G01*
G37*
D27*
X311000000Y-227627000D03*
D19*
X312900000Y-230127000D03*
D27*
X312080000Y-232667000D03*
G36*
G01*
X310377605Y-232550483D02*
X310377605Y-232550483D01*
G75*
G02*
X311576517Y-231504605I1122395J-76517D01*
G01*
X312156549Y-231544147D01*
G75*
G02*
X313202427Y-232743059I-76517J-1122395D01*
G01*
X313202427Y-232743059D01*
G75*
G02*
X312003515Y-233788937I-1122395J76517D01*
G01*
X311423483Y-233749395D01*
G75*
G02*
X310377605Y-232550483I76517J1122395D01*
G01*
G37*
D19*
X310800000Y-235127000D03*
G04 #@! TD*
D23*
G04 #@! TO.C,SW4*
X101920000Y-201000000D03*
D24*
X101500000Y-201000000D03*
D26*
X107000000Y-201000000D03*
D24*
X112500000Y-201000000D03*
D25*
X101780000Y-205200000D03*
D23*
X112080000Y-201000000D03*
G36*
G01*
X109423483Y-197622395D02*
X109423483Y-197622395D01*
G75*
G02*
X108377605Y-196423483I76517J1122395D01*
G01*
X108417147Y-195843451D01*
G75*
G02*
X109616059Y-194797573I1122395J-76517D01*
G01*
X109616059Y-194797573D01*
G75*
G02*
X110661937Y-195996485I-76517J-1122395D01*
G01*
X110622395Y-196576517D01*
G75*
G02*
X109423483Y-197622395I-1122395J76517D01*
G01*
G37*
D19*
X112000000Y-197200000D03*
D27*
X109540000Y-195920000D03*
X104500000Y-197000000D03*
G36*
G01*
X102438688Y-199297350D02*
X102438688Y-199297350D01*
G75*
G02*
X102352650Y-197708688I751312J837350D01*
G01*
X103662640Y-196248680D01*
G75*
G02*
X105251302Y-196162642I837350J-751312D01*
G01*
X105251302Y-196162642D01*
G75*
G02*
X105337340Y-197751304I-751312J-837350D01*
G01*
X104027350Y-199211312D01*
G75*
G02*
X102438688Y-199297350I-837350J751312D01*
G01*
G37*
D19*
X107000000Y-195100000D03*
G04 #@! TD*
D24*
G04 #@! TO.C,SW3*
X98000000Y-224627000D03*
D23*
X98000000Y-235207000D03*
D26*
X89745000Y-218189000D03*
X89745000Y-242065000D03*
D23*
X98000000Y-225047000D03*
D24*
X98000000Y-235627000D03*
D28*
X104985000Y-218189000D03*
X104985000Y-242065000D03*
D26*
X98000000Y-230127000D03*
D25*
X93800000Y-224907000D03*
G36*
G01*
X99702650Y-225565688D02*
X99702650Y-225565688D01*
G75*
G02*
X101291312Y-225479650I837350J-751312D01*
G01*
X102751320Y-226789640D01*
G75*
G02*
X102837358Y-228378302I-751312J-837350D01*
G01*
X102837358Y-228378302D01*
G75*
G02*
X101248696Y-228464340I-837350J751312D01*
G01*
X99788688Y-227154350D01*
G75*
G02*
X99702650Y-225565688I751312J837350D01*
G01*
G37*
D27*
X102000000Y-227627000D03*
D19*
X103900000Y-230127000D03*
G36*
G01*
X101377605Y-232550483D02*
X101377605Y-232550483D01*
G75*
G02*
X102576517Y-231504605I1122395J-76517D01*
G01*
X103156549Y-231544147D01*
G75*
G02*
X104202427Y-232743059I-76517J-1122395D01*
G01*
X104202427Y-232743059D01*
G75*
G02*
X103003515Y-233788937I-1122395J76517D01*
G01*
X102423483Y-233749395D01*
G75*
G02*
X101377605Y-232550483I76517J1122395D01*
G01*
G37*
D27*
X103080000Y-232667000D03*
D19*
X101800000Y-235127000D03*
G04 #@! TD*
D25*
G04 #@! TO.C,SW19*
X272780000Y-205200000D03*
D26*
X278000000Y-201000000D03*
D24*
X283500000Y-201000000D03*
D23*
X283080000Y-201000000D03*
X272920000Y-201000000D03*
D24*
X272500000Y-201000000D03*
D19*
X283000000Y-197200000D03*
G36*
G01*
X280423483Y-197622395D02*
X280423483Y-197622395D01*
G75*
G02*
X279377605Y-196423483I76517J1122395D01*
G01*
X279417147Y-195843451D01*
G75*
G02*
X280616059Y-194797573I1122395J-76517D01*
G01*
X280616059Y-194797573D01*
G75*
G02*
X281661937Y-195996485I-76517J-1122395D01*
G01*
X281622395Y-196576517D01*
G75*
G02*
X280423483Y-197622395I-1122395J76517D01*
G01*
G37*
D27*
X280540000Y-195920000D03*
G36*
G01*
X273438688Y-199297350D02*
X273438688Y-199297350D01*
G75*
G02*
X273352650Y-197708688I751312J837350D01*
G01*
X274662640Y-196248680D01*
G75*
G02*
X276251302Y-196162642I837350J-751312D01*
G01*
X276251302Y-196162642D01*
G75*
G02*
X276337340Y-197751304I-751312J-837350D01*
G01*
X275027350Y-199211312D01*
G75*
G02*
X273438688Y-199297350I-837350J751312D01*
G01*
G37*
D19*
X278000000Y-195100000D03*
D27*
X275500000Y-197000000D03*
G04 #@! TD*
D29*
G04 #@! TO.C,*
X44000000Y-136000000D03*
G04 #@! TD*
D17*
G04 #@! TO.C,J8*
X42250000Y-149982500D03*
X49250000Y-149982500D03*
D30*
X42750000Y-152382500D03*
X45750000Y-152382500D03*
X48550000Y-152382500D03*
X50750000Y-152382500D03*
X41850000Y-147582500D03*
X43750000Y-147582500D03*
X46750000Y-147582500D03*
X48750000Y-147582500D03*
G04 #@! TD*
G04 #@! TO.C,R14*
G36*
G01*
X346900000Y-141975000D02*
X346900000Y-143225000D01*
G75*
G02*
X346650000Y-143475000I-250000J0D01*
G01*
X345850000Y-143475000D01*
G75*
G02*
X345600000Y-143225000I0J250000D01*
G01*
X345600000Y-141975000D01*
G75*
G02*
X345850000Y-141725000I250000J0D01*
G01*
X346650000Y-141725000D01*
G75*
G02*
X346900000Y-141975000I0J-250000D01*
G01*
G37*
G36*
G01*
X343800000Y-141975000D02*
X343800000Y-143225000D01*
G75*
G02*
X343550000Y-143475000I-250000J0D01*
G01*
X342750000Y-143475000D01*
G75*
G02*
X342500000Y-143225000I0J250000D01*
G01*
X342500000Y-141975000D01*
G75*
G02*
X342750000Y-141725000I250000J0D01*
G01*
X343550000Y-141725000D01*
G75*
G02*
X343800000Y-141975000I0J-250000D01*
G01*
G37*
G04 #@! TD*
D31*
G04 #@! TO.C,BAR2*
X69750000Y-188000000D03*
D32*
X67210000Y-188000000D03*
X64670000Y-188000000D03*
X62130000Y-188000000D03*
X59590000Y-188000000D03*
X57050000Y-188000000D03*
X54510000Y-188000000D03*
X51970000Y-188000000D03*
X49430000Y-188000000D03*
X46890000Y-188000000D03*
X46890000Y-195620000D03*
X49430000Y-195620000D03*
X51970000Y-195620000D03*
X54510000Y-195620000D03*
X57050000Y-195620000D03*
X59590000Y-195620000D03*
X62130000Y-195620000D03*
X64670000Y-195620000D03*
X67210000Y-195620000D03*
X69750000Y-195620000D03*
G04 #@! TD*
D24*
G04 #@! TO.C,SW10*
X174000000Y-235627000D03*
D23*
X174000000Y-225047000D03*
D24*
X174000000Y-224627000D03*
D26*
X165745000Y-218189000D03*
D23*
X174000000Y-235207000D03*
D26*
X165745000Y-242065000D03*
X174000000Y-230127000D03*
D25*
X169800000Y-224907000D03*
D28*
X180985000Y-242065000D03*
X180985000Y-218189000D03*
D19*
X179900000Y-230127000D03*
G36*
G01*
X175702650Y-225565688D02*
X175702650Y-225565688D01*
G75*
G02*
X177291312Y-225479650I837350J-751312D01*
G01*
X178751320Y-226789640D01*
G75*
G02*
X178837358Y-228378302I-751312J-837350D01*
G01*
X178837358Y-228378302D01*
G75*
G02*
X177248696Y-228464340I-837350J751312D01*
G01*
X175788688Y-227154350D01*
G75*
G02*
X175702650Y-225565688I751312J837350D01*
G01*
G37*
D27*
X178000000Y-227627000D03*
X179080000Y-232667000D03*
G36*
G01*
X177377605Y-232550483D02*
X177377605Y-232550483D01*
G75*
G02*
X178576517Y-231504605I1122395J-76517D01*
G01*
X179156549Y-231544147D01*
G75*
G02*
X180202427Y-232743059I-76517J-1122395D01*
G01*
X180202427Y-232743059D01*
G75*
G02*
X179003515Y-233788937I-1122395J76517D01*
G01*
X178423483Y-233749395D01*
G75*
G02*
X177377605Y-232550483I76517J1122395D01*
G01*
G37*
D19*
X177800000Y-235127000D03*
G04 #@! TD*
D29*
G04 #@! TO.C,*
X212000000Y-213250000D03*
G04 #@! TD*
D23*
G04 #@! TO.C,SW7*
X150080000Y-201000000D03*
X139920000Y-201000000D03*
D24*
X150500000Y-201000000D03*
X139500000Y-201000000D03*
D25*
X139780000Y-205200000D03*
D26*
X145000000Y-201000000D03*
D27*
X147540000Y-195920000D03*
G36*
G01*
X147423483Y-197622395D02*
X147423483Y-197622395D01*
G75*
G02*
X146377605Y-196423483I76517J1122395D01*
G01*
X146417147Y-195843451D01*
G75*
G02*
X147616059Y-194797573I1122395J-76517D01*
G01*
X147616059Y-194797573D01*
G75*
G02*
X148661937Y-195996485I-76517J-1122395D01*
G01*
X148622395Y-196576517D01*
G75*
G02*
X147423483Y-197622395I-1122395J76517D01*
G01*
G37*
D19*
X150000000Y-197200000D03*
X145000000Y-195100000D03*
G36*
G01*
X140438688Y-199297350D02*
X140438688Y-199297350D01*
G75*
G02*
X140352650Y-197708688I751312J837350D01*
G01*
X141662640Y-196248680D01*
G75*
G02*
X143251302Y-196162642I837350J-751312D01*
G01*
X143251302Y-196162642D01*
G75*
G02*
X143337340Y-197751304I-751312J-837350D01*
G01*
X142027350Y-199211312D01*
G75*
G02*
X140438688Y-199297350I-837350J751312D01*
G01*
G37*
D27*
X142500000Y-197000000D03*
G04 #@! TD*
D25*
G04 #@! TO.C,SW11*
X177780000Y-205200000D03*
D23*
X177920000Y-201000000D03*
X188080000Y-201000000D03*
D24*
X177500000Y-201000000D03*
D26*
X183000000Y-201000000D03*
D24*
X188500000Y-201000000D03*
D27*
X185540000Y-195920000D03*
D19*
X188000000Y-197200000D03*
G36*
G01*
X185423483Y-197622395D02*
X185423483Y-197622395D01*
G75*
G02*
X184377605Y-196423483I76517J1122395D01*
G01*
X184417147Y-195843451D01*
G75*
G02*
X185616059Y-194797573I1122395J-76517D01*
G01*
X185616059Y-194797573D01*
G75*
G02*
X186661937Y-195996485I-76517J-1122395D01*
G01*
X186622395Y-196576517D01*
G75*
G02*
X185423483Y-197622395I-1122395J76517D01*
G01*
G37*
D27*
X180500000Y-197000000D03*
D19*
X183000000Y-195100000D03*
G36*
G01*
X178438688Y-199297350D02*
X178438688Y-199297350D01*
G75*
G02*
X178352650Y-197708688I751312J837350D01*
G01*
X179662640Y-196248680D01*
G75*
G02*
X181251302Y-196162642I837350J-751312D01*
G01*
X181251302Y-196162642D01*
G75*
G02*
X181337340Y-197751304I-751312J-837350D01*
G01*
X180027350Y-199211312D01*
G75*
G02*
X178438688Y-199297350I-837350J751312D01*
G01*
G37*
G04 #@! TD*
D23*
G04 #@! TO.C,SW2*
X93080000Y-201000000D03*
D24*
X82500000Y-201000000D03*
D23*
X82920000Y-201000000D03*
D26*
X88000000Y-201000000D03*
D24*
X93500000Y-201000000D03*
D25*
X82780000Y-205200000D03*
D19*
X93000000Y-197200000D03*
D27*
X90540000Y-195920000D03*
G36*
G01*
X90423483Y-197622395D02*
X90423483Y-197622395D01*
G75*
G02*
X89377605Y-196423483I76517J1122395D01*
G01*
X89417147Y-195843451D01*
G75*
G02*
X90616059Y-194797573I1122395J-76517D01*
G01*
X90616059Y-194797573D01*
G75*
G02*
X91661937Y-195996485I-76517J-1122395D01*
G01*
X91622395Y-196576517D01*
G75*
G02*
X90423483Y-197622395I-1122395J76517D01*
G01*
G37*
G36*
G01*
X83438688Y-199297350D02*
X83438688Y-199297350D01*
G75*
G02*
X83352650Y-197708688I751312J837350D01*
G01*
X84662640Y-196248680D01*
G75*
G02*
X86251302Y-196162642I837350J-751312D01*
G01*
X86251302Y-196162642D01*
G75*
G02*
X86337340Y-197751304I-751312J-837350D01*
G01*
X85027350Y-199211312D01*
G75*
G02*
X83438688Y-199297350I-837350J751312D01*
G01*
G37*
D19*
X88000000Y-195100000D03*
D27*
X85500000Y-197000000D03*
G04 #@! TD*
D17*
G04 #@! TO.C,J10*
X42250000Y-175982500D03*
X49250000Y-175982500D03*
D30*
X42750000Y-178382500D03*
X45750000Y-178382500D03*
X48550000Y-178382500D03*
X50750000Y-178382500D03*
X41850000Y-173582500D03*
X43750000Y-173582500D03*
X46750000Y-173582500D03*
X48750000Y-173582500D03*
G04 #@! TD*
D29*
G04 #@! TO.C,*
X44000000Y-213000000D03*
G04 #@! TD*
D33*
G04 #@! TO.C,U1*
X268050000Y-136855000D03*
X268050000Y-185895000D03*
X351350000Y-185895000D03*
X351350000Y-136855000D03*
D34*
X267050000Y-144955000D03*
D35*
X267050000Y-147495000D03*
X267050000Y-150035000D03*
X267050000Y-152575000D03*
X267050000Y-155115000D03*
X267050000Y-157655000D03*
X267050000Y-160195000D03*
X267050000Y-162735000D03*
X267050000Y-165275000D03*
X267050000Y-167815000D03*
X267050000Y-170355000D03*
X267050000Y-172895000D03*
X267050000Y-175435000D03*
X267050000Y-177975000D03*
G04 #@! TD*
D28*
G04 #@! TO.C,SW5*
X123985000Y-242065000D03*
X123985000Y-218189000D03*
D25*
X112800000Y-224907000D03*
D26*
X117000000Y-230127000D03*
D24*
X117000000Y-235627000D03*
D26*
X108745000Y-218189000D03*
D24*
X117000000Y-224627000D03*
D23*
X117000000Y-235207000D03*
X117000000Y-225047000D03*
D26*
X108745000Y-242065000D03*
G36*
G01*
X118702650Y-225565688D02*
X118702650Y-225565688D01*
G75*
G02*
X120291312Y-225479650I837350J-751312D01*
G01*
X121751320Y-226789640D01*
G75*
G02*
X121837358Y-228378302I-751312J-837350D01*
G01*
X121837358Y-228378302D01*
G75*
G02*
X120248696Y-228464340I-837350J751312D01*
G01*
X118788688Y-227154350D01*
G75*
G02*
X118702650Y-225565688I751312J837350D01*
G01*
G37*
D19*
X122900000Y-230127000D03*
D27*
X121000000Y-227627000D03*
G36*
G01*
X120377605Y-232550483D02*
X120377605Y-232550483D01*
G75*
G02*
X121576517Y-231504605I1122395J-76517D01*
G01*
X122156549Y-231544147D01*
G75*
G02*
X123202427Y-232743059I-76517J-1122395D01*
G01*
X123202427Y-232743059D01*
G75*
G02*
X122003515Y-233788937I-1122395J76517D01*
G01*
X121423483Y-233749395D01*
G75*
G02*
X120377605Y-232550483I76517J1122395D01*
G01*
G37*
X122080000Y-232667000D03*
D19*
X120800000Y-235127000D03*
G04 #@! TD*
G04 #@! TO.C,R13*
G36*
G01*
X346900000Y-138175000D02*
X346900000Y-139425000D01*
G75*
G02*
X346650000Y-139675000I-250000J0D01*
G01*
X345850000Y-139675000D01*
G75*
G02*
X345600000Y-139425000I0J250000D01*
G01*
X345600000Y-138175000D01*
G75*
G02*
X345850000Y-137925000I250000J0D01*
G01*
X346650000Y-137925000D01*
G75*
G02*
X346900000Y-138175000I0J-250000D01*
G01*
G37*
G36*
G01*
X343800000Y-138175000D02*
X343800000Y-139425000D01*
G75*
G02*
X343550000Y-139675000I-250000J0D01*
G01*
X342750000Y-139675000D01*
G75*
G02*
X342500000Y-139425000I0J250000D01*
G01*
X342500000Y-138175000D01*
G75*
G02*
X342750000Y-137925000I250000J0D01*
G01*
X343550000Y-137925000D01*
G75*
G02*
X343800000Y-138175000I0J-250000D01*
G01*
G37*
G04 #@! TD*
D24*
G04 #@! TO.C,SW25*
X345000000Y-235627000D03*
X345000000Y-224627000D03*
D26*
X336745000Y-242065000D03*
D28*
X351985000Y-218189000D03*
D23*
X345000000Y-235207000D03*
D26*
X336745000Y-218189000D03*
X345000000Y-230127000D03*
D23*
X345000000Y-225047000D03*
D28*
X351985000Y-242065000D03*
D25*
X340800000Y-224907000D03*
G36*
G01*
X346702650Y-225565688D02*
X346702650Y-225565688D01*
G75*
G02*
X348291312Y-225479650I837350J-751312D01*
G01*
X349751320Y-226789640D01*
G75*
G02*
X349837358Y-228378302I-751312J-837350D01*
G01*
X349837358Y-228378302D01*
G75*
G02*
X348248696Y-228464340I-837350J751312D01*
G01*
X346788688Y-227154350D01*
G75*
G02*
X346702650Y-225565688I751312J837350D01*
G01*
G37*
D27*
X349000000Y-227627000D03*
D19*
X350900000Y-230127000D03*
X348800000Y-235127000D03*
D27*
X350080000Y-232667000D03*
G36*
G01*
X348377605Y-232550483D02*
X348377605Y-232550483D01*
G75*
G02*
X349576517Y-231504605I1122395J-76517D01*
G01*
X350156549Y-231544147D01*
G75*
G02*
X351202427Y-232743059I-76517J-1122395D01*
G01*
X351202427Y-232743059D01*
G75*
G02*
X350003515Y-233788937I-1122395J76517D01*
G01*
X349423483Y-233749395D01*
G75*
G02*
X348377605Y-232550483I76517J1122395D01*
G01*
G37*
G04 #@! TD*
D28*
G04 #@! TO.C,SW20*
X294985000Y-218189000D03*
D23*
X288000000Y-235207000D03*
X288000000Y-225047000D03*
D26*
X288000000Y-230127000D03*
X279745000Y-218189000D03*
D24*
X288000000Y-224627000D03*
D26*
X279745000Y-242065000D03*
D28*
X294985000Y-242065000D03*
D25*
X283800000Y-224907000D03*
D24*
X288000000Y-235627000D03*
D19*
X293900000Y-230127000D03*
D27*
X292000000Y-227627000D03*
G36*
G01*
X289702650Y-225565688D02*
X289702650Y-225565688D01*
G75*
G02*
X291291312Y-225479650I837350J-751312D01*
G01*
X292751320Y-226789640D01*
G75*
G02*
X292837358Y-228378302I-751312J-837350D01*
G01*
X292837358Y-228378302D01*
G75*
G02*
X291248696Y-228464340I-837350J751312D01*
G01*
X289788688Y-227154350D01*
G75*
G02*
X289702650Y-225565688I751312J837350D01*
G01*
G37*
D19*
X291800000Y-235127000D03*
D27*
X293080000Y-232667000D03*
G36*
G01*
X291377605Y-232550483D02*
X291377605Y-232550483D01*
G75*
G02*
X292576517Y-231504605I1122395J-76517D01*
G01*
X293156549Y-231544147D01*
G75*
G02*
X294202427Y-232743059I-76517J-1122395D01*
G01*
X294202427Y-232743059D01*
G75*
G02*
X293003515Y-233788937I-1122395J76517D01*
G01*
X292423483Y-233749395D01*
G75*
G02*
X291377605Y-232550483I76517J1122395D01*
G01*
G37*
G04 #@! TD*
D29*
G04 #@! TO.C,*
X199000000Y-136000000D03*
G04 #@! TD*
G04 #@! TO.C,R16*
G36*
G01*
X326550000Y-171125000D02*
X326550000Y-169875000D01*
G75*
G02*
X326800000Y-169625000I250000J0D01*
G01*
X327600000Y-169625000D01*
G75*
G02*
X327850000Y-169875000I0J-250000D01*
G01*
X327850000Y-171125000D01*
G75*
G02*
X327600000Y-171375000I-250000J0D01*
G01*
X326800000Y-171375000D01*
G75*
G02*
X326550000Y-171125000I0J250000D01*
G01*
G37*
G36*
G01*
X329650000Y-171125000D02*
X329650000Y-169875000D01*
G75*
G02*
X329900000Y-169625000I250000J0D01*
G01*
X330700000Y-169625000D01*
G75*
G02*
X330950000Y-169875000I0J-250000D01*
G01*
X330950000Y-171125000D01*
G75*
G02*
X330700000Y-171375000I-250000J0D01*
G01*
X329900000Y-171375000D01*
G75*
G02*
X329650000Y-171125000I0J250000D01*
G01*
G37*
G04 #@! TD*
D26*
G04 #@! TO.C,SW6*
X127745000Y-242065000D03*
X127745000Y-218189000D03*
D23*
X136000000Y-225047000D03*
D28*
X142985000Y-242065000D03*
X142985000Y-218189000D03*
D24*
X136000000Y-235627000D03*
D23*
X136000000Y-235207000D03*
D24*
X136000000Y-224627000D03*
D25*
X131800000Y-224907000D03*
D26*
X136000000Y-230127000D03*
D27*
X140000000Y-227627000D03*
D19*
X141900000Y-230127000D03*
G36*
G01*
X137702650Y-225565688D02*
X137702650Y-225565688D01*
G75*
G02*
X139291312Y-225479650I837350J-751312D01*
G01*
X140751320Y-226789640D01*
G75*
G02*
X140837358Y-228378302I-751312J-837350D01*
G01*
X140837358Y-228378302D01*
G75*
G02*
X139248696Y-228464340I-837350J751312D01*
G01*
X137788688Y-227154350D01*
G75*
G02*
X137702650Y-225565688I751312J837350D01*
G01*
G37*
G36*
G01*
X139377605Y-232550483D02*
X139377605Y-232550483D01*
G75*
G02*
X140576517Y-231504605I1122395J-76517D01*
G01*
X141156549Y-231544147D01*
G75*
G02*
X142202427Y-232743059I-76517J-1122395D01*
G01*
X142202427Y-232743059D01*
G75*
G02*
X141003515Y-233788937I-1122395J76517D01*
G01*
X140423483Y-233749395D01*
G75*
G02*
X139377605Y-232550483I76517J1122395D01*
G01*
G37*
D27*
X141080000Y-232667000D03*
D19*
X139800000Y-235127000D03*
G04 #@! TD*
D23*
G04 #@! TO.C,SW15*
X231000000Y-225047000D03*
D25*
X226800000Y-224907000D03*
D24*
X231000000Y-235627000D03*
D26*
X222745000Y-218189000D03*
D23*
X231000000Y-235207000D03*
D24*
X231000000Y-224627000D03*
D26*
X231000000Y-230127000D03*
X222745000Y-242065000D03*
D28*
X237985000Y-218189000D03*
X237985000Y-242065000D03*
G36*
G01*
X232702650Y-225565688D02*
X232702650Y-225565688D01*
G75*
G02*
X234291312Y-225479650I837350J-751312D01*
G01*
X235751320Y-226789640D01*
G75*
G02*
X235837358Y-228378302I-751312J-837350D01*
G01*
X235837358Y-228378302D01*
G75*
G02*
X234248696Y-228464340I-837350J751312D01*
G01*
X232788688Y-227154350D01*
G75*
G02*
X232702650Y-225565688I751312J837350D01*
G01*
G37*
D19*
X236900000Y-230127000D03*
D27*
X235000000Y-227627000D03*
G36*
G01*
X234377605Y-232550483D02*
X234377605Y-232550483D01*
G75*
G02*
X235576517Y-231504605I1122395J-76517D01*
G01*
X236156549Y-231544147D01*
G75*
G02*
X237202427Y-232743059I-76517J-1122395D01*
G01*
X237202427Y-232743059D01*
G75*
G02*
X236003515Y-233788937I-1122395J76517D01*
G01*
X235423483Y-233749395D01*
G75*
G02*
X234377605Y-232550483I76517J1122395D01*
G01*
G37*
D19*
X234800000Y-235127000D03*
D27*
X236080000Y-232667000D03*
G04 #@! TD*
D23*
G04 #@! TO.C,SW16*
X245080000Y-201000000D03*
D24*
X245500000Y-201000000D03*
D25*
X234780000Y-205200000D03*
D24*
X234500000Y-201000000D03*
D23*
X234920000Y-201000000D03*
D26*
X240000000Y-201000000D03*
D19*
X245000000Y-197200000D03*
G36*
G01*
X242423483Y-197622395D02*
X242423483Y-197622395D01*
G75*
G02*
X241377605Y-196423483I76517J1122395D01*
G01*
X241417147Y-195843451D01*
G75*
G02*
X242616059Y-194797573I1122395J-76517D01*
G01*
X242616059Y-194797573D01*
G75*
G02*
X243661937Y-195996485I-76517J-1122395D01*
G01*
X243622395Y-196576517D01*
G75*
G02*
X242423483Y-197622395I-1122395J76517D01*
G01*
G37*
D27*
X242540000Y-195920000D03*
D19*
X240000000Y-195100000D03*
D27*
X237500000Y-197000000D03*
G36*
G01*
X235438688Y-199297350D02*
X235438688Y-199297350D01*
G75*
G02*
X235352650Y-197708688I751312J837350D01*
G01*
X236662640Y-196248680D01*
G75*
G02*
X238251302Y-196162642I837350J-751312D01*
G01*
X238251302Y-196162642D01*
G75*
G02*
X238337340Y-197751304I-751312J-837350D01*
G01*
X237027350Y-199211312D01*
G75*
G02*
X235438688Y-199297350I-837350J751312D01*
G01*
G37*
G04 #@! TD*
G04 #@! TO.C,R37*
G36*
G01*
X259450000Y-205625000D02*
X259450000Y-206875000D01*
G75*
G02*
X259200000Y-207125000I-250000J0D01*
G01*
X258400000Y-207125000D01*
G75*
G02*
X258150000Y-206875000I0J250000D01*
G01*
X258150000Y-205625000D01*
G75*
G02*
X258400000Y-205375000I250000J0D01*
G01*
X259200000Y-205375000D01*
G75*
G02*
X259450000Y-205625000I0J-250000D01*
G01*
G37*
G36*
G01*
X256350000Y-205625000D02*
X256350000Y-206875000D01*
G75*
G02*
X256100000Y-207125000I-250000J0D01*
G01*
X255300000Y-207125000D01*
G75*
G02*
X255050000Y-206875000I0J250000D01*
G01*
X255050000Y-205625000D01*
G75*
G02*
X255300000Y-205375000I250000J0D01*
G01*
X256100000Y-205375000D01*
G75*
G02*
X256350000Y-205625000I0J-250000D01*
G01*
G37*
G04 #@! TD*
G04 #@! TO.C,R17*
G36*
G01*
X330950000Y-174875000D02*
X330950000Y-176125000D01*
G75*
G02*
X330700000Y-176375000I-250000J0D01*
G01*
X329900000Y-176375000D01*
G75*
G02*
X329650000Y-176125000I0J250000D01*
G01*
X329650000Y-174875000D01*
G75*
G02*
X329900000Y-174625000I250000J0D01*
G01*
X330700000Y-174625000D01*
G75*
G02*
X330950000Y-174875000I0J-250000D01*
G01*
G37*
G36*
G01*
X327850000Y-174875000D02*
X327850000Y-176125000D01*
G75*
G02*
X327600000Y-176375000I-250000J0D01*
G01*
X326800000Y-176375000D01*
G75*
G02*
X326550000Y-176125000I0J250000D01*
G01*
X326550000Y-174875000D01*
G75*
G02*
X326800000Y-174625000I250000J0D01*
G01*
X327600000Y-174625000D01*
G75*
G02*
X327850000Y-174875000I0J-250000D01*
G01*
G37*
G04 #@! TD*
G04 #@! TO.C,R36*
G36*
G01*
X259450000Y-200125000D02*
X259450000Y-201375000D01*
G75*
G02*
X259200000Y-201625000I-250000J0D01*
G01*
X258400000Y-201625000D01*
G75*
G02*
X258150000Y-201375000I0J250000D01*
G01*
X258150000Y-200125000D01*
G75*
G02*
X258400000Y-199875000I250000J0D01*
G01*
X259200000Y-199875000D01*
G75*
G02*
X259450000Y-200125000I0J-250000D01*
G01*
G37*
G36*
G01*
X256350000Y-200125000D02*
X256350000Y-201375000D01*
G75*
G02*
X256100000Y-201625000I-250000J0D01*
G01*
X255300000Y-201625000D01*
G75*
G02*
X255050000Y-201375000I0J250000D01*
G01*
X255050000Y-200125000D01*
G75*
G02*
X255300000Y-199875000I250000J0D01*
G01*
X256100000Y-199875000D01*
G75*
G02*
X256350000Y-200125000I0J-250000D01*
G01*
G37*
G04 #@! TD*
D31*
G04 #@! TO.C,BAR1*
X69750000Y-198702500D03*
D32*
X67210000Y-198702500D03*
X64670000Y-198702500D03*
X62130000Y-198702500D03*
X59590000Y-198702500D03*
X57050000Y-198702500D03*
X54510000Y-198702500D03*
X51970000Y-198702500D03*
X49430000Y-198702500D03*
X46890000Y-198702500D03*
X46890000Y-206322500D03*
X49430000Y-206322500D03*
X51970000Y-206322500D03*
X54510000Y-206322500D03*
X57050000Y-206322500D03*
X59590000Y-206322500D03*
X62130000Y-206322500D03*
X64670000Y-206322500D03*
X67210000Y-206322500D03*
X69750000Y-206322500D03*
G04 #@! TD*
D24*
G04 #@! TO.C,SW1*
X79000000Y-235627000D03*
D23*
X79000000Y-235207000D03*
D25*
X74800000Y-224907000D03*
D23*
X79000000Y-225047000D03*
D26*
X79000000Y-230127000D03*
X70745000Y-218189000D03*
X70745000Y-242065000D03*
D28*
X85985000Y-218189000D03*
D24*
X79000000Y-224627000D03*
D28*
X85985000Y-242065000D03*
G36*
G01*
X80702650Y-225565688D02*
X80702650Y-225565688D01*
G75*
G02*
X82291312Y-225479650I837350J-751312D01*
G01*
X83751320Y-226789640D01*
G75*
G02*
X83837358Y-228378302I-751312J-837350D01*
G01*
X83837358Y-228378302D01*
G75*
G02*
X82248696Y-228464340I-837350J751312D01*
G01*
X80788688Y-227154350D01*
G75*
G02*
X80702650Y-225565688I751312J837350D01*
G01*
G37*
D27*
X83000000Y-227627000D03*
D19*
X84900000Y-230127000D03*
D27*
X84080000Y-232667000D03*
G36*
G01*
X82377605Y-232550483D02*
X82377605Y-232550483D01*
G75*
G02*
X83576517Y-231504605I1122395J-76517D01*
G01*
X84156549Y-231544147D01*
G75*
G02*
X85202427Y-232743059I-76517J-1122395D01*
G01*
X85202427Y-232743059D01*
G75*
G02*
X84003515Y-233788937I-1122395J76517D01*
G01*
X83423483Y-233749395D01*
G75*
G02*
X82377605Y-232550483I76517J1122395D01*
G01*
G37*
D19*
X82800000Y-235127000D03*
G04 #@! TD*
D24*
G04 #@! TO.C,SW24*
X326000000Y-224627000D03*
D28*
X332985000Y-242065000D03*
X332985000Y-218189000D03*
D23*
X326000000Y-235207000D03*
D26*
X317745000Y-242065000D03*
D24*
X326000000Y-235627000D03*
D25*
X321800000Y-224907000D03*
D26*
X326000000Y-230127000D03*
D23*
X326000000Y-225047000D03*
D26*
X317745000Y-218189000D03*
G36*
G01*
X327702650Y-225565688D02*
X327702650Y-225565688D01*
G75*
G02*
X329291312Y-225479650I837350J-751312D01*
G01*
X330751320Y-226789640D01*
G75*
G02*
X330837358Y-228378302I-751312J-837350D01*
G01*
X330837358Y-228378302D01*
G75*
G02*
X329248696Y-228464340I-837350J751312D01*
G01*
X327788688Y-227154350D01*
G75*
G02*
X327702650Y-225565688I751312J837350D01*
G01*
G37*
D19*
X331900000Y-230127000D03*
D27*
X330000000Y-227627000D03*
X331080000Y-232667000D03*
D19*
X329800000Y-235127000D03*
G36*
G01*
X329377605Y-232550483D02*
X329377605Y-232550483D01*
G75*
G02*
X330576517Y-231504605I1122395J-76517D01*
G01*
X331156549Y-231544147D01*
G75*
G02*
X332202427Y-232743059I-76517J-1122395D01*
G01*
X332202427Y-232743059D01*
G75*
G02*
X331003515Y-233788937I-1122395J76517D01*
G01*
X330423483Y-233749395D01*
G75*
G02*
X329377605Y-232550483I76517J1122395D01*
G01*
G37*
G04 #@! TD*
G04 #@! TO.C,D3*
G36*
G01*
X331675001Y-193000000D02*
X332924999Y-193000000D01*
G75*
G02*
X333175000Y-193250001I0J-250001D01*
G01*
X333175000Y-194174999D01*
G75*
G02*
X332924999Y-194425000I-250001J0D01*
G01*
X331675001Y-194425000D01*
G75*
G02*
X331425000Y-194174999I0J250001D01*
G01*
X331425000Y-193250001D01*
G75*
G02*
X331675001Y-193000000I250001J0D01*
G01*
G37*
G36*
G01*
X331675001Y-195975000D02*
X332924999Y-195975000D01*
G75*
G02*
X333175000Y-196225001I0J-250001D01*
G01*
X333175000Y-197149999D01*
G75*
G02*
X332924999Y-197400000I-250001J0D01*
G01*
X331675001Y-197400000D01*
G75*
G02*
X331425000Y-197149999I0J250001D01*
G01*
X331425000Y-196225001D01*
G75*
G02*
X331675001Y-195975000I250001J0D01*
G01*
G37*
G04 #@! TD*
D17*
G04 #@! TO.C,J4*
X95517500Y-134250000D03*
X95517500Y-141250000D03*
D36*
X93117500Y-134750000D03*
X93117500Y-137750000D03*
X93117500Y-140550000D03*
X93117500Y-142750000D03*
X97917500Y-133850000D03*
X97917500Y-135750000D03*
X97917500Y-138750000D03*
X97917500Y-140750000D03*
G04 #@! TD*
D24*
G04 #@! TO.C,SW14*
X226500000Y-201000000D03*
D26*
X221000000Y-201000000D03*
D23*
X215920000Y-201000000D03*
X226080000Y-201000000D03*
D25*
X215780000Y-205200000D03*
D24*
X215500000Y-201000000D03*
G36*
G01*
X223423483Y-197622395D02*
X223423483Y-197622395D01*
G75*
G02*
X222377605Y-196423483I76517J1122395D01*
G01*
X222417147Y-195843451D01*
G75*
G02*
X223616059Y-194797573I1122395J-76517D01*
G01*
X223616059Y-194797573D01*
G75*
G02*
X224661937Y-195996485I-76517J-1122395D01*
G01*
X224622395Y-196576517D01*
G75*
G02*
X223423483Y-197622395I-1122395J76517D01*
G01*
G37*
D19*
X226000000Y-197200000D03*
D27*
X223540000Y-195920000D03*
G36*
G01*
X216438688Y-199297350D02*
X216438688Y-199297350D01*
G75*
G02*
X216352650Y-197708688I751312J837350D01*
G01*
X217662640Y-196248680D01*
G75*
G02*
X219251302Y-196162642I837350J-751312D01*
G01*
X219251302Y-196162642D01*
G75*
G02*
X219337340Y-197751304I-751312J-837350D01*
G01*
X218027350Y-199211312D01*
G75*
G02*
X216438688Y-199297350I-837350J751312D01*
G01*
G37*
D19*
X221000000Y-195100000D03*
D27*
X218500000Y-197000000D03*
G04 #@! TD*
D28*
G04 #@! TO.C,SW13*
X218985000Y-218189000D03*
D26*
X203745000Y-218189000D03*
X203745000Y-242065000D03*
D23*
X212000000Y-225047000D03*
D28*
X218985000Y-242065000D03*
D24*
X212000000Y-224627000D03*
X212000000Y-235627000D03*
D25*
X207800000Y-224907000D03*
D26*
X212000000Y-230127000D03*
D23*
X212000000Y-235207000D03*
G36*
G01*
X213702650Y-225565688D02*
X213702650Y-225565688D01*
G75*
G02*
X215291312Y-225479650I837350J-751312D01*
G01*
X216751320Y-226789640D01*
G75*
G02*
X216837358Y-228378302I-751312J-837350D01*
G01*
X216837358Y-228378302D01*
G75*
G02*
X215248696Y-228464340I-837350J751312D01*
G01*
X213788688Y-227154350D01*
G75*
G02*
X213702650Y-225565688I751312J837350D01*
G01*
G37*
D27*
X216000000Y-227627000D03*
D19*
X217900000Y-230127000D03*
D27*
X217080000Y-232667000D03*
G36*
G01*
X215377605Y-232550483D02*
X215377605Y-232550483D01*
G75*
G02*
X216576517Y-231504605I1122395J-76517D01*
G01*
X217156549Y-231544147D01*
G75*
G02*
X218202427Y-232743059I-76517J-1122395D01*
G01*
X218202427Y-232743059D01*
G75*
G02*
X217003515Y-233788937I-1122395J76517D01*
G01*
X216423483Y-233749395D01*
G75*
G02*
X215377605Y-232550483I76517J1122395D01*
G01*
G37*
D19*
X215800000Y-235127000D03*
G04 #@! TD*
D26*
G04 #@! TO.C,SW18*
X269000000Y-230127000D03*
D25*
X264800000Y-224907000D03*
D23*
X269000000Y-225047000D03*
D26*
X260745000Y-218189000D03*
D28*
X275985000Y-218189000D03*
D23*
X269000000Y-235207000D03*
D24*
X269000000Y-235627000D03*
X269000000Y-224627000D03*
D28*
X275985000Y-242065000D03*
D26*
X260745000Y-242065000D03*
D19*
X274900000Y-230127000D03*
G36*
G01*
X270702650Y-225565688D02*
X270702650Y-225565688D01*
G75*
G02*
X272291312Y-225479650I837350J-751312D01*
G01*
X273751320Y-226789640D01*
G75*
G02*
X273837358Y-228378302I-751312J-837350D01*
G01*
X273837358Y-228378302D01*
G75*
G02*
X272248696Y-228464340I-837350J751312D01*
G01*
X270788688Y-227154350D01*
G75*
G02*
X270702650Y-225565688I751312J837350D01*
G01*
G37*
D27*
X273000000Y-227627000D03*
X274080000Y-232667000D03*
G36*
G01*
X272377605Y-232550483D02*
X272377605Y-232550483D01*
G75*
G02*
X273576517Y-231504605I1122395J-76517D01*
G01*
X274156549Y-231544147D01*
G75*
G02*
X275202427Y-232743059I-76517J-1122395D01*
G01*
X275202427Y-232743059D01*
G75*
G02*
X274003515Y-233788937I-1122395J76517D01*
G01*
X273423483Y-233749395D01*
G75*
G02*
X272377605Y-232550483I76517J1122395D01*
G01*
G37*
D19*
X272800000Y-235127000D03*
G04 #@! TD*
D29*
G04 #@! TO.C,*
X74750000Y-247000000D03*
G04 #@! TD*
D23*
G04 #@! TO.C,SW23*
X321080000Y-201000000D03*
D24*
X310500000Y-201000000D03*
D25*
X310780000Y-205200000D03*
D24*
X321500000Y-201000000D03*
D26*
X316000000Y-201000000D03*
D23*
X310920000Y-201000000D03*
D19*
X321000000Y-197200000D03*
G36*
G01*
X318423483Y-197622395D02*
X318423483Y-197622395D01*
G75*
G02*
X317377605Y-196423483I76517J1122395D01*
G01*
X317417147Y-195843451D01*
G75*
G02*
X318616059Y-194797573I1122395J-76517D01*
G01*
X318616059Y-194797573D01*
G75*
G02*
X319661937Y-195996485I-76517J-1122395D01*
G01*
X319622395Y-196576517D01*
G75*
G02*
X318423483Y-197622395I-1122395J76517D01*
G01*
G37*
D27*
X318540000Y-195920000D03*
X313500000Y-197000000D03*
D19*
X316000000Y-195100000D03*
G36*
G01*
X311438688Y-199297350D02*
X311438688Y-199297350D01*
G75*
G02*
X311352650Y-197708688I751312J837350D01*
G01*
X312662640Y-196248680D01*
G75*
G02*
X314251302Y-196162642I837350J-751312D01*
G01*
X314251302Y-196162642D01*
G75*
G02*
X314337340Y-197751304I-751312J-837350D01*
G01*
X313027350Y-199211312D01*
G75*
G02*
X311438688Y-199297350I-837350J751312D01*
G01*
G37*
G04 #@! TD*
D37*
G04 #@! TO.C,J6*
X66300000Y-144625000D03*
D38*
X66300000Y-142085000D03*
X63760000Y-144625000D03*
X63760000Y-142085000D03*
G04 #@! TD*
D17*
G04 #@! TO.C,J9*
X49250000Y-162982500D03*
X42250000Y-162982500D03*
D30*
X42750000Y-165382500D03*
X45750000Y-165382500D03*
X48550000Y-165382500D03*
X50750000Y-165382500D03*
X41850000Y-160582500D03*
X43750000Y-160582500D03*
X46750000Y-160582500D03*
X48750000Y-160582500D03*
G04 #@! TD*
D28*
G04 #@! TO.C,SW8*
X161985000Y-242065000D03*
D23*
X155000000Y-235207000D03*
D26*
X146745000Y-218189000D03*
X146745000Y-242065000D03*
X155000000Y-230127000D03*
D23*
X155000000Y-225047000D03*
D24*
X155000000Y-235627000D03*
D25*
X150800000Y-224907000D03*
D28*
X161985000Y-218189000D03*
D24*
X155000000Y-224627000D03*
D19*
X160900000Y-230127000D03*
G36*
G01*
X156702650Y-225565688D02*
X156702650Y-225565688D01*
G75*
G02*
X158291312Y-225479650I837350J-751312D01*
G01*
X159751320Y-226789640D01*
G75*
G02*
X159837358Y-228378302I-751312J-837350D01*
G01*
X159837358Y-228378302D01*
G75*
G02*
X158248696Y-228464340I-837350J751312D01*
G01*
X156788688Y-227154350D01*
G75*
G02*
X156702650Y-225565688I751312J837350D01*
G01*
G37*
D27*
X159000000Y-227627000D03*
G36*
G01*
X158377605Y-232550483D02*
X158377605Y-232550483D01*
G75*
G02*
X159576517Y-231504605I1122395J-76517D01*
G01*
X160156549Y-231544147D01*
G75*
G02*
X161202427Y-232743059I-76517J-1122395D01*
G01*
X161202427Y-232743059D01*
G75*
G02*
X160003515Y-233788937I-1122395J76517D01*
G01*
X159423483Y-233749395D01*
G75*
G02*
X158377605Y-232550483I76517J1122395D01*
G01*
G37*
X160080000Y-232667000D03*
D19*
X158800000Y-235127000D03*
G04 #@! TD*
D37*
G04 #@! TO.C,J5*
X85250000Y-142100000D03*
D38*
X82710000Y-142100000D03*
X80170000Y-142100000D03*
X77630000Y-142100000D03*
X75090000Y-142100000D03*
G04 #@! TD*
D29*
G04 #@! TO.C,*
X348000000Y-247000000D03*
G04 #@! TD*
D39*
G04 #@! TO.C,U2*
X96246869Y-159909832D03*
X98786869Y-159909832D03*
X101326869Y-159909832D03*
X103866869Y-159909832D03*
X106406869Y-159909832D03*
X108946869Y-159909832D03*
X111486869Y-159909832D03*
X114026869Y-159909832D03*
X116566869Y-159909832D03*
X119106869Y-159909832D03*
X121646869Y-159909832D03*
X124186869Y-159909832D03*
X126726869Y-159909832D03*
X129266869Y-159909832D03*
X96246869Y-170069832D03*
X96246869Y-167529832D03*
X129266869Y-175149832D03*
X126726869Y-175149832D03*
X124186869Y-175149832D03*
X121646869Y-175149832D03*
X119106869Y-175149832D03*
X116566869Y-175149832D03*
X114026869Y-175149832D03*
X111486869Y-175149832D03*
X108946869Y-175149832D03*
X106406869Y-175149832D03*
X103866869Y-175149832D03*
X101326869Y-175149832D03*
X98786869Y-175149832D03*
X96246869Y-175149832D03*
D35*
X117836869Y-178959832D03*
X115296869Y-178959832D03*
X112756869Y-178959832D03*
X110216869Y-178959832D03*
X107676869Y-178959832D03*
X110216869Y-181499832D03*
X107676869Y-181499832D03*
X121037269Y-154217692D03*
X121037269Y-151637052D03*
X121037269Y-149099592D03*
D39*
X103866869Y-148225832D03*
X101326869Y-148225832D03*
X98786869Y-148225832D03*
D35*
X112756869Y-181499832D03*
X117836869Y-181499832D03*
G04 #@! TD*
D14*
G04 #@! TO.C,D5*
X336110000Y-197300000D03*
D40*
X328490000Y-197300000D03*
G04 #@! TD*
D37*
G04 #@! TO.C,LS1*
X85475000Y-184250000D03*
D38*
X85475000Y-186790000D03*
G04 #@! TD*
D37*
G04 #@! TO.C,S1*
X92825000Y-246750000D03*
D38*
X90285000Y-246750000D03*
X87745000Y-246750000D03*
X85205000Y-246750000D03*
X82665000Y-246750000D03*
G04 #@! TD*
D41*
G04 #@! TO.C,J1*
X349800000Y-143810000D03*
X349800000Y-149590000D03*
D42*
X353450000Y-151020000D03*
X353450000Y-142380000D03*
D43*
X349270000Y-151020000D03*
X349270000Y-142380000D03*
G04 #@! TD*
D35*
G04 #@! TO.C,U10*
X285045000Y-179080000D03*
X282505000Y-179080000D03*
D34*
X279965000Y-179080000D03*
D35*
X277425000Y-179080000D03*
G04 #@! TD*
D14*
G04 #@! TO.C,D4*
X336110000Y-193300000D03*
D40*
X328490000Y-193300000D03*
G04 #@! TD*
D44*
G04 #@! TO.C,Q2*
X325230000Y-151460000D03*
D45*
X325230000Y-154000000D03*
X325230000Y-156540000D03*
G04 #@! TD*
G04 #@! TO.C,J3*
G36*
G01*
X298100000Y-149500000D02*
X296600000Y-149500000D01*
G75*
G02*
X296350000Y-149250000I0J250000D01*
G01*
X296350000Y-148050000D01*
G75*
G02*
X296600000Y-147800000I250000J0D01*
G01*
X298100000Y-147800000D01*
G75*
G02*
X298350000Y-148050000I0J-250000D01*
G01*
X298350000Y-149250000D01*
G75*
G02*
X298100000Y-149500000I-250000J0D01*
G01*
G37*
D36*
X297350000Y-146150000D03*
G04 #@! TD*
D44*
G04 #@! TO.C,Q1*
X340230000Y-136660000D03*
D45*
X340230000Y-139200000D03*
X340230000Y-141740000D03*
G04 #@! TD*
D37*
G04 #@! TO.C,LS2*
X91225000Y-184250000D03*
D38*
X91225000Y-186790000D03*
G04 #@! TD*
D46*
G04 #@! TO.C,D1*
X327720000Y-147000000D03*
D47*
X337880000Y-147000000D03*
G04 #@! TD*
D14*
G04 #@! TO.C,U8*
X49500000Y-184750000D03*
D40*
X52040000Y-184750000D03*
X54580000Y-184750000D03*
X57120000Y-184750000D03*
X59660000Y-184750000D03*
X62200000Y-184750000D03*
X64740000Y-184750000D03*
X67280000Y-184750000D03*
X69820000Y-184750000D03*
X69820000Y-192370000D03*
X67280000Y-192370000D03*
X64740000Y-192370000D03*
X62200000Y-192370000D03*
X59660000Y-192370000D03*
X57120000Y-192370000D03*
X54580000Y-192370000D03*
X52040000Y-192370000D03*
X49500000Y-192370000D03*
G04 #@! TD*
D37*
G04 #@! TO.C,J7*
X350025000Y-154200000D03*
D38*
X352565000Y-154200000D03*
G04 #@! TD*
G04 #@! TO.C,J2*
G36*
G01*
X294850000Y-140750000D02*
X293350000Y-140750000D01*
G75*
G02*
X293100000Y-140500000I0J250000D01*
G01*
X293100000Y-139300000D01*
G75*
G02*
X293350000Y-139050000I250000J0D01*
G01*
X294850000Y-139050000D01*
G75*
G02*
X295100000Y-139300000I0J-250000D01*
G01*
X295100000Y-140500000D01*
G75*
G02*
X294850000Y-140750000I-250000J0D01*
G01*
G37*
D36*
X294100000Y-137400000D03*
G04 #@! TD*
D48*
G04 #@! TO.C,Q3*
X347040000Y-213770000D03*
D49*
X347040000Y-212500000D03*
X347040000Y-211230000D03*
G04 #@! TD*
D14*
G04 #@! TO.C,U7*
X49350000Y-203450000D03*
D40*
X51890000Y-203450000D03*
X54430000Y-203450000D03*
X56970000Y-203450000D03*
X59510000Y-203450000D03*
X62050000Y-203450000D03*
X64590000Y-203450000D03*
X67130000Y-203450000D03*
X69670000Y-203450000D03*
X69670000Y-211070000D03*
X67130000Y-211070000D03*
X64590000Y-211070000D03*
X62050000Y-211070000D03*
X59510000Y-211070000D03*
X56970000Y-211070000D03*
X54430000Y-211070000D03*
X51890000Y-211070000D03*
X49350000Y-211070000D03*
G04 #@! TD*
M02*
