M48
; DRILL file {KiCad (6.0.1)} date Mon Mar 21 15:47:51 2022
; FORMAT={-:-/ absolute / metric / decimal}
; #@! TF.CreationDate,2022-03-21T15:47:51+08:00
; #@! TF.GenerationSoftware,Kicad,Pcbnew,(6.0.1)
; #@! TF.FileFunction,NonPlated,1,2,NPTH
FMAT,2
METRIC
; #@! TA.AperFunction,NonPlated,NPTH,ComponentDrill
T1C0.650
; #@! TA.AperFunction,NonPlated,NPTH,ComponentDrill
T2C1.200
; #@! TA.AperFunction,NonPlated,NPTH,ComponentDrill
T3C1.300
; #@! TA.AperFunction,NonPlated,NPTH,ComponentDrill
T4C1.700
; #@! TA.AperFunction,NonPlated,NPTH,ComponentDrill
T5C1.750
; #@! TA.AperFunction,NonPlated,NPTH,ComponentDrill
T6C3.048
; #@! TA.AperFunction,NonPlated,NPTH,ComponentDrill
T7C3.500
; #@! TA.AperFunction,NonPlated,NPTH,ComponentDrill
T8C3.988
%
G90
G05
T1
X349.8Y-143.81
X349.8Y-149.59
T2
X74.8Y-224.907
X82.78Y-205.2
X93.8Y-224.907
X101.78Y-205.2
X112.8Y-224.907
X131.8Y-224.907
X139.78Y-205.2
X150.8Y-224.907
X158.78Y-205.2
X169.8Y-224.907
X177.78Y-205.2
X188.8Y-224.907
X207.8Y-224.907
X215.78Y-205.2
X226.8Y-224.907
X234.78Y-205.2
X245.8Y-224.907
X264.8Y-224.907
X272.78Y-205.2
X283.8Y-224.907
X291.78Y-205.2
X302.8Y-224.907
X310.78Y-205.2
X321.8Y-224.907
X340.8Y-224.907
T3
X42.25Y-149.982
X42.25Y-162.982
X42.25Y-175.982
X49.25Y-149.982
X49.25Y-162.982
X49.25Y-175.982
X95.517Y-134.25
X95.517Y-141.25
T4
X79.0Y-224.627
X79.0Y-235.627
X82.5Y-201.0
X93.5Y-201.0
X98.0Y-224.627
X98.0Y-235.627
X101.5Y-201.0
X112.5Y-201.0
X117.0Y-224.627
X117.0Y-235.627
X136.0Y-224.627
X136.0Y-235.627
X139.5Y-201.0
X150.5Y-201.0
X155.0Y-224.627
X155.0Y-235.627
X158.5Y-201.0
X169.5Y-201.0
X174.0Y-224.627
X174.0Y-235.627
X177.5Y-201.0
X188.5Y-201.0
X193.0Y-224.627
X193.0Y-235.627
X212.0Y-224.627
X212.0Y-235.627
X215.5Y-201.0
X226.5Y-201.0
X231.0Y-224.627
X231.0Y-235.627
X234.5Y-201.0
X245.5Y-201.0
X250.0Y-224.627
X250.0Y-235.627
X269.0Y-224.627
X269.0Y-235.627
X272.5Y-201.0
X283.5Y-201.0
X288.0Y-224.627
X288.0Y-235.627
X291.5Y-201.0
X302.5Y-201.0
X307.0Y-224.627
X307.0Y-235.627
X310.5Y-201.0
X321.5Y-201.0
X326.0Y-224.627
X326.0Y-235.627
X345.0Y-224.627
X345.0Y-235.627
T5
X79.0Y-225.047
X79.0Y-235.207
X82.92Y-201.0
X93.08Y-201.0
X98.0Y-225.047
X98.0Y-235.207
X101.92Y-201.0
X112.08Y-201.0
X117.0Y-225.047
X117.0Y-235.207
X136.0Y-225.047
X136.0Y-235.207
X139.92Y-201.0
X150.08Y-201.0
X155.0Y-225.047
X155.0Y-235.207
X158.92Y-201.0
X169.08Y-201.0
X174.0Y-225.047
X174.0Y-235.207
X177.92Y-201.0
X188.08Y-201.0
X193.0Y-225.047
X193.0Y-235.207
X212.0Y-225.047
X212.0Y-235.207
X215.92Y-201.0
X226.08Y-201.0
X231.0Y-225.047
X231.0Y-235.207
X234.92Y-201.0
X245.08Y-201.0
X250.0Y-225.047
X250.0Y-235.207
X269.0Y-225.047
X269.0Y-235.207
X272.92Y-201.0
X283.08Y-201.0
X288.0Y-225.047
X288.0Y-235.207
X291.92Y-201.0
X302.08Y-201.0
X307.0Y-225.047
X307.0Y-235.207
X310.92Y-201.0
X321.08Y-201.0
X326.0Y-225.047
X326.0Y-235.207
X345.0Y-225.047
X345.0Y-235.207
T6
X85.985Y-218.189
X85.985Y-242.065
X104.985Y-218.189
X104.985Y-242.065
X123.985Y-218.189
X123.985Y-242.065
X142.985Y-218.189
X142.985Y-242.065
X161.985Y-218.189
X161.985Y-242.065
X180.985Y-218.189
X180.985Y-242.065
X199.985Y-218.189
X199.985Y-242.065
X218.985Y-218.189
X218.985Y-242.065
X237.985Y-218.189
X237.985Y-242.065
X256.985Y-218.189
X256.985Y-242.065
X275.985Y-218.189
X275.985Y-242.065
X294.985Y-218.189
X294.985Y-242.065
X313.985Y-218.189
X313.985Y-242.065
X332.985Y-218.189
X332.985Y-242.065
X351.985Y-218.189
X351.985Y-242.065
T7
X268.05Y-136.855
X268.05Y-185.895
X351.35Y-136.855
X351.35Y-185.895
T8
X70.745Y-218.189
X70.745Y-242.065
X79.0Y-230.127
X88.0Y-201.0
X89.745Y-218.189
X89.745Y-242.065
X98.0Y-230.127
X107.0Y-201.0
X108.745Y-218.189
X108.745Y-242.065
X117.0Y-230.127
X127.745Y-218.189
X127.745Y-242.065
X136.0Y-230.127
X145.0Y-201.0
X146.745Y-218.189
X146.745Y-242.065
X155.0Y-230.127
X164.0Y-201.0
X165.745Y-218.189
X165.745Y-242.065
X174.0Y-230.127
X183.0Y-201.0
X184.745Y-218.189
X184.745Y-242.065
X193.0Y-230.127
X203.745Y-218.189
X203.745Y-242.065
X212.0Y-230.127
X221.0Y-201.0
X222.745Y-218.189
X222.745Y-242.065
X231.0Y-230.127
X240.0Y-201.0
X241.745Y-218.189
X241.745Y-242.065
X250.0Y-230.127
X260.745Y-218.189
X260.745Y-242.065
X269.0Y-230.127
X278.0Y-201.0
X279.745Y-218.189
X279.745Y-242.065
X288.0Y-230.127
X297.0Y-201.0
X298.745Y-218.189
X298.745Y-242.065
X307.0Y-230.127
X316.0Y-201.0
X317.745Y-218.189
X317.745Y-242.065
X326.0Y-230.127
X336.745Y-218.189
X336.745Y-242.065
X345.0Y-230.127
T0
M30
