%TF.GenerationSoftware,KiCad,Pcbnew,(6.0.1)*%
%TF.CreationDate,2022-03-21T11:35:37+08:00*%
%TF.ProjectId,Joystick_Board,4a6f7973-7469-4636-9b5f-426f6172642e,rev?*%
%TF.SameCoordinates,Original*%
%TF.FileFunction,Legend,Bot*%
%TF.FilePolarity,Positive*%
%FSLAX46Y46*%
G04 Gerber Fmt 4.6, Leading zero omitted, Abs format (unit mm)*
G04 Created by KiCad (PCBNEW (6.0.1)) date 2022-03-21 11:35:37*
%MOMM*%
%LPD*%
G01*
G04 APERTURE LIST*
%ADD10C,0.150000*%
%ADD11C,0.120000*%
G04 APERTURE END LIST*
D10*
X135533333Y-99957142D02*
X135533333Y-99480952D01*
X135247619Y-100052380D02*
X136247619Y-99719047D01*
X135247619Y-99385714D01*
X135247619Y-98909523D02*
X135295238Y-99004761D01*
X135390476Y-99052380D01*
X136247619Y-99052380D01*
X135914285Y-98528571D02*
X134914285Y-98528571D01*
X135866666Y-98528571D02*
X135914285Y-98433333D01*
X135914285Y-98242857D01*
X135866666Y-98147619D01*
X135819047Y-98100000D01*
X135723809Y-98052380D01*
X135438095Y-98052380D01*
X135342857Y-98100000D01*
X135295238Y-98147619D01*
X135247619Y-98242857D01*
X135247619Y-98433333D01*
X135295238Y-98528571D01*
X135295238Y-97671428D02*
X135247619Y-97576190D01*
X135247619Y-97385714D01*
X135295238Y-97290476D01*
X135390476Y-97242857D01*
X135438095Y-97242857D01*
X135533333Y-97290476D01*
X135580952Y-97385714D01*
X135580952Y-97528571D01*
X135628571Y-97623809D01*
X135723809Y-97671428D01*
X135771428Y-97671428D01*
X135866666Y-97623809D01*
X135914285Y-97528571D01*
X135914285Y-97385714D01*
X135866666Y-97290476D01*
X136247619Y-96147619D02*
X136247619Y-95528571D01*
X135866666Y-95861904D01*
X135866666Y-95719047D01*
X135819047Y-95623809D01*
X135771428Y-95576190D01*
X135676190Y-95528571D01*
X135438095Y-95528571D01*
X135342857Y-95576190D01*
X135295238Y-95623809D01*
X135247619Y-95719047D01*
X135247619Y-96004761D01*
X135295238Y-96100000D01*
X135342857Y-96147619D01*
X135914285Y-94671428D02*
X135247619Y-94671428D01*
X136295238Y-94909523D02*
X135580952Y-95147619D01*
X135580952Y-94528571D01*
X135247619Y-94242857D02*
X135914285Y-93719047D01*
X135914285Y-94242857D02*
X135247619Y-93719047D01*
X136152380Y-93385714D02*
X136200000Y-93338095D01*
X136247619Y-93242857D01*
X136247619Y-93004761D01*
X136200000Y-92909523D01*
X136152380Y-92861904D01*
X136057142Y-92814285D01*
X135961904Y-92814285D01*
X135819047Y-92861904D01*
X135247619Y-93433333D01*
X135247619Y-92814285D01*
X136247619Y-91957142D02*
X136247619Y-92147619D01*
X136200000Y-92242857D01*
X136152380Y-92290476D01*
X136009523Y-92385714D01*
X135819047Y-92433333D01*
X135438095Y-92433333D01*
X135342857Y-92385714D01*
X135295238Y-92338095D01*
X135247619Y-92242857D01*
X135247619Y-92052380D01*
X135295238Y-91957142D01*
X135342857Y-91909523D01*
X135438095Y-91861904D01*
X135676190Y-91861904D01*
X135771428Y-91909523D01*
X135819047Y-91957142D01*
X135866666Y-92052380D01*
X135866666Y-92242857D01*
X135819047Y-92338095D01*
X135771428Y-92385714D01*
X135676190Y-92433333D01*
X136295238Y-89957142D02*
X135009523Y-90814285D01*
X136152380Y-88909523D02*
X136200000Y-88861904D01*
X136247619Y-88766666D01*
X136247619Y-88528571D01*
X136200000Y-88433333D01*
X136152380Y-88385714D01*
X136057142Y-88338095D01*
X135961904Y-88338095D01*
X135819047Y-88385714D01*
X135247619Y-88957142D01*
X135247619Y-88338095D01*
X135819047Y-87766666D02*
X135866666Y-87861904D01*
X135914285Y-87909523D01*
X136009523Y-87957142D01*
X136057142Y-87957142D01*
X136152380Y-87909523D01*
X136200000Y-87861904D01*
X136247619Y-87766666D01*
X136247619Y-87576190D01*
X136200000Y-87480952D01*
X136152380Y-87433333D01*
X136057142Y-87385714D01*
X136009523Y-87385714D01*
X135914285Y-87433333D01*
X135866666Y-87480952D01*
X135819047Y-87576190D01*
X135819047Y-87766666D01*
X135771428Y-87861904D01*
X135723809Y-87909523D01*
X135628571Y-87957142D01*
X135438095Y-87957142D01*
X135342857Y-87909523D01*
X135295238Y-87861904D01*
X135247619Y-87766666D01*
X135247619Y-87576190D01*
X135295238Y-87480952D01*
X135342857Y-87433333D01*
X135438095Y-87385714D01*
X135628571Y-87385714D01*
X135723809Y-87433333D01*
X135771428Y-87480952D01*
X135819047Y-87576190D01*
X135247619Y-87052380D02*
X135914285Y-86528571D01*
X135914285Y-87052380D02*
X135247619Y-86528571D01*
X136152380Y-86195238D02*
X136200000Y-86147619D01*
X136247619Y-86052380D01*
X136247619Y-85814285D01*
X136200000Y-85719047D01*
X136152380Y-85671428D01*
X136057142Y-85623809D01*
X135961904Y-85623809D01*
X135819047Y-85671428D01*
X135247619Y-86242857D01*
X135247619Y-85623809D01*
X136247619Y-85004761D02*
X136247619Y-84909523D01*
X136200000Y-84814285D01*
X136152380Y-84766666D01*
X136057142Y-84719047D01*
X135866666Y-84671428D01*
X135628571Y-84671428D01*
X135438095Y-84719047D01*
X135342857Y-84766666D01*
X135295238Y-84814285D01*
X135247619Y-84909523D01*
X135247619Y-85004761D01*
X135295238Y-85100000D01*
X135342857Y-85147619D01*
X135438095Y-85195238D01*
X135628571Y-85242857D01*
X135866666Y-85242857D01*
X136057142Y-85195238D01*
X136152380Y-85147619D01*
X136200000Y-85100000D01*
X136247619Y-85004761D01*
X135247619Y-83480952D02*
X135914285Y-83480952D01*
X135819047Y-83480952D02*
X135866666Y-83433333D01*
X135914285Y-83338095D01*
X135914285Y-83195238D01*
X135866666Y-83100000D01*
X135771428Y-83052380D01*
X135247619Y-83052380D01*
X135771428Y-83052380D02*
X135866666Y-83004761D01*
X135914285Y-82909523D01*
X135914285Y-82766666D01*
X135866666Y-82671428D01*
X135771428Y-82623809D01*
X135247619Y-82623809D01*
X135247619Y-82147619D02*
X135914285Y-82147619D01*
X135819047Y-82147619D02*
X135866666Y-82100000D01*
X135914285Y-82004761D01*
X135914285Y-81861904D01*
X135866666Y-81766666D01*
X135771428Y-81719047D01*
X135247619Y-81719047D01*
X135771428Y-81719047D02*
X135866666Y-81671428D01*
X135914285Y-81576190D01*
X135914285Y-81433333D01*
X135866666Y-81338095D01*
X135771428Y-81290476D01*
X135247619Y-81290476D01*
X151838095Y-102500000D02*
X151933333Y-102452380D01*
X152076190Y-102452380D01*
X152219047Y-102500000D01*
X152314285Y-102595238D01*
X152361904Y-102690476D01*
X152409523Y-102880952D01*
X152409523Y-103023809D01*
X152361904Y-103214285D01*
X152314285Y-103309523D01*
X152219047Y-103404761D01*
X152076190Y-103452380D01*
X151980952Y-103452380D01*
X151838095Y-103404761D01*
X151790476Y-103357142D01*
X151790476Y-103023809D01*
X151980952Y-103023809D01*
X144500000Y-102976190D02*
X144500000Y-103452380D01*
X144833333Y-102452380D02*
X144500000Y-102976190D01*
X144166666Y-102452380D01*
X142857142Y-103404761D02*
X142714285Y-103452380D01*
X142476190Y-103452380D01*
X142380952Y-103404761D01*
X142333333Y-103357142D01*
X142285714Y-103261904D01*
X142285714Y-103166666D01*
X142333333Y-103071428D01*
X142380952Y-103023809D01*
X142476190Y-102976190D01*
X142666666Y-102928571D01*
X142761904Y-102880952D01*
X142809523Y-102833333D01*
X142857142Y-102738095D01*
X142857142Y-102642857D01*
X142809523Y-102547619D01*
X142761904Y-102500000D01*
X142666666Y-102452380D01*
X142428571Y-102452380D01*
X142285714Y-102500000D01*
X141952380Y-102452380D02*
X141714285Y-103452380D01*
X141523809Y-102738095D01*
X141333333Y-103452380D01*
X141095238Y-102452380D01*
X147333333Y-102452380D02*
X146666666Y-103452380D01*
X146666666Y-102452380D02*
X147333333Y-103452380D01*
X150838095Y-102452380D02*
X150219047Y-102452380D01*
X150552380Y-102833333D01*
X150409523Y-102833333D01*
X150314285Y-102880952D01*
X150266666Y-102928571D01*
X150219047Y-103023809D01*
X150219047Y-103261904D01*
X150266666Y-103357142D01*
X150314285Y-103404761D01*
X150409523Y-103452380D01*
X150695238Y-103452380D01*
X150790476Y-103404761D01*
X150838095Y-103357142D01*
X149933333Y-102452380D02*
X149600000Y-103452380D01*
X149266666Y-102452380D01*
X149028571Y-102452380D02*
X148409523Y-102452380D01*
X148742857Y-102833333D01*
X148600000Y-102833333D01*
X148504761Y-102880952D01*
X148457142Y-102928571D01*
X148409523Y-103023809D01*
X148409523Y-103261904D01*
X148457142Y-103357142D01*
X148504761Y-103404761D01*
X148600000Y-103452380D01*
X148885714Y-103452380D01*
X148980952Y-103404761D01*
X149028571Y-103357142D01*
%TO.C,R1*%
X156366666Y-100572380D02*
X156700000Y-100096190D01*
X156938095Y-100572380D02*
X156938095Y-99572380D01*
X156557142Y-99572380D01*
X156461904Y-99620000D01*
X156414285Y-99667619D01*
X156366666Y-99762857D01*
X156366666Y-99905714D01*
X156414285Y-100000952D01*
X156461904Y-100048571D01*
X156557142Y-100096190D01*
X156938095Y-100096190D01*
X155414285Y-100572380D02*
X155985714Y-100572380D01*
X155700000Y-100572380D02*
X155700000Y-99572380D01*
X155795238Y-99715238D01*
X155890476Y-99810476D01*
X155985714Y-99858095D01*
D11*
X155472936Y-99210000D02*
X156927064Y-99210000D01*
X155472936Y-97390000D02*
X156927064Y-97390000D01*
%TD*%
M02*
