%TF.GenerationSoftware,KiCad,Pcbnew,(6.0.1)*%
%TF.CreationDate,2022-03-21T11:35:37+08:00*%
%TF.ProjectId,Joystick_Board,4a6f7973-7469-4636-9b5f-426f6172642e,rev?*%
%TF.SameCoordinates,Original*%
%TF.FileFunction,Copper,L1,Top*%
%TF.FilePolarity,Positive*%
%FSLAX46Y46*%
G04 Gerber Fmt 4.6, Leading zero omitted, Abs format (unit mm)*
G04 Created by KiCad (PCBNEW (6.0.1)) date 2022-03-21 11:35:37*
%MOMM*%
%LPD*%
G01*
G04 APERTURE LIST*
%TA.AperFunction,ComponentPad*%
%ADD10C,1.950000*%
%TD*%
%TA.AperFunction,ComponentPad*%
%ADD11C,1.650000*%
%TD*%
%TA.AperFunction,ComponentPad*%
%ADD12C,2.400000*%
%TD*%
%TA.AperFunction,ComponentPad*%
%ADD13C,2.475000*%
%TD*%
%TA.AperFunction,ComponentPad*%
%ADD14R,1.700000X1.700000*%
%TD*%
%TA.AperFunction,ComponentPad*%
%ADD15O,1.700000X1.700000*%
%TD*%
%TA.AperFunction,Conductor*%
%ADD16C,0.500000*%
%TD*%
G04 APERTURE END LIST*
D10*
%TO.P,S1,A1,A1*%
%TO.N,Net-(J1-Pad5)*%
X142782000Y-94990000D03*
D11*
%TO.P,S1,A11,A11*%
%TO.N,+3V3*%
X154762000Y-91740000D03*
%TO.P,S1,A12,A12*%
%TO.N,Net-(J1-Pad4)*%
X154762000Y-89240000D03*
%TO.P,S1,A13,A13*%
%TO.N,GND*%
X154762000Y-86740000D03*
D10*
%TO.P,S1,B1,B1*%
X142782000Y-99490000D03*
D11*
%TO.P,S1,B11,B11*%
%TO.N,+3V3*%
X148532000Y-80510000D03*
%TO.P,S1,B12,B12*%
%TO.N,Net-(J1-Pad3)*%
X146032000Y-80510000D03*
%TO.P,S1,B13,B13*%
%TO.N,GND*%
X143532000Y-80510000D03*
D10*
%TO.P,S1,C1,C1*%
%TO.N,Net-(J1-Pad5)*%
X149282000Y-94990000D03*
%TO.P,S1,D1,D1*%
%TO.N,GND*%
X149282000Y-99490000D03*
D12*
%TO.P,S1,MH1,MH1*%
X139707000Y-94240000D03*
%TO.P,S1,MH2,MH2*%
X139707000Y-84240000D03*
%TO.P,S1,MH3,MH3*%
X152357000Y-94240000D03*
%TO.P,S1,MH4,MH4*%
X152357000Y-84240000D03*
D13*
%TO.P,S1,MH5,MH5*%
X141732000Y-89240000D03*
%TO.P,S1,MH6,MH6*%
X150332000Y-89240000D03*
%TD*%
D14*
%TO.P,J1,1,Pin_1*%
%TO.N,GND*%
X152075000Y-105500000D03*
D15*
%TO.P,J1,2,Pin_2*%
%TO.N,+3V3*%
X149535000Y-105500000D03*
%TO.P,J1,3,Pin_3*%
%TO.N,Net-(J1-Pad3)*%
X146995000Y-105500000D03*
%TO.P,J1,4,Pin_4*%
%TO.N,Net-(J1-Pad4)*%
X144455000Y-105500000D03*
%TO.P,J1,5,Pin_5*%
%TO.N,Net-(J1-Pad5)*%
X141915000Y-105500000D03*
%TD*%
D16*
%TO.N,+3V3*%
X155285000Y-91465000D02*
X154762000Y-91465000D01*
X154762000Y-97638000D02*
X149535000Y-102865000D01*
X152985000Y-80235000D02*
X157250000Y-84500000D01*
X149535000Y-102865000D02*
X149535000Y-105500000D01*
X157250000Y-89500000D02*
X155285000Y-91465000D01*
X157250000Y-84500000D02*
X157250000Y-89500000D01*
X148532000Y-80235000D02*
X152985000Y-80235000D01*
X154762000Y-91465000D02*
X154762000Y-97638000D01*
%TO.N,Net-(J1-Pad3)*%
X146250000Y-80453000D02*
X146250000Y-104755000D01*
X146250000Y-104755000D02*
X146995000Y-105500000D01*
%TO.N,Net-(J1-Pad5)*%
X140250000Y-103835000D02*
X141915000Y-105500000D01*
X140250000Y-97247000D02*
X140250000Y-103835000D01*
X142782000Y-94715000D02*
X140250000Y-97247000D01*
%TD*%
%TA.AperFunction,Conductor*%
%TO.N,GND*%
G36*
X156737969Y-74028002D02*
G01*
X156784462Y-74081658D01*
X156794566Y-74151932D01*
X156765072Y-74216512D01*
X156705346Y-74254896D01*
X156694753Y-74257514D01*
X156406520Y-74315632D01*
X156122837Y-74413312D01*
X156119104Y-74415181D01*
X156119100Y-74415183D01*
X155858309Y-74545778D01*
X155854565Y-74547653D01*
X155606416Y-74716294D01*
X155382752Y-74916274D01*
X155380035Y-74919444D01*
X155380034Y-74919445D01*
X155254155Y-75066311D01*
X155187501Y-75144077D01*
X155185227Y-75147579D01*
X155185223Y-75147584D01*
X155074792Y-75317633D01*
X155024093Y-75395703D01*
X154895400Y-75666730D01*
X154803682Y-75952396D01*
X154802941Y-75956515D01*
X154762024Y-76183927D01*
X154750552Y-76247684D01*
X154750363Y-76251851D01*
X154750362Y-76251858D01*
X154741435Y-76448444D01*
X154736941Y-76547404D01*
X154763091Y-76846292D01*
X154764001Y-76850364D01*
X154764002Y-76850369D01*
X154827628Y-77135016D01*
X154828540Y-77139095D01*
X154932140Y-77420671D01*
X154934084Y-77424359D01*
X154934088Y-77424367D01*
X155030805Y-77607807D01*
X155072069Y-77686071D01*
X155245871Y-77930633D01*
X155450490Y-78150061D01*
X155682333Y-78340498D01*
X155937325Y-78498600D01*
X156210988Y-78621589D01*
X156385368Y-78673574D01*
X156494514Y-78706112D01*
X156494516Y-78706112D01*
X156498513Y-78707304D01*
X156502633Y-78707957D01*
X156502635Y-78707957D01*
X156621509Y-78726785D01*
X156794848Y-78754239D01*
X156837577Y-78756179D01*
X156887262Y-78758436D01*
X156887281Y-78758436D01*
X156888681Y-78758500D01*
X157076107Y-78758500D01*
X157299370Y-78743671D01*
X157303464Y-78742846D01*
X157303468Y-78742845D01*
X157444513Y-78714405D01*
X157593480Y-78684368D01*
X157877163Y-78586688D01*
X157880896Y-78584819D01*
X157880900Y-78584817D01*
X158141691Y-78454222D01*
X158141693Y-78454221D01*
X158145435Y-78452347D01*
X158393584Y-78283706D01*
X158617248Y-78083726D01*
X158619966Y-78080555D01*
X158809779Y-77859097D01*
X158809782Y-77859093D01*
X158812499Y-77855923D01*
X158814773Y-77852421D01*
X158814777Y-77852416D01*
X158973628Y-77607807D01*
X158973631Y-77607802D01*
X158975907Y-77604297D01*
X159104600Y-77333270D01*
X159196318Y-77047604D01*
X159241991Y-76793761D01*
X159273740Y-76730258D01*
X159334781Y-76694002D01*
X159405734Y-76696502D01*
X159464071Y-76736965D01*
X159491272Y-76802544D01*
X159492000Y-76816073D01*
X159492000Y-104183530D01*
X159471998Y-104251651D01*
X159418342Y-104298144D01*
X159348068Y-104308248D01*
X159283488Y-104278754D01*
X159245104Y-104219028D01*
X159240479Y-104194512D01*
X159237273Y-104157870D01*
X159236909Y-104153708D01*
X159235307Y-104146538D01*
X159172372Y-103864984D01*
X159172371Y-103864981D01*
X159171460Y-103860905D01*
X159067860Y-103579329D01*
X159065916Y-103575641D01*
X159065912Y-103575633D01*
X158929884Y-103317633D01*
X158929883Y-103317632D01*
X158927931Y-103313929D01*
X158754129Y-103069367D01*
X158549510Y-102849939D01*
X158317667Y-102659502D01*
X158062675Y-102501400D01*
X157789012Y-102378411D01*
X157547765Y-102306492D01*
X157505486Y-102293888D01*
X157505484Y-102293888D01*
X157501487Y-102292696D01*
X157497367Y-102292043D01*
X157497365Y-102292043D01*
X157378491Y-102273215D01*
X157205152Y-102245761D01*
X157162423Y-102243821D01*
X157112738Y-102241564D01*
X157112719Y-102241564D01*
X157111319Y-102241500D01*
X156923893Y-102241500D01*
X156700630Y-102256329D01*
X156696536Y-102257154D01*
X156696532Y-102257155D01*
X156577135Y-102281230D01*
X156406520Y-102315632D01*
X156122837Y-102413312D01*
X156119104Y-102415181D01*
X156119100Y-102415183D01*
X155858309Y-102545778D01*
X155854565Y-102547653D01*
X155851100Y-102550008D01*
X155633996Y-102697551D01*
X155606416Y-102716294D01*
X155382752Y-102916274D01*
X155380035Y-102919444D01*
X155380034Y-102919445D01*
X155254155Y-103066311D01*
X155187501Y-103144077D01*
X155185227Y-103147579D01*
X155185223Y-103147584D01*
X155074792Y-103317633D01*
X155024093Y-103395703D01*
X154895400Y-103666730D01*
X154894121Y-103670713D01*
X154894120Y-103670716D01*
X154834317Y-103856980D01*
X154803682Y-103952396D01*
X154802941Y-103956515D01*
X154751331Y-104243357D01*
X154750552Y-104247684D01*
X154750363Y-104251851D01*
X154750362Y-104251858D01*
X154737130Y-104543234D01*
X154736941Y-104547404D01*
X154737304Y-104551552D01*
X154737304Y-104551556D01*
X154747182Y-104664457D01*
X154763091Y-104846292D01*
X154764001Y-104850364D01*
X154764002Y-104850369D01*
X154811017Y-105060702D01*
X154828540Y-105139095D01*
X154932140Y-105420671D01*
X154934084Y-105424359D01*
X154934088Y-105424367D01*
X155030805Y-105607807D01*
X155072069Y-105686071D01*
X155245871Y-105930633D01*
X155450490Y-106150061D01*
X155682333Y-106340498D01*
X155937325Y-106498600D01*
X156210988Y-106621589D01*
X156366308Y-106667892D01*
X156494514Y-106706112D01*
X156494516Y-106706112D01*
X156498513Y-106707304D01*
X156502633Y-106707957D01*
X156502635Y-106707957D01*
X156714739Y-106741551D01*
X156778892Y-106771964D01*
X156816419Y-106832232D01*
X156815405Y-106903221D01*
X156776172Y-106962393D01*
X156711177Y-106990961D01*
X156695028Y-106992000D01*
X153293725Y-106992000D01*
X153225604Y-106971998D01*
X153179111Y-106918342D01*
X153169007Y-106848068D01*
X153198501Y-106783488D01*
X153218160Y-106765174D01*
X153280724Y-106718285D01*
X153293285Y-106705724D01*
X153369786Y-106603649D01*
X153378324Y-106588054D01*
X153423478Y-106467606D01*
X153427106Y-106452347D01*
X153432631Y-106401486D01*
X153433000Y-106394672D01*
X153433000Y-105772115D01*
X153428525Y-105756876D01*
X153427135Y-105755671D01*
X153419452Y-105754000D01*
X151947000Y-105754000D01*
X151878879Y-105733998D01*
X151832386Y-105680342D01*
X151821000Y-105628000D01*
X151821000Y-105227885D01*
X152329000Y-105227885D01*
X152333475Y-105243124D01*
X152334865Y-105244329D01*
X152342548Y-105246000D01*
X153414884Y-105246000D01*
X153430123Y-105241525D01*
X153431328Y-105240135D01*
X153432999Y-105232452D01*
X153432999Y-104605331D01*
X153432629Y-104598510D01*
X153427105Y-104547648D01*
X153423479Y-104532396D01*
X153378324Y-104411946D01*
X153369786Y-104396351D01*
X153293285Y-104294276D01*
X153280724Y-104281715D01*
X153178649Y-104205214D01*
X153163054Y-104196676D01*
X153042606Y-104151522D01*
X153027351Y-104147895D01*
X152976486Y-104142369D01*
X152969672Y-104142000D01*
X152347115Y-104142000D01*
X152331876Y-104146475D01*
X152330671Y-104147865D01*
X152329000Y-104155548D01*
X152329000Y-105227885D01*
X151821000Y-105227885D01*
X151821000Y-104160116D01*
X151816525Y-104144877D01*
X151815135Y-104143672D01*
X151807452Y-104142001D01*
X151180331Y-104142001D01*
X151173510Y-104142371D01*
X151122648Y-104147895D01*
X151107396Y-104151521D01*
X150986946Y-104196676D01*
X150971351Y-104205214D01*
X150869276Y-104281715D01*
X150856715Y-104294276D01*
X150780214Y-104396351D01*
X150771676Y-104411946D01*
X150730297Y-104522322D01*
X150687655Y-104579087D01*
X150621093Y-104603786D01*
X150551744Y-104588578D01*
X150519121Y-104562891D01*
X150468148Y-104506873D01*
X150468145Y-104506870D01*
X150464670Y-104503051D01*
X150460615Y-104499848D01*
X150341407Y-104405703D01*
X150300345Y-104347785D01*
X150293500Y-104306821D01*
X150293500Y-103231371D01*
X150313502Y-103163250D01*
X150330405Y-103142276D01*
X155250911Y-98221770D01*
X155265323Y-98209384D01*
X155276918Y-98200851D01*
X155276923Y-98200846D01*
X155282818Y-98196508D01*
X155287557Y-98190930D01*
X155287560Y-98190927D01*
X155317035Y-98156232D01*
X155323965Y-98148716D01*
X155329660Y-98143021D01*
X155347281Y-98120749D01*
X155350072Y-98117345D01*
X155392591Y-98067297D01*
X155392592Y-98067295D01*
X155397333Y-98061715D01*
X155400661Y-98055199D01*
X155404028Y-98050150D01*
X155407195Y-98045021D01*
X155411734Y-98039284D01*
X155442655Y-97973125D01*
X155444561Y-97969225D01*
X155477769Y-97904192D01*
X155479508Y-97897084D01*
X155481607Y-97891441D01*
X155483524Y-97885678D01*
X155486622Y-97879050D01*
X155501487Y-97807583D01*
X155502457Y-97803299D01*
X155518473Y-97737845D01*
X155519808Y-97732390D01*
X155520500Y-97721236D01*
X155520536Y-97721238D01*
X155520775Y-97717245D01*
X155521149Y-97713053D01*
X155522640Y-97705885D01*
X155520546Y-97628479D01*
X155520500Y-97625072D01*
X155520500Y-92902386D01*
X155540502Y-92834265D01*
X155574227Y-92799175D01*
X155622432Y-92765422D01*
X155787422Y-92600432D01*
X155806081Y-92573785D01*
X155918099Y-92413806D01*
X155918100Y-92413804D01*
X155921256Y-92409297D01*
X155923579Y-92404315D01*
X155923582Y-92404310D01*
X156017544Y-92202808D01*
X156017545Y-92202806D01*
X156019867Y-92197826D01*
X156080258Y-91972444D01*
X156098315Y-91766053D01*
X156124179Y-91699935D01*
X156134741Y-91687940D01*
X157738911Y-90083770D01*
X157753323Y-90071384D01*
X157764918Y-90062851D01*
X157764923Y-90062846D01*
X157770818Y-90058508D01*
X157775557Y-90052930D01*
X157775560Y-90052927D01*
X157805035Y-90018232D01*
X157811965Y-90010716D01*
X157817661Y-90005020D01*
X157819924Y-90002159D01*
X157819929Y-90002154D01*
X157835285Y-89982744D01*
X157838074Y-89979342D01*
X157880596Y-89929291D01*
X157880597Y-89929290D01*
X157885333Y-89923715D01*
X157888661Y-89917198D01*
X157892027Y-89912150D01*
X157895190Y-89907028D01*
X157899735Y-89901284D01*
X157930664Y-89835105D01*
X157932563Y-89831221D01*
X157965769Y-89766192D01*
X157967510Y-89759077D01*
X157969613Y-89753422D01*
X157971522Y-89747683D01*
X157974622Y-89741050D01*
X157989491Y-89669565D01*
X157990461Y-89665282D01*
X157995993Y-89642674D01*
X158007808Y-89594390D01*
X158008500Y-89583236D01*
X158008535Y-89583238D01*
X158008775Y-89579266D01*
X158009152Y-89575045D01*
X158010641Y-89567885D01*
X158008546Y-89490458D01*
X158008500Y-89487050D01*
X158008500Y-84567070D01*
X158009933Y-84548120D01*
X158012099Y-84533885D01*
X158012099Y-84533881D01*
X158013199Y-84526651D01*
X158008915Y-84473982D01*
X158008500Y-84463767D01*
X158008500Y-84455707D01*
X158005209Y-84427480D01*
X158004778Y-84423121D01*
X157999453Y-84357660D01*
X157998860Y-84350364D01*
X157996605Y-84343403D01*
X157995418Y-84337463D01*
X157994029Y-84331588D01*
X157993182Y-84324319D01*
X157968264Y-84255670D01*
X157966847Y-84251542D01*
X157946607Y-84189064D01*
X157946606Y-84189062D01*
X157944351Y-84182101D01*
X157940555Y-84175846D01*
X157938049Y-84170372D01*
X157935330Y-84164942D01*
X157932833Y-84158063D01*
X157892814Y-84097024D01*
X157890467Y-84093305D01*
X157852595Y-84030893D01*
X157845197Y-84022516D01*
X157845224Y-84022492D01*
X157842571Y-84019500D01*
X157839868Y-84016267D01*
X157835856Y-84010148D01*
X157779617Y-83956872D01*
X157777175Y-83954494D01*
X153568770Y-79746089D01*
X153556384Y-79731677D01*
X153547851Y-79720082D01*
X153547846Y-79720077D01*
X153543508Y-79714182D01*
X153537930Y-79709443D01*
X153537927Y-79709440D01*
X153503232Y-79679965D01*
X153495716Y-79673035D01*
X153490021Y-79667340D01*
X153483880Y-79662482D01*
X153467749Y-79649719D01*
X153464345Y-79646928D01*
X153414297Y-79604409D01*
X153414295Y-79604408D01*
X153408715Y-79599667D01*
X153402199Y-79596339D01*
X153397150Y-79592972D01*
X153392021Y-79589805D01*
X153386284Y-79585266D01*
X153320125Y-79554345D01*
X153316225Y-79552439D01*
X153251192Y-79519231D01*
X153244084Y-79517492D01*
X153238441Y-79515393D01*
X153232678Y-79513476D01*
X153226050Y-79510378D01*
X153154583Y-79495513D01*
X153150299Y-79494543D01*
X153079390Y-79477192D01*
X153073788Y-79476844D01*
X153073785Y-79476844D01*
X153068236Y-79476500D01*
X153068238Y-79476464D01*
X153064245Y-79476225D01*
X153060053Y-79475851D01*
X153052885Y-79474360D01*
X152986675Y-79476151D01*
X152975479Y-79476454D01*
X152972072Y-79476500D01*
X149420623Y-79476500D01*
X149348352Y-79453713D01*
X149205806Y-79353901D01*
X149205804Y-79353900D01*
X149201297Y-79350744D01*
X149196315Y-79348421D01*
X149196310Y-79348418D01*
X148994808Y-79254456D01*
X148994806Y-79254455D01*
X148989826Y-79252133D01*
X148984518Y-79250711D01*
X148984516Y-79250710D01*
X148769759Y-79193166D01*
X148769757Y-79193166D01*
X148764444Y-79191742D01*
X148532000Y-79171406D01*
X148299556Y-79191742D01*
X148294243Y-79193166D01*
X148294241Y-79193166D01*
X148079484Y-79250710D01*
X148079482Y-79250711D01*
X148074174Y-79252133D01*
X148069194Y-79254455D01*
X148069192Y-79254456D01*
X147867690Y-79348418D01*
X147867685Y-79348421D01*
X147862703Y-79350744D01*
X147858196Y-79353900D01*
X147858194Y-79353901D01*
X147676079Y-79481419D01*
X147676076Y-79481421D01*
X147671568Y-79484578D01*
X147506578Y-79649568D01*
X147503421Y-79654076D01*
X147503419Y-79654079D01*
X147385213Y-79822895D01*
X147329756Y-79867223D01*
X147259137Y-79874532D01*
X147195776Y-79842501D01*
X147178787Y-79822895D01*
X147060581Y-79654079D01*
X147060579Y-79654076D01*
X147057422Y-79649568D01*
X146892432Y-79484578D01*
X146887924Y-79481421D01*
X146887921Y-79481419D01*
X146705806Y-79353901D01*
X146705804Y-79353900D01*
X146701297Y-79350744D01*
X146696315Y-79348421D01*
X146696310Y-79348418D01*
X146494808Y-79254456D01*
X146494806Y-79254455D01*
X146489826Y-79252133D01*
X146484518Y-79250711D01*
X146484516Y-79250710D01*
X146269759Y-79193166D01*
X146269757Y-79193166D01*
X146264444Y-79191742D01*
X146032000Y-79171406D01*
X145799556Y-79191742D01*
X145794243Y-79193166D01*
X145794241Y-79193166D01*
X145579484Y-79250710D01*
X145579482Y-79250711D01*
X145574174Y-79252133D01*
X145569194Y-79254455D01*
X145569192Y-79254456D01*
X145367690Y-79348418D01*
X145367685Y-79348421D01*
X145362703Y-79350744D01*
X145358196Y-79353900D01*
X145358194Y-79353901D01*
X145176079Y-79481419D01*
X145176076Y-79481421D01*
X145171568Y-79484578D01*
X145006578Y-79649568D01*
X145003421Y-79654076D01*
X145003419Y-79654079D01*
X144884908Y-79823331D01*
X144829451Y-79867659D01*
X144758832Y-79874968D01*
X144695471Y-79842937D01*
X144678482Y-79823331D01*
X144647441Y-79779000D01*
X144636964Y-79770625D01*
X144623517Y-79777693D01*
X143904022Y-80497188D01*
X143896408Y-80511132D01*
X143896539Y-80512965D01*
X143900790Y-80519580D01*
X144624238Y-81243028D01*
X144636013Y-81249458D01*
X144648028Y-81240162D01*
X144678482Y-81196669D01*
X144733939Y-81152341D01*
X144804558Y-81145032D01*
X144867919Y-81177063D01*
X144884908Y-81196669D01*
X145006578Y-81370432D01*
X145171568Y-81535422D01*
X145176076Y-81538579D01*
X145176079Y-81538581D01*
X145358194Y-81666099D01*
X145362703Y-81669256D01*
X145367685Y-81671579D01*
X145367690Y-81671582D01*
X145418750Y-81695391D01*
X145472035Y-81742308D01*
X145491500Y-81809586D01*
X145491500Y-104327356D01*
X145471498Y-104395477D01*
X145417842Y-104441970D01*
X145347568Y-104452074D01*
X145287407Y-104426237D01*
X145213415Y-104367801D01*
X145213413Y-104367800D01*
X145209359Y-104364598D01*
X145013789Y-104256638D01*
X145008920Y-104254914D01*
X145008916Y-104254912D01*
X144808087Y-104183795D01*
X144808083Y-104183794D01*
X144803212Y-104182069D01*
X144798119Y-104181162D01*
X144798116Y-104181161D01*
X144588373Y-104143800D01*
X144588367Y-104143799D01*
X144583284Y-104142894D01*
X144509452Y-104141992D01*
X144365081Y-104140228D01*
X144365079Y-104140228D01*
X144359911Y-104140165D01*
X144139091Y-104173955D01*
X143926756Y-104243357D01*
X143896443Y-104259137D01*
X143810057Y-104304107D01*
X143728607Y-104346507D01*
X143724474Y-104349610D01*
X143724471Y-104349612D01*
X143554100Y-104477530D01*
X143549965Y-104480635D01*
X143395629Y-104642138D01*
X143288201Y-104799621D01*
X143233293Y-104844621D01*
X143162768Y-104852792D01*
X143099021Y-104821538D01*
X143078324Y-104797054D01*
X142997822Y-104672617D01*
X142997820Y-104672614D01*
X142995014Y-104668277D01*
X142844670Y-104503051D01*
X142840619Y-104499852D01*
X142840615Y-104499848D01*
X142673414Y-104367800D01*
X142673410Y-104367798D01*
X142669359Y-104364598D01*
X142473789Y-104256638D01*
X142468920Y-104254914D01*
X142468916Y-104254912D01*
X142268087Y-104183795D01*
X142268083Y-104183794D01*
X142263212Y-104182069D01*
X142258119Y-104181162D01*
X142258116Y-104181161D01*
X142048373Y-104143800D01*
X142048367Y-104143799D01*
X142043284Y-104142894D01*
X141970109Y-104142000D01*
X141825082Y-104140228D01*
X141825080Y-104140228D01*
X141819911Y-104140165D01*
X141789117Y-104144877D01*
X141716385Y-104156006D01*
X141646023Y-104146538D01*
X141608232Y-104120551D01*
X141045405Y-103557724D01*
X141011379Y-103495412D01*
X141008500Y-103468629D01*
X141008500Y-100706624D01*
X141930621Y-100706624D01*
X141934988Y-100712774D01*
X142134563Y-100829397D01*
X142143846Y-100833844D01*
X142362007Y-100917152D01*
X142371905Y-100920028D01*
X142600744Y-100966585D01*
X142610972Y-100967804D01*
X142844340Y-100976362D01*
X142854626Y-100975895D01*
X143086262Y-100946222D01*
X143096340Y-100944080D01*
X143320014Y-100876974D01*
X143329612Y-100873212D01*
X143539324Y-100770476D01*
X143548169Y-100765203D01*
X143620869Y-100713347D01*
X143629270Y-100702646D01*
X143622283Y-100689493D01*
X142794812Y-99862022D01*
X142780868Y-99854408D01*
X142779035Y-99854539D01*
X142772420Y-99858790D01*
X141937881Y-100693329D01*
X141930621Y-100706624D01*
X141008500Y-100706624D01*
X141008500Y-99458799D01*
X141294658Y-99458799D01*
X141308102Y-99691942D01*
X141309535Y-99702144D01*
X141360873Y-99929949D01*
X141363956Y-99939789D01*
X141451814Y-100156156D01*
X141456457Y-100165347D01*
X141557555Y-100330325D01*
X141568011Y-100339785D01*
X141576789Y-100336001D01*
X142409978Y-99502812D01*
X142416356Y-99491132D01*
X143146408Y-99491132D01*
X143146539Y-99492965D01*
X143150790Y-99499580D01*
X143982045Y-100330835D01*
X143994055Y-100337394D01*
X144005794Y-100328426D01*
X144054518Y-100260619D01*
X144059829Y-100251780D01*
X144163291Y-100042442D01*
X144167089Y-100032849D01*
X144234974Y-99809413D01*
X144237151Y-99799343D01*
X144267869Y-99566015D01*
X144268388Y-99559340D01*
X144270001Y-99493364D01*
X144269807Y-99486647D01*
X144250525Y-99252108D01*
X144248842Y-99241946D01*
X144191952Y-99015453D01*
X144188634Y-99005706D01*
X144095513Y-98791542D01*
X144090646Y-98782467D01*
X144005465Y-98650796D01*
X143994779Y-98641593D01*
X143985214Y-98645996D01*
X143154022Y-99477188D01*
X143146408Y-99491132D01*
X142416356Y-99491132D01*
X142417592Y-99488868D01*
X142417461Y-99487035D01*
X142413210Y-99480420D01*
X141581892Y-98649102D01*
X141570356Y-98642802D01*
X141558073Y-98652426D01*
X141491036Y-98750698D01*
X141485943Y-98759662D01*
X141387619Y-98971483D01*
X141384062Y-98981151D01*
X141321657Y-99206178D01*
X141319726Y-99216298D01*
X141294910Y-99448510D01*
X141294658Y-99458799D01*
X141008500Y-99458799D01*
X141008500Y-98277142D01*
X141933938Y-98277142D01*
X141940684Y-98289474D01*
X142769188Y-99117978D01*
X142783132Y-99125592D01*
X142784965Y-99125461D01*
X142791580Y-99121210D01*
X143624391Y-98288399D01*
X143631412Y-98275543D01*
X143623639Y-98264875D01*
X143609548Y-98253746D01*
X143600970Y-98248047D01*
X143396526Y-98135189D01*
X143387126Y-98130964D01*
X143166993Y-98053011D01*
X143157036Y-98050381D01*
X142927129Y-98009427D01*
X142916878Y-98008458D01*
X142683367Y-98005605D01*
X142673083Y-98006325D01*
X142442253Y-98041647D01*
X142432225Y-98044036D01*
X142210263Y-98116584D01*
X142200753Y-98120581D01*
X141993624Y-98228405D01*
X141984904Y-98233897D01*
X141942391Y-98265817D01*
X141933938Y-98277142D01*
X141008500Y-98277142D01*
X141008500Y-97613371D01*
X141028502Y-97545250D01*
X141045405Y-97524276D01*
X142152280Y-96417401D01*
X142214592Y-96383375D01*
X142286323Y-96388786D01*
X142366698Y-96419478D01*
X142371764Y-96420509D01*
X142371765Y-96420509D01*
X142600667Y-96467080D01*
X142600671Y-96467080D01*
X142605746Y-96468113D01*
X142610922Y-96468303D01*
X142610924Y-96468303D01*
X142844363Y-96476863D01*
X142844367Y-96476863D01*
X142849527Y-96477052D01*
X142854647Y-96476396D01*
X142854649Y-96476396D01*
X142931377Y-96466567D01*
X143091494Y-96446055D01*
X143096443Y-96444570D01*
X143096449Y-96444569D01*
X143320200Y-96377440D01*
X143320199Y-96377440D01*
X143325150Y-96375955D01*
X143544219Y-96268634D01*
X143548424Y-96265634D01*
X143548430Y-96265631D01*
X143738614Y-96129974D01*
X143738616Y-96129972D01*
X143742818Y-96126975D01*
X143915614Y-95954781D01*
X144057966Y-95756677D01*
X144166050Y-95537984D01*
X144198827Y-95430105D01*
X144235462Y-95309527D01*
X144235463Y-95309521D01*
X144236966Y-95304575D01*
X144268807Y-95062717D01*
X144270584Y-94990000D01*
X144250596Y-94746876D01*
X144191167Y-94510280D01*
X144093894Y-94286568D01*
X143975107Y-94102951D01*
X143964200Y-94086091D01*
X143964198Y-94086088D01*
X143961390Y-94081748D01*
X143946568Y-94065458D01*
X143800690Y-93905141D01*
X143800684Y-93905135D01*
X143797212Y-93901319D01*
X143793161Y-93898120D01*
X143793157Y-93898116D01*
X143609825Y-93753329D01*
X143609821Y-93753327D01*
X143605770Y-93750127D01*
X143594284Y-93743786D01*
X143549759Y-93719207D01*
X143392205Y-93632233D01*
X143387336Y-93630509D01*
X143387332Y-93630507D01*
X143167127Y-93552528D01*
X143167123Y-93552527D01*
X143162252Y-93550802D01*
X143157159Y-93549895D01*
X143157156Y-93549894D01*
X142927177Y-93508928D01*
X142927171Y-93508927D01*
X142922088Y-93508022D01*
X142842380Y-93507048D01*
X142683332Y-93505105D01*
X142683330Y-93505105D01*
X142678162Y-93505042D01*
X142437024Y-93541941D01*
X142205150Y-93617729D01*
X141988769Y-93730370D01*
X141984636Y-93733473D01*
X141984633Y-93733475D01*
X141805493Y-93867978D01*
X141793690Y-93876840D01*
X141625153Y-94053204D01*
X141623670Y-94055377D01*
X141565866Y-94095311D01*
X141494909Y-94097679D01*
X141433936Y-94061308D01*
X141401741Y-93994298D01*
X141399943Y-93982274D01*
X141345979Y-93743786D01*
X141343255Y-93734875D01*
X141254633Y-93506983D01*
X141250619Y-93498567D01*
X141129284Y-93286276D01*
X141124074Y-93278553D01*
X141092787Y-93238865D01*
X141080863Y-93230395D01*
X141069328Y-93236882D01*
X138705044Y-95601166D01*
X138698386Y-95613359D01*
X138707099Y-95624879D01*
X138795586Y-95689760D01*
X138803505Y-95694708D01*
X139019877Y-95808547D01*
X139028451Y-95812275D01*
X139259282Y-95892885D01*
X139268291Y-95895299D01*
X139508518Y-95940908D01*
X139517775Y-95941962D01*
X139762107Y-95951563D01*
X139771420Y-95951237D01*
X140014478Y-95924618D01*
X140023655Y-95922917D01*
X140221326Y-95870875D01*
X140292295Y-95872875D01*
X140350916Y-95912925D01*
X140378579Y-95978311D01*
X140366500Y-96048272D01*
X140342501Y-96081818D01*
X139761089Y-96663230D01*
X139746677Y-96675616D01*
X139735082Y-96684149D01*
X139735077Y-96684154D01*
X139729182Y-96688492D01*
X139724443Y-96694070D01*
X139724440Y-96694073D01*
X139694965Y-96728768D01*
X139688035Y-96736284D01*
X139682340Y-96741979D01*
X139680060Y-96744861D01*
X139664719Y-96764251D01*
X139661928Y-96767655D01*
X139619409Y-96817703D01*
X139614667Y-96823285D01*
X139611339Y-96829801D01*
X139607972Y-96834850D01*
X139604805Y-96839979D01*
X139600266Y-96845716D01*
X139569345Y-96911875D01*
X139567442Y-96915769D01*
X139534231Y-96980808D01*
X139532492Y-96987916D01*
X139530393Y-96993559D01*
X139528476Y-96999322D01*
X139525378Y-97005950D01*
X139523888Y-97013112D01*
X139523888Y-97013113D01*
X139510514Y-97077412D01*
X139509544Y-97081696D01*
X139492192Y-97152610D01*
X139491500Y-97163764D01*
X139491464Y-97163762D01*
X139491225Y-97167755D01*
X139490851Y-97171947D01*
X139489360Y-97179115D01*
X139489558Y-97186432D01*
X139491454Y-97256521D01*
X139491500Y-97259928D01*
X139491500Y-103767930D01*
X139490067Y-103786880D01*
X139486801Y-103808349D01*
X139487394Y-103815641D01*
X139487394Y-103815644D01*
X139491085Y-103861018D01*
X139491500Y-103871233D01*
X139491500Y-103879293D01*
X139491925Y-103882937D01*
X139494789Y-103907507D01*
X139495222Y-103911882D01*
X139498853Y-103956515D01*
X139501140Y-103984637D01*
X139503396Y-103991601D01*
X139504587Y-103997560D01*
X139505971Y-104003415D01*
X139506818Y-104010681D01*
X139531735Y-104079327D01*
X139533152Y-104083455D01*
X139552702Y-104143801D01*
X139555649Y-104152899D01*
X139559445Y-104159154D01*
X139561951Y-104164628D01*
X139564670Y-104170058D01*
X139567167Y-104176937D01*
X139571180Y-104183057D01*
X139571180Y-104183058D01*
X139607186Y-104237976D01*
X139609523Y-104241680D01*
X139647405Y-104304107D01*
X139651121Y-104308315D01*
X139651122Y-104308316D01*
X139654803Y-104312484D01*
X139654776Y-104312508D01*
X139657429Y-104315500D01*
X139660132Y-104318733D01*
X139664144Y-104324852D01*
X139690281Y-104349612D01*
X139720383Y-104378128D01*
X139722825Y-104380506D01*
X140534449Y-105192130D01*
X140568475Y-105254442D01*
X140570641Y-105294613D01*
X140552251Y-105466695D01*
X140565110Y-105689715D01*
X140566247Y-105694761D01*
X140566248Y-105694767D01*
X140583680Y-105772115D01*
X140614222Y-105907639D01*
X140698266Y-106114616D01*
X140749942Y-106198944D01*
X140812291Y-106300688D01*
X140814987Y-106305088D01*
X140961250Y-106473938D01*
X141133126Y-106616632D01*
X141326000Y-106729338D01*
X141330825Y-106731180D01*
X141330826Y-106731181D01*
X141375630Y-106748290D01*
X141432133Y-106791278D01*
X141456426Y-106857989D01*
X141440796Y-106927244D01*
X141390204Y-106977054D01*
X141330681Y-106992000D01*
X137330152Y-106992000D01*
X137262031Y-106971998D01*
X137215538Y-106918342D01*
X137205434Y-106848068D01*
X137234928Y-106783488D01*
X137294654Y-106745104D01*
X137305247Y-106742486D01*
X137361313Y-106731181D01*
X137593480Y-106684368D01*
X137877163Y-106586688D01*
X137880896Y-106584819D01*
X137880900Y-106584817D01*
X138141691Y-106454222D01*
X138141693Y-106454221D01*
X138145435Y-106452347D01*
X138356380Y-106308990D01*
X138390125Y-106286057D01*
X138390128Y-106286055D01*
X138393584Y-106283706D01*
X138617248Y-106083726D01*
X138687458Y-106001811D01*
X138809779Y-105859097D01*
X138809782Y-105859093D01*
X138812499Y-105855923D01*
X138814773Y-105852421D01*
X138814777Y-105852416D01*
X138973628Y-105607807D01*
X138973631Y-105607802D01*
X138975907Y-105604297D01*
X139104600Y-105333270D01*
X139134057Y-105241525D01*
X139195038Y-105051591D01*
X139195038Y-105051590D01*
X139196318Y-105047604D01*
X139210868Y-104966736D01*
X139248709Y-104756425D01*
X139248710Y-104756420D01*
X139249448Y-104752316D01*
X139250146Y-104736965D01*
X139262870Y-104456766D01*
X139262870Y-104456760D01*
X139263059Y-104452596D01*
X139262130Y-104441970D01*
X139241415Y-104205214D01*
X139236909Y-104153708D01*
X139235307Y-104146538D01*
X139172372Y-103864984D01*
X139172371Y-103864981D01*
X139171460Y-103860905D01*
X139067860Y-103579329D01*
X139065916Y-103575641D01*
X139065912Y-103575633D01*
X138929884Y-103317633D01*
X138929883Y-103317632D01*
X138927931Y-103313929D01*
X138754129Y-103069367D01*
X138549510Y-102849939D01*
X138317667Y-102659502D01*
X138062675Y-102501400D01*
X137789012Y-102378411D01*
X137547765Y-102306492D01*
X137505486Y-102293888D01*
X137505484Y-102293888D01*
X137501487Y-102292696D01*
X137497367Y-102292043D01*
X137497365Y-102292043D01*
X137378491Y-102273215D01*
X137205152Y-102245761D01*
X137162423Y-102243821D01*
X137112738Y-102241564D01*
X137112719Y-102241564D01*
X137111319Y-102241500D01*
X136923893Y-102241500D01*
X136700630Y-102256329D01*
X136696536Y-102257154D01*
X136696532Y-102257155D01*
X136577135Y-102281230D01*
X136406520Y-102315632D01*
X136122837Y-102413312D01*
X136119104Y-102415181D01*
X136119100Y-102415183D01*
X135858309Y-102545778D01*
X135854565Y-102547653D01*
X135851100Y-102550008D01*
X135633996Y-102697551D01*
X135606416Y-102716294D01*
X135382752Y-102916274D01*
X135380035Y-102919444D01*
X135380034Y-102919445D01*
X135254155Y-103066311D01*
X135187501Y-103144077D01*
X135185227Y-103147579D01*
X135185223Y-103147584D01*
X135074792Y-103317633D01*
X135024093Y-103395703D01*
X134895400Y-103666730D01*
X134894121Y-103670713D01*
X134894120Y-103670716D01*
X134834317Y-103856980D01*
X134803682Y-103952396D01*
X134802941Y-103956515D01*
X134758009Y-104206239D01*
X134726260Y-104269742D01*
X134665219Y-104305998D01*
X134594266Y-104303498D01*
X134535929Y-104263035D01*
X134508728Y-104197456D01*
X134508000Y-104183927D01*
X134508000Y-94199835D01*
X137995022Y-94199835D01*
X138006754Y-94444064D01*
X138007891Y-94453324D01*
X138055593Y-94693143D01*
X138058082Y-94702118D01*
X138140708Y-94932250D01*
X138144505Y-94940778D01*
X138260234Y-95156160D01*
X138265245Y-95164027D01*
X138322173Y-95240263D01*
X138333431Y-95248712D01*
X138345850Y-95241940D01*
X139334978Y-94252812D01*
X139342592Y-94238868D01*
X139342461Y-94237035D01*
X139338210Y-94230420D01*
X138343828Y-93236038D01*
X138330520Y-93228771D01*
X138320481Y-93235893D01*
X138315581Y-93241784D01*
X138310168Y-93249373D01*
X138183322Y-93458409D01*
X138179084Y-93466726D01*
X138084529Y-93692214D01*
X138081572Y-93701052D01*
X138021384Y-93938042D01*
X138019763Y-93947232D01*
X137995267Y-94190510D01*
X137995022Y-94199835D01*
X134508000Y-94199835D01*
X134508000Y-92864917D01*
X138696330Y-92864917D01*
X138700903Y-92874693D01*
X139694188Y-93867978D01*
X139708132Y-93875592D01*
X139709965Y-93875461D01*
X139716580Y-93871210D01*
X140709488Y-92878302D01*
X140715872Y-92866612D01*
X140706460Y-92854502D01*
X140580144Y-92766873D01*
X140572116Y-92762145D01*
X140352810Y-92653995D01*
X140344177Y-92650507D01*
X140111288Y-92575958D01*
X140102238Y-92573785D01*
X139860891Y-92534480D01*
X139851602Y-92533668D01*
X139607114Y-92530467D01*
X139597803Y-92531037D01*
X139355522Y-92564010D01*
X139346403Y-92565948D01*
X139111668Y-92634367D01*
X139102915Y-92637639D01*
X138880869Y-92740004D01*
X138872714Y-92744524D01*
X138705468Y-92854175D01*
X138696330Y-92864917D01*
X134508000Y-92864917D01*
X134508000Y-90640189D01*
X140696556Y-90640189D01*
X140705269Y-90651709D01*
X140800665Y-90721656D01*
X140808564Y-90726592D01*
X141029897Y-90843041D01*
X141038446Y-90846758D01*
X141274549Y-90929209D01*
X141283558Y-90931623D01*
X141529261Y-90978271D01*
X141538518Y-90979325D01*
X141788420Y-90989145D01*
X141797733Y-90988819D01*
X142046343Y-90961591D01*
X142055497Y-90959895D01*
X142297350Y-90896221D01*
X142306170Y-90893184D01*
X142535948Y-90794463D01*
X142544220Y-90790156D01*
X142756876Y-90658561D01*
X142762546Y-90654441D01*
X142770648Y-90642149D01*
X142764584Y-90631794D01*
X141744812Y-89612022D01*
X141730868Y-89604408D01*
X141729035Y-89604539D01*
X141722420Y-89608790D01*
X140703214Y-90627996D01*
X140696556Y-90640189D01*
X134508000Y-90640189D01*
X134508000Y-89198852D01*
X139982430Y-89198852D01*
X139994429Y-89448647D01*
X139995566Y-89457907D01*
X140044356Y-89703192D01*
X140046845Y-89712167D01*
X140131355Y-89947545D01*
X140135152Y-89956073D01*
X140253519Y-90176366D01*
X140258530Y-90184232D01*
X140320379Y-90267057D01*
X140331637Y-90275506D01*
X140344056Y-90268734D01*
X141359978Y-89252812D01*
X141366356Y-89241132D01*
X142096408Y-89241132D01*
X142096539Y-89242965D01*
X142100790Y-89249580D01*
X143122868Y-90271658D01*
X143135248Y-90278418D01*
X143143589Y-90272174D01*
X143267751Y-90079142D01*
X143272194Y-90070958D01*
X143374909Y-89842938D01*
X143378103Y-89834163D01*
X143445985Y-89593470D01*
X143447843Y-89584341D01*
X143479597Y-89334740D01*
X143480078Y-89328452D01*
X143482311Y-89243159D01*
X143482160Y-89236851D01*
X143463513Y-88985927D01*
X143462136Y-88976721D01*
X143406941Y-88732791D01*
X143404217Y-88723880D01*
X143313573Y-88490789D01*
X143309562Y-88482380D01*
X143185462Y-88265252D01*
X143180249Y-88257522D01*
X143144490Y-88212162D01*
X143132566Y-88203692D01*
X143121031Y-88210179D01*
X142104022Y-89227188D01*
X142096408Y-89241132D01*
X141366356Y-89241132D01*
X141367592Y-89238868D01*
X141367461Y-89237035D01*
X141363210Y-89230420D01*
X140342199Y-88209409D01*
X140328891Y-88202142D01*
X140318852Y-88209264D01*
X140309970Y-88219942D01*
X140304550Y-88227540D01*
X140174816Y-88441337D01*
X140170578Y-88449654D01*
X140073867Y-88680282D01*
X140070910Y-88689120D01*
X140009349Y-88931516D01*
X140007730Y-88940699D01*
X139982675Y-89189525D01*
X139982430Y-89198852D01*
X134508000Y-89198852D01*
X134508000Y-87837832D01*
X140694245Y-87837832D01*
X140698818Y-87847608D01*
X141719188Y-88867978D01*
X141733132Y-88875592D01*
X141734965Y-88875461D01*
X141741580Y-88871210D01*
X142761436Y-87851354D01*
X142767820Y-87839664D01*
X142758408Y-87827554D01*
X142624230Y-87734471D01*
X142616202Y-87729743D01*
X142391897Y-87619128D01*
X142383264Y-87615640D01*
X142145072Y-87539395D01*
X142136011Y-87537219D01*
X141889168Y-87497018D01*
X141879881Y-87496206D01*
X141629818Y-87492932D01*
X141620506Y-87493502D01*
X141372713Y-87527225D01*
X141363577Y-87529166D01*
X141123492Y-87599145D01*
X141114749Y-87602414D01*
X140887638Y-87707114D01*
X140879483Y-87711634D01*
X140703383Y-87827090D01*
X140694245Y-87837832D01*
X134508000Y-87837832D01*
X134508000Y-85613359D01*
X138698386Y-85613359D01*
X138707099Y-85624879D01*
X138795586Y-85689760D01*
X138803505Y-85694708D01*
X139019877Y-85808547D01*
X139028451Y-85812275D01*
X139259282Y-85892885D01*
X139268291Y-85895299D01*
X139508518Y-85940908D01*
X139517775Y-85941962D01*
X139762107Y-85951563D01*
X139771420Y-85951237D01*
X140014478Y-85924618D01*
X140023655Y-85922917D01*
X140260107Y-85860665D01*
X140268926Y-85857628D01*
X140493584Y-85761107D01*
X140501856Y-85756800D01*
X140709777Y-85628135D01*
X140711620Y-85626796D01*
X140719038Y-85615541D01*
X140712974Y-85605184D01*
X139719812Y-84612022D01*
X139705868Y-84604408D01*
X139704035Y-84604539D01*
X139697420Y-84608790D01*
X138705044Y-85601166D01*
X138698386Y-85613359D01*
X134508000Y-85613359D01*
X134508000Y-84199835D01*
X137995022Y-84199835D01*
X138006754Y-84444064D01*
X138007891Y-84453324D01*
X138055593Y-84693143D01*
X138058082Y-84702118D01*
X138140708Y-84932250D01*
X138144505Y-84940778D01*
X138260234Y-85156160D01*
X138265245Y-85164027D01*
X138322173Y-85240263D01*
X138333431Y-85248712D01*
X138345850Y-85241940D01*
X139334978Y-84252812D01*
X139341356Y-84241132D01*
X140071408Y-84241132D01*
X140071539Y-84242965D01*
X140075790Y-84249580D01*
X141070732Y-85244522D01*
X141083112Y-85251282D01*
X141091453Y-85245038D01*
X141209700Y-85061202D01*
X141214147Y-85053011D01*
X141314572Y-84830076D01*
X141317767Y-84821298D01*
X141384135Y-84585973D01*
X141385993Y-84576844D01*
X141417044Y-84332770D01*
X141417525Y-84326483D01*
X141419706Y-84243160D01*
X141419555Y-84236851D01*
X141401321Y-83991486D01*
X141399944Y-83982280D01*
X141345979Y-83743786D01*
X141343255Y-83734875D01*
X141254633Y-83506983D01*
X141250619Y-83498567D01*
X141129284Y-83286276D01*
X141124074Y-83278553D01*
X141092787Y-83238865D01*
X141080863Y-83230395D01*
X141069328Y-83236882D01*
X140079022Y-84227188D01*
X140071408Y-84241132D01*
X139341356Y-84241132D01*
X139342592Y-84238868D01*
X139342461Y-84237035D01*
X139338210Y-84230420D01*
X138343828Y-83236038D01*
X138330520Y-83228771D01*
X138320481Y-83235893D01*
X138315581Y-83241784D01*
X138310168Y-83249373D01*
X138183322Y-83458409D01*
X138179084Y-83466726D01*
X138084529Y-83692214D01*
X138081572Y-83701052D01*
X138021384Y-83938042D01*
X138019763Y-83947232D01*
X137995267Y-84190510D01*
X137995022Y-84199835D01*
X134508000Y-84199835D01*
X134508000Y-82864917D01*
X138696330Y-82864917D01*
X138700903Y-82874693D01*
X139694188Y-83867978D01*
X139708132Y-83875592D01*
X139709965Y-83875461D01*
X139716580Y-83871210D01*
X140709488Y-82878302D01*
X140715872Y-82866612D01*
X140706460Y-82854502D01*
X140580144Y-82766873D01*
X140572116Y-82762145D01*
X140352810Y-82653995D01*
X140344177Y-82650507D01*
X140111288Y-82575958D01*
X140102238Y-82573785D01*
X139860891Y-82534480D01*
X139851602Y-82533668D01*
X139607114Y-82530467D01*
X139597803Y-82531037D01*
X139355522Y-82564010D01*
X139346403Y-82565948D01*
X139111668Y-82634367D01*
X139102915Y-82637639D01*
X138880869Y-82740004D01*
X138872714Y-82744524D01*
X138705468Y-82854175D01*
X138696330Y-82864917D01*
X134508000Y-82864917D01*
X134508000Y-81614013D01*
X142792542Y-81614013D01*
X142801838Y-81626028D01*
X142858446Y-81665665D01*
X142867941Y-81671148D01*
X143069364Y-81765072D01*
X143079656Y-81768818D01*
X143294328Y-81826339D01*
X143305123Y-81828242D01*
X143526525Y-81847613D01*
X143537475Y-81847613D01*
X143758877Y-81828242D01*
X143769672Y-81826339D01*
X143984344Y-81768818D01*
X143994636Y-81765072D01*
X144196059Y-81671148D01*
X144205554Y-81665665D01*
X144263000Y-81625441D01*
X144271375Y-81614964D01*
X144264307Y-81601517D01*
X143544812Y-80882022D01*
X143530868Y-80874408D01*
X143529035Y-80874539D01*
X143522420Y-80878790D01*
X142798972Y-81602238D01*
X142792542Y-81614013D01*
X134508000Y-81614013D01*
X134508000Y-80515475D01*
X142194387Y-80515475D01*
X142213758Y-80736877D01*
X142215661Y-80747672D01*
X142273182Y-80962344D01*
X142276928Y-80972636D01*
X142370852Y-81174059D01*
X142376335Y-81183554D01*
X142416559Y-81241000D01*
X142427036Y-81249375D01*
X142440483Y-81242307D01*
X143159978Y-80522812D01*
X143167592Y-80508868D01*
X143167461Y-80507035D01*
X143163210Y-80500420D01*
X142439762Y-79776972D01*
X142427987Y-79770542D01*
X142415972Y-79779838D01*
X142376335Y-79836446D01*
X142370852Y-79845941D01*
X142276928Y-80047364D01*
X142273182Y-80057656D01*
X142215661Y-80272328D01*
X142213758Y-80283123D01*
X142194387Y-80504525D01*
X142194387Y-80515475D01*
X134508000Y-80515475D01*
X134508000Y-79405036D01*
X142792625Y-79405036D01*
X142799693Y-79418483D01*
X143519188Y-80137978D01*
X143533132Y-80145592D01*
X143534965Y-80145461D01*
X143541580Y-80141210D01*
X144265028Y-79417762D01*
X144271458Y-79405987D01*
X144262162Y-79393972D01*
X144205554Y-79354335D01*
X144196059Y-79348852D01*
X143994636Y-79254928D01*
X143984344Y-79251182D01*
X143769672Y-79193661D01*
X143758877Y-79191758D01*
X143537475Y-79172387D01*
X143526525Y-79172387D01*
X143305123Y-79191758D01*
X143294328Y-79193661D01*
X143079656Y-79251182D01*
X143069364Y-79254928D01*
X142867941Y-79348852D01*
X142858446Y-79354335D01*
X142801000Y-79394559D01*
X142792625Y-79405036D01*
X134508000Y-79405036D01*
X134508000Y-76816470D01*
X134528002Y-76748349D01*
X134581658Y-76701856D01*
X134651932Y-76691752D01*
X134716512Y-76721246D01*
X134754896Y-76780972D01*
X134759521Y-76805488D01*
X134763091Y-76846292D01*
X134764001Y-76850364D01*
X134764002Y-76850369D01*
X134827628Y-77135016D01*
X134828540Y-77139095D01*
X134932140Y-77420671D01*
X134934084Y-77424359D01*
X134934088Y-77424367D01*
X135030805Y-77607807D01*
X135072069Y-77686071D01*
X135245871Y-77930633D01*
X135450490Y-78150061D01*
X135682333Y-78340498D01*
X135937325Y-78498600D01*
X136210988Y-78621589D01*
X136385368Y-78673574D01*
X136494514Y-78706112D01*
X136494516Y-78706112D01*
X136498513Y-78707304D01*
X136502633Y-78707957D01*
X136502635Y-78707957D01*
X136621509Y-78726785D01*
X136794848Y-78754239D01*
X136837577Y-78756179D01*
X136887262Y-78758436D01*
X136887281Y-78758436D01*
X136888681Y-78758500D01*
X137076107Y-78758500D01*
X137299370Y-78743671D01*
X137303464Y-78742846D01*
X137303468Y-78742845D01*
X137444513Y-78714405D01*
X137593480Y-78684368D01*
X137877163Y-78586688D01*
X137880896Y-78584819D01*
X137880900Y-78584817D01*
X138141691Y-78454222D01*
X138141693Y-78454221D01*
X138145435Y-78452347D01*
X138393584Y-78283706D01*
X138617248Y-78083726D01*
X138619966Y-78080555D01*
X138809779Y-77859097D01*
X138809782Y-77859093D01*
X138812499Y-77855923D01*
X138814773Y-77852421D01*
X138814777Y-77852416D01*
X138973628Y-77607807D01*
X138973631Y-77607802D01*
X138975907Y-77604297D01*
X139104600Y-77333270D01*
X139196318Y-77047604D01*
X139237905Y-76816470D01*
X139248709Y-76756425D01*
X139248710Y-76756420D01*
X139249448Y-76752316D01*
X139250146Y-76736965D01*
X139262870Y-76456766D01*
X139262870Y-76456760D01*
X139263059Y-76452596D01*
X139236909Y-76153708D01*
X139192832Y-75956515D01*
X139172372Y-75864984D01*
X139172371Y-75864981D01*
X139171460Y-75860905D01*
X139067860Y-75579329D01*
X139065916Y-75575641D01*
X139065912Y-75575633D01*
X138929884Y-75317633D01*
X138929883Y-75317632D01*
X138927931Y-75313929D01*
X138754129Y-75069367D01*
X138549510Y-74849939D01*
X138317667Y-74659502D01*
X138062675Y-74501400D01*
X137789012Y-74378411D01*
X137575650Y-74314805D01*
X137505486Y-74293888D01*
X137505484Y-74293888D01*
X137501487Y-74292696D01*
X137497367Y-74292043D01*
X137497365Y-74292043D01*
X137285261Y-74258449D01*
X137221108Y-74228036D01*
X137183581Y-74167768D01*
X137184595Y-74096779D01*
X137223828Y-74037607D01*
X137288823Y-74009039D01*
X137304972Y-74008000D01*
X156669848Y-74008000D01*
X156737969Y-74028002D01*
G37*
%TD.AperFunction*%
%TA.AperFunction,Conductor*%
G36*
X152686750Y-81013502D02*
G01*
X152707724Y-81030405D01*
X156454595Y-84777276D01*
X156488621Y-84839588D01*
X156491500Y-84866371D01*
X156491500Y-89133629D01*
X156471498Y-89201750D01*
X156454595Y-89222724D01*
X156313098Y-89364221D01*
X156250786Y-89398247D01*
X156179971Y-89393182D01*
X156123135Y-89350635D01*
X156098324Y-89284115D01*
X156098482Y-89264146D01*
X156100115Y-89245478D01*
X156100115Y-89245475D01*
X156100594Y-89240000D01*
X156080258Y-89007556D01*
X156019867Y-88782174D01*
X155972354Y-88680282D01*
X155923582Y-88575690D01*
X155923579Y-88575685D01*
X155921256Y-88570703D01*
X155787422Y-88379568D01*
X155622432Y-88214578D01*
X155617924Y-88211421D01*
X155617921Y-88211419D01*
X155448669Y-88092908D01*
X155404341Y-88037451D01*
X155397032Y-87966832D01*
X155429063Y-87903471D01*
X155448669Y-87886482D01*
X155493000Y-87855441D01*
X155501375Y-87844964D01*
X155494307Y-87831517D01*
X154774812Y-87112022D01*
X154760868Y-87104408D01*
X154759035Y-87104539D01*
X154752420Y-87108790D01*
X154028972Y-87832238D01*
X154022542Y-87844013D01*
X154031838Y-87856028D01*
X154075331Y-87886482D01*
X154119659Y-87941939D01*
X154126968Y-88012558D01*
X154094937Y-88075919D01*
X154075331Y-88092908D01*
X153906079Y-88211419D01*
X153906076Y-88211421D01*
X153901568Y-88214578D01*
X153736578Y-88379568D01*
X153602744Y-88570703D01*
X153600421Y-88575685D01*
X153600418Y-88575690D01*
X153551646Y-88680282D01*
X153504133Y-88782174D01*
X153443742Y-89007556D01*
X153423406Y-89240000D01*
X153443742Y-89472444D01*
X153445166Y-89477757D01*
X153445166Y-89477759D01*
X153474916Y-89588785D01*
X153504133Y-89697826D01*
X153506455Y-89702806D01*
X153506456Y-89702808D01*
X153600418Y-89904310D01*
X153600421Y-89904315D01*
X153602744Y-89909297D01*
X153605900Y-89913804D01*
X153605901Y-89913806D01*
X153721671Y-90079142D01*
X153736578Y-90100432D01*
X153901568Y-90265422D01*
X153906076Y-90268579D01*
X153906079Y-90268581D01*
X154074895Y-90386787D01*
X154119223Y-90442244D01*
X154126532Y-90512863D01*
X154094501Y-90576224D01*
X154074895Y-90593213D01*
X153906079Y-90711419D01*
X153906076Y-90711421D01*
X153901568Y-90714578D01*
X153736578Y-90879568D01*
X153733421Y-90884076D01*
X153733419Y-90884079D01*
X153659851Y-90989145D01*
X153602744Y-91070703D01*
X153600421Y-91075685D01*
X153600418Y-91075690D01*
X153506456Y-91277192D01*
X153504133Y-91282174D01*
X153443742Y-91507556D01*
X153423406Y-91740000D01*
X153443742Y-91972444D01*
X153504133Y-92197826D01*
X153506455Y-92202806D01*
X153506456Y-92202808D01*
X153600418Y-92404310D01*
X153600421Y-92404315D01*
X153602744Y-92409297D01*
X153605900Y-92413804D01*
X153605901Y-92413806D01*
X153717920Y-92573785D01*
X153736578Y-92600432D01*
X153901568Y-92765422D01*
X153949772Y-92799175D01*
X153994099Y-92854629D01*
X154003500Y-92902386D01*
X154003500Y-93206563D01*
X153983498Y-93274684D01*
X153929842Y-93321177D01*
X153859568Y-93331281D01*
X153794988Y-93301787D01*
X153777369Y-93281904D01*
X153776966Y-93282221D01*
X153742787Y-93238865D01*
X153730863Y-93230395D01*
X153719328Y-93236882D01*
X152729022Y-94227188D01*
X152721408Y-94241132D01*
X152721539Y-94242965D01*
X152725790Y-94249580D01*
X153720732Y-95244522D01*
X153733112Y-95251282D01*
X153741453Y-95245038D01*
X153771529Y-95198280D01*
X153825203Y-95151808D01*
X153895481Y-95141733D01*
X153960050Y-95171251D01*
X153998410Y-95230993D01*
X154003500Y-95266443D01*
X154003500Y-97271629D01*
X153983498Y-97339750D01*
X153966595Y-97360724D01*
X149046089Y-102281230D01*
X149031677Y-102293616D01*
X149020082Y-102302149D01*
X149020077Y-102302154D01*
X149014182Y-102306492D01*
X149009443Y-102312070D01*
X149009440Y-102312073D01*
X148979965Y-102346768D01*
X148973035Y-102354284D01*
X148967340Y-102359979D01*
X148965060Y-102362861D01*
X148949719Y-102382251D01*
X148946928Y-102385655D01*
X148904409Y-102435703D01*
X148899667Y-102441285D01*
X148896339Y-102447801D01*
X148892972Y-102452850D01*
X148889805Y-102457979D01*
X148885266Y-102463716D01*
X148854345Y-102529875D01*
X148852442Y-102533769D01*
X148819231Y-102598808D01*
X148817492Y-102605916D01*
X148815393Y-102611559D01*
X148813476Y-102617322D01*
X148810378Y-102623950D01*
X148808888Y-102631112D01*
X148808888Y-102631113D01*
X148795514Y-102695412D01*
X148794544Y-102699696D01*
X148777192Y-102770610D01*
X148776500Y-102781764D01*
X148776464Y-102781762D01*
X148776225Y-102785755D01*
X148775851Y-102789947D01*
X148774360Y-102797115D01*
X148774558Y-102804432D01*
X148776454Y-102874521D01*
X148776500Y-102877928D01*
X148776500Y-104307655D01*
X148756498Y-104375776D01*
X148726153Y-104408415D01*
X148634100Y-104477530D01*
X148629965Y-104480635D01*
X148475629Y-104642138D01*
X148368201Y-104799621D01*
X148313293Y-104844621D01*
X148242768Y-104852792D01*
X148179021Y-104821538D01*
X148158324Y-104797054D01*
X148077822Y-104672617D01*
X148077820Y-104672614D01*
X148075014Y-104668277D01*
X147924670Y-104503051D01*
X147920619Y-104499852D01*
X147920615Y-104499848D01*
X147753414Y-104367800D01*
X147753410Y-104367798D01*
X147749359Y-104364598D01*
X147553789Y-104256638D01*
X147548920Y-104254914D01*
X147548916Y-104254912D01*
X147348087Y-104183795D01*
X147348083Y-104183794D01*
X147343212Y-104182069D01*
X147338119Y-104181162D01*
X147338116Y-104181161D01*
X147219968Y-104160116D01*
X147123284Y-104142894D01*
X147121675Y-104142874D01*
X147056701Y-104116931D01*
X147015467Y-104059136D01*
X147008500Y-104017818D01*
X147008500Y-100706624D01*
X148430621Y-100706624D01*
X148434988Y-100712774D01*
X148634563Y-100829397D01*
X148643846Y-100833844D01*
X148862007Y-100917152D01*
X148871905Y-100920028D01*
X149100744Y-100966585D01*
X149110972Y-100967804D01*
X149344340Y-100976362D01*
X149354626Y-100975895D01*
X149586262Y-100946222D01*
X149596340Y-100944080D01*
X149820014Y-100876974D01*
X149829612Y-100873212D01*
X150039324Y-100770476D01*
X150048169Y-100765203D01*
X150120869Y-100713347D01*
X150129270Y-100702646D01*
X150122283Y-100689493D01*
X149294812Y-99862022D01*
X149280868Y-99854408D01*
X149279035Y-99854539D01*
X149272420Y-99858790D01*
X148437881Y-100693329D01*
X148430621Y-100706624D01*
X147008500Y-100706624D01*
X147008500Y-99458799D01*
X147794658Y-99458799D01*
X147808102Y-99691942D01*
X147809535Y-99702144D01*
X147860873Y-99929949D01*
X147863956Y-99939789D01*
X147951814Y-100156156D01*
X147956457Y-100165347D01*
X148057555Y-100330325D01*
X148068011Y-100339785D01*
X148076789Y-100336001D01*
X148909978Y-99502812D01*
X148916356Y-99491132D01*
X149646408Y-99491132D01*
X149646539Y-99492965D01*
X149650790Y-99499580D01*
X150482045Y-100330835D01*
X150494055Y-100337394D01*
X150505794Y-100328426D01*
X150554518Y-100260619D01*
X150559829Y-100251780D01*
X150663291Y-100042442D01*
X150667089Y-100032849D01*
X150734974Y-99809413D01*
X150737151Y-99799343D01*
X150767869Y-99566015D01*
X150768388Y-99559340D01*
X150770001Y-99493364D01*
X150769807Y-99486647D01*
X150750525Y-99252108D01*
X150748842Y-99241946D01*
X150691952Y-99015453D01*
X150688634Y-99005706D01*
X150595513Y-98791542D01*
X150590646Y-98782467D01*
X150505465Y-98650796D01*
X150494779Y-98641593D01*
X150485214Y-98645996D01*
X149654022Y-99477188D01*
X149646408Y-99491132D01*
X148916356Y-99491132D01*
X148917592Y-99488868D01*
X148917461Y-99487035D01*
X148913210Y-99480420D01*
X148081892Y-98649102D01*
X148070356Y-98642802D01*
X148058073Y-98652426D01*
X147991036Y-98750698D01*
X147985943Y-98759662D01*
X147887619Y-98971483D01*
X147884062Y-98981151D01*
X147821657Y-99206178D01*
X147819726Y-99216298D01*
X147794910Y-99448510D01*
X147794658Y-99458799D01*
X147008500Y-99458799D01*
X147008500Y-98277142D01*
X148433938Y-98277142D01*
X148440684Y-98289474D01*
X149269188Y-99117978D01*
X149283132Y-99125592D01*
X149284965Y-99125461D01*
X149291580Y-99121210D01*
X150124391Y-98288399D01*
X150131412Y-98275543D01*
X150123639Y-98264875D01*
X150109548Y-98253746D01*
X150100970Y-98248047D01*
X149896526Y-98135189D01*
X149887126Y-98130964D01*
X149666993Y-98053011D01*
X149657036Y-98050381D01*
X149427129Y-98009427D01*
X149416878Y-98008458D01*
X149183367Y-98005605D01*
X149173083Y-98006325D01*
X148942253Y-98041647D01*
X148932225Y-98044036D01*
X148710263Y-98116584D01*
X148700753Y-98120581D01*
X148493624Y-98228405D01*
X148484904Y-98233897D01*
X148442391Y-98265817D01*
X148433938Y-98277142D01*
X147008500Y-98277142D01*
X147008500Y-94953631D01*
X147793860Y-94953631D01*
X147794157Y-94958783D01*
X147794157Y-94958787D01*
X147803500Y-95120819D01*
X147807903Y-95197171D01*
X147809040Y-95202217D01*
X147809041Y-95202223D01*
X147830952Y-95299447D01*
X147861533Y-95435147D01*
X147863475Y-95439929D01*
X147863476Y-95439933D01*
X147939897Y-95628135D01*
X147953311Y-95661169D01*
X148080772Y-95869166D01*
X148240492Y-96053553D01*
X148428183Y-96209377D01*
X148638804Y-96332453D01*
X148643629Y-96334295D01*
X148643630Y-96334296D01*
X148746763Y-96373679D01*
X148866698Y-96419478D01*
X148871764Y-96420509D01*
X148871765Y-96420509D01*
X149100667Y-96467080D01*
X149100671Y-96467080D01*
X149105746Y-96468113D01*
X149110922Y-96468303D01*
X149110924Y-96468303D01*
X149344363Y-96476863D01*
X149344367Y-96476863D01*
X149349527Y-96477052D01*
X149354647Y-96476396D01*
X149354649Y-96476396D01*
X149431377Y-96466567D01*
X149591494Y-96446055D01*
X149596443Y-96444570D01*
X149596449Y-96444569D01*
X149820200Y-96377440D01*
X149820199Y-96377440D01*
X149825150Y-96375955D01*
X150044219Y-96268634D01*
X150048424Y-96265634D01*
X150048430Y-96265631D01*
X150238614Y-96129974D01*
X150238616Y-96129972D01*
X150242818Y-96126975D01*
X150415614Y-95954781D01*
X150557966Y-95756677D01*
X150628798Y-95613359D01*
X151348386Y-95613359D01*
X151357099Y-95624879D01*
X151445586Y-95689760D01*
X151453505Y-95694708D01*
X151669877Y-95808547D01*
X151678451Y-95812275D01*
X151909282Y-95892885D01*
X151918291Y-95895299D01*
X152158518Y-95940908D01*
X152167775Y-95941962D01*
X152412107Y-95951563D01*
X152421420Y-95951237D01*
X152664478Y-95924618D01*
X152673655Y-95922917D01*
X152910107Y-95860665D01*
X152918926Y-95857628D01*
X153143584Y-95761107D01*
X153151856Y-95756800D01*
X153359777Y-95628135D01*
X153361620Y-95626796D01*
X153369038Y-95615541D01*
X153362974Y-95605184D01*
X152369812Y-94612022D01*
X152355868Y-94604408D01*
X152354035Y-94604539D01*
X152347420Y-94608790D01*
X151355044Y-95601166D01*
X151348386Y-95613359D01*
X150628798Y-95613359D01*
X150666050Y-95537984D01*
X150698827Y-95430105D01*
X150735462Y-95309527D01*
X150735463Y-95309521D01*
X150736966Y-95304575D01*
X150738965Y-95289391D01*
X150767688Y-95224464D01*
X150826954Y-95185373D01*
X150897945Y-95184528D01*
X150958123Y-95222199D01*
X150964846Y-95230450D01*
X150972174Y-95240264D01*
X150983431Y-95248712D01*
X150995850Y-95241940D01*
X151984978Y-94252812D01*
X151992592Y-94238868D01*
X151992461Y-94237035D01*
X151988210Y-94230420D01*
X150993828Y-93236038D01*
X150980520Y-93228771D01*
X150970481Y-93235893D01*
X150965581Y-93241784D01*
X150960168Y-93249373D01*
X150833322Y-93458409D01*
X150829084Y-93466726D01*
X150734529Y-93692214D01*
X150731572Y-93701052D01*
X150671384Y-93938042D01*
X150669763Y-93947233D01*
X150665126Y-93993282D01*
X150638399Y-94059056D01*
X150580355Y-94099939D01*
X150509423Y-94102951D01*
X150446569Y-94065460D01*
X150297212Y-93901319D01*
X150293161Y-93898120D01*
X150293157Y-93898116D01*
X150109825Y-93753329D01*
X150109821Y-93753327D01*
X150105770Y-93750127D01*
X150094284Y-93743786D01*
X150049759Y-93719207D01*
X149892205Y-93632233D01*
X149887336Y-93630509D01*
X149887332Y-93630507D01*
X149667127Y-93552528D01*
X149667123Y-93552527D01*
X149662252Y-93550802D01*
X149657159Y-93549895D01*
X149657156Y-93549894D01*
X149427177Y-93508928D01*
X149427171Y-93508927D01*
X149422088Y-93508022D01*
X149342380Y-93507048D01*
X149183332Y-93505105D01*
X149183330Y-93505105D01*
X149178162Y-93505042D01*
X148937024Y-93541941D01*
X148705150Y-93617729D01*
X148488769Y-93730370D01*
X148484636Y-93733473D01*
X148484633Y-93733475D01*
X148305493Y-93867978D01*
X148293690Y-93876840D01*
X148125153Y-94053204D01*
X148122239Y-94057476D01*
X148122238Y-94057477D01*
X148091218Y-94102951D01*
X147987684Y-94254726D01*
X147970705Y-94291305D01*
X147895498Y-94453324D01*
X147884974Y-94475995D01*
X147819783Y-94711067D01*
X147793860Y-94953631D01*
X147008500Y-94953631D01*
X147008500Y-92864917D01*
X151346330Y-92864917D01*
X151350903Y-92874693D01*
X152344188Y-93867978D01*
X152358132Y-93875592D01*
X152359965Y-93875461D01*
X152366580Y-93871210D01*
X153359488Y-92878302D01*
X153365872Y-92866612D01*
X153356460Y-92854502D01*
X153230144Y-92766873D01*
X153222116Y-92762145D01*
X153002810Y-92653995D01*
X152994177Y-92650507D01*
X152761288Y-92575958D01*
X152752238Y-92573785D01*
X152510891Y-92534480D01*
X152501602Y-92533668D01*
X152257114Y-92530467D01*
X152247803Y-92531037D01*
X152005522Y-92564010D01*
X151996403Y-92565948D01*
X151761668Y-92634367D01*
X151752915Y-92637639D01*
X151530869Y-92740004D01*
X151522714Y-92744524D01*
X151355468Y-92854175D01*
X151346330Y-92864917D01*
X147008500Y-92864917D01*
X147008500Y-90640189D01*
X149296556Y-90640189D01*
X149305269Y-90651709D01*
X149400665Y-90721656D01*
X149408564Y-90726592D01*
X149629897Y-90843041D01*
X149638446Y-90846758D01*
X149874549Y-90929209D01*
X149883558Y-90931623D01*
X150129261Y-90978271D01*
X150138518Y-90979325D01*
X150388420Y-90989145D01*
X150397733Y-90988819D01*
X150646343Y-90961591D01*
X150655497Y-90959895D01*
X150897350Y-90896221D01*
X150906170Y-90893184D01*
X151135948Y-90794463D01*
X151144220Y-90790156D01*
X151356876Y-90658561D01*
X151362546Y-90654441D01*
X151370648Y-90642149D01*
X151364584Y-90631794D01*
X150344812Y-89612022D01*
X150330868Y-89604408D01*
X150329035Y-89604539D01*
X150322420Y-89608790D01*
X149303214Y-90627996D01*
X149296556Y-90640189D01*
X147008500Y-90640189D01*
X147008500Y-89198852D01*
X148582430Y-89198852D01*
X148594429Y-89448647D01*
X148595566Y-89457907D01*
X148644356Y-89703192D01*
X148646845Y-89712167D01*
X148731355Y-89947545D01*
X148735152Y-89956073D01*
X148853519Y-90176366D01*
X148858530Y-90184232D01*
X148920379Y-90267057D01*
X148931637Y-90275506D01*
X148944056Y-90268734D01*
X149959978Y-89252812D01*
X149966356Y-89241132D01*
X150696408Y-89241132D01*
X150696539Y-89242965D01*
X150700790Y-89249580D01*
X151722868Y-90271658D01*
X151735248Y-90278418D01*
X151743589Y-90272174D01*
X151867751Y-90079142D01*
X151872194Y-90070958D01*
X151974909Y-89842938D01*
X151978103Y-89834163D01*
X152045985Y-89593470D01*
X152047843Y-89584341D01*
X152079597Y-89334740D01*
X152080078Y-89328452D01*
X152082311Y-89243159D01*
X152082160Y-89236851D01*
X152063513Y-88985927D01*
X152062136Y-88976721D01*
X152006941Y-88732791D01*
X152004217Y-88723880D01*
X151913573Y-88490789D01*
X151909562Y-88482380D01*
X151785462Y-88265252D01*
X151780249Y-88257522D01*
X151744490Y-88212162D01*
X151732566Y-88203692D01*
X151721031Y-88210179D01*
X150704022Y-89227188D01*
X150696408Y-89241132D01*
X149966356Y-89241132D01*
X149967592Y-89238868D01*
X149967461Y-89237035D01*
X149963210Y-89230420D01*
X148942199Y-88209409D01*
X148928891Y-88202142D01*
X148918852Y-88209264D01*
X148909970Y-88219942D01*
X148904550Y-88227540D01*
X148774816Y-88441337D01*
X148770578Y-88449654D01*
X148673867Y-88680282D01*
X148670910Y-88689120D01*
X148609349Y-88931516D01*
X148607730Y-88940699D01*
X148582675Y-89189525D01*
X148582430Y-89198852D01*
X147008500Y-89198852D01*
X147008500Y-87837832D01*
X149294245Y-87837832D01*
X149298818Y-87847608D01*
X150319188Y-88867978D01*
X150333132Y-88875592D01*
X150334965Y-88875461D01*
X150341580Y-88871210D01*
X151361436Y-87851354D01*
X151367820Y-87839664D01*
X151358408Y-87827554D01*
X151224230Y-87734471D01*
X151216202Y-87729743D01*
X150991897Y-87619128D01*
X150983264Y-87615640D01*
X150745072Y-87539395D01*
X150736011Y-87537219D01*
X150489168Y-87497018D01*
X150479881Y-87496206D01*
X150229818Y-87492932D01*
X150220506Y-87493502D01*
X149972713Y-87527225D01*
X149963577Y-87529166D01*
X149723492Y-87599145D01*
X149714749Y-87602414D01*
X149487638Y-87707114D01*
X149479483Y-87711634D01*
X149303383Y-87827090D01*
X149294245Y-87837832D01*
X147008500Y-87837832D01*
X147008500Y-86745475D01*
X153424387Y-86745475D01*
X153443758Y-86966877D01*
X153445661Y-86977672D01*
X153503182Y-87192344D01*
X153506928Y-87202636D01*
X153600852Y-87404059D01*
X153606335Y-87413554D01*
X153646559Y-87471000D01*
X153657036Y-87479375D01*
X153670483Y-87472307D01*
X154389978Y-86752812D01*
X154396356Y-86741132D01*
X155126408Y-86741132D01*
X155126539Y-86742965D01*
X155130790Y-86749580D01*
X155854238Y-87473028D01*
X155866013Y-87479458D01*
X155878028Y-87470162D01*
X155917665Y-87413554D01*
X155923148Y-87404059D01*
X156017072Y-87202636D01*
X156020818Y-87192344D01*
X156078339Y-86977672D01*
X156080242Y-86966877D01*
X156099613Y-86745475D01*
X156099613Y-86734525D01*
X156080242Y-86513123D01*
X156078339Y-86502328D01*
X156020818Y-86287656D01*
X156017072Y-86277364D01*
X155923148Y-86075941D01*
X155917665Y-86066446D01*
X155877441Y-86009000D01*
X155866964Y-86000625D01*
X155853517Y-86007693D01*
X155134022Y-86727188D01*
X155126408Y-86741132D01*
X154396356Y-86741132D01*
X154397592Y-86738868D01*
X154397461Y-86737035D01*
X154393210Y-86730420D01*
X153669762Y-86006972D01*
X153657987Y-86000542D01*
X153645972Y-86009838D01*
X153606335Y-86066446D01*
X153600852Y-86075941D01*
X153506928Y-86277364D01*
X153503182Y-86287656D01*
X153445661Y-86502328D01*
X153443758Y-86513123D01*
X153424387Y-86734525D01*
X153424387Y-86745475D01*
X147008500Y-86745475D01*
X147008500Y-85613359D01*
X151348386Y-85613359D01*
X151357099Y-85624879D01*
X151445586Y-85689760D01*
X151453505Y-85694708D01*
X151669877Y-85808547D01*
X151678451Y-85812275D01*
X151909282Y-85892885D01*
X151918291Y-85895299D01*
X152158518Y-85940908D01*
X152167775Y-85941962D01*
X152412107Y-85951563D01*
X152421420Y-85951237D01*
X152664478Y-85924618D01*
X152673655Y-85922917D01*
X152910107Y-85860665D01*
X152918926Y-85857628D01*
X153143584Y-85761107D01*
X153151856Y-85756800D01*
X153348625Y-85635036D01*
X154022625Y-85635036D01*
X154029693Y-85648483D01*
X154749188Y-86367978D01*
X154763132Y-86375592D01*
X154764965Y-86375461D01*
X154771580Y-86371210D01*
X155495028Y-85647762D01*
X155501458Y-85635987D01*
X155492162Y-85623972D01*
X155435554Y-85584335D01*
X155426059Y-85578852D01*
X155224636Y-85484928D01*
X155214344Y-85481182D01*
X154999672Y-85423661D01*
X154988877Y-85421758D01*
X154767475Y-85402387D01*
X154756525Y-85402387D01*
X154535123Y-85421758D01*
X154524328Y-85423661D01*
X154309656Y-85481182D01*
X154299364Y-85484928D01*
X154097941Y-85578852D01*
X154088446Y-85584335D01*
X154031000Y-85624559D01*
X154022625Y-85635036D01*
X153348625Y-85635036D01*
X153359777Y-85628135D01*
X153361620Y-85626796D01*
X153369038Y-85615541D01*
X153362974Y-85605184D01*
X152369812Y-84612022D01*
X152355868Y-84604408D01*
X152354035Y-84604539D01*
X152347420Y-84608790D01*
X151355044Y-85601166D01*
X151348386Y-85613359D01*
X147008500Y-85613359D01*
X147008500Y-84199835D01*
X150645022Y-84199835D01*
X150656754Y-84444064D01*
X150657891Y-84453324D01*
X150705593Y-84693143D01*
X150708082Y-84702118D01*
X150790708Y-84932250D01*
X150794505Y-84940778D01*
X150910234Y-85156160D01*
X150915245Y-85164027D01*
X150972173Y-85240263D01*
X150983431Y-85248712D01*
X150995850Y-85241940D01*
X151984978Y-84252812D01*
X151991356Y-84241132D01*
X152721408Y-84241132D01*
X152721539Y-84242965D01*
X152725790Y-84249580D01*
X153720732Y-85244522D01*
X153733112Y-85251282D01*
X153741453Y-85245038D01*
X153859700Y-85061202D01*
X153864147Y-85053011D01*
X153964572Y-84830076D01*
X153967767Y-84821298D01*
X154034135Y-84585973D01*
X154035993Y-84576844D01*
X154067044Y-84332770D01*
X154067525Y-84326483D01*
X154069706Y-84243160D01*
X154069555Y-84236851D01*
X154051321Y-83991486D01*
X154049944Y-83982280D01*
X153995979Y-83743786D01*
X153993255Y-83734875D01*
X153904633Y-83506983D01*
X153900619Y-83498567D01*
X153779284Y-83286276D01*
X153774074Y-83278553D01*
X153742787Y-83238865D01*
X153730863Y-83230395D01*
X153719328Y-83236882D01*
X152729022Y-84227188D01*
X152721408Y-84241132D01*
X151991356Y-84241132D01*
X151992592Y-84238868D01*
X151992461Y-84237035D01*
X151988210Y-84230420D01*
X150993828Y-83236038D01*
X150980520Y-83228771D01*
X150970481Y-83235893D01*
X150965581Y-83241784D01*
X150960168Y-83249373D01*
X150833322Y-83458409D01*
X150829084Y-83466726D01*
X150734529Y-83692214D01*
X150731572Y-83701052D01*
X150671384Y-83938042D01*
X150669763Y-83947232D01*
X150645267Y-84190510D01*
X150645022Y-84199835D01*
X147008500Y-84199835D01*
X147008500Y-82864917D01*
X151346330Y-82864917D01*
X151350903Y-82874693D01*
X152344188Y-83867978D01*
X152358132Y-83875592D01*
X152359965Y-83875461D01*
X152366580Y-83871210D01*
X153359488Y-82878302D01*
X153365872Y-82866612D01*
X153356460Y-82854502D01*
X153230144Y-82766873D01*
X153222116Y-82762145D01*
X153002810Y-82653995D01*
X152994177Y-82650507D01*
X152761288Y-82575958D01*
X152752238Y-82573785D01*
X152510891Y-82534480D01*
X152501602Y-82533668D01*
X152257114Y-82530467D01*
X152247803Y-82531037D01*
X152005522Y-82564010D01*
X151996403Y-82565948D01*
X151761668Y-82634367D01*
X151752915Y-82637639D01*
X151530869Y-82740004D01*
X151522714Y-82744524D01*
X151355468Y-82854175D01*
X151346330Y-82864917D01*
X147008500Y-82864917D01*
X147008500Y-81471544D01*
X147028502Y-81403423D01*
X147045405Y-81382449D01*
X147057422Y-81370432D01*
X147178787Y-81197105D01*
X147234244Y-81152777D01*
X147304863Y-81145468D01*
X147368224Y-81177499D01*
X147385213Y-81197105D01*
X147506578Y-81370432D01*
X147671568Y-81535422D01*
X147676076Y-81538579D01*
X147676079Y-81538581D01*
X147858194Y-81666099D01*
X147862703Y-81669256D01*
X147867685Y-81671579D01*
X147867690Y-81671582D01*
X148068180Y-81765072D01*
X148074174Y-81767867D01*
X148079482Y-81769289D01*
X148079484Y-81769290D01*
X148294241Y-81826834D01*
X148294243Y-81826834D01*
X148299556Y-81828258D01*
X148532000Y-81848594D01*
X148764444Y-81828258D01*
X148769757Y-81826834D01*
X148769759Y-81826834D01*
X148984516Y-81769290D01*
X148984518Y-81769289D01*
X148989826Y-81767867D01*
X148995820Y-81765072D01*
X149196310Y-81671582D01*
X149196315Y-81671579D01*
X149201297Y-81669256D01*
X149205806Y-81666099D01*
X149387921Y-81538581D01*
X149387924Y-81538579D01*
X149392432Y-81535422D01*
X149557422Y-81370432D01*
X149691256Y-81179297D01*
X149693579Y-81174315D01*
X149693582Y-81174310D01*
X149743971Y-81066250D01*
X149790889Y-81012965D01*
X149858166Y-80993500D01*
X152618629Y-80993500D01*
X152686750Y-81013502D01*
G37*
%TD.AperFunction*%
%TD*%
M02*
