M48
; DRILL file {KiCad (6.0.1)} date Mon Mar 21 11:35:45 2022
; FORMAT={-:-/ absolute / inch / decimal}
; #@! TF.CreationDate,2022-03-21T11:35:45+08:00
; #@! TF.GenerationSoftware,Kicad,Pcbnew,(6.0.1)
; #@! TF.FileFunction,Plated,1,2,PTH
FMAT,2
INCH
; #@! TA.AperFunction,Plated,PTH,ComponentDrill
T1C0.0394
; #@! TA.AperFunction,Plated,PTH,ComponentDrill
T2C0.0433
; #@! TA.AperFunction,Plated,PTH,ComponentDrill
T3C0.0512
; #@! TA.AperFunction,Plated,PTH,ComponentDrill
T4C0.0630
; #@! TA.AperFunction,Plated,PTH,ComponentDrill
T5C0.0650
%
G90
G05
T1
X5.5872Y-4.1535
X5.6872Y-4.1535
X5.7872Y-4.1535
X5.8872Y-4.1535
X5.9872Y-4.1535
T2
X5.6509Y-3.1697
X5.7493Y-3.1697
X5.8477Y-3.1697
X6.093Y-3.415
X6.093Y-3.5134
X6.093Y-3.6118
T3
X5.6213Y-3.7398
X5.6213Y-3.9169
X5.8772Y-3.7398
X5.8772Y-3.9169
T4
X5.5003Y-3.3165
X5.5003Y-3.7102
X5.9983Y-3.3165
X5.9983Y-3.7102
T5
X5.58Y-3.5134
X5.9186Y-3.5134
T0
M30
