%TF.GenerationSoftware,KiCad,Pcbnew,(6.0.1)*%
%TF.CreationDate,2022-03-21T11:35:37+08:00*%
%TF.ProjectId,Joystick_Board,4a6f7973-7469-4636-9b5f-426f6172642e,rev?*%
%TF.SameCoordinates,Original*%
%TF.FileFunction,Copper,L2,Bot*%
%TF.FilePolarity,Positive*%
%FSLAX46Y46*%
G04 Gerber Fmt 4.6, Leading zero omitted, Abs format (unit mm)*
G04 Created by KiCad (PCBNEW (6.0.1)) date 2022-03-21 11:35:37*
%MOMM*%
%LPD*%
G01*
G04 APERTURE LIST*
G04 Aperture macros list*
%AMRoundRect*
0 Rectangle with rounded corners*
0 $1 Rounding radius*
0 $2 $3 $4 $5 $6 $7 $8 $9 X,Y pos of 4 corners*
0 Add a 4 corners polygon primitive as box body*
4,1,4,$2,$3,$4,$5,$6,$7,$8,$9,$2,$3,0*
0 Add four circle primitives for the rounded corners*
1,1,$1+$1,$2,$3*
1,1,$1+$1,$4,$5*
1,1,$1+$1,$6,$7*
1,1,$1+$1,$8,$9*
0 Add four rect primitives between the rounded corners*
20,1,$1+$1,$2,$3,$4,$5,0*
20,1,$1+$1,$4,$5,$6,$7,0*
20,1,$1+$1,$6,$7,$8,$9,0*
20,1,$1+$1,$8,$9,$2,$3,0*%
G04 Aperture macros list end*
%TA.AperFunction,ComponentPad*%
%ADD10C,1.950000*%
%TD*%
%TA.AperFunction,ComponentPad*%
%ADD11C,1.650000*%
%TD*%
%TA.AperFunction,ComponentPad*%
%ADD12C,2.400000*%
%TD*%
%TA.AperFunction,ComponentPad*%
%ADD13C,2.475000*%
%TD*%
%TA.AperFunction,ComponentPad*%
%ADD14R,1.700000X1.700000*%
%TD*%
%TA.AperFunction,ComponentPad*%
%ADD15O,1.700000X1.700000*%
%TD*%
%TA.AperFunction,SMDPad,CuDef*%
%ADD16RoundRect,0.250000X-0.400000X-0.625000X0.400000X-0.625000X0.400000X0.625000X-0.400000X0.625000X0*%
%TD*%
%TA.AperFunction,Conductor*%
%ADD17C,0.250000*%
%TD*%
%TA.AperFunction,Conductor*%
%ADD18C,0.500000*%
%TD*%
G04 APERTURE END LIST*
D10*
%TO.P,S1,A1,A1*%
%TO.N,Net-(J1-Pad5)*%
X142782000Y-94990000D03*
D11*
%TO.P,S1,A11,A11*%
%TO.N,+3V3*%
X154762000Y-91740000D03*
%TO.P,S1,A12,A12*%
%TO.N,Net-(J1-Pad4)*%
X154762000Y-89240000D03*
%TO.P,S1,A13,A13*%
%TO.N,GND*%
X154762000Y-86740000D03*
D10*
%TO.P,S1,B1,B1*%
X142782000Y-99490000D03*
D11*
%TO.P,S1,B11,B11*%
%TO.N,+3V3*%
X148532000Y-80510000D03*
%TO.P,S1,B12,B12*%
%TO.N,Net-(J1-Pad3)*%
X146032000Y-80510000D03*
%TO.P,S1,B13,B13*%
%TO.N,GND*%
X143532000Y-80510000D03*
D10*
%TO.P,S1,C1,C1*%
%TO.N,Net-(J1-Pad5)*%
X149282000Y-94990000D03*
%TO.P,S1,D1,D1*%
%TO.N,GND*%
X149282000Y-99490000D03*
D12*
%TO.P,S1,MH1,MH1*%
X139707000Y-94240000D03*
%TO.P,S1,MH2,MH2*%
X139707000Y-84240000D03*
%TO.P,S1,MH3,MH3*%
X152357000Y-94240000D03*
%TO.P,S1,MH4,MH4*%
X152357000Y-84240000D03*
D13*
%TO.P,S1,MH5,MH5*%
X141732000Y-89240000D03*
%TO.P,S1,MH6,MH6*%
X150332000Y-89240000D03*
%TD*%
D14*
%TO.P,J1,1,Pin_1*%
%TO.N,GND*%
X152075000Y-105500000D03*
D15*
%TO.P,J1,2,Pin_2*%
%TO.N,+3V3*%
X149535000Y-105500000D03*
%TO.P,J1,3,Pin_3*%
%TO.N,Net-(J1-Pad3)*%
X146995000Y-105500000D03*
%TO.P,J1,4,Pin_4*%
%TO.N,Net-(J1-Pad4)*%
X144455000Y-105500000D03*
%TO.P,J1,5,Pin_5*%
%TO.N,Net-(J1-Pad5)*%
X141915000Y-105500000D03*
%TD*%
D16*
%TO.P,R1,1*%
%TO.N,Net-(J1-Pad5)*%
X154650000Y-98300000D03*
%TO.P,R1,2*%
%TO.N,+3V3*%
X157750000Y-98300000D03*
%TD*%
D17*
%TO.N,+3V3*%
X157750000Y-99550000D02*
X154200000Y-103100000D01*
X157750000Y-98900000D02*
X157750000Y-99550000D01*
X149535000Y-104965000D02*
X149535000Y-105500000D01*
X154200000Y-103100000D02*
X151400000Y-103100000D01*
X151400000Y-103100000D02*
X149535000Y-104965000D01*
D18*
%TO.N,Net-(J1-Pad4)*%
X144455000Y-105500000D02*
X144455000Y-104545000D01*
X147100000Y-101900000D02*
X154100000Y-101900000D01*
X144455000Y-104545000D02*
X147100000Y-101900000D01*
X154100000Y-101900000D02*
X156300000Y-99700000D01*
X156300000Y-90151500D02*
X155113500Y-88965000D01*
X156300000Y-99700000D02*
X156300000Y-90151500D01*
X155113500Y-88965000D02*
X154762000Y-88965000D01*
D17*
%TO.N,Net-(J1-Pad5)*%
X152592000Y-98300000D02*
X149282000Y-94990000D01*
X154050000Y-98300000D02*
X152592000Y-98300000D01*
D18*
X149282000Y-94715000D02*
X142782000Y-94715000D01*
%TD*%
%TA.AperFunction,Conductor*%
%TO.N,GND*%
G36*
X156737969Y-74028002D02*
G01*
X156784462Y-74081658D01*
X156794566Y-74151932D01*
X156765072Y-74216512D01*
X156705346Y-74254896D01*
X156694753Y-74257514D01*
X156406520Y-74315632D01*
X156122837Y-74413312D01*
X156119104Y-74415181D01*
X156119100Y-74415183D01*
X155858309Y-74545778D01*
X155854565Y-74547653D01*
X155606416Y-74716294D01*
X155382752Y-74916274D01*
X155380035Y-74919444D01*
X155380034Y-74919445D01*
X155254155Y-75066311D01*
X155187501Y-75144077D01*
X155185227Y-75147579D01*
X155185223Y-75147584D01*
X155074792Y-75317633D01*
X155024093Y-75395703D01*
X154895400Y-75666730D01*
X154803682Y-75952396D01*
X154802941Y-75956515D01*
X154762024Y-76183927D01*
X154750552Y-76247684D01*
X154750363Y-76251851D01*
X154750362Y-76251858D01*
X154741435Y-76448444D01*
X154736941Y-76547404D01*
X154763091Y-76846292D01*
X154764001Y-76850364D01*
X154764002Y-76850369D01*
X154827628Y-77135016D01*
X154828540Y-77139095D01*
X154932140Y-77420671D01*
X154934084Y-77424359D01*
X154934088Y-77424367D01*
X155030805Y-77607807D01*
X155072069Y-77686071D01*
X155245871Y-77930633D01*
X155450490Y-78150061D01*
X155682333Y-78340498D01*
X155937325Y-78498600D01*
X156210988Y-78621589D01*
X156385368Y-78673574D01*
X156494514Y-78706112D01*
X156494516Y-78706112D01*
X156498513Y-78707304D01*
X156502633Y-78707957D01*
X156502635Y-78707957D01*
X156621509Y-78726785D01*
X156794848Y-78754239D01*
X156837577Y-78756179D01*
X156887262Y-78758436D01*
X156887281Y-78758436D01*
X156888681Y-78758500D01*
X157076107Y-78758500D01*
X157299370Y-78743671D01*
X157303464Y-78742846D01*
X157303468Y-78742845D01*
X157444513Y-78714405D01*
X157593480Y-78684368D01*
X157877163Y-78586688D01*
X157880896Y-78584819D01*
X157880900Y-78584817D01*
X158141691Y-78454222D01*
X158141693Y-78454221D01*
X158145435Y-78452347D01*
X158393584Y-78283706D01*
X158617248Y-78083726D01*
X158619966Y-78080555D01*
X158809779Y-77859097D01*
X158809782Y-77859093D01*
X158812499Y-77855923D01*
X158814773Y-77852421D01*
X158814777Y-77852416D01*
X158973628Y-77607807D01*
X158973631Y-77607802D01*
X158975907Y-77604297D01*
X159104600Y-77333270D01*
X159196318Y-77047604D01*
X159241991Y-76793761D01*
X159273740Y-76730258D01*
X159334781Y-76694002D01*
X159405734Y-76696502D01*
X159464071Y-76736965D01*
X159491272Y-76802544D01*
X159492000Y-76816073D01*
X159492000Y-104183530D01*
X159471998Y-104251651D01*
X159418342Y-104298144D01*
X159348068Y-104308248D01*
X159283488Y-104278754D01*
X159245104Y-104219028D01*
X159240479Y-104194512D01*
X159237273Y-104157870D01*
X159236909Y-104153708D01*
X159235293Y-104146475D01*
X159172372Y-103864984D01*
X159172371Y-103864981D01*
X159171460Y-103860905D01*
X159067860Y-103579329D01*
X159065916Y-103575641D01*
X159065912Y-103575633D01*
X158929884Y-103317633D01*
X158929883Y-103317632D01*
X158927931Y-103313929D01*
X158754129Y-103069367D01*
X158549510Y-102849939D01*
X158317667Y-102659502D01*
X158062675Y-102501400D01*
X157789012Y-102378411D01*
X157575650Y-102314805D01*
X157505486Y-102293888D01*
X157505484Y-102293888D01*
X157501487Y-102292696D01*
X157497367Y-102292043D01*
X157497365Y-102292043D01*
X157378491Y-102273215D01*
X157205152Y-102245761D01*
X157162423Y-102243821D01*
X157112738Y-102241564D01*
X157112719Y-102241564D01*
X157111319Y-102241500D01*
X156923893Y-102241500D01*
X156700630Y-102256329D01*
X156696536Y-102257154D01*
X156696532Y-102257155D01*
X156555487Y-102285595D01*
X156406520Y-102315632D01*
X156122837Y-102413312D01*
X156122475Y-102412262D01*
X156056810Y-102419665D01*
X155993160Y-102388214D01*
X155956618Y-102327344D01*
X155958785Y-102256381D01*
X155989446Y-102206458D01*
X158142247Y-100053657D01*
X158150537Y-100046113D01*
X158157018Y-100042000D01*
X158203659Y-99992332D01*
X158206413Y-99989491D01*
X158226134Y-99969770D01*
X158228612Y-99966575D01*
X158236318Y-99957553D01*
X158238775Y-99954937D01*
X158266586Y-99925321D01*
X158276346Y-99907568D01*
X158287199Y-99891045D01*
X158294753Y-99881306D01*
X158299613Y-99875041D01*
X158317176Y-99834457D01*
X158322383Y-99823827D01*
X158343695Y-99785060D01*
X158345666Y-99777383D01*
X158345668Y-99777378D01*
X158348732Y-99765442D01*
X158355138Y-99746730D01*
X158360033Y-99735419D01*
X158363181Y-99728145D01*
X158364421Y-99720316D01*
X158366633Y-99712703D01*
X158369143Y-99713432D01*
X158394097Y-99660784D01*
X158448265Y-99625118D01*
X158466994Y-99618870D01*
X158466999Y-99618868D01*
X158473946Y-99616550D01*
X158624348Y-99523478D01*
X158749305Y-99398303D01*
X158842115Y-99247738D01*
X158897797Y-99079861D01*
X158901216Y-99046497D01*
X158905395Y-99005706D01*
X158908500Y-98975400D01*
X158908500Y-97624600D01*
X158907926Y-97619070D01*
X158898238Y-97525692D01*
X158898237Y-97525688D01*
X158897526Y-97518834D01*
X158841550Y-97351054D01*
X158748478Y-97200652D01*
X158623303Y-97075695D01*
X158617072Y-97071854D01*
X158478968Y-96986725D01*
X158478966Y-96986724D01*
X158472738Y-96982885D01*
X158392995Y-96956436D01*
X158311389Y-96929368D01*
X158311387Y-96929368D01*
X158304861Y-96927203D01*
X158298025Y-96926503D01*
X158298022Y-96926502D01*
X158254969Y-96922091D01*
X158200400Y-96916500D01*
X157299600Y-96916500D01*
X157296356Y-96916837D01*
X157296348Y-96916837D01*
X157197503Y-96927093D01*
X157127682Y-96914228D01*
X157075900Y-96865657D01*
X157058500Y-96801766D01*
X157058500Y-90218563D01*
X157059933Y-90199614D01*
X157062097Y-90185386D01*
X157063198Y-90178151D01*
X157058915Y-90125490D01*
X157058500Y-90115277D01*
X157058500Y-90107207D01*
X157058078Y-90103587D01*
X157058077Y-90103569D01*
X157055208Y-90078961D01*
X157054775Y-90074586D01*
X157049454Y-90009161D01*
X157049453Y-90009158D01*
X157048860Y-90001863D01*
X157046604Y-89994899D01*
X157045413Y-89988940D01*
X157044029Y-89983085D01*
X157043182Y-89975819D01*
X157018265Y-89907173D01*
X157016848Y-89903045D01*
X156996607Y-89840564D01*
X156996606Y-89840562D01*
X156994351Y-89833601D01*
X156990555Y-89827346D01*
X156988049Y-89821872D01*
X156985330Y-89816442D01*
X156982833Y-89809563D01*
X156942809Y-89748516D01*
X156940472Y-89744812D01*
X156905509Y-89687193D01*
X156905505Y-89687188D01*
X156902595Y-89682392D01*
X156895197Y-89674016D01*
X156895223Y-89673993D01*
X156892574Y-89671003D01*
X156889866Y-89667764D01*
X156885856Y-89661648D01*
X156880549Y-89656621D01*
X156880546Y-89656617D01*
X156829617Y-89608372D01*
X156827175Y-89605994D01*
X156048267Y-88827086D01*
X156020021Y-88782750D01*
X156019867Y-88782174D01*
X155972354Y-88680282D01*
X155923582Y-88575690D01*
X155923579Y-88575685D01*
X155921256Y-88570703D01*
X155787422Y-88379568D01*
X155622432Y-88214578D01*
X155617924Y-88211421D01*
X155617921Y-88211419D01*
X155448669Y-88092908D01*
X155404341Y-88037451D01*
X155397032Y-87966832D01*
X155429063Y-87903471D01*
X155448669Y-87886482D01*
X155493000Y-87855441D01*
X155501375Y-87844964D01*
X155494307Y-87831517D01*
X154774812Y-87112022D01*
X154760868Y-87104408D01*
X154759035Y-87104539D01*
X154752420Y-87108790D01*
X154028972Y-87832238D01*
X154022542Y-87844013D01*
X154031838Y-87856028D01*
X154075331Y-87886482D01*
X154119659Y-87941939D01*
X154126968Y-88012558D01*
X154094937Y-88075919D01*
X154075331Y-88092908D01*
X153906079Y-88211419D01*
X153906076Y-88211421D01*
X153901568Y-88214578D01*
X153736578Y-88379568D01*
X153602744Y-88570703D01*
X153600421Y-88575685D01*
X153600418Y-88575690D01*
X153551646Y-88680282D01*
X153504133Y-88782174D01*
X153443742Y-89007556D01*
X153423406Y-89240000D01*
X153443742Y-89472444D01*
X153445166Y-89477757D01*
X153445166Y-89477759D01*
X153479527Y-89605994D01*
X153504133Y-89697826D01*
X153506455Y-89702806D01*
X153506456Y-89702808D01*
X153600418Y-89904310D01*
X153600421Y-89904315D01*
X153602744Y-89909297D01*
X153605900Y-89913804D01*
X153605901Y-89913806D01*
X153721671Y-90079142D01*
X153736578Y-90100432D01*
X153901568Y-90265422D01*
X153906076Y-90268579D01*
X153906079Y-90268581D01*
X154074895Y-90386787D01*
X154119223Y-90442244D01*
X154126532Y-90512863D01*
X154094501Y-90576224D01*
X154074895Y-90593213D01*
X153906079Y-90711419D01*
X153906076Y-90711421D01*
X153901568Y-90714578D01*
X153736578Y-90879568D01*
X153733421Y-90884076D01*
X153733419Y-90884079D01*
X153659851Y-90989145D01*
X153602744Y-91070703D01*
X153600421Y-91075685D01*
X153600418Y-91075690D01*
X153506456Y-91277192D01*
X153504133Y-91282174D01*
X153443742Y-91507556D01*
X153423406Y-91740000D01*
X153443742Y-91972444D01*
X153504133Y-92197826D01*
X153506455Y-92202806D01*
X153506456Y-92202808D01*
X153600418Y-92404310D01*
X153600421Y-92404315D01*
X153602744Y-92409297D01*
X153605900Y-92413804D01*
X153605901Y-92413806D01*
X153717920Y-92573785D01*
X153736578Y-92600432D01*
X153901568Y-92765422D01*
X153906076Y-92768579D01*
X153906079Y-92768581D01*
X154088194Y-92896099D01*
X154092703Y-92899256D01*
X154097685Y-92901579D01*
X154097690Y-92901582D01*
X154161749Y-92931453D01*
X154304174Y-92997867D01*
X154309482Y-92999289D01*
X154309484Y-92999290D01*
X154524241Y-93056834D01*
X154524243Y-93056834D01*
X154529556Y-93058258D01*
X154762000Y-93078594D01*
X154994444Y-93058258D01*
X154999757Y-93056834D01*
X154999759Y-93056834D01*
X155214516Y-92999290D01*
X155214518Y-92999289D01*
X155219826Y-92997867D01*
X155362251Y-92931453D01*
X155432441Y-92920792D01*
X155497254Y-92949772D01*
X155536111Y-93009191D01*
X155541500Y-93045648D01*
X155541500Y-96864735D01*
X155521498Y-96932856D01*
X155467842Y-96979349D01*
X155397568Y-96989453D01*
X155372988Y-96982130D01*
X155372738Y-96982885D01*
X155211389Y-96929368D01*
X155211387Y-96929368D01*
X155204861Y-96927203D01*
X155198025Y-96926503D01*
X155198022Y-96926502D01*
X155154969Y-96922091D01*
X155100400Y-96916500D01*
X154199600Y-96916500D01*
X154196354Y-96916837D01*
X154196350Y-96916837D01*
X154100692Y-96926762D01*
X154100688Y-96926763D01*
X154093834Y-96927474D01*
X154087298Y-96929655D01*
X154087296Y-96929655D01*
X154077702Y-96932856D01*
X153926054Y-96983450D01*
X153775652Y-97076522D01*
X153650695Y-97201697D01*
X153557885Y-97352262D01*
X153502203Y-97520139D01*
X153501502Y-97526977D01*
X153501502Y-97526979D01*
X153498801Y-97553342D01*
X153471960Y-97619070D01*
X153413845Y-97659852D01*
X153373457Y-97666500D01*
X152906594Y-97666500D01*
X152838473Y-97646498D01*
X152817499Y-97629595D01*
X150801264Y-95613359D01*
X151348386Y-95613359D01*
X151357099Y-95624879D01*
X151445586Y-95689760D01*
X151453505Y-95694708D01*
X151669877Y-95808547D01*
X151678451Y-95812275D01*
X151909282Y-95892885D01*
X151918291Y-95895299D01*
X152158518Y-95940908D01*
X152167775Y-95941962D01*
X152412107Y-95951563D01*
X152421420Y-95951237D01*
X152664478Y-95924618D01*
X152673655Y-95922917D01*
X152910107Y-95860665D01*
X152918926Y-95857628D01*
X153143584Y-95761107D01*
X153151856Y-95756800D01*
X153359777Y-95628135D01*
X153361620Y-95626796D01*
X153369038Y-95615541D01*
X153362974Y-95605184D01*
X152369812Y-94612022D01*
X152355868Y-94604408D01*
X152354035Y-94604539D01*
X152347420Y-94608790D01*
X151355044Y-95601166D01*
X151348386Y-95613359D01*
X150801264Y-95613359D01*
X150733422Y-95545517D01*
X150699396Y-95483205D01*
X150701959Y-95419795D01*
X150736966Y-95304575D01*
X150738965Y-95289391D01*
X150767688Y-95224464D01*
X150826954Y-95185373D01*
X150897945Y-95184528D01*
X150958123Y-95222199D01*
X150964846Y-95230450D01*
X150972174Y-95240264D01*
X150983431Y-95248712D01*
X150995850Y-95241940D01*
X151984978Y-94252812D01*
X151991356Y-94241132D01*
X152721408Y-94241132D01*
X152721539Y-94242965D01*
X152725790Y-94249580D01*
X153720732Y-95244522D01*
X153733112Y-95251282D01*
X153741453Y-95245038D01*
X153859700Y-95061202D01*
X153864147Y-95053011D01*
X153964572Y-94830076D01*
X153967767Y-94821298D01*
X154034135Y-94585973D01*
X154035993Y-94576844D01*
X154067044Y-94332770D01*
X154067525Y-94326483D01*
X154069706Y-94243160D01*
X154069555Y-94236851D01*
X154051321Y-93991486D01*
X154049944Y-93982280D01*
X153995979Y-93743786D01*
X153993255Y-93734875D01*
X153904633Y-93506983D01*
X153900619Y-93498567D01*
X153779284Y-93286276D01*
X153774074Y-93278553D01*
X153742787Y-93238865D01*
X153730863Y-93230395D01*
X153719328Y-93236882D01*
X152729022Y-94227188D01*
X152721408Y-94241132D01*
X151991356Y-94241132D01*
X151992592Y-94238868D01*
X151992461Y-94237035D01*
X151988210Y-94230420D01*
X150993828Y-93236038D01*
X150980520Y-93228771D01*
X150970481Y-93235893D01*
X150965581Y-93241784D01*
X150960168Y-93249373D01*
X150833322Y-93458409D01*
X150829084Y-93466726D01*
X150734529Y-93692214D01*
X150731572Y-93701052D01*
X150671384Y-93938042D01*
X150669763Y-93947233D01*
X150665126Y-93993282D01*
X150638399Y-94059056D01*
X150580355Y-94099939D01*
X150509423Y-94102951D01*
X150446569Y-94065460D01*
X150297212Y-93901319D01*
X150293161Y-93898120D01*
X150293157Y-93898116D01*
X150109825Y-93753329D01*
X150109821Y-93753327D01*
X150105770Y-93750127D01*
X150094284Y-93743786D01*
X150049759Y-93719207D01*
X149892205Y-93632233D01*
X149887336Y-93630509D01*
X149887332Y-93630507D01*
X149667127Y-93552528D01*
X149667123Y-93552527D01*
X149662252Y-93550802D01*
X149657159Y-93549895D01*
X149657156Y-93549894D01*
X149427177Y-93508928D01*
X149427171Y-93508927D01*
X149422088Y-93508022D01*
X149342380Y-93507048D01*
X149183332Y-93505105D01*
X149183330Y-93505105D01*
X149178162Y-93505042D01*
X148937024Y-93541941D01*
X148705150Y-93617729D01*
X148488769Y-93730370D01*
X148484636Y-93733473D01*
X148484633Y-93733475D01*
X148305493Y-93867978D01*
X148293690Y-93876840D01*
X148270298Y-93901319D01*
X148254786Y-93917551D01*
X148193262Y-93952981D01*
X148163692Y-93956500D01*
X143903127Y-93956500D01*
X143835006Y-93936498D01*
X143809937Y-93915303D01*
X143797212Y-93901319D01*
X143793161Y-93898120D01*
X143793157Y-93898116D01*
X143609825Y-93753329D01*
X143609821Y-93753327D01*
X143605770Y-93750127D01*
X143594284Y-93743786D01*
X143549759Y-93719207D01*
X143392205Y-93632233D01*
X143387336Y-93630509D01*
X143387332Y-93630507D01*
X143167127Y-93552528D01*
X143167123Y-93552527D01*
X143162252Y-93550802D01*
X143157159Y-93549895D01*
X143157156Y-93549894D01*
X142927177Y-93508928D01*
X142927171Y-93508927D01*
X142922088Y-93508022D01*
X142842380Y-93507048D01*
X142683332Y-93505105D01*
X142683330Y-93505105D01*
X142678162Y-93505042D01*
X142437024Y-93541941D01*
X142205150Y-93617729D01*
X141988769Y-93730370D01*
X141984636Y-93733473D01*
X141984633Y-93733475D01*
X141805493Y-93867978D01*
X141793690Y-93876840D01*
X141625153Y-94053204D01*
X141623670Y-94055377D01*
X141565866Y-94095311D01*
X141494909Y-94097679D01*
X141433936Y-94061308D01*
X141401741Y-93994298D01*
X141399943Y-93982274D01*
X141345979Y-93743786D01*
X141343255Y-93734875D01*
X141254633Y-93506983D01*
X141250619Y-93498567D01*
X141129284Y-93286276D01*
X141124074Y-93278553D01*
X141092787Y-93238865D01*
X141080863Y-93230395D01*
X141069328Y-93236882D01*
X140079022Y-94227188D01*
X140071408Y-94241132D01*
X140071539Y-94242965D01*
X140075790Y-94249580D01*
X141070732Y-95244522D01*
X141083112Y-95251282D01*
X141091453Y-95245038D01*
X141096982Y-95236442D01*
X141150655Y-95189969D01*
X141220933Y-95179892D01*
X141285503Y-95209410D01*
X141323864Y-95269151D01*
X141325871Y-95276902D01*
X141361533Y-95435147D01*
X141363475Y-95439929D01*
X141363476Y-95439933D01*
X141439897Y-95628135D01*
X141453311Y-95661169D01*
X141580772Y-95869166D01*
X141740492Y-96053553D01*
X141928183Y-96209377D01*
X142138804Y-96332453D01*
X142366698Y-96419478D01*
X142371764Y-96420509D01*
X142371765Y-96420509D01*
X142600667Y-96467080D01*
X142600671Y-96467080D01*
X142605746Y-96468113D01*
X142610922Y-96468303D01*
X142610924Y-96468303D01*
X142844363Y-96476863D01*
X142844367Y-96476863D01*
X142849527Y-96477052D01*
X142854647Y-96476396D01*
X142854649Y-96476396D01*
X142931377Y-96466567D01*
X143091494Y-96446055D01*
X143096443Y-96444570D01*
X143096449Y-96444569D01*
X143320200Y-96377440D01*
X143320199Y-96377440D01*
X143325150Y-96375955D01*
X143544219Y-96268634D01*
X143548424Y-96265634D01*
X143548430Y-96265631D01*
X143738614Y-96129974D01*
X143738616Y-96129972D01*
X143742818Y-96126975D01*
X143915614Y-95954781D01*
X144057966Y-95756677D01*
X144163239Y-95543672D01*
X144211351Y-95491466D01*
X144276195Y-95473500D01*
X147792278Y-95473500D01*
X147860399Y-95493502D01*
X147909021Y-95552096D01*
X147939897Y-95628135D01*
X147953311Y-95661169D01*
X148080772Y-95869166D01*
X148240492Y-96053553D01*
X148428183Y-96209377D01*
X148638804Y-96332453D01*
X148866698Y-96419478D01*
X148871764Y-96420509D01*
X148871765Y-96420509D01*
X149100667Y-96467080D01*
X149100671Y-96467080D01*
X149105746Y-96468113D01*
X149110922Y-96468303D01*
X149110924Y-96468303D01*
X149344363Y-96476863D01*
X149344367Y-96476863D01*
X149349527Y-96477052D01*
X149354647Y-96476396D01*
X149354649Y-96476396D01*
X149431377Y-96466567D01*
X149591494Y-96446055D01*
X149712222Y-96409835D01*
X149783215Y-96409418D01*
X149837522Y-96441426D01*
X151015165Y-97619070D01*
X152088348Y-98692253D01*
X152095888Y-98700539D01*
X152100000Y-98707018D01*
X152105777Y-98712443D01*
X152149651Y-98753643D01*
X152152493Y-98756398D01*
X152172230Y-98776135D01*
X152175427Y-98778615D01*
X152184447Y-98786318D01*
X152216679Y-98816586D01*
X152223625Y-98820405D01*
X152223628Y-98820407D01*
X152234434Y-98826348D01*
X152250953Y-98837199D01*
X152266959Y-98849614D01*
X152274228Y-98852759D01*
X152274232Y-98852762D01*
X152307537Y-98867174D01*
X152318187Y-98872391D01*
X152356940Y-98893695D01*
X152364615Y-98895666D01*
X152364616Y-98895666D01*
X152376562Y-98898733D01*
X152395267Y-98905137D01*
X152413855Y-98913181D01*
X152421678Y-98914420D01*
X152421688Y-98914423D01*
X152457524Y-98920099D01*
X152469144Y-98922505D01*
X152504289Y-98931528D01*
X152511970Y-98933500D01*
X152532224Y-98933500D01*
X152551934Y-98935051D01*
X152571943Y-98938220D01*
X152579835Y-98937474D01*
X152615961Y-98934059D01*
X152627819Y-98933500D01*
X153373550Y-98933500D01*
X153441671Y-98953502D01*
X153488164Y-99007158D01*
X153498877Y-99046496D01*
X153502474Y-99081166D01*
X153558450Y-99248946D01*
X153651522Y-99399348D01*
X153776697Y-99524305D01*
X153782927Y-99528145D01*
X153782928Y-99528146D01*
X153920090Y-99612694D01*
X153927262Y-99617115D01*
X154007005Y-99643564D01*
X154088611Y-99670632D01*
X154088613Y-99670632D01*
X154095139Y-99672797D01*
X154101975Y-99673497D01*
X154101978Y-99673498D01*
X154145031Y-99677909D01*
X154199600Y-99683500D01*
X154939629Y-99683500D01*
X155007750Y-99703502D01*
X155054243Y-99757158D01*
X155064347Y-99827432D01*
X155034853Y-99892012D01*
X155028724Y-99898595D01*
X153822724Y-101104595D01*
X153760412Y-101138621D01*
X153733629Y-101141500D01*
X149796759Y-101141500D01*
X149728638Y-101121498D01*
X149682145Y-101067842D01*
X149672041Y-100997568D01*
X149701535Y-100932988D01*
X149760551Y-100894815D01*
X149820003Y-100876978D01*
X149829612Y-100873212D01*
X150039324Y-100770476D01*
X150048169Y-100765203D01*
X150120869Y-100713347D01*
X150129270Y-100702646D01*
X150122283Y-100689493D01*
X149294812Y-99862022D01*
X149280868Y-99854408D01*
X149279035Y-99854539D01*
X149272420Y-99858790D01*
X148437881Y-100693329D01*
X148430621Y-100706624D01*
X148434988Y-100712774D01*
X148634563Y-100829397D01*
X148643846Y-100833844D01*
X148811302Y-100897790D01*
X148867805Y-100940778D01*
X148892098Y-101007489D01*
X148876468Y-101076743D01*
X148825877Y-101126554D01*
X148766353Y-101141500D01*
X147167070Y-101141500D01*
X147148120Y-101140067D01*
X147133885Y-101137901D01*
X147133881Y-101137901D01*
X147126651Y-101136801D01*
X147119359Y-101137394D01*
X147119356Y-101137394D01*
X147073982Y-101141085D01*
X147063767Y-101141500D01*
X147055707Y-101141500D01*
X147052073Y-101141924D01*
X147052067Y-101141924D01*
X147039042Y-101143443D01*
X147027480Y-101144791D01*
X147023132Y-101145221D01*
X146950364Y-101151140D01*
X146943403Y-101153395D01*
X146937463Y-101154582D01*
X146931588Y-101155971D01*
X146924319Y-101156818D01*
X146855670Y-101181736D01*
X146851542Y-101183153D01*
X146789064Y-101203393D01*
X146789062Y-101203394D01*
X146782101Y-101205649D01*
X146775846Y-101209445D01*
X146770372Y-101211951D01*
X146764942Y-101214670D01*
X146758063Y-101217167D01*
X146751943Y-101221180D01*
X146751942Y-101221180D01*
X146697024Y-101257186D01*
X146693320Y-101259523D01*
X146630893Y-101297405D01*
X146622516Y-101304803D01*
X146622492Y-101304776D01*
X146619500Y-101307429D01*
X146616267Y-101310132D01*
X146610148Y-101314144D01*
X146605116Y-101319456D01*
X146556872Y-101370383D01*
X146554494Y-101372825D01*
X143966089Y-103961230D01*
X143951677Y-103973616D01*
X143940082Y-103982149D01*
X143940077Y-103982154D01*
X143934182Y-103986492D01*
X143929443Y-103992070D01*
X143929440Y-103992073D01*
X143899965Y-104026768D01*
X143893035Y-104034284D01*
X143887340Y-104039979D01*
X143885060Y-104042861D01*
X143869719Y-104062251D01*
X143866928Y-104065655D01*
X143824409Y-104115703D01*
X143819667Y-104121285D01*
X143816339Y-104127801D01*
X143812972Y-104132850D01*
X143809805Y-104137979D01*
X143805266Y-104143716D01*
X143774345Y-104209875D01*
X143772442Y-104213769D01*
X143739231Y-104278808D01*
X143737491Y-104285920D01*
X143735397Y-104291550D01*
X143733479Y-104297315D01*
X143730378Y-104303950D01*
X143728887Y-104311118D01*
X143726576Y-104318065D01*
X143724038Y-104317221D01*
X143696452Y-104368866D01*
X143682192Y-104381356D01*
X143581756Y-104456766D01*
X143549965Y-104480635D01*
X143395629Y-104642138D01*
X143288201Y-104799621D01*
X143233293Y-104844621D01*
X143162768Y-104852792D01*
X143099021Y-104821538D01*
X143078324Y-104797054D01*
X142997822Y-104672617D01*
X142997820Y-104672614D01*
X142995014Y-104668277D01*
X142844670Y-104503051D01*
X142840619Y-104499852D01*
X142840615Y-104499848D01*
X142673414Y-104367800D01*
X142673410Y-104367798D01*
X142669359Y-104364598D01*
X142473789Y-104256638D01*
X142468920Y-104254914D01*
X142468916Y-104254912D01*
X142268087Y-104183795D01*
X142268083Y-104183794D01*
X142263212Y-104182069D01*
X142258119Y-104181162D01*
X142258116Y-104181161D01*
X142048373Y-104143800D01*
X142048367Y-104143799D01*
X142043284Y-104142894D01*
X141969452Y-104141992D01*
X141825081Y-104140228D01*
X141825079Y-104140228D01*
X141819911Y-104140165D01*
X141599091Y-104173955D01*
X141386756Y-104243357D01*
X141188607Y-104346507D01*
X141184474Y-104349610D01*
X141184471Y-104349612D01*
X141014100Y-104477530D01*
X141009965Y-104480635D01*
X140855629Y-104642138D01*
X140729743Y-104826680D01*
X140635688Y-105029305D01*
X140575989Y-105244570D01*
X140552251Y-105466695D01*
X140565110Y-105689715D01*
X140566247Y-105694761D01*
X140566248Y-105694767D01*
X140583680Y-105772115D01*
X140614222Y-105907639D01*
X140698266Y-106114616D01*
X140749942Y-106198944D01*
X140812291Y-106300688D01*
X140814987Y-106305088D01*
X140961250Y-106473938D01*
X141133126Y-106616632D01*
X141326000Y-106729338D01*
X141330825Y-106731180D01*
X141330826Y-106731181D01*
X141375630Y-106748290D01*
X141432133Y-106791278D01*
X141456426Y-106857989D01*
X141440796Y-106927244D01*
X141390204Y-106977054D01*
X141330681Y-106992000D01*
X137330152Y-106992000D01*
X137262031Y-106971998D01*
X137215538Y-106918342D01*
X137205434Y-106848068D01*
X137234928Y-106783488D01*
X137294654Y-106745104D01*
X137305247Y-106742486D01*
X137361313Y-106731181D01*
X137593480Y-106684368D01*
X137877163Y-106586688D01*
X137880896Y-106584819D01*
X137880900Y-106584817D01*
X138141691Y-106454222D01*
X138141693Y-106454221D01*
X138145435Y-106452347D01*
X138356380Y-106308990D01*
X138390125Y-106286057D01*
X138390128Y-106286055D01*
X138393584Y-106283706D01*
X138617248Y-106083726D01*
X138687458Y-106001811D01*
X138809779Y-105859097D01*
X138809782Y-105859093D01*
X138812499Y-105855923D01*
X138814773Y-105852421D01*
X138814777Y-105852416D01*
X138973628Y-105607807D01*
X138973631Y-105607802D01*
X138975907Y-105604297D01*
X139104600Y-105333270D01*
X139131430Y-105249707D01*
X139195038Y-105051591D01*
X139195038Y-105051590D01*
X139196318Y-105047604D01*
X139210868Y-104966736D01*
X139248709Y-104756425D01*
X139248710Y-104756420D01*
X139249448Y-104752316D01*
X139250146Y-104736965D01*
X139262870Y-104456766D01*
X139262870Y-104456760D01*
X139263059Y-104452596D01*
X139259503Y-104411946D01*
X139241994Y-104211834D01*
X139236909Y-104153708D01*
X139235293Y-104146475D01*
X139172372Y-103864984D01*
X139172371Y-103864981D01*
X139171460Y-103860905D01*
X139067860Y-103579329D01*
X139065916Y-103575641D01*
X139065912Y-103575633D01*
X138929884Y-103317633D01*
X138929883Y-103317632D01*
X138927931Y-103313929D01*
X138754129Y-103069367D01*
X138549510Y-102849939D01*
X138317667Y-102659502D01*
X138062675Y-102501400D01*
X137789012Y-102378411D01*
X137575650Y-102314805D01*
X137505486Y-102293888D01*
X137505484Y-102293888D01*
X137501487Y-102292696D01*
X137497367Y-102292043D01*
X137497365Y-102292043D01*
X137378491Y-102273215D01*
X137205152Y-102245761D01*
X137162423Y-102243821D01*
X137112738Y-102241564D01*
X137112719Y-102241564D01*
X137111319Y-102241500D01*
X136923893Y-102241500D01*
X136700630Y-102256329D01*
X136696536Y-102257154D01*
X136696532Y-102257155D01*
X136555487Y-102285595D01*
X136406520Y-102315632D01*
X136122837Y-102413312D01*
X136119104Y-102415181D01*
X136119100Y-102415183D01*
X135858309Y-102545778D01*
X135854565Y-102547653D01*
X135851100Y-102550008D01*
X135662026Y-102678502D01*
X135606416Y-102716294D01*
X135382752Y-102916274D01*
X135380035Y-102919444D01*
X135380034Y-102919445D01*
X135254155Y-103066311D01*
X135187501Y-103144077D01*
X135185227Y-103147579D01*
X135185223Y-103147584D01*
X135074792Y-103317633D01*
X135024093Y-103395703D01*
X134895400Y-103666730D01*
X134894121Y-103670713D01*
X134894120Y-103670716D01*
X134877572Y-103722256D01*
X134803682Y-103952396D01*
X134802941Y-103956515D01*
X134758009Y-104206239D01*
X134726260Y-104269742D01*
X134665219Y-104305998D01*
X134594266Y-104303498D01*
X134535929Y-104263035D01*
X134508728Y-104197456D01*
X134508000Y-104183927D01*
X134508000Y-100706624D01*
X141930621Y-100706624D01*
X141934988Y-100712774D01*
X142134563Y-100829397D01*
X142143846Y-100833844D01*
X142362007Y-100917152D01*
X142371905Y-100920028D01*
X142600744Y-100966585D01*
X142610972Y-100967804D01*
X142844340Y-100976362D01*
X142854626Y-100975895D01*
X143086262Y-100946222D01*
X143096340Y-100944080D01*
X143320014Y-100876974D01*
X143329612Y-100873212D01*
X143539324Y-100770476D01*
X143548169Y-100765203D01*
X143620869Y-100713347D01*
X143629270Y-100702646D01*
X143622283Y-100689493D01*
X142794812Y-99862022D01*
X142780868Y-99854408D01*
X142779035Y-99854539D01*
X142772420Y-99858790D01*
X141937881Y-100693329D01*
X141930621Y-100706624D01*
X134508000Y-100706624D01*
X134508000Y-99458799D01*
X141294658Y-99458799D01*
X141308102Y-99691942D01*
X141309535Y-99702144D01*
X141360873Y-99929949D01*
X141363956Y-99939789D01*
X141451814Y-100156156D01*
X141456457Y-100165347D01*
X141557555Y-100330325D01*
X141568011Y-100339785D01*
X141576789Y-100336001D01*
X142409978Y-99502812D01*
X142416356Y-99491132D01*
X143146408Y-99491132D01*
X143146539Y-99492965D01*
X143150790Y-99499580D01*
X143982045Y-100330835D01*
X143994055Y-100337394D01*
X144005794Y-100328426D01*
X144054518Y-100260619D01*
X144059829Y-100251780D01*
X144163291Y-100042442D01*
X144167089Y-100032849D01*
X144234974Y-99809413D01*
X144237151Y-99799343D01*
X144267869Y-99566015D01*
X144268388Y-99559340D01*
X144270001Y-99493364D01*
X144269807Y-99486647D01*
X144267518Y-99458799D01*
X147794658Y-99458799D01*
X147808102Y-99691942D01*
X147809535Y-99702144D01*
X147860873Y-99929949D01*
X147863956Y-99939789D01*
X147951814Y-100156156D01*
X147956457Y-100165347D01*
X148057555Y-100330325D01*
X148068011Y-100339785D01*
X148076789Y-100336001D01*
X148909978Y-99502812D01*
X148916356Y-99491132D01*
X149646408Y-99491132D01*
X149646539Y-99492965D01*
X149650790Y-99499580D01*
X150482045Y-100330835D01*
X150494055Y-100337394D01*
X150505794Y-100328426D01*
X150554518Y-100260619D01*
X150559829Y-100251780D01*
X150663291Y-100042442D01*
X150667089Y-100032849D01*
X150734974Y-99809413D01*
X150737151Y-99799343D01*
X150767869Y-99566015D01*
X150768388Y-99559340D01*
X150770001Y-99493364D01*
X150769807Y-99486647D01*
X150750525Y-99252108D01*
X150748842Y-99241946D01*
X150691952Y-99015453D01*
X150688634Y-99005706D01*
X150595513Y-98791542D01*
X150590646Y-98782467D01*
X150505465Y-98650796D01*
X150494779Y-98641593D01*
X150485214Y-98645996D01*
X149654022Y-99477188D01*
X149646408Y-99491132D01*
X148916356Y-99491132D01*
X148917592Y-99488868D01*
X148917461Y-99487035D01*
X148913210Y-99480420D01*
X148081892Y-98649102D01*
X148070356Y-98642802D01*
X148058073Y-98652426D01*
X147991036Y-98750698D01*
X147985943Y-98759662D01*
X147887619Y-98971483D01*
X147884062Y-98981151D01*
X147821657Y-99206178D01*
X147819726Y-99216298D01*
X147794910Y-99448510D01*
X147794658Y-99458799D01*
X144267518Y-99458799D01*
X144250525Y-99252108D01*
X144248842Y-99241946D01*
X144191952Y-99015453D01*
X144188634Y-99005706D01*
X144095513Y-98791542D01*
X144090646Y-98782467D01*
X144005465Y-98650796D01*
X143994779Y-98641593D01*
X143985214Y-98645996D01*
X143154022Y-99477188D01*
X143146408Y-99491132D01*
X142416356Y-99491132D01*
X142417592Y-99488868D01*
X142417461Y-99487035D01*
X142413210Y-99480420D01*
X141581892Y-98649102D01*
X141570356Y-98642802D01*
X141558073Y-98652426D01*
X141491036Y-98750698D01*
X141485943Y-98759662D01*
X141387619Y-98971483D01*
X141384062Y-98981151D01*
X141321657Y-99206178D01*
X141319726Y-99216298D01*
X141294910Y-99448510D01*
X141294658Y-99458799D01*
X134508000Y-99458799D01*
X134508000Y-98277142D01*
X141933938Y-98277142D01*
X141940684Y-98289474D01*
X142769188Y-99117978D01*
X142783132Y-99125592D01*
X142784965Y-99125461D01*
X142791580Y-99121210D01*
X143624391Y-98288399D01*
X143630539Y-98277142D01*
X148433938Y-98277142D01*
X148440684Y-98289474D01*
X149269188Y-99117978D01*
X149283132Y-99125592D01*
X149284965Y-99125461D01*
X149291580Y-99121210D01*
X150124391Y-98288399D01*
X150131412Y-98275543D01*
X150123639Y-98264875D01*
X150109548Y-98253746D01*
X150100970Y-98248047D01*
X149896526Y-98135189D01*
X149887126Y-98130964D01*
X149666993Y-98053011D01*
X149657036Y-98050381D01*
X149427129Y-98009427D01*
X149416878Y-98008458D01*
X149183367Y-98005605D01*
X149173083Y-98006325D01*
X148942253Y-98041647D01*
X148932225Y-98044036D01*
X148710263Y-98116584D01*
X148700753Y-98120581D01*
X148493624Y-98228405D01*
X148484904Y-98233897D01*
X148442391Y-98265817D01*
X148433938Y-98277142D01*
X143630539Y-98277142D01*
X143631412Y-98275543D01*
X143623639Y-98264875D01*
X143609548Y-98253746D01*
X143600970Y-98248047D01*
X143396526Y-98135189D01*
X143387126Y-98130964D01*
X143166993Y-98053011D01*
X143157036Y-98050381D01*
X142927129Y-98009427D01*
X142916878Y-98008458D01*
X142683367Y-98005605D01*
X142673083Y-98006325D01*
X142442253Y-98041647D01*
X142432225Y-98044036D01*
X142210263Y-98116584D01*
X142200753Y-98120581D01*
X141993624Y-98228405D01*
X141984904Y-98233897D01*
X141942391Y-98265817D01*
X141933938Y-98277142D01*
X134508000Y-98277142D01*
X134508000Y-95613359D01*
X138698386Y-95613359D01*
X138707099Y-95624879D01*
X138795586Y-95689760D01*
X138803505Y-95694708D01*
X139019877Y-95808547D01*
X139028451Y-95812275D01*
X139259282Y-95892885D01*
X139268291Y-95895299D01*
X139508518Y-95940908D01*
X139517775Y-95941962D01*
X139762107Y-95951563D01*
X139771420Y-95951237D01*
X140014478Y-95924618D01*
X140023655Y-95922917D01*
X140260107Y-95860665D01*
X140268926Y-95857628D01*
X140493584Y-95761107D01*
X140501856Y-95756800D01*
X140709777Y-95628135D01*
X140711620Y-95626796D01*
X140719038Y-95615541D01*
X140712974Y-95605184D01*
X139719812Y-94612022D01*
X139705868Y-94604408D01*
X139704035Y-94604539D01*
X139697420Y-94608790D01*
X138705044Y-95601166D01*
X138698386Y-95613359D01*
X134508000Y-95613359D01*
X134508000Y-94199835D01*
X137995022Y-94199835D01*
X138006754Y-94444064D01*
X138007891Y-94453324D01*
X138055593Y-94693143D01*
X138058082Y-94702118D01*
X138140708Y-94932250D01*
X138144505Y-94940778D01*
X138260234Y-95156160D01*
X138265245Y-95164027D01*
X138322173Y-95240263D01*
X138333431Y-95248712D01*
X138345850Y-95241940D01*
X139334978Y-94252812D01*
X139342592Y-94238868D01*
X139342461Y-94237035D01*
X139338210Y-94230420D01*
X138343828Y-93236038D01*
X138330520Y-93228771D01*
X138320481Y-93235893D01*
X138315581Y-93241784D01*
X138310168Y-93249373D01*
X138183322Y-93458409D01*
X138179084Y-93466726D01*
X138084529Y-93692214D01*
X138081572Y-93701052D01*
X138021384Y-93938042D01*
X138019763Y-93947232D01*
X137995267Y-94190510D01*
X137995022Y-94199835D01*
X134508000Y-94199835D01*
X134508000Y-92864917D01*
X138696330Y-92864917D01*
X138700903Y-92874693D01*
X139694188Y-93867978D01*
X139708132Y-93875592D01*
X139709965Y-93875461D01*
X139716580Y-93871210D01*
X140709488Y-92878302D01*
X140715872Y-92866612D01*
X140714555Y-92864917D01*
X151346330Y-92864917D01*
X151350903Y-92874693D01*
X152344188Y-93867978D01*
X152358132Y-93875592D01*
X152359965Y-93875461D01*
X152366580Y-93871210D01*
X153359488Y-92878302D01*
X153365872Y-92866612D01*
X153356460Y-92854502D01*
X153230144Y-92766873D01*
X153222116Y-92762145D01*
X153002810Y-92653995D01*
X152994177Y-92650507D01*
X152761288Y-92575958D01*
X152752238Y-92573785D01*
X152510891Y-92534480D01*
X152501602Y-92533668D01*
X152257114Y-92530467D01*
X152247803Y-92531037D01*
X152005522Y-92564010D01*
X151996403Y-92565948D01*
X151761668Y-92634367D01*
X151752915Y-92637639D01*
X151530869Y-92740004D01*
X151522714Y-92744524D01*
X151355468Y-92854175D01*
X151346330Y-92864917D01*
X140714555Y-92864917D01*
X140706460Y-92854502D01*
X140580144Y-92766873D01*
X140572116Y-92762145D01*
X140352810Y-92653995D01*
X140344177Y-92650507D01*
X140111288Y-92575958D01*
X140102238Y-92573785D01*
X139860891Y-92534480D01*
X139851602Y-92533668D01*
X139607114Y-92530467D01*
X139597803Y-92531037D01*
X139355522Y-92564010D01*
X139346403Y-92565948D01*
X139111668Y-92634367D01*
X139102915Y-92637639D01*
X138880869Y-92740004D01*
X138872714Y-92744524D01*
X138705468Y-92854175D01*
X138696330Y-92864917D01*
X134508000Y-92864917D01*
X134508000Y-90640189D01*
X140696556Y-90640189D01*
X140705269Y-90651709D01*
X140800665Y-90721656D01*
X140808564Y-90726592D01*
X141029897Y-90843041D01*
X141038446Y-90846758D01*
X141274549Y-90929209D01*
X141283558Y-90931623D01*
X141529261Y-90978271D01*
X141538518Y-90979325D01*
X141788420Y-90989145D01*
X141797733Y-90988819D01*
X142046343Y-90961591D01*
X142055497Y-90959895D01*
X142297350Y-90896221D01*
X142306170Y-90893184D01*
X142535948Y-90794463D01*
X142544220Y-90790156D01*
X142756876Y-90658561D01*
X142762546Y-90654441D01*
X142770648Y-90642149D01*
X142769500Y-90640189D01*
X149296556Y-90640189D01*
X149305269Y-90651709D01*
X149400665Y-90721656D01*
X149408564Y-90726592D01*
X149629897Y-90843041D01*
X149638446Y-90846758D01*
X149874549Y-90929209D01*
X149883558Y-90931623D01*
X150129261Y-90978271D01*
X150138518Y-90979325D01*
X150388420Y-90989145D01*
X150397733Y-90988819D01*
X150646343Y-90961591D01*
X150655497Y-90959895D01*
X150897350Y-90896221D01*
X150906170Y-90893184D01*
X151135948Y-90794463D01*
X151144220Y-90790156D01*
X151356876Y-90658561D01*
X151362546Y-90654441D01*
X151370648Y-90642149D01*
X151364584Y-90631794D01*
X150344812Y-89612022D01*
X150330868Y-89604408D01*
X150329035Y-89604539D01*
X150322420Y-89608790D01*
X149303214Y-90627996D01*
X149296556Y-90640189D01*
X142769500Y-90640189D01*
X142764584Y-90631794D01*
X141744812Y-89612022D01*
X141730868Y-89604408D01*
X141729035Y-89604539D01*
X141722420Y-89608790D01*
X140703214Y-90627996D01*
X140696556Y-90640189D01*
X134508000Y-90640189D01*
X134508000Y-89198852D01*
X139982430Y-89198852D01*
X139994429Y-89448647D01*
X139995566Y-89457907D01*
X140044356Y-89703192D01*
X140046845Y-89712167D01*
X140131355Y-89947545D01*
X140135152Y-89956073D01*
X140253519Y-90176366D01*
X140258530Y-90184232D01*
X140320379Y-90267057D01*
X140331637Y-90275506D01*
X140344056Y-90268734D01*
X141359978Y-89252812D01*
X141366356Y-89241132D01*
X142096408Y-89241132D01*
X142096539Y-89242965D01*
X142100790Y-89249580D01*
X143122868Y-90271658D01*
X143135248Y-90278418D01*
X143143589Y-90272174D01*
X143267751Y-90079142D01*
X143272194Y-90070958D01*
X143374909Y-89842938D01*
X143378103Y-89834163D01*
X143445985Y-89593470D01*
X143447843Y-89584341D01*
X143479597Y-89334740D01*
X143480078Y-89328452D01*
X143482311Y-89243159D01*
X143482160Y-89236851D01*
X143479336Y-89198852D01*
X148582430Y-89198852D01*
X148594429Y-89448647D01*
X148595566Y-89457907D01*
X148644356Y-89703192D01*
X148646845Y-89712167D01*
X148731355Y-89947545D01*
X148735152Y-89956073D01*
X148853519Y-90176366D01*
X148858530Y-90184232D01*
X148920379Y-90267057D01*
X148931637Y-90275506D01*
X148944056Y-90268734D01*
X149959978Y-89252812D01*
X149966356Y-89241132D01*
X150696408Y-89241132D01*
X150696539Y-89242965D01*
X150700790Y-89249580D01*
X151722868Y-90271658D01*
X151735248Y-90278418D01*
X151743589Y-90272174D01*
X151867751Y-90079142D01*
X151872194Y-90070958D01*
X151974909Y-89842938D01*
X151978103Y-89834163D01*
X152045985Y-89593470D01*
X152047843Y-89584341D01*
X152079597Y-89334740D01*
X152080078Y-89328452D01*
X152082311Y-89243159D01*
X152082160Y-89236851D01*
X152063513Y-88985927D01*
X152062136Y-88976721D01*
X152006941Y-88732791D01*
X152004217Y-88723880D01*
X151913573Y-88490789D01*
X151909562Y-88482380D01*
X151785462Y-88265252D01*
X151780249Y-88257522D01*
X151744490Y-88212162D01*
X151732566Y-88203692D01*
X151721031Y-88210179D01*
X150704022Y-89227188D01*
X150696408Y-89241132D01*
X149966356Y-89241132D01*
X149967592Y-89238868D01*
X149967461Y-89237035D01*
X149963210Y-89230420D01*
X148942199Y-88209409D01*
X148928891Y-88202142D01*
X148918852Y-88209264D01*
X148909970Y-88219942D01*
X148904550Y-88227540D01*
X148774816Y-88441337D01*
X148770578Y-88449654D01*
X148673867Y-88680282D01*
X148670910Y-88689120D01*
X148609349Y-88931516D01*
X148607730Y-88940699D01*
X148582675Y-89189525D01*
X148582430Y-89198852D01*
X143479336Y-89198852D01*
X143463513Y-88985927D01*
X143462136Y-88976721D01*
X143406941Y-88732791D01*
X143404217Y-88723880D01*
X143313573Y-88490789D01*
X143309562Y-88482380D01*
X143185462Y-88265252D01*
X143180249Y-88257522D01*
X143144490Y-88212162D01*
X143132566Y-88203692D01*
X143121031Y-88210179D01*
X142104022Y-89227188D01*
X142096408Y-89241132D01*
X141366356Y-89241132D01*
X141367592Y-89238868D01*
X141367461Y-89237035D01*
X141363210Y-89230420D01*
X140342199Y-88209409D01*
X140328891Y-88202142D01*
X140318852Y-88209264D01*
X140309970Y-88219942D01*
X140304550Y-88227540D01*
X140174816Y-88441337D01*
X140170578Y-88449654D01*
X140073867Y-88680282D01*
X140070910Y-88689120D01*
X140009349Y-88931516D01*
X140007730Y-88940699D01*
X139982675Y-89189525D01*
X139982430Y-89198852D01*
X134508000Y-89198852D01*
X134508000Y-87837832D01*
X140694245Y-87837832D01*
X140698818Y-87847608D01*
X141719188Y-88867978D01*
X141733132Y-88875592D01*
X141734965Y-88875461D01*
X141741580Y-88871210D01*
X142761436Y-87851354D01*
X142767820Y-87839664D01*
X142766396Y-87837832D01*
X149294245Y-87837832D01*
X149298818Y-87847608D01*
X150319188Y-88867978D01*
X150333132Y-88875592D01*
X150334965Y-88875461D01*
X150341580Y-88871210D01*
X151361436Y-87851354D01*
X151367820Y-87839664D01*
X151358408Y-87827554D01*
X151224230Y-87734471D01*
X151216202Y-87729743D01*
X150991897Y-87619128D01*
X150983264Y-87615640D01*
X150745072Y-87539395D01*
X150736011Y-87537219D01*
X150489168Y-87497018D01*
X150479881Y-87496206D01*
X150229818Y-87492932D01*
X150220506Y-87493502D01*
X149972713Y-87527225D01*
X149963577Y-87529166D01*
X149723492Y-87599145D01*
X149714749Y-87602414D01*
X149487638Y-87707114D01*
X149479483Y-87711634D01*
X149303383Y-87827090D01*
X149294245Y-87837832D01*
X142766396Y-87837832D01*
X142758408Y-87827554D01*
X142624230Y-87734471D01*
X142616202Y-87729743D01*
X142391897Y-87619128D01*
X142383264Y-87615640D01*
X142145072Y-87539395D01*
X142136011Y-87537219D01*
X141889168Y-87497018D01*
X141879881Y-87496206D01*
X141629818Y-87492932D01*
X141620506Y-87493502D01*
X141372713Y-87527225D01*
X141363577Y-87529166D01*
X141123492Y-87599145D01*
X141114749Y-87602414D01*
X140887638Y-87707114D01*
X140879483Y-87711634D01*
X140703383Y-87827090D01*
X140694245Y-87837832D01*
X134508000Y-87837832D01*
X134508000Y-86745475D01*
X153424387Y-86745475D01*
X153443758Y-86966877D01*
X153445661Y-86977672D01*
X153503182Y-87192344D01*
X153506928Y-87202636D01*
X153600852Y-87404059D01*
X153606335Y-87413554D01*
X153646559Y-87471000D01*
X153657036Y-87479375D01*
X153670483Y-87472307D01*
X154389978Y-86752812D01*
X154396356Y-86741132D01*
X155126408Y-86741132D01*
X155126539Y-86742965D01*
X155130790Y-86749580D01*
X155854238Y-87473028D01*
X155866013Y-87479458D01*
X155878028Y-87470162D01*
X155917665Y-87413554D01*
X155923148Y-87404059D01*
X156017072Y-87202636D01*
X156020818Y-87192344D01*
X156078339Y-86977672D01*
X156080242Y-86966877D01*
X156099613Y-86745475D01*
X156099613Y-86734525D01*
X156080242Y-86513123D01*
X156078339Y-86502328D01*
X156020818Y-86287656D01*
X156017072Y-86277364D01*
X155923148Y-86075941D01*
X155917665Y-86066446D01*
X155877441Y-86009000D01*
X155866964Y-86000625D01*
X155853517Y-86007693D01*
X155134022Y-86727188D01*
X155126408Y-86741132D01*
X154396356Y-86741132D01*
X154397592Y-86738868D01*
X154397461Y-86737035D01*
X154393210Y-86730420D01*
X153669762Y-86006972D01*
X153657987Y-86000542D01*
X153645972Y-86009838D01*
X153606335Y-86066446D01*
X153600852Y-86075941D01*
X153506928Y-86277364D01*
X153503182Y-86287656D01*
X153445661Y-86502328D01*
X153443758Y-86513123D01*
X153424387Y-86734525D01*
X153424387Y-86745475D01*
X134508000Y-86745475D01*
X134508000Y-85613359D01*
X138698386Y-85613359D01*
X138707099Y-85624879D01*
X138795586Y-85689760D01*
X138803505Y-85694708D01*
X139019877Y-85808547D01*
X139028451Y-85812275D01*
X139259282Y-85892885D01*
X139268291Y-85895299D01*
X139508518Y-85940908D01*
X139517775Y-85941962D01*
X139762107Y-85951563D01*
X139771420Y-85951237D01*
X140014478Y-85924618D01*
X140023655Y-85922917D01*
X140260107Y-85860665D01*
X140268926Y-85857628D01*
X140493584Y-85761107D01*
X140501856Y-85756800D01*
X140709777Y-85628135D01*
X140711620Y-85626796D01*
X140719038Y-85615541D01*
X140717760Y-85613359D01*
X151348386Y-85613359D01*
X151357099Y-85624879D01*
X151445586Y-85689760D01*
X151453505Y-85694708D01*
X151669877Y-85808547D01*
X151678451Y-85812275D01*
X151909282Y-85892885D01*
X151918291Y-85895299D01*
X152158518Y-85940908D01*
X152167775Y-85941962D01*
X152412107Y-85951563D01*
X152421420Y-85951237D01*
X152664478Y-85924618D01*
X152673655Y-85922917D01*
X152910107Y-85860665D01*
X152918926Y-85857628D01*
X153143584Y-85761107D01*
X153151856Y-85756800D01*
X153348625Y-85635036D01*
X154022625Y-85635036D01*
X154029693Y-85648483D01*
X154749188Y-86367978D01*
X154763132Y-86375592D01*
X154764965Y-86375461D01*
X154771580Y-86371210D01*
X155495028Y-85647762D01*
X155501458Y-85635987D01*
X155492162Y-85623972D01*
X155435554Y-85584335D01*
X155426059Y-85578852D01*
X155224636Y-85484928D01*
X155214344Y-85481182D01*
X154999672Y-85423661D01*
X154988877Y-85421758D01*
X154767475Y-85402387D01*
X154756525Y-85402387D01*
X154535123Y-85421758D01*
X154524328Y-85423661D01*
X154309656Y-85481182D01*
X154299364Y-85484928D01*
X154097941Y-85578852D01*
X154088446Y-85584335D01*
X154031000Y-85624559D01*
X154022625Y-85635036D01*
X153348625Y-85635036D01*
X153359777Y-85628135D01*
X153361620Y-85626796D01*
X153369038Y-85615541D01*
X153362974Y-85605184D01*
X152369812Y-84612022D01*
X152355868Y-84604408D01*
X152354035Y-84604539D01*
X152347420Y-84608790D01*
X151355044Y-85601166D01*
X151348386Y-85613359D01*
X140717760Y-85613359D01*
X140712974Y-85605184D01*
X139719812Y-84612022D01*
X139705868Y-84604408D01*
X139704035Y-84604539D01*
X139697420Y-84608790D01*
X138705044Y-85601166D01*
X138698386Y-85613359D01*
X134508000Y-85613359D01*
X134508000Y-84199835D01*
X137995022Y-84199835D01*
X138006754Y-84444064D01*
X138007891Y-84453324D01*
X138055593Y-84693143D01*
X138058082Y-84702118D01*
X138140708Y-84932250D01*
X138144505Y-84940778D01*
X138260234Y-85156160D01*
X138265245Y-85164027D01*
X138322173Y-85240263D01*
X138333431Y-85248712D01*
X138345850Y-85241940D01*
X139334978Y-84252812D01*
X139341356Y-84241132D01*
X140071408Y-84241132D01*
X140071539Y-84242965D01*
X140075790Y-84249580D01*
X141070732Y-85244522D01*
X141083112Y-85251282D01*
X141091453Y-85245038D01*
X141209700Y-85061202D01*
X141214147Y-85053011D01*
X141314572Y-84830076D01*
X141317767Y-84821298D01*
X141384135Y-84585973D01*
X141385993Y-84576844D01*
X141417044Y-84332770D01*
X141417525Y-84326483D01*
X141419706Y-84243160D01*
X141419555Y-84236851D01*
X141416804Y-84199835D01*
X150645022Y-84199835D01*
X150656754Y-84444064D01*
X150657891Y-84453324D01*
X150705593Y-84693143D01*
X150708082Y-84702118D01*
X150790708Y-84932250D01*
X150794505Y-84940778D01*
X150910234Y-85156160D01*
X150915245Y-85164027D01*
X150972173Y-85240263D01*
X150983431Y-85248712D01*
X150995850Y-85241940D01*
X151984978Y-84252812D01*
X151991356Y-84241132D01*
X152721408Y-84241132D01*
X152721539Y-84242965D01*
X152725790Y-84249580D01*
X153720732Y-85244522D01*
X153733112Y-85251282D01*
X153741453Y-85245038D01*
X153859700Y-85061202D01*
X153864147Y-85053011D01*
X153964572Y-84830076D01*
X153967767Y-84821298D01*
X154034135Y-84585973D01*
X154035993Y-84576844D01*
X154067044Y-84332770D01*
X154067525Y-84326483D01*
X154069706Y-84243160D01*
X154069555Y-84236851D01*
X154051321Y-83991486D01*
X154049944Y-83982280D01*
X153995979Y-83743786D01*
X153993255Y-83734875D01*
X153904633Y-83506983D01*
X153900619Y-83498567D01*
X153779284Y-83286276D01*
X153774074Y-83278553D01*
X153742787Y-83238865D01*
X153730863Y-83230395D01*
X153719328Y-83236882D01*
X152729022Y-84227188D01*
X152721408Y-84241132D01*
X151991356Y-84241132D01*
X151992592Y-84238868D01*
X151992461Y-84237035D01*
X151988210Y-84230420D01*
X150993828Y-83236038D01*
X150980520Y-83228771D01*
X150970481Y-83235893D01*
X150965581Y-83241784D01*
X150960168Y-83249373D01*
X150833322Y-83458409D01*
X150829084Y-83466726D01*
X150734529Y-83692214D01*
X150731572Y-83701052D01*
X150671384Y-83938042D01*
X150669763Y-83947232D01*
X150645267Y-84190510D01*
X150645022Y-84199835D01*
X141416804Y-84199835D01*
X141401321Y-83991486D01*
X141399944Y-83982280D01*
X141345979Y-83743786D01*
X141343255Y-83734875D01*
X141254633Y-83506983D01*
X141250619Y-83498567D01*
X141129284Y-83286276D01*
X141124074Y-83278553D01*
X141092787Y-83238865D01*
X141080863Y-83230395D01*
X141069328Y-83236882D01*
X140079022Y-84227188D01*
X140071408Y-84241132D01*
X139341356Y-84241132D01*
X139342592Y-84238868D01*
X139342461Y-84237035D01*
X139338210Y-84230420D01*
X138343828Y-83236038D01*
X138330520Y-83228771D01*
X138320481Y-83235893D01*
X138315581Y-83241784D01*
X138310168Y-83249373D01*
X138183322Y-83458409D01*
X138179084Y-83466726D01*
X138084529Y-83692214D01*
X138081572Y-83701052D01*
X138021384Y-83938042D01*
X138019763Y-83947232D01*
X137995267Y-84190510D01*
X137995022Y-84199835D01*
X134508000Y-84199835D01*
X134508000Y-82864917D01*
X138696330Y-82864917D01*
X138700903Y-82874693D01*
X139694188Y-83867978D01*
X139708132Y-83875592D01*
X139709965Y-83875461D01*
X139716580Y-83871210D01*
X140709488Y-82878302D01*
X140715872Y-82866612D01*
X140714555Y-82864917D01*
X151346330Y-82864917D01*
X151350903Y-82874693D01*
X152344188Y-83867978D01*
X152358132Y-83875592D01*
X152359965Y-83875461D01*
X152366580Y-83871210D01*
X153359488Y-82878302D01*
X153365872Y-82866612D01*
X153356460Y-82854502D01*
X153230144Y-82766873D01*
X153222116Y-82762145D01*
X153002810Y-82653995D01*
X152994177Y-82650507D01*
X152761288Y-82575958D01*
X152752238Y-82573785D01*
X152510891Y-82534480D01*
X152501602Y-82533668D01*
X152257114Y-82530467D01*
X152247803Y-82531037D01*
X152005522Y-82564010D01*
X151996403Y-82565948D01*
X151761668Y-82634367D01*
X151752915Y-82637639D01*
X151530869Y-82740004D01*
X151522714Y-82744524D01*
X151355468Y-82854175D01*
X151346330Y-82864917D01*
X140714555Y-82864917D01*
X140706460Y-82854502D01*
X140580144Y-82766873D01*
X140572116Y-82762145D01*
X140352810Y-82653995D01*
X140344177Y-82650507D01*
X140111288Y-82575958D01*
X140102238Y-82573785D01*
X139860891Y-82534480D01*
X139851602Y-82533668D01*
X139607114Y-82530467D01*
X139597803Y-82531037D01*
X139355522Y-82564010D01*
X139346403Y-82565948D01*
X139111668Y-82634367D01*
X139102915Y-82637639D01*
X138880869Y-82740004D01*
X138872714Y-82744524D01*
X138705468Y-82854175D01*
X138696330Y-82864917D01*
X134508000Y-82864917D01*
X134508000Y-81614013D01*
X142792542Y-81614013D01*
X142801838Y-81626028D01*
X142858446Y-81665665D01*
X142867941Y-81671148D01*
X143069364Y-81765072D01*
X143079656Y-81768818D01*
X143294328Y-81826339D01*
X143305123Y-81828242D01*
X143526525Y-81847613D01*
X143537475Y-81847613D01*
X143758877Y-81828242D01*
X143769672Y-81826339D01*
X143984344Y-81768818D01*
X143994636Y-81765072D01*
X144196059Y-81671148D01*
X144205554Y-81665665D01*
X144263000Y-81625441D01*
X144271375Y-81614964D01*
X144264307Y-81601517D01*
X143544812Y-80882022D01*
X143530868Y-80874408D01*
X143529035Y-80874539D01*
X143522420Y-80878790D01*
X142798972Y-81602238D01*
X142792542Y-81614013D01*
X134508000Y-81614013D01*
X134508000Y-80515475D01*
X142194387Y-80515475D01*
X142213758Y-80736877D01*
X142215661Y-80747672D01*
X142273182Y-80962344D01*
X142276928Y-80972636D01*
X142370852Y-81174059D01*
X142376335Y-81183554D01*
X142416559Y-81241000D01*
X142427036Y-81249375D01*
X142440483Y-81242307D01*
X143159978Y-80522812D01*
X143166356Y-80511132D01*
X143896408Y-80511132D01*
X143896539Y-80512965D01*
X143900790Y-80519580D01*
X144624238Y-81243028D01*
X144636013Y-81249458D01*
X144648028Y-81240162D01*
X144678482Y-81196669D01*
X144733939Y-81152341D01*
X144804558Y-81145032D01*
X144867919Y-81177063D01*
X144884908Y-81196669D01*
X145006578Y-81370432D01*
X145171568Y-81535422D01*
X145176076Y-81538579D01*
X145176079Y-81538581D01*
X145358194Y-81666099D01*
X145362703Y-81669256D01*
X145367685Y-81671579D01*
X145367690Y-81671582D01*
X145568180Y-81765072D01*
X145574174Y-81767867D01*
X145579482Y-81769289D01*
X145579484Y-81769290D01*
X145794241Y-81826834D01*
X145794243Y-81826834D01*
X145799556Y-81828258D01*
X146032000Y-81848594D01*
X146264444Y-81828258D01*
X146269757Y-81826834D01*
X146269759Y-81826834D01*
X146484516Y-81769290D01*
X146484518Y-81769289D01*
X146489826Y-81767867D01*
X146495820Y-81765072D01*
X146696310Y-81671582D01*
X146696315Y-81671579D01*
X146701297Y-81669256D01*
X146705806Y-81666099D01*
X146887921Y-81538581D01*
X146887924Y-81538579D01*
X146892432Y-81535422D01*
X147057422Y-81370432D01*
X147178787Y-81197105D01*
X147234244Y-81152777D01*
X147304863Y-81145468D01*
X147368224Y-81177499D01*
X147385213Y-81197105D01*
X147506578Y-81370432D01*
X147671568Y-81535422D01*
X147676076Y-81538579D01*
X147676079Y-81538581D01*
X147858194Y-81666099D01*
X147862703Y-81669256D01*
X147867685Y-81671579D01*
X147867690Y-81671582D01*
X148068180Y-81765072D01*
X148074174Y-81767867D01*
X148079482Y-81769289D01*
X148079484Y-81769290D01*
X148294241Y-81826834D01*
X148294243Y-81826834D01*
X148299556Y-81828258D01*
X148532000Y-81848594D01*
X148764444Y-81828258D01*
X148769757Y-81826834D01*
X148769759Y-81826834D01*
X148984516Y-81769290D01*
X148984518Y-81769289D01*
X148989826Y-81767867D01*
X148995820Y-81765072D01*
X149196310Y-81671582D01*
X149196315Y-81671579D01*
X149201297Y-81669256D01*
X149205806Y-81666099D01*
X149387921Y-81538581D01*
X149387924Y-81538579D01*
X149392432Y-81535422D01*
X149557422Y-81370432D01*
X149691256Y-81179297D01*
X149693579Y-81174315D01*
X149693582Y-81174310D01*
X149787544Y-80972808D01*
X149787545Y-80972806D01*
X149789867Y-80967826D01*
X149850258Y-80742444D01*
X149870594Y-80510000D01*
X149850258Y-80277556D01*
X149789867Y-80052174D01*
X149782000Y-80035303D01*
X149693582Y-79845690D01*
X149693579Y-79845685D01*
X149691256Y-79840703D01*
X149557422Y-79649568D01*
X149392432Y-79484578D01*
X149387924Y-79481421D01*
X149387921Y-79481419D01*
X149205806Y-79353901D01*
X149205804Y-79353900D01*
X149201297Y-79350744D01*
X149196315Y-79348421D01*
X149196310Y-79348418D01*
X148994808Y-79254456D01*
X148994806Y-79254455D01*
X148989826Y-79252133D01*
X148984518Y-79250711D01*
X148984516Y-79250710D01*
X148769759Y-79193166D01*
X148769757Y-79193166D01*
X148764444Y-79191742D01*
X148532000Y-79171406D01*
X148299556Y-79191742D01*
X148294243Y-79193166D01*
X148294241Y-79193166D01*
X148079484Y-79250710D01*
X148079482Y-79250711D01*
X148074174Y-79252133D01*
X148069194Y-79254455D01*
X148069192Y-79254456D01*
X147867690Y-79348418D01*
X147867685Y-79348421D01*
X147862703Y-79350744D01*
X147858196Y-79353900D01*
X147858194Y-79353901D01*
X147676079Y-79481419D01*
X147676076Y-79481421D01*
X147671568Y-79484578D01*
X147506578Y-79649568D01*
X147503421Y-79654076D01*
X147503419Y-79654079D01*
X147385213Y-79822895D01*
X147329756Y-79867223D01*
X147259137Y-79874532D01*
X147195776Y-79842501D01*
X147178787Y-79822895D01*
X147060581Y-79654079D01*
X147060579Y-79654076D01*
X147057422Y-79649568D01*
X146892432Y-79484578D01*
X146887924Y-79481421D01*
X146887921Y-79481419D01*
X146705806Y-79353901D01*
X146705804Y-79353900D01*
X146701297Y-79350744D01*
X146696315Y-79348421D01*
X146696310Y-79348418D01*
X146494808Y-79254456D01*
X146494806Y-79254455D01*
X146489826Y-79252133D01*
X146484518Y-79250711D01*
X146484516Y-79250710D01*
X146269759Y-79193166D01*
X146269757Y-79193166D01*
X146264444Y-79191742D01*
X146032000Y-79171406D01*
X145799556Y-79191742D01*
X145794243Y-79193166D01*
X145794241Y-79193166D01*
X145579484Y-79250710D01*
X145579482Y-79250711D01*
X145574174Y-79252133D01*
X145569194Y-79254455D01*
X145569192Y-79254456D01*
X145367690Y-79348418D01*
X145367685Y-79348421D01*
X145362703Y-79350744D01*
X145358196Y-79353900D01*
X145358194Y-79353901D01*
X145176079Y-79481419D01*
X145176076Y-79481421D01*
X145171568Y-79484578D01*
X145006578Y-79649568D01*
X145003421Y-79654076D01*
X145003419Y-79654079D01*
X144884908Y-79823331D01*
X144829451Y-79867659D01*
X144758832Y-79874968D01*
X144695471Y-79842937D01*
X144678482Y-79823331D01*
X144647441Y-79779000D01*
X144636964Y-79770625D01*
X144623517Y-79777693D01*
X143904022Y-80497188D01*
X143896408Y-80511132D01*
X143166356Y-80511132D01*
X143167592Y-80508868D01*
X143167461Y-80507035D01*
X143163210Y-80500420D01*
X142439762Y-79776972D01*
X142427987Y-79770542D01*
X142415972Y-79779838D01*
X142376335Y-79836446D01*
X142370852Y-79845941D01*
X142276928Y-80047364D01*
X142273182Y-80057656D01*
X142215661Y-80272328D01*
X142213758Y-80283123D01*
X142194387Y-80504525D01*
X142194387Y-80515475D01*
X134508000Y-80515475D01*
X134508000Y-79405036D01*
X142792625Y-79405036D01*
X142799693Y-79418483D01*
X143519188Y-80137978D01*
X143533132Y-80145592D01*
X143534965Y-80145461D01*
X143541580Y-80141210D01*
X144265028Y-79417762D01*
X144271458Y-79405987D01*
X144262162Y-79393972D01*
X144205554Y-79354335D01*
X144196059Y-79348852D01*
X143994636Y-79254928D01*
X143984344Y-79251182D01*
X143769672Y-79193661D01*
X143758877Y-79191758D01*
X143537475Y-79172387D01*
X143526525Y-79172387D01*
X143305123Y-79191758D01*
X143294328Y-79193661D01*
X143079656Y-79251182D01*
X143069364Y-79254928D01*
X142867941Y-79348852D01*
X142858446Y-79354335D01*
X142801000Y-79394559D01*
X142792625Y-79405036D01*
X134508000Y-79405036D01*
X134508000Y-76816470D01*
X134528002Y-76748349D01*
X134581658Y-76701856D01*
X134651932Y-76691752D01*
X134716512Y-76721246D01*
X134754896Y-76780972D01*
X134759521Y-76805488D01*
X134763091Y-76846292D01*
X134764001Y-76850364D01*
X134764002Y-76850369D01*
X134827628Y-77135016D01*
X134828540Y-77139095D01*
X134932140Y-77420671D01*
X134934084Y-77424359D01*
X134934088Y-77424367D01*
X135030805Y-77607807D01*
X135072069Y-77686071D01*
X135245871Y-77930633D01*
X135450490Y-78150061D01*
X135682333Y-78340498D01*
X135937325Y-78498600D01*
X136210988Y-78621589D01*
X136385368Y-78673574D01*
X136494514Y-78706112D01*
X136494516Y-78706112D01*
X136498513Y-78707304D01*
X136502633Y-78707957D01*
X136502635Y-78707957D01*
X136621509Y-78726785D01*
X136794848Y-78754239D01*
X136837577Y-78756179D01*
X136887262Y-78758436D01*
X136887281Y-78758436D01*
X136888681Y-78758500D01*
X137076107Y-78758500D01*
X137299370Y-78743671D01*
X137303464Y-78742846D01*
X137303468Y-78742845D01*
X137444513Y-78714405D01*
X137593480Y-78684368D01*
X137877163Y-78586688D01*
X137880896Y-78584819D01*
X137880900Y-78584817D01*
X138141691Y-78454222D01*
X138141693Y-78454221D01*
X138145435Y-78452347D01*
X138393584Y-78283706D01*
X138617248Y-78083726D01*
X138619966Y-78080555D01*
X138809779Y-77859097D01*
X138809782Y-77859093D01*
X138812499Y-77855923D01*
X138814773Y-77852421D01*
X138814777Y-77852416D01*
X138973628Y-77607807D01*
X138973631Y-77607802D01*
X138975907Y-77604297D01*
X139104600Y-77333270D01*
X139196318Y-77047604D01*
X139237905Y-76816470D01*
X139248709Y-76756425D01*
X139248710Y-76756420D01*
X139249448Y-76752316D01*
X139250146Y-76736965D01*
X139262870Y-76456766D01*
X139262870Y-76456760D01*
X139263059Y-76452596D01*
X139236909Y-76153708D01*
X139192832Y-75956515D01*
X139172372Y-75864984D01*
X139172371Y-75864981D01*
X139171460Y-75860905D01*
X139067860Y-75579329D01*
X139065916Y-75575641D01*
X139065912Y-75575633D01*
X138929884Y-75317633D01*
X138929883Y-75317632D01*
X138927931Y-75313929D01*
X138754129Y-75069367D01*
X138549510Y-74849939D01*
X138317667Y-74659502D01*
X138062675Y-74501400D01*
X137789012Y-74378411D01*
X137575650Y-74314805D01*
X137505486Y-74293888D01*
X137505484Y-74293888D01*
X137501487Y-74292696D01*
X137497367Y-74292043D01*
X137497365Y-74292043D01*
X137285261Y-74258449D01*
X137221108Y-74228036D01*
X137183581Y-74167768D01*
X137184595Y-74096779D01*
X137223828Y-74037607D01*
X137288823Y-74009039D01*
X137304972Y-74008000D01*
X156669848Y-74008000D01*
X156737969Y-74028002D01*
G37*
%TD.AperFunction*%
%TA.AperFunction,Conductor*%
G36*
X154843849Y-103456221D02*
G01*
X154900685Y-103498768D01*
X154925496Y-103565288D01*
X154913637Y-103628323D01*
X154895400Y-103666730D01*
X154894121Y-103670713D01*
X154894120Y-103670716D01*
X154877572Y-103722256D01*
X154803682Y-103952396D01*
X154802941Y-103956515D01*
X154751331Y-104243357D01*
X154750552Y-104247684D01*
X154750363Y-104251851D01*
X154750362Y-104251858D01*
X154737357Y-104538246D01*
X154736941Y-104547404D01*
X154737304Y-104551552D01*
X154737304Y-104551556D01*
X154745603Y-104646411D01*
X154763091Y-104846292D01*
X154764001Y-104850364D01*
X154764002Y-104850369D01*
X154811017Y-105060702D01*
X154828540Y-105139095D01*
X154932140Y-105420671D01*
X154934084Y-105424359D01*
X154934088Y-105424367D01*
X155030805Y-105607807D01*
X155072069Y-105686071D01*
X155245871Y-105930633D01*
X155450490Y-106150061D01*
X155682333Y-106340498D01*
X155937325Y-106498600D01*
X156210988Y-106621589D01*
X156366308Y-106667892D01*
X156494514Y-106706112D01*
X156494516Y-106706112D01*
X156498513Y-106707304D01*
X156502633Y-106707957D01*
X156502635Y-106707957D01*
X156714739Y-106741551D01*
X156778892Y-106771964D01*
X156816419Y-106832232D01*
X156815405Y-106903221D01*
X156776172Y-106962393D01*
X156711177Y-106990961D01*
X156695028Y-106992000D01*
X153293725Y-106992000D01*
X153225604Y-106971998D01*
X153179111Y-106918342D01*
X153169007Y-106848068D01*
X153198501Y-106783488D01*
X153218160Y-106765174D01*
X153280724Y-106718285D01*
X153293285Y-106705724D01*
X153369786Y-106603649D01*
X153378324Y-106588054D01*
X153423478Y-106467606D01*
X153427106Y-106452347D01*
X153432631Y-106401486D01*
X153433000Y-106394672D01*
X153433000Y-105772115D01*
X153428525Y-105756876D01*
X153427135Y-105755671D01*
X153419452Y-105754000D01*
X151947000Y-105754000D01*
X151878879Y-105733998D01*
X151832386Y-105680342D01*
X151821000Y-105628000D01*
X151821000Y-105227885D01*
X152329000Y-105227885D01*
X152333475Y-105243124D01*
X152334865Y-105244329D01*
X152342548Y-105246000D01*
X153414884Y-105246000D01*
X153430123Y-105241525D01*
X153431328Y-105240135D01*
X153432999Y-105232452D01*
X153432999Y-104605331D01*
X153432629Y-104598510D01*
X153427105Y-104547648D01*
X153423479Y-104532396D01*
X153378324Y-104411946D01*
X153369786Y-104396351D01*
X153293285Y-104294276D01*
X153280724Y-104281715D01*
X153178649Y-104205214D01*
X153163054Y-104196676D01*
X153042606Y-104151522D01*
X153027351Y-104147895D01*
X152976486Y-104142369D01*
X152969672Y-104142000D01*
X152347115Y-104142000D01*
X152331876Y-104146475D01*
X152330671Y-104147865D01*
X152329000Y-104155548D01*
X152329000Y-105227885D01*
X151821000Y-105227885D01*
X151821000Y-104160116D01*
X151816525Y-104144877D01*
X151815135Y-104143672D01*
X151807452Y-104142001D01*
X151558093Y-104142001D01*
X151489972Y-104121999D01*
X151443479Y-104068343D01*
X151433375Y-103998069D01*
X151462869Y-103933489D01*
X151468998Y-103926906D01*
X151625499Y-103770405D01*
X151687811Y-103736379D01*
X151714594Y-103733500D01*
X154121233Y-103733500D01*
X154132416Y-103734027D01*
X154139909Y-103735702D01*
X154147835Y-103735453D01*
X154147836Y-103735453D01*
X154207986Y-103733562D01*
X154211945Y-103733500D01*
X154239856Y-103733500D01*
X154243791Y-103733003D01*
X154243856Y-103732995D01*
X154255693Y-103732062D01*
X154287951Y-103731048D01*
X154291970Y-103730922D01*
X154299889Y-103730673D01*
X154319343Y-103725021D01*
X154338700Y-103721013D01*
X154350930Y-103719468D01*
X154350931Y-103719468D01*
X154358797Y-103718474D01*
X154366168Y-103715555D01*
X154366170Y-103715555D01*
X154399912Y-103702196D01*
X154411142Y-103698351D01*
X154445983Y-103688229D01*
X154445984Y-103688229D01*
X154453593Y-103686018D01*
X154460412Y-103681985D01*
X154460417Y-103681983D01*
X154471028Y-103675707D01*
X154488776Y-103667012D01*
X154507617Y-103659552D01*
X154543387Y-103633564D01*
X154553307Y-103627048D01*
X154584535Y-103608580D01*
X154584538Y-103608578D01*
X154591362Y-103604542D01*
X154605683Y-103590221D01*
X154620717Y-103577380D01*
X154637107Y-103565472D01*
X154665298Y-103531395D01*
X154673288Y-103522616D01*
X154710722Y-103485182D01*
X154773034Y-103451156D01*
X154843849Y-103456221D01*
G37*
%TD.AperFunction*%
%TD*%
M02*
